<svg width="9646" height="9646" viewBox="0 0 9646 9646" fill="none" xmlns="http://www.w3.org/2000/svg">
<mask id="mask0_17_194" style="mask-type:luminance" maskUnits="userSpaceOnUse" x="847" y="847" width="7952" height="7952">
<path d="M8798.5 847.499H847.499V8798.5H8798.5V847.499Z" fill="white"/>
</mask>
<g mask="url(#mask0_17_194)">
<path d="M8732.16 3863H3950V8598.79V8645.17C4107.78 6099.07 6160.82 4017.08 8710.14 3871.35L8732.16 3863Z" fill="#656565"/>
<mask id="mask1_17_194" style="mask-type:alpha" maskUnits="userSpaceOnUse" x="1167" y="1056" width="7719" height="2809">
<path d="M8885.59 1056.51H1167.53V3864.52H8885.59V1056.51Z" fill="#D9D9D9"/>
</mask>
<g mask="url(#mask1_17_194)">
<path d="M8885.59 4939.47C8885.59 4432.69 8785.75 3930.84 8591.82 3462.68C8397.9 2994.48 8113.65 2569.06 7755.3 2210.71C7396.94 1852.37 6971.5 1568.12 6503.34 1374.19C6035.13 1180.25 5533.33 1080.43 5026.55 1080.43C4519.77 1080.43 4017.96 1180.25 3549.77 1374.19C3081.56 1568.12 2656.15 1852.37 2297.8 2210.71C1939.48 2569.06 1655.21 2994.48 1461.28 3462.68C1267.34 3930.84 1167.53 4432.69 1167.53 4939.47H5026.55H8885.59Z" fill="#767676"/>
</g>
<mask id="mask2_17_194" style="mask-type:alpha" maskUnits="userSpaceOnUse" x="1143" y="1080" width="2809" height="7719">
<path d="M1143 1080V8798.02H3951.01V1080H1143Z" fill="#D9D9D9"/>
</mask>
<g mask="url(#mask2_17_194)">
<path d="M5025.96 1080C4519.18 1080 4017.36 1179.82 3549.18 1373.76C3080.97 1567.69 2655.55 1851.94 2297.21 2210.28C1938.88 2568.63 1654.62 2994.05 1460.68 3462.25C1266.75 3930.41 1166.93 4432.26 1166.93 4939.04C1166.93 5445.81 1266.75 5947.61 1460.68 6415.82C1654.62 6883.98 1938.88 7309.42 2297.21 7667.78C2655.55 8026.14 3080.97 8310.38 3549.18 8504.31C4017.36 8698.23 4519.18 8798.02 5025.96 8798.02V4939.04V1080Z" fill="#929292"/>
</g>
<path d="M5027.38 2847.27C5238.2 2847.27 5409.08 2676.37 5409.08 2465.56C5409.08 2254.75 5238.2 2083.85 5027.38 2083.85C4816.57 2083.85 4645.64 2254.75 4645.64 2465.56C4645.64 2676.37 4816.57 2847.27 5027.38 2847.27Z" fill="white"/>
<path d="M5327.94 2224.97C5388.28 2301.2 5417.67 2397.32 5410.35 2494.24C5403.02 2591.16 5359.47 2681.77 5288.39 2748.04C5217.3 2814.34 5123.91 2851.43 5026.7 2851.97C4929.49 2852.51 4835.66 2816.44 4763.84 2750.94C4692.02 2685.44 4647.49 2595.3 4639.1 2498.47C4630.7 2401.64 4659.07 2305.2 4718.58 2228.32C4778 2151.44 4864.27 2099.76 4960.11 2083.58C5055.94 2067.38 5154.37 2087.87 5235.81 2140.91L5024.55 2465.06L5327.94 2224.97Z" fill="#656565"/>
</g>
</svg>
