<svg width="864" height="257" viewBox="0 0 864 257" fill="none" xmlns="http://www.w3.org/2000/svg">
<path d="M266.764 84.2876H274.751V147.575C274.723 153.288 273.698 158.058 271.676 161.886C269.654 165.685 266.863 168.528 263.304 170.413C259.744 172.298 255.658 173.241 251.045 173.241C246.517 173.241 242.474 172.398 238.914 170.713C235.355 169.028 232.55 166.657 230.5 163.6C228.478 160.544 227.467 156.959 227.467 152.845H235.327C235.327 155.445 236.01 157.744 237.377 159.744C238.744 161.715 240.609 163.257 242.972 164.371C245.364 165.485 248.055 166.042 251.045 166.042C254.149 166.042 256.868 165.385 259.203 164.071C261.567 162.757 263.418 160.743 264.756 158.03C266.095 155.288 266.764 151.802 266.764 147.575V84.2876ZM290.478 172.041V106.226H298.124V172.041H290.478ZM294.365 94.914C292.799 94.914 291.461 94.3856 290.35 93.3286C289.24 92.2432 288.684 90.9434 288.684 89.4295C288.684 87.9155 289.24 86.63 290.35 85.5731C291.461 84.4876 292.799 83.9448 294.365 83.9448C295.931 83.9448 297.27 84.4876 298.38 85.5731C299.491 86.63 300.046 87.9155 300.046 89.4295C300.046 90.9434 299.491 92.2432 298.38 93.3286C297.27 94.3856 295.931 94.914 294.365 94.914ZM319.82 130.907V172.041H312.217V84.2876H319.82V116.553H320.504C322.041 113.153 324.419 110.439 327.637 108.411C330.883 106.383 334.984 105.369 339.938 105.369C344.38 105.369 348.282 106.283 351.641 108.111C355.002 109.94 357.622 112.639 359.501 116.21C361.381 119.78 362.32 124.18 362.32 129.407V172.041H354.675V129.878C354.675 124.451 353.165 120.18 350.146 117.067C347.157 113.925 343.113 112.353 338.016 112.353C334.514 112.353 331.396 113.096 328.662 114.582C325.928 116.067 323.764 118.209 322.169 121.009C320.603 123.78 319.82 127.079 319.82 130.907ZM401.827 173.412C396.161 173.412 391.15 171.97 386.792 169.085C382.465 166.2 379.076 162.215 376.627 157.13C374.178 152.017 372.954 146.118 372.954 139.434C372.954 132.692 374.178 126.765 376.627 121.651C379.076 116.51 382.465 112.511 386.792 109.654C391.15 106.769 396.161 105.326 401.827 105.326C407.495 105.326 412.492 106.769 416.82 109.654C421.148 112.539 424.538 116.538 426.987 121.651C429.463 126.765 430.702 132.692 430.702 139.434C430.702 146.118 429.478 152.017 427.029 157.13C424.58 162.215 421.177 166.2 416.82 169.085C412.492 171.97 407.495 173.412 401.827 173.412ZM401.827 166.428C406.384 166.428 410.242 165.2 413.403 162.743C416.564 160.286 418.955 157.016 420.579 152.931C422.231 148.846 423.057 144.347 423.057 139.434C423.057 134.52 422.231 130.007 420.579 125.894C418.955 121.78 416.564 118.481 413.403 115.995C410.242 113.51 406.384 112.268 401.827 112.268C397.3 112.268 393.441 113.51 390.253 115.995C387.092 118.481 384.685 121.78 383.034 125.894C381.411 130.007 380.599 134.52 380.599 139.434C380.599 144.347 381.411 148.846 383.034 152.931C384.685 157.016 387.092 160.286 390.253 162.743C393.414 165.2 397.272 166.428 401.827 166.428ZM466.878 173.412C461.211 173.412 456.201 171.97 451.843 169.085C447.515 166.2 444.127 162.215 441.678 157.13C439.229 152.017 438.004 146.118 438.004 139.434C438.004 132.692 439.229 126.765 441.678 121.651C444.127 116.51 447.515 112.511 451.843 109.654C456.201 106.769 461.211 105.326 466.878 105.326C472.546 105.326 477.542 106.769 481.871 109.654C486.199 112.539 489.588 116.538 492.037 121.651C494.514 126.765 495.753 132.692 495.753 139.434C495.753 146.118 494.528 152.017 492.079 157.13C489.63 162.215 486.228 166.2 481.871 169.085C477.542 171.97 472.546 173.412 466.878 173.412ZM466.878 166.428C471.434 166.428 475.293 165.2 478.454 162.743C481.615 160.286 484.006 157.016 485.63 152.931C487.281 148.846 488.108 144.347 488.108 139.434C488.108 134.52 487.281 130.007 485.63 125.894C484.006 121.78 481.615 118.481 478.454 115.995C475.293 113.51 471.434 112.268 466.878 112.268C462.351 112.268 458.492 113.51 455.303 115.995C452.142 118.481 449.737 121.78 448.084 125.894C446.461 130.007 445.649 134.52 445.649 139.434C445.649 144.347 446.461 148.846 448.084 152.931C449.737 157.016 452.142 160.286 455.303 162.743C458.464 165.2 462.323 166.428 466.878 166.428ZM514.032 130.907V172.041H506.429V106.226H513.819V116.553H514.502C516.039 113.182 518.432 110.482 521.678 108.454C524.952 106.397 528.996 105.369 533.808 105.369C538.221 105.369 542.095 106.297 545.426 108.154C548.787 109.982 551.392 112.682 553.243 116.253C555.122 119.823 556.062 124.208 556.062 129.407V172.041H548.459V129.878C548.459 124.479 546.95 120.209 543.931 117.067C540.941 113.925 536.926 112.353 531.886 112.353C528.44 112.353 525.379 113.096 522.703 114.582C520.027 116.067 517.905 118.209 516.339 121.009C514.8 123.78 514.032 127.079 514.032 130.907ZM601.357 172.041V106.226H618.699V117.838H619.468C620.835 113.982 623.113 110.939 626.302 108.711C629.492 106.483 633.307 105.369 637.749 105.369C642.249 105.369 646.079 106.497 649.24 108.754C652.4 110.982 654.507 114.01 655.56 117.838H656.245C657.582 114.067 660.004 111.054 663.505 108.797C667.037 106.512 671.208 105.369 676.02 105.369C682.143 105.369 687.111 107.326 690.928 111.239C694.772 115.124 696.694 120.637 696.694 127.779V172.041H678.54V131.378C678.54 127.722 677.573 124.979 675.637 123.151C673.7 121.323 671.28 120.409 668.375 120.409C665.072 120.409 662.495 121.466 660.644 123.58C658.792 125.665 657.867 128.421 657.867 131.849V172.041H640.227V130.992C640.227 127.764 639.301 125.194 637.451 123.28C635.628 121.366 633.222 120.409 630.232 120.409C628.21 120.409 626.388 120.923 624.765 121.951C623.17 122.951 621.902 124.365 620.963 126.193C620.023 127.993 619.553 130.107 619.553 132.535V172.041H601.357ZM740.966 173.327C734.217 173.327 728.409 171.956 723.54 169.213C718.698 166.442 714.969 162.529 712.349 157.473C709.729 152.388 708.419 146.375 708.419 139.434C708.419 132.664 709.729 126.722 712.349 121.609C714.969 116.495 718.656 112.511 723.411 109.654C728.195 106.797 733.805 105.369 740.241 105.369C744.569 105.369 748.598 106.069 752.328 107.469C756.087 108.84 759.362 110.911 762.152 113.682C764.972 116.453 767.165 119.938 768.731 124.137C770.297 128.307 771.08 133.192 771.08 138.791V143.804H715.681V132.492H753.952C753.952 129.864 753.382 127.536 752.242 125.508C751.103 123.48 749.523 121.894 747.502 120.752C745.508 119.581 743.188 118.995 740.539 118.995C737.777 118.995 735.329 119.638 733.192 120.923C731.085 122.18 729.434 123.88 728.238 126.022C727.042 128.136 726.43 130.493 726.401 133.092V143.847C726.401 147.103 726.999 149.917 728.195 152.288C729.419 154.659 731.143 156.487 733.363 157.773C735.585 159.058 738.219 159.701 741.266 159.701C743.288 159.701 745.139 159.415 746.818 158.844C748.498 158.273 749.937 157.416 751.132 156.273C752.328 155.13 753.24 153.731 753.866 152.074L770.695 153.188C769.841 157.244 768.09 160.786 765.441 163.814C762.821 166.814 759.433 169.156 755.276 170.841C751.147 172.498 746.376 173.327 740.966 173.327Z" fill="black"/>
<path d="M577.033 172.856C574.697 172.856 572.689 172.027 571.01 170.37C569.33 168.685 568.489 166.657 568.489 164.286C568.489 161.944 569.33 159.944 571.01 158.287C572.689 156.602 574.697 155.759 577.033 155.759C579.367 155.759 581.375 156.602 583.055 158.287C584.736 159.944 585.575 161.944 585.575 164.286C585.575 165.857 585.177 167.3 584.38 168.614C583.61 169.899 582.585 170.927 581.304 171.699C580.022 172.47 578.599 172.856 577.033 172.856Z" fill="#8E9AFF"/>
<circle cx="113.5" cy="130.5" r="65.5" stroke="black" stroke-width="10"/>
<mask id="mask0_268_6" style="mask-type:alpha" maskUnits="userSpaceOnUse" x="51" y="68" width="125" height="125">
<circle cx="113.5" cy="130.5" r="57.1568" fill="#D9D9D9" stroke="black" stroke-width="10"/>
</mask>
<g mask="url(#mask0_268_6)">
<rect x="7.12402" y="171.45" width="228.869" height="20.9252" fill="#7E9BFF"/>
<rect x="7.12402" y="150.525" width="228.869" height="20.9252" fill="#D67EFF"/>
<rect x="7.12402" y="130.15" width="228.869" height="20.3745" fill="#F36767"/>
<rect x="7.12402" y="109.225" width="228.869" height="20.9252" fill="#F29C4D"/>
<rect x="7.12402" y="88.3669" width="228.869" height="20.9252" fill="#EDDD49"/>
<rect x="7.12402" y="68.3433" width="228.869" height="20.9252" fill="#52CD5F"/>
</g>
</svg>
