<svg width="1361" height="240" viewBox="0 0 1361 240" fill="none" xmlns="http://www.w3.org/2000/svg">
<path d="M67.2852 202.327C58.6815 208.877 50.163 213.787 43.3657 216.443C39.9604 217.773 37.0419 218.516 34.7887 218.644C32.4934 218.774 31.1584 218.259 30.5249 217.427C29.8914 216.595 29.7502 215.171 30.4869 212.993C31.2101 210.855 32.7031 208.24 34.892 205.312C39.2614 199.467 46.262 192.563 54.8657 186.013C63.4694 179.463 71.9879 174.553 78.7852 171.897C82.1905 170.567 85.109 169.824 87.3622 169.696C89.6575 169.565 90.9925 170.08 91.626 170.913C92.2595 171.745 92.4007 173.169 91.664 175.347C90.9408 177.484 89.4478 180.1 87.2589 183.028C82.8895 188.873 75.8889 195.777 67.2852 202.327Z" stroke="black" stroke-width="2"/>
<path d="M136.696 158.392C115.433 174.579 94.9626 187.587 79.0676 195.537C71.1126 199.516 64.3495 202.204 59.2293 203.404C56.6656 204.005 54.5724 204.218 52.9746 204.066C51.3749 203.913 50.4037 203.409 49.8704 202.709C49.3371 202.008 49.1104 200.938 49.3888 199.355C49.6668 197.774 50.4296 195.814 51.6912 193.502C54.2109 188.886 58.6026 183.083 64.5553 176.474C76.4494 163.269 94.4372 147 115.7 130.813C136.963 114.626 157.433 101.618 173.328 93.6681C181.283 89.6895 188.046 87.0012 193.167 85.8011C195.73 85.2003 197.823 84.987 199.421 85.1398C201.021 85.2928 201.992 85.7962 202.525 86.4967C203.059 87.1972 203.285 88.2674 203.007 89.85C202.729 91.4309 201.966 93.3918 200.705 95.703C198.185 100.319 193.793 106.123 187.84 112.731C175.946 125.937 157.959 142.206 136.696 158.392Z" stroke="black" stroke-width="2"/>
<path d="M525.837 167.352C525.753 167.499 525.601 167.646 525.142 167.682C524.64 167.722 523.899 167.61 522.88 167.284C520.856 166.637 518.094 165.268 514.677 163.355C511.36 161.497 507.489 159.164 503.166 156.557L502.834 156.357C498.382 153.673 493.468 150.715 488.229 147.719C477.809 141.761 465.15 133.472 455.395 126.171C450.514 122.517 446.387 119.132 443.636 116.424C442.255 115.064 441.26 113.914 440.686 113.014C440.398 112.563 440.247 112.222 440.188 111.986C440.162 111.883 440.158 111.819 440.159 111.784C440.179 111.776 440.209 111.766 440.254 111.757C440.441 111.717 440.761 111.708 441.253 111.785C442.231 111.938 443.607 112.382 445.345 113.104C448.803 114.539 453.447 116.965 458.712 119.915C464.558 123.191 471.072 127.056 477.509 130.875C482.706 133.958 487.853 137.012 492.557 139.701C502.974 145.658 511.912 151.859 517.94 157.056C520.961 159.66 523.211 161.979 524.556 163.861C525.23 164.805 525.641 165.591 525.827 166.211C526.013 166.831 525.942 167.168 525.837 167.352ZM440.163 111.749C440.163 111.749 440.163 111.75 440.162 111.753C440.163 111.75 440.163 111.749 440.163 111.749ZM440.134 111.795C440.13 111.799 440.127 111.801 440.127 111.801C440.126 111.8 440.128 111.798 440.134 111.795Z" stroke="black" stroke-width="2"/>
<path d="M315.422 40.0399C315.937 41.6509 315.845 43.0177 315.129 44.3489C314.313 45.8659 312.625 47.4534 309.72 49.2435C303.912 52.8235 293.766 56.9098 277.885 62.8708C271.586 65.2356 264.615 67.976 257.456 70.7904C246.533 75.0844 235.173 79.5506 225.089 83.1175C216.75 86.0673 209.359 88.374 203.884 89.445C201.136 89.9823 198.945 90.1928 197.386 90.0505C195.768 89.9028 195.211 89.4238 195.047 88.988C194.854 88.4717 194.987 87.5481 196.004 86.0645C196.981 84.6385 198.605 82.9463 200.802 81.0493C205.184 77.2643 211.67 72.812 219.276 68.218C234.481 59.0343 254.018 49.372 269.803 43.4467C285.597 37.5179 295.012 36.0191 301.479 36.3158C306.447 36.5437 309.68 37.8135 312.906 39.0809C313.735 39.4067 314.564 39.7322 315.422 40.0399Z" stroke="black" stroke-width="2"/>
<path d="M308.208 42.5932C308.204 42.6394 308.171 42.7729 307.984 43.0299C307.696 43.426 307.167 43.9293 306.356 44.5295C304.747 45.7209 302.257 47.1304 299.081 48.6906C292.745 51.8035 283.859 55.4292 274.292 59.0203C264.752 62.6017 255.897 65.1988 249.302 66.508C245.997 67.1642 243.305 67.4872 241.396 67.4643C240.436 67.4528 239.737 67.3538 239.275 67.2016C239.047 67.1267 238.911 67.0497 238.836 66.9912C238.8 66.9633 238.781 66.9423 238.772 66.9309C238.764 66.9202 238.762 66.915 238.762 66.9141L238.762 66.9141C238.761 66.913 238.759 66.9078 238.759 66.8946C238.758 66.8801 238.758 66.852 238.767 66.8073C238.785 66.7136 238.837 66.566 238.959 66.3601C239.207 65.9415 239.668 65.4065 240.384 64.7661C241.806 63.4926 244.045 61.965 246.966 60.2841C252.793 56.9303 261.17 53.0592 270.71 49.4779C280.226 45.906 289.56 43.5634 296.64 42.5056C300.187 41.9758 303.129 41.7745 305.229 41.8885C306.285 41.9459 307.073 42.0805 307.603 42.2633C308.049 42.4169 308.179 42.5561 308.208 42.5932ZM308.209 42.5812C308.208 42.5767 308.208 42.5742 308.208 42.5742C308.208 42.5741 308.209 42.5764 308.209 42.5812Z" stroke="black" stroke-width="2"/>
<path d="M248.104 62.0283C248.485 62.6136 248.621 63.4878 248.307 64.7796C247.993 66.071 247.255 67.6566 246.075 69.513C243.719 73.2202 239.727 77.8073 234.374 82.9746C223.681 93.2975 207.705 105.793 188.982 117.998C170.24 130.215 158.082 135.913 150.086 137.696C146.1 138.584 143.229 138.481 141.118 137.798C139.033 137.122 137.598 135.85 136.526 134.205C136.079 133.52 135.99 132.903 136.163 132.256C136.35 131.553 136.872 130.721 137.857 129.725C139.834 127.728 143.329 125.407 148.266 122.48C151.01 120.854 154.177 119.053 157.727 117.034C166.855 111.843 178.517 105.211 192.039 96.3966C205.104 87.8797 215.501 80.2633 223.657 74.288C227.218 71.679 230.353 69.3829 233.096 67.4613C237.649 64.2713 241.061 62.1588 243.589 61.2651C244.846 60.8208 245.778 60.7181 246.47 60.8526C247.115 60.9778 247.646 61.3262 248.104 62.0283Z" stroke="black" stroke-width="2"/>
<path d="M274.348 48.8416C274.762 49.4761 274.931 50.3483 274.742 51.5374C274.553 52.7342 274.009 54.1809 273.089 55.8587C271.25 59.2128 268.012 63.3016 263.587 67.8607C254.75 76.9671 241.337 87.7905 225.441 98.1522C209.546 108.514 194.23 116.418 182.332 120.829C176.375 123.038 171.327 124.35 167.516 124.68C165.609 124.844 164.066 124.758 162.895 124.448C161.731 124.141 161.001 123.634 160.587 122.999C160.174 122.365 160.004 121.493 160.193 120.304C160.383 119.107 160.926 117.66 161.846 115.982C163.685 112.628 166.924 108.539 171.348 103.98C180.186 94.8739 193.599 84.0504 209.494 73.6887C225.389 63.327 240.705 55.4227 252.604 51.0118C258.561 48.8034 263.609 47.4905 267.42 47.1614C269.326 46.9967 270.869 47.0834 272.041 47.3928C273.205 47.7003 273.934 48.2072 274.348 48.8416Z" stroke="black" stroke-width="2"/>
<path d="M161.32 123.658C162.212 125.027 162.183 127.183 160.862 130.209C159.56 133.189 157.108 136.753 153.657 140.673C146.762 148.5 136.034 157.571 123.1 166.003C110.166 174.434 97.537 180.589 87.5927 183.738C82.6136 185.314 78.3635 186.119 75.1109 186.107C71.8096 186.096 69.8248 185.252 68.9328 183.883C68.0408 182.515 68.0698 180.358 69.3912 177.333C70.6932 174.352 73.1445 170.789 76.5964 166.869C83.4905 159.041 94.2191 149.97 107.153 141.539C120.087 133.108 132.716 126.953 142.66 123.804C147.639 122.227 151.889 121.423 155.142 121.434C158.443 121.446 160.428 122.29 161.32 123.658Z" stroke="black" stroke-width="2"/>
<path d="M231.274 72.8408C231.656 73.426 231.791 74.3002 231.477 75.592C231.163 76.8834 230.426 78.469 229.246 80.3255C226.889 84.0327 222.897 88.6198 217.544 93.7871C206.851 104.11 190.875 116.605 172.153 128.81C153.43 141.015 135.55 150.589 121.79 156.207C114.902 159.02 109.094 160.821 104.751 161.48C102.576 161.811 100.828 161.846 99.5193 161.612C98.2106 161.378 97.4654 160.901 97.0839 160.316C96.7024 159.731 96.5669 158.856 96.881 157.565C97.1951 156.273 97.9323 154.688 99.1124 152.831C101.469 149.124 105.461 144.537 110.813 139.37C121.507 129.047 137.483 116.551 156.205 104.347C174.928 92.1418 192.808 82.5676 206.568 76.9494C213.456 74.1371 219.264 72.3361 223.607 71.6761C225.782 71.3456 227.53 71.3109 228.839 71.5448C230.147 71.7787 230.893 72.2555 231.274 72.8408Z" stroke="black" stroke-width="2"/>
<path d="M142.141 140.83C142.385 141.205 142.487 141.878 142.085 143.061C141.69 144.224 140.868 145.685 139.601 147.422C137.073 150.888 132.923 155.253 127.439 160.23C116.483 170.173 100.342 182.433 81.6128 194.642C62.884 206.851 45.1522 216.672 31.6335 222.683C24.8668 225.692 19.198 227.728 15.0072 228.642C12.9061 229.1 11.2375 229.263 10.0144 229.155C8.76973 229.045 8.19463 228.68 7.95077 228.306C7.70692 227.931 7.60443 227.258 8.00649 226.075C8.40158 224.912 9.22352 223.451 10.4908 221.714C13.0184 218.248 17.1685 213.883 22.6525 208.906C33.6085 198.963 49.7501 186.703 68.4789 174.494C87.2077 162.285 104.939 152.464 118.458 146.453C125.225 143.444 130.894 141.408 135.085 140.494C137.186 140.036 138.854 139.873 140.077 139.981C141.322 140.091 141.897 140.456 142.141 140.83Z" stroke="black" stroke-width="2"/>
<path d="M398.558 68.0138C397.852 69.6447 396.284 70.9315 393.825 71.7782C391.366 72.6251 388.119 72.9911 384.276 72.8381C376.597 72.5325 366.757 70.1642 356.603 65.7709C351.48 63.5545 347.476 61.7953 344.395 60.2771C341.3 58.7525 339.213 57.5066 337.876 56.3346C336.569 55.1884 336.051 54.1765 335.959 53.0926C335.861 51.9402 336.227 50.5425 337.07 48.5948C338.568 45.1327 342.615 42.9931 347.983 42.4214C353.286 41.8566 359.596 42.8693 365.158 45.3995C369.033 47.7802 373.301 49.9697 377.448 52.0285C378.412 52.5073 379.369 52.9787 380.313 53.4436C383.462 54.9945 386.466 56.4745 389.128 57.9273C392.603 59.8236 395.38 61.6151 397.076 63.3684C397.919 64.2392 398.443 65.0491 398.681 65.803C398.911 66.5298 398.889 67.2486 398.558 68.0138Z" stroke="black" stroke-width="2"/>
<path d="M440.061 111.093C439.62 111.845 439.073 112.301 438.418 112.553C437.742 112.813 436.871 112.886 435.753 112.722C433.489 112.39 430.497 111.135 426.723 109.111C422.972 107.1 418.556 104.39 413.463 101.235C412.992 100.943 412.515 100.648 412.033 100.349C407.309 97.4204 402.043 94.1563 396.256 90.7679C383.549 83.3267 373.429 76.3423 367.041 70.3247C363.842 67.3107 361.638 64.5942 360.492 62.2362C359.354 59.8931 359.32 58.05 360.179 56.5827C360.976 55.2224 362.939 54.3937 366.375 54.4331C369.739 54.4717 374.161 55.3467 379.309 56.9387C389.578 60.1142 402.5 66.0675 415.17 73.4825C426.113 81.4893 433.381 89.2651 437.373 95.8997C441.407 102.604 441.95 107.867 440.061 111.093Z" stroke="black" stroke-width="2"/>
<path d="M470.661 126.151C470.044 127.205 468.91 127.99 467.224 128.43C465.533 128.871 463.36 128.942 460.827 128.611C455.765 127.95 449.467 125.713 443.164 122.023C436.861 118.332 431.829 113.933 428.776 109.842C427.248 107.795 426.246 105.866 425.803 104.175C425.362 102.49 425.492 101.117 426.109 100.062C426.727 99.0084 427.86 98.2229 429.546 97.783C431.238 97.3417 433.41 97.2715 435.943 97.6023C441.005 98.2634 447.303 100.5 453.606 104.19C459.909 107.881 464.941 112.28 467.994 116.371C469.522 118.418 470.524 120.347 470.967 122.038C471.408 123.723 471.278 125.096 470.661 126.151Z" stroke="black" stroke-width="2"/>
<path d="M486.115 136.636C485.806 137.164 485.123 137.594 483.756 137.724C482.399 137.853 480.571 137.66 478.318 137.152C473.825 136.139 467.92 133.938 461.302 131.015C448.082 125.176 432.211 116.543 419.497 109.099C406.736 101.626 399.753 96.8643 396.469 93.1028C394.854 91.2532 394.222 89.741 394.159 88.3457C394.096 86.9314 394.61 85.4594 395.659 83.6675C397.735 80.1227 400.674 77.1616 406.065 76.7422C411.578 76.3131 419.82 78.5228 432.498 85.947C445.154 93.3579 459.676 104.466 470.484 114.642C475.89 119.733 480.332 124.558 483.144 128.543C484.552 130.54 485.519 132.28 486.007 133.705C486.504 135.158 486.439 136.082 486.115 136.636Z" stroke="black" stroke-width="2"/>
<path d="M383.063 69.2906C382.031 71.0542 379.296 71.9834 375.103 71.5327C371.012 71.0929 365.938 69.3611 360.884 66.4018C355.83 63.4424 351.837 59.8644 349.452 56.5121C347.007 53.0757 346.479 50.2363 347.512 48.4727C348.545 46.7091 351.279 45.7799 355.473 46.2307C359.563 46.6704 364.638 48.4022 369.691 51.3616C374.745 54.321 378.738 57.8989 381.124 61.2513C383.569 64.6877 384.096 67.527 383.063 69.2906Z" stroke="black" stroke-width="2"/>
<path d="M524.783 166.014C524.573 166.031 524.232 166.005 523.733 165.892C522.682 165.653 521.209 165.097 519.376 164.259C515.728 162.589 510.864 159.898 505.507 156.759C500.156 153.625 494.343 150.062 488.801 146.658C488.485 146.464 488.171 146.271 487.857 146.078C482.667 142.889 477.751 139.869 473.744 137.523C465.303 132.58 458.624 127.79 454.344 123.798C452.199 121.795 450.703 120.036 449.88 118.597C449.027 117.106 449.05 116.252 449.315 115.798C450.2 114.287 452.384 112.664 456.514 112.632C460.664 112.6 466.724 114.188 475.116 119.102C483.481 124 496.481 135.075 507.149 145.443C512.474 150.618 517.187 155.587 520.423 159.483C522.045 161.436 523.272 163.09 524.02 164.351C524.397 164.985 524.627 165.477 524.735 165.83C524.758 165.905 524.773 165.966 524.783 166.014ZM524.934 165.989C524.937 165.987 524.939 165.986 524.939 165.986C524.939 165.987 524.938 165.987 524.934 165.989Z" stroke="black" stroke-width="2"/>
<path d="M433.187 104.546C433.079 104.73 432.915 104.866 432.479 104.88C431.985 104.896 431.256 104.739 430.259 104.342C428.28 103.555 425.634 101.987 422.435 99.9061C420.441 98.6091 418.246 97.1205 415.896 95.5275C410.787 92.0633 404.949 88.1053 398.875 84.5485C390.013 79.3593 382.143 74.7439 376.801 70.8876C374.122 68.9537 372.152 67.2612 371.01 65.8297C369.827 64.346 369.803 63.5094 370.1 63.0032C370.433 62.4342 371.338 61.9607 373.353 62.0497C375.294 62.1354 377.911 62.738 381.072 63.823C387.375 65.987 395.596 69.983 404.411 75.1449C413.17 80.2739 421.011 86.8181 426.334 92.6004C428.999 95.4952 431.002 98.1658 432.178 100.344C432.767 101.435 433.125 102.361 433.272 103.102C433.421 103.854 433.332 104.298 433.187 104.546Z" stroke="black" stroke-width="2"/>
<path d="M423.213 15.1555L423.213 15.1572C423.216 15.2003 423.225 15.3234 422.928 15.553C422.602 15.8056 422.031 16.0766 421.154 16.3371C419.413 16.8538 416.81 17.2326 413.501 17.5417C409.784 17.8891 405.307 18.1393 400.338 18.4171C396.449 18.6344 392.259 18.8686 387.895 19.1794C383.485 19.4935 379.328 19.8551 375.517 20.1867C370.736 20.6026 366.499 20.9713 362.987 21.1394C359.836 21.2903 357.38 21.2718 355.717 21.0009C354.879 20.8646 354.335 20.6776 354.017 20.4815C353.735 20.3071 353.712 20.1844 353.706 20.1058C353.699 20.0027 353.733 19.7764 354.073 19.4052C354.413 19.034 354.979 18.6113 355.806 18.1589C357.454 17.2572 359.931 16.3492 363.09 15.5006C369.392 13.8079 378.209 12.4038 388.037 11.7038C397.866 11.0038 406.792 11.1442 413.27 11.9268C416.518 12.3191 419.098 12.8669 420.858 13.5258C421.741 13.8564 422.361 14.1947 422.75 14.514C423.14 14.8332 423.205 15.0524 423.213 15.1555Z" stroke="black" stroke-width="2"/>
<path d="M404.098 24.8465C403.035 24.3591 401.855 23.8291 400.602 23.3026C395.357 21.099 388.469 18.7861 382.683 19.7094C377.241 20.5779 372.281 21.0211 368.669 21.0417C366.855 21.052 365.426 20.9551 364.459 20.7687C364.053 20.6903 363.77 20.6038 363.589 20.5254C363.651 20.4286 363.764 20.2868 363.971 20.0989C364.453 19.6611 365.274 19.1375 366.502 18.5827C368.946 17.4784 372.808 16.3359 378.232 15.4701C380.753 15.068 383.878 15.5293 387.226 16.5461C390.556 17.5574 394.016 19.0903 397.166 20.7401C399.796 22.1178 402.193 23.5682 404.098 24.8465ZM363.399 20.4213C363.399 20.4212 363.403 20.4237 363.408 20.4289C363.401 20.424 363.399 20.4214 363.399 20.4213Z" stroke="black" stroke-width="2"/>
<path d="M396.063 11.8315C396.07 11.9263 396.056 12.0451 395.833 12.2364C395.577 12.4564 395.116 12.697 394.389 12.9245C392.943 13.3766 390.798 13.6727 388.149 13.8834C385.518 14.0927 382.47 14.2126 379.249 14.3383L379.167 14.3415C375.979 14.4659 372.631 14.5966 369.399 14.8267C362.989 15.2833 357.209 14.8963 353.033 13.943C350.939 13.4649 349.304 12.857 348.202 12.1813C347.072 11.4886 346.7 10.8544 346.666 10.3801C346.632 9.91101 346.907 9.24514 347.925 8.42048C348.919 7.61515 350.452 6.80741 352.461 6.06322C356.465 4.5796 362.139 3.43006 368.555 2.97309C374.855 2.5244 381.783 3.97591 387.176 6.02272C389.87 7.04526 392.139 8.20079 393.732 9.30922C394.53 9.86449 395.128 10.3878 395.525 10.8529C395.935 11.3338 396.051 11.6606 396.063 11.8315Z" stroke="black" stroke-width="2"/>
<path d="M377.729 9.41571C377.793 9.52302 377.808 9.61268 377.765 9.75996C377.71 9.94858 377.554 10.2289 377.21 10.6025C376.52 11.3524 375.325 12.2158 373.735 13.1913C372.163 14.156 370.289 15.1803 368.295 16.2693L368.24 16.299C366.271 17.3741 364.195 18.5082 362.231 19.6849C358.386 21.9893 354.611 23.4415 351.633 23.9723C350.14 24.2383 348.901 24.2632 347.974 24.0851C347.044 23.9066 346.547 23.552 346.313 23.1611C346.081 22.7737 346.006 22.1828 346.293 21.2982C346.579 20.4135 347.195 19.3525 348.146 18.1799C350.043 15.8412 353.13 13.234 356.981 10.9256C360.708 8.69212 365.616 7.70048 369.834 7.63681C371.936 7.60506 373.82 7.80499 375.255 8.17134C375.973 8.35464 376.552 8.57282 376.982 8.8068C377.422 9.04633 377.639 9.26551 377.729 9.41571Z" stroke="black" stroke-width="2"/>
<path d="M353.918 6.56958C354.466 6.87964 354.916 7.4661 355.194 8.41186C355.473 9.36391 355.554 10.615 355.399 12.1057C355.088 15.0838 353.852 18.8224 351.727 22.5825C349.601 26.3426 347.035 29.3291 344.644 31.131C343.447 32.033 342.333 32.6084 341.373 32.8601C340.42 33.1102 339.686 33.0271 339.137 32.7171C338.589 32.407 338.139 31.8206 337.861 30.8748C337.582 29.9227 337.501 28.6717 337.656 27.1809C337.967 24.2028 339.202 20.4643 341.328 16.7042C343.453 12.9441 346.019 9.95751 348.411 8.15563C349.608 7.25367 350.722 6.67826 351.681 6.42653C352.635 6.17647 353.369 6.25951 353.918 6.56958Z" stroke="black" stroke-width="2"/>
<path d="M356.313 20.2974C357.728 22.2836 360.338 22.6338 362.494 22.6261C363.619 22.622 364.739 22.518 365.699 22.4214C365.8 22.4113 365.898 22.4013 365.994 22.3916C366.476 22.3427 366.898 22.3 367.258 22.2732C367.168 22.3597 367.069 22.4526 366.961 22.5523C365.254 24.1134 361.573 26.8777 354.846 31.6689C343.79 39.543 332.812 49.3554 323.447 57.7259C321.395 59.5601 319.42 61.3251 317.539 62.9853C312.283 67.6241 307.787 71.4187 304.347 73.6718C302.616 74.8056 301.239 75.4894 300.22 75.7312C299.718 75.8503 299.368 75.8457 299.133 75.787C298.923 75.7346 298.766 75.631 298.629 75.4392C297.813 74.2927 297.647 72.1941 298.59 69.0846C299.514 66.0358 301.433 62.2677 304.352 58.0503C310.185 49.6243 319.911 39.549 333.256 30.0449C336.889 27.4571 339.893 25.2924 342.394 23.4898C344.53 21.9504 346.3 20.6751 347.782 19.6263C349.383 18.4929 350.618 17.646 351.584 17.0374C352.564 16.4205 353.21 16.086 353.646 15.9358C353.884 15.8542 354.002 15.8465 354.047 15.8491C354.075 15.8776 354.165 15.9854 354.317 16.3225C354.391 16.4868 354.471 16.6889 354.564 16.9215C354.899 17.7636 355.393 19.0052 356.313 20.2974ZM354.07 15.853C354.07 15.8535 354.066 15.8529 354.058 15.8501C354.067 15.8512 354.071 15.8526 354.07 15.853Z" stroke="black" stroke-width="2"/>
<path d="M352.035 26.6525C352.656 27.5239 352.847 28.7883 352.449 30.4928C352.052 32.1953 351.09 34.2147 349.593 36.4259C346.605 40.8417 341.609 45.8395 335.299 50.3334C328.989 54.8273 322.633 57.9148 317.483 59.2954C314.904 59.9868 312.681 60.2356 310.942 60.0546C309.201 59.8733 308.069 59.2795 307.448 58.408C306.827 57.5366 306.636 56.2722 307.034 54.5677C307.432 52.8652 308.393 50.8458 309.89 48.6346C312.878 44.2189 317.874 39.221 324.184 34.7271C330.494 30.2333 336.851 27.1457 342.001 25.7651C344.58 25.0737 346.803 24.8249 348.541 25.006C350.282 25.1872 351.415 25.781 352.035 26.6525Z" stroke="black" stroke-width="2"/>
<path d="M350.746 7.43066C351.114 7.9476 351.449 8.80562 351.645 10.035C351.838 11.251 351.884 12.7693 351.726 14.5508C351.411 18.1125 350.283 22.6606 347.965 27.8228C343.333 38.1396 333.964 50.8666 316.938 62.9928C299.801 75.1979 283.964 85.3044 271.94 91.6664C265.92 94.8515 260.901 97.0737 257.173 98.1614C255.304 98.7069 253.824 98.9473 252.735 98.9127C251.635 98.8777 251.13 98.5743 250.901 98.2523C250.275 97.3744 250.238 96.1454 251.556 94.0898C252.873 92.0354 255.371 89.4631 259.148 86.23C266.682 79.7804 278.994 70.9599 296.166 58.7297C313.418 46.4428 326.492 32.2275 335.716 21.8155C336.584 20.8361 337.416 19.8924 338.213 18.9884C341.671 15.0649 344.47 11.8898 346.673 9.79192C348.041 8.48873 349.08 7.70145 349.831 7.37856C350.196 7.22155 350.399 7.21646 350.491 7.2325C350.548 7.24237 350.63 7.2675 350.746 7.43066Z" stroke="black" stroke-width="2"/>
<path d="M313.17 67.9468C314.567 69.9078 314.847 71.8579 314.25 73.9317C313.635 76.071 312.068 78.3999 309.624 80.9717C304.733 86.118 296.691 91.8766 287.15 98.6724C277.616 105.462 268.61 111.846 261.211 115.446C257.508 117.248 254.309 118.299 251.711 118.405C249.174 118.509 247.267 117.719 245.927 115.838C243.142 111.926 243.883 105.676 248.011 98.4167C252.094 91.2363 259.317 83.4168 268.735 76.7091C278.153 70.0015 287.904 65.7322 296.025 64.2211C304.235 62.6934 310.385 64.0356 313.17 67.9468Z" stroke="black" stroke-width="2"/>
<path d="M333.762 49.0853C334.647 50.3285 334.832 52.1737 334.116 54.6577C333.403 57.1289 331.84 60.0644 329.506 63.28C324.844 69.7024 317.243 77.0557 307.798 83.7828C298.352 90.51 288.918 95.289 281.325 97.5949C277.523 98.7495 274.237 99.267 271.669 99.1326C269.087 98.9975 267.404 98.2194 266.519 96.9762C265.633 95.7331 265.448 93.8879 266.165 91.4039C266.877 88.9327 268.44 85.9972 270.774 82.7816C275.436 76.3592 283.037 69.0059 292.482 62.2787C301.928 55.5515 311.362 50.7726 318.956 48.4666C322.758 47.3121 326.043 46.7946 328.611 46.9289C331.193 47.064 332.876 47.8422 333.762 49.0853Z" stroke="black" stroke-width="2"/>
<path d="M296.324 74.3248C298.061 76.7642 297.747 80.6654 295.233 85.2868C292.755 89.8425 288.284 94.7871 282.383 98.9899C276.482 103.193 270.347 105.801 265.232 106.654C260.043 107.518 256.253 106.54 254.516 104.101C252.778 101.662 253.093 97.7604 255.607 93.1391C258.085 88.5834 262.555 83.6388 268.457 79.4359C274.358 75.2331 280.492 72.6248 285.608 71.7723C290.797 70.9075 294.587 71.8855 296.324 74.3248Z" stroke="black" stroke-width="2"/>
<path d="M594.05 74.2727H611.379V124.557C611.356 129.268 610.231 133.387 608.006 136.915C605.78 140.419 602.703 143.141 598.773 145.082C594.866 147.024 590.345 147.994 585.207 147.994C580.662 147.994 576.531 147.201 572.814 145.615C569.121 144.029 566.173 141.567 563.972 138.229C561.794 134.891 560.716 130.617 560.74 125.409H578.247C578.318 127.279 578.673 128.877 579.312 130.203C579.975 131.505 580.887 132.488 582.047 133.151C583.207 133.813 584.592 134.145 586.202 134.145C587.883 134.145 589.303 133.79 590.463 133.08C591.623 132.346 592.499 131.268 593.091 129.848C593.706 128.428 594.026 126.664 594.05 124.557V74.2727ZM622.414 147V92.4545H639.779V147H622.414ZM631.115 86.098C628.676 86.098 626.581 85.2931 624.829 83.6832C623.077 82.0497 622.201 80.0848 622.201 77.7884C622.201 75.5156 623.077 73.5743 624.829 71.9645C626.581 70.331 628.676 69.5142 631.115 69.5142C633.577 69.5142 635.672 70.331 637.4 71.9645C639.152 73.5743 640.028 75.5156 640.028 77.7884C640.028 80.0848 639.152 82.0497 637.4 83.6832C635.672 85.2931 633.577 86.098 631.115 86.098ZM650.832 147V74.2727H668.411V103.463H697.068V74.2727H714.611V147H697.068V117.774H668.411V147H650.832ZM751.099 148.03C745.37 148.03 740.445 146.858 736.326 144.514C732.23 142.147 729.07 138.856 726.844 134.642C724.643 130.404 723.542 125.492 723.542 119.905C723.542 114.294 724.643 109.382 726.844 105.168C729.07 100.93 732.23 97.6392 736.326 95.2955C740.445 92.928 745.37 91.7443 751.099 91.7443C756.828 91.7443 761.74 92.928 765.836 95.2955C769.955 97.6392 773.116 100.93 775.317 105.168C777.543 109.382 778.656 114.294 778.656 119.905C778.656 125.492 777.543 130.404 775.317 134.642C773.116 138.856 769.955 142.147 765.836 144.514C761.74 146.858 756.828 148.03 751.099 148.03ZM751.205 134.926C753.289 134.926 755.052 134.287 756.496 133.009C757.941 131.73 759.041 129.955 759.799 127.682C760.58 125.409 760.971 122.781 760.971 119.798C760.971 116.768 760.58 114.116 759.799 111.844C759.041 109.571 757.941 107.795 756.496 106.517C755.052 105.239 753.289 104.599 751.205 104.599C749.051 104.599 747.228 105.239 745.737 106.517C744.269 107.795 743.144 109.571 742.363 111.844C741.605 114.116 741.227 116.768 741.227 119.798C741.227 122.781 741.605 125.409 742.363 127.682C743.144 129.955 744.269 131.73 745.737 133.009C747.228 134.287 749.051 134.926 751.205 134.926ZM813.013 148.03C807.284 148.03 802.359 146.858 798.24 144.514C794.144 142.147 790.984 138.856 788.759 134.642C786.557 130.404 785.456 125.492 785.456 119.905C785.456 114.294 786.557 109.382 788.759 105.168C790.984 100.93 794.144 97.6392 798.24 95.2955C802.359 92.928 807.284 91.7443 813.013 91.7443C818.742 91.7443 823.654 92.928 827.75 95.2955C831.869 97.6392 835.03 100.93 837.232 105.168C839.457 109.382 840.57 114.294 840.57 119.905C840.57 125.492 839.457 130.404 837.232 134.642C835.03 138.856 831.869 142.147 827.75 144.514C823.654 146.858 818.742 148.03 813.013 148.03ZM813.119 134.926C815.203 134.926 816.966 134.287 818.411 133.009C819.855 131.73 820.955 129.955 821.713 127.682C822.494 125.409 822.885 122.781 822.885 119.798C822.885 116.768 822.494 114.116 821.713 111.844C820.955 109.571 819.855 107.795 818.411 106.517C816.966 105.239 815.203 104.599 813.119 104.599C810.965 104.599 809.142 105.239 807.651 106.517C806.183 107.795 805.058 109.571 804.277 111.844C803.519 114.116 803.141 116.768 803.141 119.798C803.141 122.781 803.519 125.409 804.277 127.682C805.058 129.955 806.183 131.73 807.651 133.009C809.142 134.287 810.965 134.926 813.119 134.926ZM866.83 115.892V147H849.465V92.4545H865.978V102.469H866.582C867.789 99.1307 869.849 96.5147 872.761 94.6207C875.673 92.7031 879.141 91.7443 883.165 91.7443C887.001 91.7443 890.327 92.6084 893.144 94.3366C895.985 96.0412 898.187 98.4323 899.749 101.51C901.335 104.564 902.117 108.139 902.093 112.234V147H884.728V115.643C884.752 112.613 883.982 110.246 882.42 108.541C880.881 106.837 878.738 105.984 875.992 105.984C874.169 105.984 872.559 106.387 871.163 107.192C869.79 107.973 868.724 109.098 867.967 110.565C867.233 112.033 866.854 113.809 866.83 115.892ZM928.576 147H909.684L934.222 74.2727H957.624L982.162 147H963.27L946.189 92.5966H945.621L928.576 147ZM926.054 118.378H965.543V131.73H926.054V118.378ZM989.993 147V74.2727H1007.57V103.463H1036.23V74.2727H1053.77V147H1036.23V117.774H1007.57V147H989.993ZM1126.69 74.2727V147H1111.78L1082.84 105.026H1082.38V147H1064.8V74.2727H1079.93L1108.55 116.176H1109.15V74.2727H1126.69ZM1163.39 147V74.2727H1187.92C1192.66 74.2727 1196.6 75.1013 1199.75 76.7585C1202.92 78.4157 1205.3 80.6766 1206.89 83.5412C1208.47 86.4058 1209.27 89.661 1209.27 93.3068C1209.27 96.3371 1208.76 98.9295 1207.74 101.084C1206.72 103.238 1205.34 104.978 1203.58 106.304C1201.83 107.63 1199.88 108.589 1197.73 109.18V109.749C1200.07 109.914 1202.34 110.743 1204.54 112.234C1206.75 113.702 1208.56 115.762 1209.98 118.413C1211.4 121.065 1212.11 124.237 1212.11 127.93C1212.11 131.6 1211.29 134.879 1209.66 137.767C1208.02 140.632 1205.51 142.893 1202.13 144.55C1198.77 146.183 1194.48 147 1189.27 147H1163.39ZM1170.03 141.034H1189.27C1194.88 141.034 1199.03 139.791 1201.7 137.305C1204.4 134.82 1205.75 131.695 1205.75 127.93C1205.75 125.161 1205.08 122.651 1203.73 120.402C1202.4 118.129 1200.52 116.33 1198.08 115.004C1195.67 113.679 1192.82 113.016 1189.56 113.016H1170.03V141.034ZM1170.03 107.121H1188.53C1191.39 107.121 1193.9 106.529 1196.06 105.345C1198.21 104.161 1199.89 102.528 1201.1 100.445C1202.31 98.3613 1202.91 95.982 1202.91 93.3068C1202.91 89.4479 1201.66 86.3111 1199.15 83.8963C1196.64 81.4579 1192.9 80.2386 1187.92 80.2386H1170.03V107.121ZM1233.14 74.2727V147H1226.82V74.2727H1233.14ZM1271.06 148.136C1266.35 148.136 1262.19 146.941 1258.56 144.55C1254.97 142.159 1252.15 138.856 1250.11 134.642C1248.08 130.404 1247.06 125.516 1247.06 119.976C1247.06 114.389 1248.08 109.476 1250.11 105.239C1252.15 100.977 1254.97 97.6629 1258.56 95.2955C1262.19 92.9044 1266.35 91.7088 1271.06 91.7088C1275.78 91.7088 1279.93 92.9044 1283.53 95.2955C1287.13 97.6866 1289.95 101.001 1291.98 105.239C1294.04 109.476 1295.07 114.389 1295.07 119.976C1295.07 125.516 1294.05 130.404 1292.02 134.642C1289.98 138.856 1287.15 142.159 1283.53 144.55C1279.93 146.941 1275.78 148.136 1271.06 148.136ZM1271.06 142.348C1274.85 142.348 1278.06 141.33 1280.69 139.294C1283.32 137.258 1285.31 134.547 1286.65 131.162C1288.03 127.777 1288.71 124.048 1288.71 119.976C1288.71 115.904 1288.03 112.163 1286.65 108.754C1285.31 105.345 1283.32 102.611 1280.69 100.551C1278.06 98.4915 1274.85 97.4616 1271.06 97.4616C1267.3 97.4616 1264.09 98.4915 1261.44 100.551C1258.81 102.611 1256.81 105.345 1255.44 108.754C1254.09 112.163 1253.42 115.904 1253.42 119.976C1253.42 124.048 1254.09 127.777 1255.44 131.162C1256.81 134.547 1258.81 137.258 1261.44 139.294C1264.07 141.33 1267.28 142.348 1271.06 142.348ZM1329.76 168.591C1326.04 168.591 1322.78 168.106 1319.99 167.135C1317.2 166.188 1314.84 164.886 1312.92 163.229C1311.01 161.571 1309.51 159.713 1308.45 157.653L1313.63 154.244C1314.42 155.617 1315.46 156.967 1316.76 158.293C1318.08 159.618 1319.8 160.719 1321.91 161.595C1324.04 162.471 1326.66 162.909 1329.76 162.909C1334.59 162.909 1338.48 161.702 1341.44 159.287C1344.42 156.872 1345.91 153.12 1345.91 148.03V135.743H1345.35C1344.61 137.4 1343.56 139.057 1342.19 140.714C1340.81 142.348 1339.01 143.709 1336.79 144.798C1334.59 145.887 1331.85 146.432 1328.58 146.432C1324.23 146.432 1320.36 145.355 1316.97 143.2C1313.61 141.046 1310.96 137.968 1309.02 133.967C1307.1 129.943 1306.14 125.149 1306.14 119.585C1306.14 114.069 1307.08 109.216 1308.95 105.026C1310.84 100.835 1313.48 97.5682 1316.87 95.2244C1320.25 92.8807 1324.19 91.7088 1328.69 91.7088C1332.03 91.7088 1334.8 92.3007 1337 93.4844C1339.2 94.6444 1340.97 96.0885 1342.29 97.8168C1343.64 99.545 1344.69 101.226 1345.45 102.859H1346.09V92.4545H1352.27V148.42C1352.27 153.037 1351.29 156.837 1349.32 159.82C1347.36 162.803 1344.68 165.004 1341.3 166.425C1337.91 167.869 1334.07 168.591 1329.76 168.591ZM1329.33 140.643C1332.83 140.643 1335.83 139.803 1338.31 138.122C1340.8 136.418 1342.71 133.979 1344.03 130.807C1345.36 127.634 1346.02 123.858 1346.02 119.479C1346.02 115.217 1345.37 111.441 1344.07 108.151C1342.77 104.836 1340.87 102.232 1338.39 100.338C1335.92 98.4205 1332.91 97.4616 1329.33 97.4616C1325.68 97.4616 1322.61 98.4441 1320.1 100.409C1317.59 102.374 1315.69 105.026 1314.42 108.364C1313.14 111.678 1312.5 115.383 1312.5 119.479C1312.5 123.645 1313.15 127.327 1314.45 130.523C1315.75 133.695 1317.66 136.181 1320.17 137.98C1322.68 139.756 1325.73 140.643 1329.33 140.643Z" fill="black"/>
</svg>
