<svg width="698" height="857" viewBox="0 0 698 857" fill="none" xmlns="http://www.w3.org/2000/svg">
<g clip-path="url(#clip0_349_2)">
<path d="M505.75 216.637C528.793 216.637 607.426 218.732 662.278 289.793C659.738 291.557 656.732 293.725 653.39 296.306C644.064 303.506 632.105 313.934 620.293 327.846C596.621 355.728 573.51 397.682 573.51 455.41C573.51 522.13 602.931 567.516 632.706 596.172C653.747 616.421 675.059 628.432 686.581 633.999C686.25 635.01 685.877 636.129 685.46 637.354C683.195 644.001 679.785 653.281 675.12 664.339C665.783 686.47 651.478 715.577 631.359 744.905C612.927 771.417 594.735 796.912 574.171 815.863C553.775 834.659 531.807 846.3 505.836 846.3C479.727 846.3 463.239 839.117 444.569 830.983C443.944 830.71 443.317 830.437 442.687 830.163C422.819 821.52 400.812 812.449 365.207 812.449C330.462 812.449 306.803 821.802 285.783 830.68C284.815 831.089 283.855 831.495 282.902 831.899C263.199 840.243 246.266 847.414 222.948 847.414C199.525 847.414 179.084 836.795 158.772 818.016C138.293 799.082 118.839 772.696 97.3614 742.586C48.8387 673.607 9.5 566.067 9.5 464.323C9.5 302.427 114.16 218.865 215.059 218.865C241.431 218.865 265.938 227.518 289.212 236.788C291.809 237.822 294.409 238.872 297 239.918C305.785 243.464 314.477 246.972 322.691 249.747C333.361 253.353 344.14 256.059 354.574 256.059C364.68 256.059 375.561 253.155 386.512 249.381C394.018 246.794 402.151 243.574 410.523 240.259C414.346 238.745 418.22 237.211 422.107 235.709C447.42 225.926 475.365 216.637 505.75 216.637ZM467.875 130.481L467.809 130.559L467.746 130.638C454.501 147.044 436.239 161.534 416.596 171.9C396.893 182.298 376.448 188.21 358.947 188.21C357.814 188.21 356.668 188.162 355.557 188.084C355.329 185.952 355.156 183.513 355.156 181.084C355.156 139.57 376.628 97.8322 400.035 71.2371L400.066 71.2018L400.097 71.1663C427.73 39.1366 472.326 14.6113 510.905 10.1503C511.08 12.4078 511.17 14.7963 511.17 17.2257C511.17 58.5318 493.327 100.301 467.875 130.481Z" fill="white" stroke="#999999" stroke-width="19"/>
</g>
<defs>
<clipPath id="clip0_349_2">
<rect width="698" height="857" fill="white"/>
</clipPath>
</defs>
</svg>
