<svg width="2649" height="857" viewBox="0 0 2649 857" fill="none" xmlns="http://www.w3.org/2000/svg">
<rect width="2649" height="857" fill="black"/>
<path d="M827.148 519V337.182H885.83C898.733 337.182 909.505 339.52 918.146 344.195C926.846 348.812 933.386 355.233 937.766 363.46C942.205 371.628 944.424 381.009 944.424 391.603C944.424 402.197 942.205 411.549 937.766 419.657C933.386 427.765 926.875 434.098 918.234 438.656C909.593 443.213 898.881 445.491 886.097 445.491H836.114V430.31H885.653C895.122 430.31 902.994 428.742 909.268 425.605C915.601 422.468 920.306 418 923.384 412.2C926.52 406.399 928.089 399.534 928.089 391.603C928.089 383.672 926.52 376.747 923.384 370.829C920.247 364.851 915.512 360.235 909.179 356.979C902.905 353.724 894.974 352.097 885.386 352.097H843.749V519H827.148ZM907.315 436.969L952.059 519H932.883L888.582 436.969H907.315ZM1001.46 337.182V519H984.863V337.182H1001.46ZM1049.8 519V337.182H1111.15C1122.99 337.182 1132.84 339.253 1140.71 343.396C1148.64 347.539 1154.59 353.192 1158.56 360.353C1162.52 367.514 1164.51 375.652 1164.51 384.767C1164.51 392.343 1163.23 398.824 1160.69 404.21C1158.14 409.595 1154.68 413.946 1150.3 417.26C1145.92 420.574 1141.04 422.971 1135.65 424.451V425.871C1141.51 426.286 1147.19 428.357 1152.7 432.086C1158.2 435.755 1162.73 440.905 1166.28 447.533C1169.83 454.162 1171.61 462.093 1171.61 471.326C1171.61 480.5 1169.57 488.697 1165.48 495.918C1161.4 503.079 1155.12 508.731 1146.66 512.874C1138.26 516.958 1127.54 519 1114.52 519H1049.8ZM1066.41 504.085H1114.52C1128.55 504.085 1138.91 500.978 1145.6 494.763C1152.34 488.549 1155.72 480.737 1155.72 471.326C1155.72 464.401 1154.03 458.128 1150.66 452.505C1147.34 446.823 1142.64 442.325 1136.54 439.011C1130.5 435.696 1123.4 434.039 1115.23 434.039H1066.41V504.085ZM1066.41 419.302H1112.66C1119.82 419.302 1126.09 417.822 1131.48 414.863C1136.87 411.904 1141.07 407.82 1144.09 402.612C1147.11 397.403 1148.61 391.455 1148.61 384.767C1148.61 375.12 1145.48 367.278 1139.2 361.241C1132.93 355.145 1123.58 352.097 1111.15 352.097H1066.41V419.302ZM1300 412.555L1285.53 416.638C1284.11 412.555 1282.1 408.856 1279.5 405.541C1276.89 402.227 1273.49 399.593 1269.29 397.64C1265.14 395.687 1259.99 394.71 1253.84 394.71C1244.61 394.71 1237.03 396.9 1231.11 401.28C1225.19 405.66 1222.23 411.312 1222.23 418.237C1222.23 424.096 1224.25 428.86 1228.27 432.53C1232.35 436.14 1238.63 439.011 1247.09 441.141L1267.69 446.202C1279.11 448.983 1287.66 453.393 1293.35 459.43C1299.09 465.467 1301.96 473.042 1301.96 482.157C1301.96 489.851 1299.83 496.687 1295.56 502.665C1291.3 508.643 1285.36 513.348 1277.72 516.781C1270.14 520.154 1261.36 521.841 1251.35 521.841C1238.04 521.841 1227.06 518.852 1218.42 512.874C1209.78 506.837 1204.24 498.137 1201.81 486.773L1217 483.045C1218.95 491.153 1222.77 497.279 1228.45 501.422C1234.19 505.565 1241.74 507.636 1251.09 507.636C1261.56 507.636 1269.94 505.299 1276.21 500.623C1282.48 495.888 1285.62 489.969 1285.62 482.867C1285.62 477.363 1283.79 472.746 1280.12 469.018C1276.45 465.23 1270.88 462.448 1263.43 460.673L1241.14 455.346C1229.31 452.505 1220.55 448.007 1214.87 441.852C1209.18 435.696 1206.34 428.061 1206.34 418.947C1206.34 411.43 1208.38 404.831 1212.47 399.149C1216.55 393.408 1222.17 388.91 1229.34 385.655C1236.5 382.4 1244.67 380.772 1253.84 380.772C1266.33 380.772 1276.3 383.613 1283.76 389.295C1291.27 394.917 1296.69 402.671 1300 412.555ZM1531.34 337.182H1547.94V457.565C1547.94 469.935 1545.04 481.003 1539.24 490.768C1533.44 500.475 1525.36 508.139 1515 513.762C1504.7 519.326 1492.72 522.107 1479.05 522.107C1465.43 522.107 1453.45 519.296 1443.09 513.673C1432.73 508.051 1424.66 500.386 1418.86 490.68C1413.06 480.973 1410.16 469.935 1410.16 457.565V337.182H1426.76V456.411C1426.76 466.058 1428.92 474.67 1433.24 482.246C1437.56 489.762 1443.62 495.681 1451.44 500.001C1459.31 504.322 1468.51 506.482 1479.05 506.482C1489.58 506.482 1498.79 504.322 1506.66 500.001C1514.53 495.681 1520.6 489.762 1524.86 482.246C1529.18 474.67 1531.34 466.058 1531.34 456.411V337.182ZM1684.53 412.555L1670.05 416.638C1668.63 412.555 1666.62 408.856 1664.02 405.541C1661.41 402.227 1658.01 399.593 1653.81 397.64C1649.66 395.687 1644.52 394.71 1638.36 394.71C1629.13 394.71 1621.55 396.9 1615.63 401.28C1609.71 405.66 1606.76 411.312 1606.76 418.237C1606.76 424.096 1608.77 428.86 1612.79 432.53C1616.88 436.14 1623.15 439.011 1631.61 441.141L1652.21 446.202C1663.63 448.983 1672.19 453.393 1677.87 459.43C1683.61 465.467 1686.48 473.042 1686.48 482.157C1686.48 489.851 1684.35 496.687 1680.09 502.665C1675.82 508.643 1669.88 513.348 1662.24 516.781C1654.67 520.154 1645.88 521.841 1635.87 521.841C1622.56 521.841 1611.58 518.852 1602.94 512.874C1594.3 506.837 1588.76 498.137 1586.34 486.773L1601.52 483.045C1603.47 491.153 1607.29 497.279 1612.97 501.422C1618.71 505.565 1626.26 507.636 1635.61 507.636C1646.08 507.636 1654.46 505.299 1660.73 500.623C1667.01 495.888 1670.14 489.969 1670.14 482.867C1670.14 477.363 1668.31 472.746 1664.64 469.018C1660.97 465.23 1655.41 462.448 1647.95 460.673L1625.67 455.346C1613.83 452.505 1605.07 448.007 1599.39 441.852C1593.7 435.696 1590.86 428.061 1590.86 418.947C1590.86 411.43 1592.91 404.831 1596.99 399.149C1601.07 393.408 1606.7 388.91 1613.86 385.655C1621.02 382.4 1629.19 380.772 1638.36 380.772C1650.85 380.772 1660.82 383.613 1668.28 389.295C1675.8 394.917 1681.21 402.671 1684.53 412.555ZM1776.21 521.841C1763.49 521.841 1752.48 518.882 1743.19 512.963C1733.89 506.985 1726.7 498.729 1721.61 488.194C1716.58 477.6 1714.07 465.407 1714.07 451.617C1714.07 437.886 1716.58 425.694 1721.61 415.04C1726.7 404.328 1733.72 395.953 1742.65 389.916C1751.65 383.82 1762.04 380.772 1773.81 380.772C1781.21 380.772 1788.34 382.133 1795.21 384.856C1802.08 387.519 1808.23 391.633 1813.68 397.196C1819.18 402.7 1823.53 409.655 1826.73 418.059C1829.92 426.404 1831.52 436.288 1831.52 447.711V455.523H1724.99V441.585H1815.36C1815.36 432.826 1813.59 424.954 1810.04 417.97C1806.54 410.927 1801.66 405.364 1795.39 401.28C1789.17 397.196 1781.98 395.154 1773.81 395.154C1765.17 395.154 1757.57 397.462 1751 402.079C1744.43 406.695 1739.28 412.791 1735.55 420.367C1731.88 427.943 1730.02 436.229 1729.96 445.225V453.57C1729.96 464.401 1731.82 473.871 1735.55 481.979C1739.34 490.029 1744.69 496.273 1751.62 500.712C1758.54 505.151 1766.74 507.37 1776.21 507.37C1782.66 507.37 1788.31 506.364 1793.17 504.352C1798.08 502.339 1802.19 499.646 1805.51 496.273C1808.88 492.84 1811.43 489.082 1813.14 484.998L1828.15 489.881C1826.07 495.622 1822.67 500.919 1817.94 505.772C1813.26 510.625 1807.4 514.531 1800.36 517.491C1793.37 520.391 1785.33 521.841 1776.21 521.841Z" fill="#EDEDED"/>
</svg>
