<svg width="816" height="367" viewBox="0 0 816 367" fill="none" xmlns="http://www.w3.org/2000/svg">
<path d="M102.793 309.071C89.6496 319.077 76.6356 326.579 66.2499 330.636C61.0471 332.669 56.5861 333.805 53.1404 334.001C49.6314 334.2 47.5802 333.413 46.6041 332.131C45.6279 330.849 45.4157 328.662 46.5419 325.333C47.6479 322.064 49.9302 318.066 53.2745 313.592C59.9506 304.661 70.6458 294.114 83.7892 284.108C96.9326 274.102 109.947 266.601 120.332 262.543C125.535 260.51 129.996 259.374 133.442 259.179C136.951 258.979 139.002 259.766 139.978 261.048C140.954 262.33 141.167 264.517 140.04 267.846C138.934 271.116 136.652 275.113 133.308 279.587C126.632 288.518 115.936 299.066 102.793 309.071Z" stroke="black" stroke-width="3"/>
<path d="M209.119 242.36C176.622 267.099 145.326 286.988 121.01 299.15C108.844 305.235 98.471 309.362 90.5915 311.208C86.6482 312.133 83.388 312.471 80.867 312.23C78.3442 311.989 76.6937 311.184 75.756 309.952C74.8184 308.72 74.4815 306.915 74.9205 304.419C75.3592 301.925 76.5535 298.872 78.494 295.317C82.3716 288.214 89.111 279.314 98.2146 269.206C116.411 249.005 143.913 224.133 176.409 199.394C208.906 174.655 240.202 154.766 264.518 142.604C276.684 136.519 287.057 132.392 294.937 130.546C298.88 129.621 302.14 129.283 304.661 129.524C307.184 129.765 308.834 130.57 309.772 131.802C310.71 133.034 311.047 134.839 310.608 137.335C310.169 139.829 308.975 142.882 307.034 146.437C303.157 153.54 296.417 162.44 287.314 172.548C269.118 192.749 241.615 217.621 209.119 242.36Z" stroke="black" stroke-width="2"/>
<path d="M803.227 255.64C803.093 255.875 802.851 256.102 802.143 256.158C801.371 256.219 800.235 256.046 798.678 255.548C795.583 254.559 791.363 252.467 786.144 249.544C781.076 246.707 775.163 243.142 768.56 239.161L768.052 238.855C761.252 234.756 753.747 230.237 745.745 225.662C729.826 216.56 710.49 203.897 695.588 192.745C688.131 187.163 681.828 181.992 677.624 177.854C675.513 175.777 673.993 174.019 673.114 172.641C672.673 171.95 672.441 171.427 672.35 171.062C672.305 170.884 672.302 170.78 672.305 170.728C672.336 170.715 672.389 170.696 672.472 170.679C672.761 170.617 673.254 170.604 674.007 170.722C675.504 170.956 677.609 171.636 680.264 172.738C685.548 174.93 692.643 178.638 700.684 183.144C709.614 188.147 719.565 194.052 729.399 199.886C737.337 204.595 745.198 209.259 752.382 213.366C768.296 222.465 781.95 231.938 791.159 239.879C795.774 243.857 799.212 247.4 801.268 250.278C802.299 251.721 802.929 252.924 803.214 253.875C803.499 254.827 803.393 255.35 803.227 255.64ZM672.312 170.686C672.313 170.686 672.312 170.688 672.31 170.692C672.312 170.688 672.312 170.686 672.312 170.686ZM672.277 170.743C672.271 170.749 672.266 170.751 672.266 170.751C672.265 170.751 672.268 170.748 672.277 170.743Z" stroke="black" stroke-width="3"/>
<path d="M481.008 61.908C481.57 63.9536 481.379 65.6388 480.496 67.2812C479.371 69.3719 476.968 71.6862 472.58 74.3906C463.805 79.7987 448.408 86.0068 424.121 95.1233C414.467 98.7474 403.807 102.938 392.868 107.239C376.202 113.791 358.889 120.598 343.494 126.043C330.763 130.547 319.53 134.049 311.241 135.671C307.072 136.486 303.834 136.786 301.591 136.582C299.202 136.364 298.881 135.694 298.841 135.585C298.724 135.275 298.671 134.233 300.193 132.011C301.617 129.934 304.025 127.413 307.355 124.537C313.989 118.808 323.842 112.04 335.441 105.034C358.622 91.0331 388.411 76.3017 412.459 67.2745C436.532 58.2383 450.769 55.9986 460.458 56.4431C467.872 56.7832 472.631 58.6517 477.532 60.5756C478.671 61.0229 479.818 61.4732 481.008 61.908Z" stroke="black" stroke-width="5"/>
<path d="M470.809 65.0518C470.805 65.1172 470.764 65.3263 470.461 65.7434C470.018 66.3518 469.206 67.1225 467.967 68.0399C465.507 69.8612 461.703 72.015 456.852 74.3984C447.172 79.1539 433.597 84.6925 418.984 90.1779C404.41 95.6487 390.883 99.6163 380.808 101.616C375.758 102.619 371.645 103.113 368.727 103.078C367.259 103.06 366.187 102.909 365.478 102.675C365.128 102.56 364.917 102.441 364.799 102.349C364.742 102.305 364.712 102.272 364.697 102.252C364.683 102.234 364.678 102.223 364.677 102.219C364.675 102.215 364.672 102.205 364.67 102.182C364.669 102.157 364.67 102.112 364.683 102.041C364.712 101.894 364.793 101.666 364.98 101.349C365.36 100.707 366.068 99.8872 367.162 98.9082C369.336 96.9612 372.758 94.6266 377.22 92.0587C386.123 86.9349 398.919 81.0214 413.494 75.5506C428.03 70.094 442.289 66.5152 453.107 64.8992C458.525 64.0898 463.02 63.782 466.231 63.9564C467.845 64.044 469.052 64.2498 469.865 64.5302C470.58 64.7764 470.771 65.0006 470.809 65.0518ZM470.809 65.0386C470.807 65.0322 470.807 65.0288 470.808 65.0287C470.808 65.0286 470.809 65.0318 470.809 65.0386Z" stroke="black" stroke-width="3"/>
<path d="M378.576 95.0048C379.062 95.749 379.286 96.9348 378.823 98.8377C378.361 100.74 377.264 103.112 375.475 105.926C371.905 111.543 365.838 118.519 357.673 126.402C341.366 142.143 316.989 161.211 288.408 179.843C259.786 198.5 241.276 207.162 229.15 209.865C223.112 211.212 218.817 211.043 215.7 210.033C212.633 209.04 210.525 207.175 208.936 204.738C208.321 203.794 208.215 202.988 208.442 202.139C208.697 201.181 209.431 199.979 210.91 198.485C213.88 195.483 219.167 191.966 226.714 187.492C230.895 185.013 235.725 182.266 241.144 179.185C255.089 171.255 272.926 161.111 293.592 147.639C313.559 134.623 329.463 122.972 341.926 113.843C347.361 109.861 352.141 106.359 356.319 103.433C363.279 98.5562 368.441 95.3671 372.234 94.0265C374.116 93.3614 375.447 93.2321 376.387 93.4148C377.232 93.5789 377.939 94.0269 378.576 95.0048Z" stroke="black" stroke-width="4"/>
<path d="M419.502 74.3163C420.226 75.4267 420.485 76.9024 420.183 78.8046C419.881 80.7146 419.021 82.9841 417.6 85.5764C414.758 90.7595 409.774 97.0442 403.001 104.023C389.468 117.968 368.946 134.525 344.644 150.367C320.342 166.209 296.911 178.303 278.69 185.058C269.572 188.438 261.81 190.462 255.921 190.97C252.976 191.225 250.552 191.095 248.683 190.601C246.821 190.11 245.575 189.277 244.851 188.166C244.127 187.056 243.868 185.58 244.17 183.678C244.472 181.768 245.332 179.499 246.753 176.906C249.595 171.723 254.579 165.439 261.352 158.46C274.885 144.515 295.407 127.958 319.709 112.116C344.011 96.2738 367.442 84.1795 385.663 77.4246C394.781 74.0443 402.542 72.021 408.432 71.5123C411.377 71.2579 413.801 71.3875 415.67 71.8814C417.532 72.3733 418.778 73.2059 419.502 74.3163Z" stroke="black" stroke-width="2"/>
<path d="M246.436 188.87C247.806 190.972 247.757 194.278 245.738 198.901C243.747 203.458 240.001 208.904 234.727 214.892C224.195 226.851 207.805 240.708 188.047 253.588C168.29 266.467 148.997 275.871 133.804 280.681C126.197 283.09 119.702 284.32 114.73 284.302C109.685 284.284 106.64 282.994 105.27 280.892C103.9 278.79 103.949 275.484 105.968 270.861C107.959 266.304 111.705 260.858 116.978 254.87C127.511 242.911 143.901 229.054 163.658 216.174C183.416 203.295 202.709 193.892 217.902 189.081C225.509 186.673 232.003 185.443 236.976 185.46C242.021 185.479 245.065 186.768 246.436 188.87Z" stroke="black" stroke-width="3"/>
<path d="M353.288 111.247C353.877 112.15 354.083 113.494 353.602 115.471C353.121 117.448 351.993 119.873 350.19 122.71C346.589 128.375 340.49 135.384 332.313 143.277C315.977 159.047 291.573 178.134 262.974 196.777C234.374 215.42 207.062 230.046 186.041 238.628C175.519 242.924 166.645 245.676 160.008 246.685C156.685 247.19 154.011 247.243 152.008 246.885C150.005 246.527 148.859 245.796 148.27 244.893C147.682 243.991 147.476 242.647 147.957 240.669C148.437 238.693 149.565 236.268 151.368 233.431C154.97 227.766 161.069 220.757 169.246 212.864C185.582 197.094 209.985 178.007 238.585 159.364C267.184 140.72 294.497 126.095 315.518 117.513C326.04 113.217 334.914 110.465 341.55 109.456C344.874 108.951 347.548 108.898 349.55 109.256C351.553 109.614 352.7 110.345 353.288 111.247Z" stroke="black" stroke-width="3"/>
<path d="M216.302 215.646C216.434 215.849 216.686 216.517 216.111 218.21C215.553 219.852 214.362 221.992 212.451 224.611C208.648 229.826 202.365 236.442 194.007 244.027C177.32 259.17 152.709 277.867 124.13 296.496C95.5521 315.126 68.5135 330.099 47.9242 339.255C37.6111 343.841 29.0222 346.919 22.7158 348.295C19.5485 348.986 17.1095 349.212 15.3821 349.06C13.6007 348.903 13.0914 348.403 12.9593 348.2C12.8272 347.997 12.5751 347.33 13.1505 345.636C13.7085 343.995 14.8998 341.854 16.8101 339.235C20.6137 334.02 26.8966 327.404 35.2546 319.819C51.941 304.676 76.5525 285.98 105.131 267.35C133.709 248.721 160.748 233.747 181.337 224.592C191.65 220.006 200.239 216.927 206.545 215.552C209.713 214.861 212.152 214.634 213.879 214.787C215.661 214.943 216.17 215.444 216.302 215.646Z" stroke="black" stroke-width="5"/>
<path d="M608.353 103.702C607.346 106.029 605.085 107.925 601.404 109.193C597.723 110.461 592.826 111.019 586.991 110.786C575.333 110.322 560.36 106.723 544.889 100.03C537.062 96.6434 530.957 93.9609 526.263 91.6479C521.543 89.3221 518.402 87.4414 516.409 85.6945C514.476 83.999 513.767 82.5581 513.64 81.0576C513.501 79.4201 514.018 77.3763 515.299 74.4149C517.487 69.359 523.452 66.1337 531.586 65.2674C539.588 64.4151 549.131 65.9415 557.547 69.7645C563.479 73.407 570.005 76.7543 576.331 79.8954C577.808 80.6287 579.272 81.3499 580.716 82.0608C585.523 84.4288 590.101 86.6833 594.157 88.8973C599.461 91.7918 603.647 94.4997 606.185 97.1222C607.442 98.4217 608.191 99.5974 608.525 100.655C608.841 101.658 608.814 102.638 608.353 103.702Z" stroke="black" stroke-width="4"/>
<path d="M672.206 169.706C671.53 170.86 670.69 171.56 669.682 171.948C668.644 172.347 667.309 172.458 665.598 172.207C662.134 171.7 657.561 169.781 651.796 166.689C646.065 163.616 639.319 159.476 631.539 154.657C630.82 154.211 630.093 153.76 629.357 153.304C622.14 148.831 614.096 143.845 605.258 138.669C585.847 127.303 570.387 116.633 560.627 107.439C555.739 102.835 552.371 98.6824 550.619 95.0762C548.877 91.4923 548.823 88.6667 550.141 86.4147C551.366 84.3232 554.379 83.0575 559.629 83.1177C564.771 83.1767 571.529 84.514 579.394 86.9462C595.082 91.7975 614.823 100.892 634.176 112.22C650.894 124.451 661.999 136.332 668.099 146.47C674.263 156.714 675.099 164.765 672.206 169.706Z" stroke="black" stroke-width="3"/>
<path d="M718.946 192.706C717.999 194.324 716.259 195.527 713.68 196.2C711.092 196.876 707.769 196.983 703.898 196.477C696.162 195.467 686.538 192.049 676.908 186.411C667.278 180.772 659.589 174.05 654.922 167.798C652.587 164.67 651.055 161.719 650.377 159.132C649.702 156.553 649.9 154.447 650.848 152.829C651.795 151.211 653.535 150.008 656.114 149.335C658.702 148.659 662.025 148.552 665.896 149.058C673.632 150.068 683.256 153.486 692.886 159.125C702.516 164.763 710.205 171.485 714.872 177.737C717.207 180.866 718.739 183.816 719.417 186.403C720.092 188.982 719.894 191.088 718.946 192.706Z" stroke="black" stroke-width="3"/>
<path d="M742.983 208.975C742.387 209.993 741.139 210.69 738.975 210.895C736.822 211.1 733.966 210.792 730.503 210.011C723.589 208.451 714.532 205.073 704.414 200.604C684.194 191.674 659.932 178.477 640.505 167.101C621.031 155.697 610.283 148.381 605.199 142.559C602.685 139.679 601.644 137.259 601.542 134.969C601.439 132.66 602.281 130.306 603.904 127.533C607.128 122.028 611.75 117.354 620.213 116.696C628.799 116.028 641.505 119.471 660.897 130.827C680.266 142.169 702.48 159.162 719.014 174.729C727.283 182.516 734.097 189.913 738.421 196.042C740.586 199.111 742.093 201.816 742.862 204.06C743.64 206.332 743.595 207.931 742.983 208.975Z" stroke="black" stroke-width="2"/>
<path d="M586.007 106.359C584.097 109.619 579.326 110.982 572.851 110.286C566.427 109.595 558.538 106.89 550.723 102.314C542.907 97.7373 536.688 92.1807 532.942 86.9164C529.167 81.6102 528.02 76.7819 529.93 73.5216C531.839 70.2613 536.61 68.8986 543.085 69.5946C549.509 70.2851 557.398 72.9905 565.214 77.5669C573.029 82.1433 579.249 87.6999 582.994 92.9641C586.769 98.2704 587.916 103.099 586.007 106.359Z" stroke="black"/>
<path d="M801.626 253.607C801.304 253.639 800.771 253.601 799.984 253.422C798.375 253.057 796.123 252.207 793.323 250.926C787.749 248.374 780.319 244.264 772.135 239.47C763.962 234.682 755.083 229.239 746.617 224.04C746.135 223.743 745.654 223.448 745.175 223.154C737.247 218.283 729.738 213.67 723.618 210.087C710.723 202.536 700.519 195.219 693.981 189.118C690.703 186.058 688.417 183.37 687.156 181.167C685.852 178.888 685.881 177.571 686.294 176.865C687.652 174.547 690.997 172.064 697.314 172.015C703.659 171.967 712.921 174.394 725.742 181.901C738.523 189.386 758.381 206.304 774.677 222.141C782.811 230.046 790.01 237.636 794.954 243.589C797.432 246.572 799.307 249.1 800.452 251.027C801.028 251.997 801.38 252.75 801.546 253.293C801.586 253.424 801.611 253.527 801.626 253.607ZM801.834 253.569C801.84 253.566 801.843 253.565 801.843 253.565C801.843 253.565 801.841 253.567 801.834 253.569Z" stroke="black" stroke-width="3"/>
<path d="M662.137 159.959C661.862 160.429 661.424 160.702 660.619 160.728C659.755 160.757 658.561 160.485 657.015 159.87C653.938 158.646 649.855 156.224 644.971 153.046C641.911 151.055 638.549 148.775 634.955 146.339C627.157 141.052 618.268 135.025 609.005 129.601C595.478 121.68 583.431 114.615 575.246 108.707C571.146 105.747 568.087 103.127 566.297 100.882C564.465 98.5847 564.231 97.048 564.863 95.9692C565.531 94.8276 567.197 94.1148 570.31 94.2523C573.35 94.3866 577.403 95.3255 582.249 96.9891C591.924 100.31 604.514 106.433 617.995 114.327C631.419 122.188 643.437 132.217 651.603 141.087C655.69 145.526 658.781 149.642 660.605 153.022C661.518 154.714 662.092 156.181 662.33 157.384C662.571 158.597 662.45 159.424 662.137 159.959Z" stroke="black" stroke-width="2"/>
<path d="M645.968 23.149C645.938 23.1901 645.868 23.271 645.723 23.3833C645.293 23.716 644.487 24.1098 643.168 24.5014C640.556 25.2764 636.62 25.852 631.569 26.3241C625.895 26.8543 619.075 27.2354 611.495 27.6589C605.556 27.9907 599.151 28.3486 592.466 28.8247C585.71 29.3058 579.356 29.8588 573.535 30.3653C566.245 30.9997 559.791 31.5613 554.431 31.8179C549.62 32.0483 545.912 32.0171 543.424 31.612C542.169 31.4076 541.408 31.1347 541 30.8829C540.826 30.7753 540.763 30.7001 540.748 30.6799C540.748 30.6792 540.748 30.6784 540.748 30.6775L540.748 30.6772C540.748 30.6715 540.744 30.626 540.791 30.5187C540.843 30.3985 540.956 30.2102 541.185 29.9602C541.656 29.4468 542.47 28.8304 543.711 28.1517C546.181 26.8007 549.923 25.4254 554.734 24.1332C564.323 21.5574 577.758 19.4164 592.751 18.3486C607.743 17.2809 621.346 17.4962 631.203 18.687C636.149 19.2843 640.048 20.1155 642.684 21.1028C644.009 21.5988 644.902 22.0935 645.441 22.5351C645.703 22.7501 645.841 22.9205 645.91 23.032C645.944 23.0863 645.96 23.1245 645.968 23.149Z" stroke="black" stroke-width="4"/>
<path d="M621.899 40.6778C621.819 40.6417 621.737 40.6049 621.653 40.5672C620.952 40.2502 620.158 39.8809 619.284 39.475C617.155 38.4857 614.557 37.2788 611.705 36.0805C603.693 32.7139 593.296 29.2423 584.622 30.6265C576.291 31.956 568.687 32.6366 563.136 32.6682C560.352 32.684 558.13 32.5361 556.602 32.2417C555.833 32.0933 555.301 31.9189 554.976 31.7469C554.831 31.6702 554.76 31.6128 554.728 31.5819C554.732 31.4131 554.854 30.9892 555.602 30.3102C556.395 29.5898 557.704 28.7631 559.606 27.9041C563.396 26.1913 569.344 24.4362 577.658 23.1094C581.622 22.4768 586.486 23.2064 591.632 24.7691C596.759 26.3264 602.076 28.6829 606.906 31.2129C611.734 33.7419 616.053 36.4317 619.181 38.6415C620.237 39.3877 621.151 40.0745 621.899 40.6778ZM554.705 31.5564C554.706 31.5564 554.706 31.5576 554.708 31.5601C554.706 31.5577 554.705 31.5564 554.705 31.5564Z" stroke="black" stroke-width="2"/>
<path d="M604.505 18.1059C604.506 18.1145 604.506 18.1204 604.506 18.1239C604.501 18.1341 604.463 18.2081 604.318 18.3322C603.998 18.6073 603.364 18.9511 602.278 19.2908C600.124 19.9642 596.894 20.4138 592.851 20.7354C588.842 21.0542 584.197 21.2371 579.275 21.4292L579.146 21.4342C574.279 21.6241 569.158 21.824 564.215 22.176C554.456 22.871 545.677 22.28 539.355 20.8368C536.181 20.1124 533.739 19.1983 532.117 18.2038C530.44 17.1751 530.03 16.3186 529.995 15.8217C529.96 15.3353 530.234 14.4525 531.744 13.2292C533.207 12.0446 535.494 10.8324 538.539 9.70443C544.603 7.45801 553.222 5.70839 562.992 5.01256C572.53 4.33331 583.043 6.53217 591.234 9.64125C595.326 11.1941 598.754 12.9427 601.146 14.6073C602.345 15.4418 603.225 16.2148 603.795 16.884C604.392 17.5847 604.497 17.9899 604.505 18.1059Z" stroke="black" stroke-width="4"/>
<path d="M577.853 13.8541C578.108 14.2793 578.154 14.7142 578.014 15.1953C577.868 15.6972 577.514 16.2625 576.935 16.8909C575.778 18.149 573.846 19.5301 571.408 21.0252C568.98 22.515 566.093 24.0927 563.053 25.7528L562.979 25.7937C559.966 27.4389 556.809 29.1628 553.828 30.9495C547.875 34.5172 541.991 36.7909 537.291 37.6286C534.939 38.0478 532.91 38.1026 531.327 37.7986C529.743 37.4943 528.666 36.8448 528.103 35.9063C527.542 34.9696 527.485 33.7308 527.976 32.2158C528.467 30.7008 529.489 28.9685 530.987 27.1222C533.979 23.4329 538.796 19.377 544.752 15.8074C550.646 12.2752 558.336 10.7368 564.897 10.6378C568.174 10.5883 571.145 10.8985 573.447 11.486C574.598 11.7799 575.569 12.1397 576.322 12.5497C577.081 12.9626 577.585 13.4075 577.853 13.8541Z" stroke="black"/>
<path d="M540.614 10.0108C541.46 10.4889 542.151 11.3917 542.576 12.8411C543.003 14.2998 543.128 16.2146 542.89 18.4939C542.415 23.0474 540.526 28.7616 537.278 34.5076C534.03 40.2535 530.108 44.8186 526.452 47.5737C524.621 48.9528 522.917 49.8338 521.446 50.2195C519.985 50.6027 518.856 50.4764 518.01 49.9983C517.164 49.5202 516.473 48.6174 516.048 47.1681C515.621 45.7094 515.496 43.7945 515.734 41.5152C516.209 36.9617 518.098 31.2475 521.346 25.5016C524.594 19.7556 528.516 15.1905 532.172 12.4355C534.003 11.0564 535.707 10.1754 537.178 9.78967C538.639 9.40646 539.768 9.53271 540.614 10.0108Z" stroke="black" stroke-width="3"/>
<path d="M544.689 30.6977C546.683 33.4975 550.412 34.0451 553.699 34.0332C555.39 34.0271 557.078 33.8707 558.543 33.7233C558.699 33.7076 558.852 33.6921 559.002 33.6769C560.291 33.546 561.336 33.44 562.086 33.4495C562.137 33.4502 562.184 33.4514 562.229 33.453C561.957 33.7948 561.523 34.2481 560.879 34.8371C558.244 37.2481 552.592 41.4905 542.324 48.8031C525.463 60.8118 508.722 75.7752 494.417 88.5607C491.28 91.3645 488.26 94.0636 485.382 96.6038C477.357 103.686 470.463 109.508 465.171 112.973C462.515 114.713 460.349 115.8 458.7 116.191C457.883 116.384 457.258 116.391 456.791 116.274C456.348 116.164 456 115.933 455.719 115.537C454.323 113.577 454.132 110.16 455.583 105.372C457.017 100.645 459.979 94.8388 464.457 88.3702C473.406 75.4416 488.309 60.0099 508.734 45.4631C514.276 41.5159 518.866 38.2079 522.69 35.4526C525.956 33.099 528.662 31.1487 530.923 29.5481C533.371 27.816 535.267 26.5154 536.755 25.5778C538.257 24.6319 539.287 24.093 540.015 23.8427C540.739 23.5934 540.972 23.6951 541.049 23.7394C541.189 23.8203 541.389 24.0437 541.691 24.7157C541.814 24.9894 541.944 25.3157 542.091 25.6847C542.605 26.9733 543.326 28.7834 544.689 30.6977Z" stroke="black" stroke-width="2"/>
<path d="M536.933 41.2752C537.661 42.2967 537.982 43.9073 537.41 46.3559C536.84 48.7997 535.438 51.7731 533.19 55.0946C528.705 61.7209 521.166 69.276 511.597 76.0909C502.028 82.9057 492.423 87.5612 484.695 89.633C480.821 90.6715 477.553 91.0244 475.057 90.7646C472.556 90.5042 471.139 89.6741 470.411 88.6527C469.684 87.6312 469.363 86.0206 469.934 83.572C470.505 81.1282 471.907 78.1548 474.155 74.8333C478.639 68.207 486.179 60.6519 495.748 53.837C505.316 47.0222 514.921 42.3667 522.65 40.2949C526.523 39.2564 529.792 38.9035 532.288 39.1633C534.789 39.4237 536.206 40.2538 536.933 41.2752Z" stroke="black" stroke-width="5"/>
<path d="M536.186 11.0442C536.813 11.9246 537.344 13.3232 537.649 15.2456C537.952 17.1546 538.023 19.5182 537.779 22.2726C537.29 27.7802 535.55 34.7845 531.99 42.7148C524.871 58.5678 510.495 78.0788 484.42 96.6496C458.234 115.299 434.023 130.752 415.628 140.484C406.423 145.355 398.719 148.769 392.973 150.446C390.095 151.285 387.773 151.669 386.03 151.614C384.275 151.558 383.303 151.069 382.815 150.384C381.672 148.779 381.745 146.643 383.802 143.435C385.858 140.228 389.723 136.257 395.499 131.314C407.03 121.443 425.859 107.954 452.08 89.2786C478.381 70.547 498.319 48.871 512.403 32.973C513.724 31.4818 514.992 30.0435 516.207 28.6646C521.491 22.6702 525.787 17.797 529.171 14.575C531.265 12.5809 532.909 11.3195 534.149 10.7861C534.759 10.5238 535.177 10.4794 535.457 10.5278C535.7 10.5701 535.94 10.6994 536.186 11.0442Z" stroke="black" stroke-width="2"/>
<path d="M477.568 104.351C479.529 107.106 479.904 109.778 479.075 112.66C478.199 115.706 475.93 119.127 472.238 123.012C464.847 130.789 452.656 139.525 438.05 149.928C423.463 160.316 409.781 170.011 398.569 175.466C392.952 178.199 388.21 179.735 384.442 179.89C380.827 180.038 378.259 178.929 376.44 176.375C372.536 170.893 373.412 161.827 379.677 150.81C385.829 139.991 396.753 128.146 411.05 117.964C425.348 107.781 440.113 101.329 452.349 99.0524C464.809 96.7338 473.663 98.8695 477.568 104.351Z" stroke="black" stroke-width="5"/>
<path d="M509.835 74.9607C511.194 76.8693 511.475 79.6977 510.38 83.4959C509.29 87.2748 506.9 91.7616 503.334 96.6747C496.211 106.488 484.599 117.722 470.169 127.999C455.74 138.275 441.327 145.577 429.724 149.1C423.915 150.864 418.894 151.656 414.966 151.45C411.019 151.243 408.437 150.053 407.078 148.145C405.719 146.236 405.438 143.408 406.533 139.609C407.623 135.831 410.013 131.344 413.579 126.431C420.702 116.618 432.314 105.384 446.744 95.1068C461.173 84.8299 475.586 77.5286 487.189 74.0052C492.998 72.2412 498.019 71.4498 501.947 71.6553C505.894 71.8619 508.475 73.052 509.835 74.9607Z" stroke="black" stroke-width="3"/>
<path d="M453.057 113.223C455.893 117.205 455.291 123.417 451.424 130.525C447.593 137.569 440.704 145.178 431.639 151.634C422.575 158.09 413.131 162.113 405.222 163.431C397.24 164.761 391.173 163.3 388.337 159.318C385.501 155.336 386.103 149.124 389.97 142.016C393.801 134.972 400.69 127.363 409.755 120.907C418.82 114.451 428.263 110.428 436.172 109.11C444.154 107.78 450.221 109.241 453.057 113.223Z" stroke="black" stroke-width="2"/>
</svg>
