<svg width="1950" height="1000" viewBox="0 0 1950 1000" fill="none" xmlns="http://www.w3.org/2000/svg">
<rect width="1950" height="1000" fill="#8B1414"/>
<rect width="975" height="1000" fill="url(#paint0_linear_548_4)"/>
<path d="M1069.03 453.162C1069.03 453.162 1090.58 453.091 1100.28 453.285C1111.76 453.479 1122.6 456.217 1132.17 462.847C1143.2 470.561 1148.96 481.339 1150.23 494.661C1151.12 503.907 1150.04 512.887 1145.92 521.305C1140.16 533.034 1130.46 539.981 1118.35 543.935C1112.26 545.916 1106.05 546.805 1099.71 546.867C1090.21 546.938 1069.1 546.938 1069.1 546.938L1069.03 453.162ZM1094.26 472.543C1094.26 491.024 1094.26 509.199 1094.26 527.997C1098.7 527.425 1103.01 527.169 1107.2 526.281C1115.31 524.493 1120.25 519.201 1122.21 511.171C1124.05 503.58 1124.05 495.938 1122.09 488.409C1120.57 482.483 1117.21 477.825 1111.51 475.281C1105.99 472.798 1100.22 472.41 1094.26 472.543Z" fill="white"/>
<path d="M1222.3 509.893V526.985L1257.8 526.914V546.744C1257.8 546.744 1218.25 546.744 1197.01 546.744C1197.01 515.696 1197.01 484.588 1197.01 453.285C1197.65 453.223 1257.8 453.162 1257.8 453.162V473.043H1222.3V490.074H1257.8V509.955H1222.3V509.893Z" fill="white"/>
<path d="M1024.09 547H996.39L990.372 532.339H962.413L955.948 547H930.277C930.531 546.295 968.757 453.285 968.757 453.285H986.061L1024.09 547ZM976.423 487.837C976.301 487.837 976.169 487.837 975.986 487.837C972.814 497.083 969.642 506.328 966.409 515.758C973.129 515.758 979.595 515.758 986.315 515.758C982.95 506.328 979.656 497.083 976.423 487.837Z" fill="white"/>
<path d="M708.167 539.542C711.278 533.105 714.257 526.73 717.358 520.355C720.469 521.816 723.387 523.287 726.365 524.554C731.113 526.598 735.993 528.324 741.127 528.58C743.608 528.702 746.2 528.447 748.488 527.681C752.86 526.22 753.805 521.111 750.45 517.995C748.996 516.657 747.278 515.503 745.509 514.675C740.304 512.131 735.048 509.833 729.853 507.35C725.288 505.174 720.916 502.569 717.297 498.799C714.196 495.611 712.224 491.79 711.339 487.459C707.476 468.456 718.253 453.602 737.396 451.375C748.041 450.159 758.309 452.008 768.384 455.39C770.417 456.095 772.512 456.861 774.667 457.617C772.196 464.38 769.848 470.949 767.439 477.702C766.737 477.385 766.107 477.13 765.537 476.875C759.326 474.004 752.799 471.899 745.946 471.327C744.106 471.133 742.205 471.327 740.375 471.644C737.65 472.155 735.678 473.748 735.17 476.681C734.733 479.49 736.186 481.4 738.403 482.739C740.751 484.138 743.283 485.354 745.763 486.56C751.335 489.308 757.231 491.668 762.559 494.855C776.121 503.008 780.879 519.078 774.098 532.973C770.041 541.33 762.996 545.855 754.313 547.705C740.812 550.565 727.819 548.338 715.274 543.046C713.118 542.157 711.085 541.074 708.991 540.114C708.737 539.981 708.554 539.858 708.167 539.542Z" fill="white"/>
<path d="M887.109 477.385C882.738 474.637 878.366 472.798 873.608 472.155C860.3 470.244 850.032 477.191 846.921 490.391C845.152 497.849 845.152 505.368 847.307 512.765C850.347 523.093 858.653 528.763 869.298 527.997C875.326 527.558 880.776 525.576 885.971 522.705C886.54 522.388 887.048 522.133 887.811 521.694C890.403 527.936 892.884 534.055 895.548 540.492C892.244 542.024 889.143 543.679 885.91 544.895C875.255 548.971 864.296 550.187 853.072 547.888C838.493 544.895 828.286 536.16 822.714 522.388C816.624 507.411 816.818 492.24 823.538 477.447C831.519 459.854 848.192 450.23 867.905 451.18C876.78 451.63 885.208 453.54 893.199 457.494C893.636 457.688 894.084 457.944 894.714 458.322C892.244 464.635 889.712 470.878 887.109 477.385Z" fill="white"/>
<path d="M1348.51 473.493L1328.03 473.554V453.734C1328.03 453.734 1352.57 453.734 1373.79 453.734C1373.79 484.782 1373.79 515.891 1373.79 547.194C1373.16 547.255 1328.03 547.316 1328.03 547.316V527.425H1348.51V473.493Z" fill="white"/>
<path d="M618.284 527.558L638.76 527.486V547.316C638.76 547.316 614.228 547.316 593 547.316C593 516.269 593 485.16 593 453.857C593.63 453.796 638.76 453.734 638.76 453.734V473.626H618.284V527.558Z" fill="white"/>
<defs>
<linearGradient id="paint0_linear_548_4" x1="975.368" y1="3.44409e-05" x2="-210.583" y2="483.911" gradientUnits="userSpaceOnUse">
<stop stop-color="#D70000"/>
<stop offset="1" stop-color="#920000"/>
</linearGradient>
</defs>
</svg>
