<svg width="1950" height="1000" viewBox="0 0 1950 1000" fill="none" xmlns="http://www.w3.org/2000/svg">
<rect width="1950" height="1000" fill="url(#paint0_linear_977_2)"/>
<path d="M836.605 460.078V445.909H921.033V460.078H886.996V555H870.589V460.078H836.605ZM979.108 521.069V473.182H995.088V555H979.427V540.831H978.575C976.693 545.199 973.675 548.839 969.52 551.751C965.4 554.627 960.269 556.065 954.126 556.065C948.87 556.065 944.218 554.911 940.17 552.603C936.157 550.259 932.996 546.797 930.688 542.216C928.415 537.635 927.279 531.971 927.279 525.224V473.182H943.206V523.306C943.206 528.881 944.751 533.32 947.84 536.623C950.93 539.925 954.942 541.577 959.878 541.577C962.861 541.577 965.827 540.831 968.774 539.339C971.757 537.848 974.225 535.593 976.178 532.575C978.167 529.556 979.143 525.721 979.108 521.069ZM1016.49 555V473.182H1032.41V555H1016.49ZM1024.53 460.558C1021.76 460.558 1019.38 459.634 1017.39 457.788C1015.44 455.906 1014.46 453.668 1014.46 451.076C1014.46 448.448 1015.44 446.211 1017.39 444.364C1019.38 442.482 1021.76 441.541 1024.53 441.541C1027.3 441.541 1029.66 442.482 1031.62 444.364C1033.6 446.211 1034.6 448.448 1034.6 451.076C1034.6 453.668 1033.6 455.906 1031.62 457.788C1029.66 459.634 1027.3 460.558 1024.53 460.558ZM1115.15 493.157L1100.72 495.714C1100.11 493.867 1099.15 492.109 1097.84 490.44C1096.56 488.771 1094.82 487.404 1092.62 486.339C1090.42 485.273 1087.67 484.741 1084.36 484.741C1079.85 484.741 1076.09 485.753 1073.07 487.777C1070.05 489.766 1068.54 492.34 1068.54 495.501C1068.54 498.235 1069.56 500.437 1071.58 502.106C1073.6 503.775 1076.87 505.142 1081.38 506.207L1094.38 509.19C1101.91 510.93 1107.52 513.612 1111.21 517.234C1114.9 520.856 1116.75 525.561 1116.75 531.349C1116.75 536.25 1115.33 540.618 1112.49 544.453C1109.68 548.253 1105.76 551.236 1100.72 553.402C1095.71 555.568 1089.9 556.651 1083.3 556.651C1074.14 556.651 1066.66 554.698 1060.87 550.792C1055.08 546.85 1051.53 541.257 1050.22 534.013L1065.61 531.669C1066.57 535.682 1068.54 538.718 1071.53 540.778C1074.51 542.802 1078.4 543.814 1083.19 543.814C1088.41 543.814 1092.58 542.731 1095.71 540.565C1098.83 538.363 1100.4 535.682 1100.4 532.521C1100.4 529.964 1099.44 527.816 1097.52 526.076C1095.64 524.336 1092.74 523.022 1088.84 522.134L1074.99 519.098C1067.35 517.358 1061.71 514.588 1058.05 510.788C1054.43 506.989 1052.62 502.177 1052.62 496.353C1052.62 491.523 1053.97 487.298 1056.66 483.675C1059.36 480.053 1063.09 477.23 1067.85 475.206C1072.61 473.146 1078.06 472.116 1084.2 472.116C1093.05 472.116 1100.01 474.034 1105.08 477.869C1110.16 481.669 1113.52 486.765 1115.15 493.157ZM1172.45 473.182V485.966H1127.76V473.182H1172.45ZM1139.75 453.58H1155.67V530.977C1155.67 534.066 1156.14 536.392 1157.06 537.955C1157.98 539.482 1159.17 540.529 1160.63 541.097C1162.12 541.63 1163.74 541.896 1165.48 541.896C1166.75 541.896 1167.87 541.808 1168.83 541.63C1169.79 541.452 1170.54 541.31 1171.07 541.204L1173.95 554.361C1173.02 554.716 1171.71 555.071 1170 555.426C1168.3 555.817 1166.17 556.03 1163.61 556.065C1159.42 556.136 1155.51 555.391 1151.89 553.828C1148.27 552.266 1145.34 549.851 1143.1 546.584C1140.87 543.317 1139.75 539.215 1139.75 534.279V453.58ZM1261.5 445.909H1278.02V517.66C1278.02 525.295 1276.22 532.06 1272.64 537.955C1269.05 543.814 1264.01 548.43 1257.51 551.804C1251.01 555.142 1243.39 556.811 1234.66 556.811C1225.96 556.811 1218.36 555.142 1211.86 551.804C1205.36 548.43 1200.32 543.814 1196.73 537.955C1193.14 532.06 1191.35 525.295 1191.35 517.66V445.909H1207.81V516.328C1207.81 521.264 1208.89 525.65 1211.06 529.485C1213.26 533.32 1216.37 536.339 1220.38 538.54C1224.39 540.707 1229.15 541.79 1234.66 541.79C1240.2 541.79 1244.97 540.707 1248.99 538.54C1253.03 536.339 1256.12 533.32 1258.25 529.485C1260.42 525.65 1261.5 521.264 1261.5 516.328V445.909ZM1318.41 445.909V555H1301.95V445.909H1318.41Z" fill="white"/>
<circle cx="707.5" cy="502.5" r="88.5" fill="url(#paint1_linear_977_2)"/>
<path d="M713.706 550.817C711.754 550.973 710.044 551.021 708.661 550.992C708.972 550.856 709.285 550.708 709.6 550.55C709.401 550.723 709.21 550.846 709.027 550.918C708.901 550.967 708.779 550.992 708.661 550.992C710.383 550.992 712.065 550.931 713.706 550.817C723.453 550.041 739.254 546.585 750.711 536.724C746.087 541.1 732.639 549.504 713.706 550.817Z" fill="url(#paint2_linear_977_2)"/>
<path d="M665.025 536.459C671.636 541.303 689.62 550.992 708.661 550.992M708.661 550.992C716.948 551.168 736.959 548.561 750.711 536.724C745.686 541.48 730.241 550.992 708.661 550.992ZM708.661 550.992V449M708.661 550.992C700.833 550.992 686.182 488.458 679.835 457.191M708.661 550.992C714.585 550.992 729.818 488.458 736.694 457.191M708.661 550.992C725.587 543.593 747.273 502.814 756 483.35M708.661 550.992C723.048 548.244 746.215 524.481 756 512.943M708.661 550.992C694.909 550.992 670.49 505.721 660 483.085M708.661 550.992C695.755 550.992 670.843 525.45 660 512.679" stroke="white" stroke-width="5"/>
<defs>
<linearGradient id="paint0_linear_977_2" x1="-4.9418e-06" y1="500.583" x2="1950" y2="500.583" gradientUnits="userSpaceOnUse">
<stop stop-color="#5B69E8"/>
<stop offset="1" stop-color="#8F66E7"/>
</linearGradient>
<linearGradient id="paint1_linear_977_2" x1="708" y1="414" x2="707.5" y2="591" gradientUnits="userSpaceOnUse">
<stop stop-color="#6581E4"/>
<stop offset="0.375" stop-color="#3274EC"/>
<stop offset="1" stop-color="#003F9D"/>
</linearGradient>
<linearGradient id="paint2_linear_977_2" x1="708.271" y1="449" x2="707.965" y2="551" gradientUnits="userSpaceOnUse">
<stop stop-color="#6581E4"/>
<stop offset="0.375" stop-color="#3274EC"/>
<stop offset="1" stop-color="#003F9D"/>
</linearGradient>
</defs>
</svg>
