<svg width="1950" height="1000" viewBox="0 0 1950 1000" fill="none" xmlns="http://www.w3.org/2000/svg">
<rect width="1950" height="1000" fill="url(#paint0_linear_549_43)"/>
<path d="M414.448 455.091H428.209V514.883C428.209 521.246 426.714 526.883 423.725 531.795C420.737 536.678 416.534 540.525 411.119 543.337C405.703 546.118 399.356 547.509 392.076 547.509C384.826 547.509 378.493 546.118 373.077 543.337C367.662 540.525 363.46 536.678 360.471 531.795C357.482 526.883 355.988 521.246 355.988 514.883V455.091H369.704V513.773C369.704 517.887 370.606 521.542 372.412 524.738C374.246 527.934 376.836 530.449 380.18 532.284C383.524 534.089 387.489 534.991 392.076 534.991C396.692 534.991 400.673 534.089 404.017 532.284C407.39 530.449 409.965 527.934 411.74 524.738C413.546 521.542 414.448 517.887 414.448 513.773V455.091ZM460.358 505.517V546H447.085V477.818H459.825V488.915H460.668C462.237 485.305 464.693 482.405 468.037 480.215C471.411 478.025 475.657 476.93 480.777 476.93C485.423 476.93 489.492 477.907 492.984 479.86C496.476 481.784 499.183 484.654 501.107 488.472C503.031 492.289 503.992 497.009 503.992 502.632V546H490.72V504.23C490.72 499.288 489.433 495.426 486.858 492.644C484.283 489.833 480.747 488.427 476.249 488.427C473.171 488.427 470.434 489.093 468.037 490.425C465.67 491.756 463.79 493.71 462.4 496.284C461.038 498.829 460.358 501.907 460.358 505.517ZM521.792 546V477.818H535.065V546H521.792ZM528.495 467.298C526.187 467.298 524.204 466.529 522.547 464.99C520.919 463.421 520.106 461.557 520.106 459.397C520.106 457.207 520.919 455.342 522.547 453.804C524.204 452.235 526.187 451.451 528.495 451.451C530.803 451.451 532.771 452.235 534.399 453.804C536.056 455.342 536.885 457.207 536.885 459.397C536.885 461.557 536.056 463.421 534.399 464.99C532.771 466.529 530.803 467.298 528.495 467.298ZM611.248 477.818L586.523 546H572.318L547.549 477.818H561.798L579.066 530.286H579.776L596.999 477.818H611.248ZM650.787 547.376C644.07 547.376 638.284 545.941 633.431 543.07C628.608 540.17 624.879 536.101 622.245 530.863C619.641 525.596 618.339 519.426 618.339 512.353C618.339 505.369 619.641 499.214 622.245 493.887C624.879 488.56 628.548 484.403 633.254 481.414C637.988 478.425 643.522 476.93 649.855 476.93C653.702 476.93 657.431 477.567 661.041 478.839C664.652 480.112 667.892 482.109 670.763 484.832C673.633 487.554 675.897 491.091 677.554 495.441C679.211 499.761 680.04 505.014 680.04 511.199V515.904H625.841V505.961H667.034C667.034 502.469 666.324 499.377 664.903 496.684C663.483 493.961 661.485 491.816 658.911 490.247C656.366 488.679 653.377 487.895 649.944 487.895C646.215 487.895 642.96 488.812 640.178 490.647C637.426 492.452 635.296 494.819 633.786 497.749C632.307 500.649 631.567 503.801 631.567 507.204V514.972C631.567 519.529 632.366 523.406 633.964 526.602C635.591 529.798 637.855 532.239 640.755 533.926C643.656 535.583 647.044 536.412 650.921 536.412C653.436 536.412 655.729 536.057 657.801 535.347C659.872 534.607 661.663 533.512 663.172 532.062C664.681 530.612 665.835 528.821 666.634 526.691L679.196 528.955C678.19 532.654 676.385 535.894 673.781 538.676C671.206 541.428 667.966 543.573 664.06 545.112C660.183 546.621 655.759 547.376 650.787 547.376ZM694.766 546V477.818H707.594V488.649H708.305C709.548 484.98 711.737 482.094 714.874 479.993C718.041 477.863 721.621 476.797 725.616 476.797C726.445 476.797 727.422 476.827 728.546 476.886C729.7 476.945 730.603 477.019 731.254 477.108V489.803C730.721 489.655 729.774 489.493 728.413 489.315C727.052 489.108 725.69 489.004 724.329 489.004C721.192 489.004 718.396 489.67 715.94 491.002C713.513 492.304 711.589 494.124 710.169 496.462C708.749 498.77 708.038 501.404 708.038 504.363V546H694.766ZM793.832 494.464L781.802 496.595C781.299 495.056 780.5 493.591 779.405 492.2C778.34 490.809 776.89 489.67 775.055 488.782C773.22 487.895 770.927 487.451 768.175 487.451C764.416 487.451 761.28 488.294 758.764 489.981C756.249 491.638 754.991 493.783 754.991 496.417C754.991 498.696 755.834 500.531 757.521 501.922C759.208 503.312 761.931 504.452 765.689 505.339L776.52 507.825C782.793 509.275 787.469 511.51 790.547 514.528C793.624 517.547 795.163 521.468 795.163 526.291C795.163 530.375 793.98 534.015 791.612 537.211C789.274 540.377 786.004 542.863 781.802 544.668C777.63 546.473 772.791 547.376 767.287 547.376C759.652 547.376 753.423 545.748 748.599 542.493C743.775 539.208 740.816 534.548 739.721 528.511L752.55 526.558C753.349 529.902 754.991 532.432 757.477 534.148C759.963 535.835 763.203 536.678 767.198 536.678C771.548 536.678 775.025 535.776 777.63 533.971C780.234 532.136 781.536 529.902 781.536 527.268C781.536 525.137 780.737 523.347 779.139 521.897C777.57 520.447 775.159 519.352 771.903 518.612L760.362 516.082C754 514.632 749.294 512.323 746.246 509.157C743.228 505.991 741.719 501.981 741.719 497.127C741.719 493.103 742.843 489.581 745.092 486.563C747.341 483.544 750.449 481.192 754.414 479.505C758.379 477.789 762.922 476.93 768.041 476.93C775.41 476.93 781.21 478.528 785.442 481.724C789.674 484.891 792.47 489.137 793.832 494.464ZM829.598 547.509C825.278 547.509 821.371 546.71 817.879 545.112C814.387 543.485 811.621 541.132 809.579 538.054C807.566 534.977 806.56 531.204 806.56 526.735C806.56 522.888 807.3 519.722 808.78 517.236C810.259 514.75 812.257 512.782 814.772 511.332C817.288 509.882 820.099 508.787 823.206 508.047C826.313 507.307 829.48 506.745 832.705 506.36C836.789 505.887 840.104 505.502 842.649 505.206C845.194 504.881 847.043 504.363 848.197 503.653C849.351 502.942 849.928 501.788 849.928 500.19V499.88C849.928 496.003 848.834 492.999 846.644 490.869C844.483 488.738 841.258 487.673 836.967 487.673C832.498 487.673 828.977 488.664 826.402 490.647C823.857 492.6 822.096 494.775 821.12 497.172L808.646 494.331C810.126 490.188 812.286 486.844 815.127 484.299C817.998 481.724 821.297 479.86 825.026 478.706C828.755 477.522 832.676 476.93 836.789 476.93C839.512 476.93 842.397 477.256 845.445 477.907C848.523 478.528 851.393 479.683 854.057 481.369C856.75 483.056 858.954 485.468 860.671 488.605C862.387 491.712 863.245 495.751 863.245 500.723V546H850.284V536.678H849.751C848.893 538.395 847.605 540.081 845.889 541.739C844.173 543.396 841.968 544.772 839.275 545.867C836.582 546.962 833.356 547.509 829.598 547.509ZM832.483 536.856C836.153 536.856 839.29 536.131 841.894 534.681C844.528 533.231 846.525 531.337 847.887 528.999C849.277 526.632 849.973 524.101 849.973 521.408V512.619C849.499 513.093 848.582 513.537 847.221 513.951C845.889 514.336 844.365 514.676 842.649 514.972C840.932 515.238 839.26 515.49 837.633 515.727C836.005 515.934 834.644 516.111 833.549 516.259C830.974 516.585 828.622 517.132 826.491 517.902C824.39 518.671 822.703 519.781 821.431 521.231C820.188 522.651 819.566 524.545 819.566 526.913C819.566 530.197 820.78 532.683 823.206 534.37C825.633 536.027 828.725 536.856 832.483 536.856ZM894.196 455.091V546H880.923V455.091H894.196ZM946.198 546V455.091H1002.57V466.898H959.914V494.597H998.532V506.36H959.914V546H946.198ZM1017.52 546V477.818H1030.35V488.649H1031.06C1032.3 484.98 1034.49 482.094 1037.63 479.993C1040.79 477.863 1044.38 476.797 1048.37 476.797C1049.2 476.797 1050.18 476.827 1051.3 476.886C1052.45 476.945 1053.36 477.019 1054.01 477.108V489.803C1053.48 489.655 1052.53 489.493 1051.17 489.315C1049.81 489.108 1048.44 489.004 1047.08 489.004C1043.95 489.004 1041.15 489.67 1038.69 491.002C1036.27 492.304 1034.34 494.124 1032.92 496.462C1031.5 498.77 1030.79 501.404 1030.79 504.363V546H1017.52ZM1084.73 547.509C1080.4 547.509 1076.5 546.71 1073.01 545.112C1069.51 543.485 1066.75 541.132 1064.71 538.054C1062.69 534.977 1061.69 531.204 1061.69 526.735C1061.69 522.888 1062.43 519.722 1063.91 517.236C1065.39 514.75 1067.38 512.782 1069.9 511.332C1072.41 509.882 1075.23 508.787 1078.33 508.047C1081.44 507.307 1084.61 506.745 1087.83 506.36C1091.92 505.887 1095.23 505.502 1097.78 505.206C1100.32 504.881 1102.17 504.363 1103.32 503.653C1104.48 502.942 1105.06 501.788 1105.06 500.19V499.88C1105.06 496.003 1103.96 492.999 1101.77 490.869C1099.61 488.738 1096.38 487.673 1092.09 487.673C1087.63 487.673 1084.1 488.664 1081.53 490.647C1078.98 492.6 1077.22 494.775 1076.25 497.172L1063.77 494.331C1065.25 490.188 1067.41 486.844 1070.25 484.299C1073.12 481.724 1076.42 479.86 1080.15 478.706C1083.88 477.522 1087.8 476.93 1091.92 476.93C1094.64 476.93 1097.52 477.256 1100.57 477.907C1103.65 478.528 1106.52 479.683 1109.18 481.369C1111.88 483.056 1114.08 485.468 1115.8 488.605C1117.51 491.712 1118.37 495.751 1118.37 500.723V546H1105.41V536.678H1104.88C1104.02 538.395 1102.73 540.081 1101.02 541.739C1099.3 543.396 1097.09 544.772 1094.4 545.867C1091.71 546.962 1088.48 547.509 1084.73 547.509ZM1087.61 536.856C1091.28 536.856 1094.42 536.131 1097.02 534.681C1099.65 533.231 1101.65 531.337 1103.01 528.999C1104.4 526.632 1105.1 524.101 1105.1 521.408V512.619C1104.63 513.093 1103.71 513.537 1102.35 513.951C1101.02 514.336 1099.49 514.676 1097.78 514.972C1096.06 515.238 1094.39 515.49 1092.76 515.727C1091.13 515.934 1089.77 516.111 1088.68 516.259C1086.1 516.585 1083.75 517.132 1081.62 517.902C1079.52 518.671 1077.83 519.781 1076.56 521.231C1075.31 522.651 1074.69 524.545 1074.69 526.913C1074.69 530.197 1075.91 532.683 1078.33 534.37C1080.76 536.027 1083.85 536.856 1087.61 536.856ZM1136.05 546V477.818H1148.79V488.915H1149.63C1151.05 485.157 1153.38 482.228 1156.6 480.126C1159.83 477.996 1163.69 476.93 1168.19 476.93C1172.75 476.93 1176.56 477.996 1179.64 480.126C1182.75 482.257 1185.04 485.187 1186.52 488.915H1187.23C1188.86 485.276 1191.45 482.375 1195 480.215C1198.55 478.025 1202.78 476.93 1207.69 476.93C1213.88 476.93 1218.92 478.869 1222.83 482.745C1226.77 486.622 1228.73 492.467 1228.73 500.279V546H1215.46V501.522C1215.46 496.906 1214.2 493.562 1211.69 491.49C1209.17 489.419 1206.17 488.383 1202.68 488.383C1198.36 488.383 1195 489.714 1192.6 492.378C1190.2 495.012 1189.01 498.4 1189.01 502.543V546H1175.78V500.679C1175.78 496.98 1174.62 494.005 1172.32 491.756C1170.01 489.507 1167 488.383 1163.31 488.383C1160.79 488.383 1158.47 489.049 1156.34 490.38C1154.23 491.682 1152.53 493.502 1151.23 495.84C1149.96 498.178 1149.32 500.886 1149.32 503.963V546H1136.05ZM1275.91 547.376C1269.19 547.376 1263.41 545.941 1258.55 543.07C1253.73 540.17 1250 536.101 1247.37 530.863C1244.76 525.596 1243.46 519.426 1243.46 512.353C1243.46 505.369 1244.76 499.214 1247.37 493.887C1250 488.56 1253.67 484.403 1258.38 481.414C1263.11 478.425 1268.64 476.93 1274.98 476.93C1278.82 476.93 1282.55 477.567 1286.16 478.839C1289.77 480.112 1293.01 482.109 1295.88 484.832C1298.76 487.554 1301.02 491.091 1302.68 495.441C1304.33 499.761 1305.16 505.014 1305.16 511.199V515.904H1250.96V505.961H1292.16C1292.16 502.469 1291.45 499.377 1290.03 496.684C1288.6 493.961 1286.61 491.816 1284.03 490.247C1281.49 488.679 1278.5 487.895 1275.07 487.895C1271.34 487.895 1268.08 488.812 1265.3 490.647C1262.55 492.452 1260.42 494.819 1258.91 497.749C1257.43 500.649 1256.69 503.801 1256.69 507.204V514.972C1256.69 519.529 1257.49 523.406 1259.09 526.602C1260.71 529.798 1262.98 532.239 1265.88 533.926C1268.78 535.583 1272.17 536.412 1276.04 536.412C1278.56 536.412 1280.85 536.057 1282.92 535.347C1284.99 534.607 1286.78 533.512 1288.29 532.062C1289.8 530.612 1290.96 528.821 1291.76 526.691L1304.32 528.955C1303.31 532.654 1301.51 535.894 1298.9 538.676C1296.33 541.428 1293.09 543.573 1289.18 545.112C1285.31 546.621 1280.88 547.376 1275.91 547.376ZM1334.55 546L1314.48 477.818H1328.2L1341.56 527.889H1342.23L1355.63 477.818H1369.35L1382.67 527.667H1383.33L1396.6 477.818H1410.32L1390.3 546H1376.76L1362.91 496.772H1361.89L1348.04 546H1334.55ZM1449.56 547.376C1443.17 547.376 1437.59 545.911 1432.83 542.982C1428.06 540.052 1424.36 535.953 1421.73 530.686C1419.09 525.418 1417.78 519.263 1417.78 512.22C1417.78 505.147 1419.09 498.962 1421.73 493.665C1424.36 488.368 1428.06 484.255 1432.83 481.325C1437.59 478.395 1443.17 476.93 1449.56 476.93C1455.95 476.93 1461.53 478.395 1466.29 481.325C1471.06 484.255 1474.76 488.368 1477.39 493.665C1480.03 498.962 1481.34 505.147 1481.34 512.22C1481.34 519.263 1480.03 525.418 1477.39 530.686C1474.76 535.953 1471.06 540.052 1466.29 542.982C1461.53 545.911 1455.95 547.376 1449.56 547.376ZM1449.6 536.234C1453.75 536.234 1457.18 535.139 1459.9 532.95C1462.63 530.76 1464.64 527.845 1465.94 524.205C1467.27 520.565 1467.94 516.555 1467.94 512.175C1467.94 507.825 1467.27 503.83 1465.94 500.19C1464.64 496.521 1462.63 493.576 1459.9 491.357C1457.18 489.137 1453.75 488.028 1449.6 488.028C1445.43 488.028 1441.97 489.137 1439.22 491.357C1436.49 493.576 1434.47 496.521 1433.14 500.19C1431.83 503.83 1431.18 507.825 1431.18 512.175C1431.18 516.555 1431.83 520.565 1433.14 524.205C1434.47 527.845 1436.49 530.76 1439.22 532.95C1441.97 535.139 1445.43 536.234 1449.6 536.234ZM1496.16 546V477.818H1508.99V488.649H1509.7C1510.94 484.98 1513.13 482.094 1516.27 479.993C1519.43 477.863 1523.01 476.797 1527.01 476.797C1527.84 476.797 1528.81 476.827 1529.94 476.886C1531.09 476.945 1531.99 477.019 1532.65 477.108V489.803C1532.11 489.655 1531.17 489.493 1529.8 489.315C1528.44 489.108 1527.08 489.004 1525.72 489.004C1522.58 489.004 1519.79 489.67 1517.33 491.002C1514.9 492.304 1512.98 494.124 1511.56 496.462C1510.14 498.77 1509.43 501.404 1509.43 504.363V546H1496.16ZM1556.34 522.873L1556.25 506.671H1558.56L1585.72 477.818H1601.62L1570.63 510.666H1568.55L1556.34 522.873ZM1544.13 546V455.091H1557.4V546H1544.13ZM1587.19 546L1562.77 513.596L1571.92 504.319L1603.48 546H1587.19Z" fill="white"/>
<defs>
<linearGradient id="paint0_linear_549_43" x1="-1.45286e-05" y1="1000" x2="2067.95" y2="577.941" gradientUnits="userSpaceOnUse">
<stop stop-color="#0C0F15"/>
<stop offset="0.411585" stop-color="#3E4E70"/>
<stop offset="1" stop-color="#242D40"/>
</linearGradient>
</defs>
</svg>
