<svg width="1006" height="1006" viewBox="0 0 1006 1006" fill="none" xmlns="http://www.w3.org/2000/svg">
<circle cx="503" cy="503" r="503" fill="black"/>
<path d="M197.793 661.071C184.65 671.077 171.636 678.579 161.25 682.636C156.047 684.669 151.586 685.805 148.14 686.001C144.631 686.2 142.58 685.413 141.604 684.131C140.628 682.849 140.416 680.662 141.542 677.333C142.648 674.064 144.93 670.066 148.275 665.592C154.951 656.661 165.646 646.114 178.789 636.108C191.933 626.102 204.947 618.601 215.332 614.543C220.535 612.51 224.996 611.374 228.442 611.179C231.951 610.979 234.002 611.766 234.978 613.048C235.954 614.33 236.167 616.517 235.04 619.846C233.934 623.116 231.652 627.113 228.308 631.587C221.632 640.518 210.936 651.066 197.793 661.071Z" stroke="white" stroke-width="3"/>
<path d="M304.119 594.36C271.622 619.099 240.326 638.988 216.01 651.15C203.844 657.235 193.471 661.362 185.591 663.208C181.648 664.133 178.388 664.471 175.867 664.23C173.344 663.989 171.694 663.184 170.756 661.952C169.818 660.72 169.482 658.915 169.921 656.419C170.359 653.925 171.553 650.872 173.494 647.317C177.372 640.214 184.111 631.314 193.215 621.206C211.411 601.005 238.913 576.133 271.409 551.394C303.906 526.655 335.202 506.766 359.518 494.604C371.684 488.519 382.057 484.392 389.937 482.546C393.88 481.621 397.14 481.283 399.661 481.524C402.184 481.765 403.834 482.57 404.772 483.802C405.71 485.034 406.047 486.839 405.608 489.335C405.169 491.829 403.975 494.882 402.034 498.437C398.157 505.54 391.417 514.44 382.314 524.548C364.118 544.749 336.615 569.621 304.119 594.36Z" stroke="white" stroke-width="2"/>
<path d="M898.227 607.64C898.093 607.875 897.851 608.102 897.143 608.158C896.371 608.219 895.235 608.046 893.678 607.548C890.583 606.559 886.363 604.467 881.143 601.544C876.076 598.707 870.163 595.142 863.56 591.161L863.052 590.855C856.252 586.756 848.747 582.237 840.744 577.662C824.826 568.56 805.489 555.897 790.588 544.745C783.131 539.163 776.828 533.992 772.624 529.854C770.513 527.777 768.993 526.019 768.114 524.641C767.673 523.95 767.441 523.427 767.349 523.062C767.305 522.884 767.301 522.78 767.305 522.728C767.336 522.715 767.388 522.696 767.471 522.679C767.761 522.617 768.254 522.604 769.007 522.722C770.504 522.956 772.609 523.636 775.264 524.738C780.547 526.93 787.642 530.638 795.684 535.144C804.613 540.147 814.565 546.052 824.398 551.886C832.336 556.595 840.198 561.259 847.382 565.366C863.295 574.465 876.949 583.938 886.159 591.879C890.773 595.857 894.212 599.4 896.268 602.278C897.299 603.721 897.929 604.924 898.214 605.875C898.499 606.827 898.393 607.35 898.227 607.64ZM767.312 522.686C767.312 522.686 767.312 522.688 767.31 522.692C767.311 522.688 767.312 522.686 767.312 522.686ZM767.277 522.743C767.27 522.749 767.266 522.751 767.266 522.751C767.265 522.751 767.268 522.748 767.277 522.743Z" fill="black" stroke="white" stroke-width="3"/>
<path d="M576.008 413.908C576.57 415.954 576.38 417.639 575.496 419.281C574.372 421.372 571.968 423.686 567.58 426.39C558.805 431.799 543.408 438.007 519.122 447.123C509.467 450.747 498.807 454.938 487.869 459.239C471.203 465.791 453.889 472.597 438.494 478.043C425.763 482.547 414.53 486.049 406.241 487.671C402.072 488.486 398.834 488.786 396.591 488.581C394.202 488.363 393.882 487.694 393.841 487.585C393.724 487.275 393.671 486.232 395.194 484.011C396.617 481.934 399.026 479.413 402.355 476.537C408.989 470.808 418.842 464.04 430.442 457.034C453.622 443.033 483.411 428.302 507.459 419.274C531.532 410.238 545.769 407.999 555.458 408.443C562.872 408.783 567.631 410.652 572.532 412.575C573.671 413.023 574.818 413.473 576.008 413.908Z" stroke="white" stroke-width="5"/>
<path d="M565.809 417.052C565.805 417.117 565.764 417.326 565.461 417.743C565.018 418.352 564.206 419.123 562.967 420.04C560.507 421.861 556.703 424.015 551.852 426.398C542.172 431.154 528.597 436.692 513.984 442.178C499.41 447.649 485.883 451.616 475.808 453.616C470.758 454.619 466.645 455.113 463.727 455.078C462.259 455.06 461.187 454.909 460.478 454.675C460.128 454.56 459.917 454.441 459.799 454.349C459.742 454.305 459.712 454.272 459.697 454.252C459.683 454.234 459.678 454.223 459.677 454.219C459.675 454.215 459.672 454.205 459.67 454.182C459.669 454.157 459.67 454.112 459.683 454.041C459.712 453.894 459.793 453.666 459.98 453.349C460.36 452.707 461.068 451.887 462.162 450.908C464.336 448.961 467.758 446.627 472.22 444.059C481.123 438.935 493.919 433.021 508.494 427.551C523.03 422.094 537.289 418.515 548.107 416.899C553.525 416.09 558.02 415.782 561.231 415.956C562.845 416.044 564.052 416.25 564.865 416.53C565.58 416.776 565.771 417.001 565.809 417.052ZM565.809 417.039C565.807 417.032 565.807 417.029 565.808 417.029C565.808 417.029 565.809 417.032 565.809 417.039Z" stroke="white" stroke-width="3"/>
<path d="M473.577 447.005C474.062 447.749 474.286 448.935 473.823 450.838C473.361 452.74 472.264 455.112 470.475 457.926C466.905 463.543 460.838 470.519 452.673 478.402C436.366 494.143 411.989 513.211 383.408 531.843C354.787 550.5 336.276 559.162 324.15 561.865C318.112 563.212 313.817 563.043 310.7 562.033C307.633 561.04 305.525 559.175 303.936 556.738C303.321 555.794 303.216 554.988 303.442 554.139C303.697 553.181 304.431 551.979 305.91 550.485C308.88 547.483 314.167 543.966 321.715 539.492C325.895 537.013 330.726 534.266 336.144 531.185C350.089 523.255 367.926 513.111 388.592 499.639C408.56 486.623 424.463 474.972 436.926 465.843C442.361 461.861 447.141 458.359 451.319 455.433C458.28 450.556 463.441 447.367 467.234 446.027C469.116 445.361 470.447 445.232 471.387 445.415C472.232 445.579 472.939 446.027 473.577 447.005Z" stroke="white" stroke-width="4"/>
<path d="M514.502 426.316C515.226 427.427 515.485 428.902 515.183 430.805C514.881 432.715 514.021 434.984 512.6 437.576C509.758 442.759 504.774 449.044 498.001 456.023C484.468 469.968 463.946 486.525 439.644 502.367C415.342 518.209 391.911 530.303 373.69 537.058C364.572 540.438 356.81 542.462 350.921 542.97C347.976 543.225 345.552 543.095 343.683 542.601C341.821 542.11 340.575 541.277 339.851 540.166C339.127 539.056 338.868 537.58 339.17 535.678C339.472 533.768 340.332 531.499 341.753 528.906C344.595 523.723 349.579 517.439 356.352 510.46C369.885 496.515 390.407 479.958 414.709 464.116C439.011 448.274 462.442 436.18 480.663 429.425C489.781 426.044 497.542 424.021 503.432 423.512C506.377 423.258 508.801 423.388 510.67 423.881C512.532 424.373 513.778 425.206 514.502 426.316Z" stroke="white" stroke-width="2"/>
<path d="M341.436 540.87C342.806 542.972 342.757 546.278 340.738 550.901C338.747 555.458 335.001 560.904 329.727 566.892C319.195 578.851 302.805 592.708 283.047 605.588C263.29 618.467 243.997 627.871 228.804 632.681C221.197 635.09 214.702 636.32 209.73 636.302C204.685 636.284 201.64 634.994 200.27 632.892C198.9 630.79 198.949 627.484 200.968 622.861C202.959 618.304 206.705 612.858 211.978 606.87C222.511 594.911 238.901 581.054 258.658 568.174C278.416 555.295 297.709 545.892 312.902 541.081C320.509 538.673 327.003 537.443 331.976 537.46C337.021 537.479 340.065 538.768 341.436 540.87Z" stroke="white" stroke-width="3"/>
<path d="M448.288 463.247C448.877 464.15 449.083 465.494 448.602 467.471C448.121 469.448 446.993 471.873 445.19 474.71C441.589 480.375 435.49 487.384 427.313 495.277C410.977 511.047 386.573 530.134 357.974 548.777C329.374 567.42 302.062 582.046 281.041 590.628C270.519 594.924 261.645 597.676 255.008 598.685C251.685 599.19 249.011 599.243 247.008 598.885C245.005 598.527 243.859 597.796 243.27 596.893C242.682 595.991 242.476 594.647 242.957 592.669C243.437 590.693 244.565 588.268 246.368 585.431C249.97 579.766 256.069 572.757 264.246 564.864C280.582 549.094 304.985 530.007 333.585 511.364C362.184 492.72 389.497 478.095 410.518 469.513C421.04 465.217 429.914 462.465 436.55 461.456C439.874 460.951 442.548 460.898 444.55 461.256C446.553 461.614 447.7 462.345 448.288 463.247Z" stroke="white" stroke-width="3"/>
<path d="M311.302 567.646C311.434 567.849 311.686 568.517 311.111 570.21C310.553 571.852 309.362 573.992 307.451 576.611C303.648 581.826 297.365 588.442 289.007 596.027C272.32 611.17 247.709 629.867 219.13 648.496C190.552 667.126 163.514 682.099 142.924 691.255C132.611 695.841 124.022 698.919 117.716 700.295C114.548 700.986 112.109 701.212 110.382 701.06C108.601 700.903 108.091 700.403 107.959 700.2C107.827 699.997 107.575 699.33 108.151 697.636C108.709 695.995 109.9 693.854 111.81 691.235C115.614 686.02 121.897 679.404 130.255 671.819C146.941 656.676 171.553 637.98 200.131 619.35C228.709 600.721 255.748 585.747 276.337 576.592C286.65 572.006 295.239 568.927 301.545 567.552C304.713 566.861 307.152 566.634 308.879 566.787C310.661 566.943 311.17 567.444 311.302 567.646Z" stroke="white" stroke-width="5"/>
<path d="M703.353 455.702C702.346 458.029 700.085 459.925 696.404 461.193C692.723 462.461 687.826 463.019 681.991 462.786C670.333 462.322 655.36 458.723 639.889 452.03C632.062 448.643 625.957 445.961 621.263 443.648C616.543 441.322 613.402 439.441 611.409 437.694C609.476 435.999 608.767 434.558 608.64 433.058C608.501 431.42 609.018 429.376 610.299 426.415C612.487 421.359 618.452 418.134 626.586 417.267C634.588 416.415 644.131 417.941 652.547 421.765C658.479 425.407 665.005 428.754 671.331 431.895C672.808 432.629 674.272 433.35 675.716 434.061C680.523 436.429 685.101 438.683 689.157 440.897C694.461 443.792 698.647 446.5 701.185 449.122C702.442 450.422 703.191 451.597 703.525 452.655C703.841 453.658 703.814 454.638 703.353 455.702Z" stroke="white" stroke-width="4"/>
<path d="M767.206 521.706C766.53 522.86 765.69 523.56 764.683 523.948C763.644 524.347 762.309 524.458 760.599 524.207C757.135 523.7 752.561 521.781 746.796 518.689C741.065 515.616 734.32 511.476 726.54 506.657C725.821 506.211 725.093 505.76 724.357 505.304C717.14 500.831 709.097 495.845 700.258 490.669C680.847 479.303 665.387 468.633 655.628 459.439C650.739 454.835 647.371 450.682 645.619 447.076C643.878 443.492 643.823 440.667 645.142 438.415C646.366 436.323 649.38 435.057 654.629 435.118C659.771 435.177 666.529 436.514 674.394 438.946C690.082 443.797 709.823 452.892 729.176 464.22C745.894 476.451 756.999 488.332 763.1 498.47C769.263 508.714 770.099 516.765 767.206 521.706Z" stroke="white" stroke-width="3"/>
<path d="M813.946 544.706C812.999 546.324 811.259 547.527 808.68 548.2C806.092 548.876 802.769 548.983 798.898 548.477C791.162 547.467 781.538 544.049 771.908 538.41C762.278 532.772 754.589 526.05 749.922 519.798C747.587 516.669 746.055 513.719 745.377 511.132C744.702 508.553 744.9 506.447 745.848 504.829C746.795 503.211 748.535 502.008 751.114 501.335C753.702 500.659 757.025 500.552 760.896 501.058C768.632 502.068 778.256 505.486 787.886 511.124C797.516 516.763 805.205 523.485 809.872 529.737C812.207 532.865 813.739 535.816 814.417 538.403C815.092 540.982 814.894 543.088 813.946 544.706Z" stroke="white" stroke-width="3"/>
<path d="M837.983 560.975C837.387 561.993 836.138 562.69 833.975 562.895C831.821 563.1 828.965 562.792 825.502 562.011C818.589 560.452 809.532 557.073 799.414 552.604C779.194 543.674 754.932 530.477 735.505 519.101C716.03 507.697 705.282 500.382 700.199 494.559C697.684 491.679 696.644 489.259 696.541 486.969C696.439 484.66 697.281 482.306 698.904 479.534C702.128 474.028 706.749 469.354 715.212 468.696C723.798 468.028 736.505 471.471 755.897 482.827C775.266 494.169 797.48 511.162 814.013 526.729C822.283 534.516 829.097 541.913 833.421 548.043C835.586 551.111 837.093 553.816 837.862 556.06C838.64 558.332 838.595 559.931 837.983 560.975Z" stroke="white" stroke-width="2"/>
<path d="M681.006 458.359C679.097 461.619 674.326 462.982 667.851 462.286C661.427 461.595 653.538 458.89 645.722 454.314C637.907 449.737 631.687 444.181 627.942 438.916C624.167 433.61 623.02 428.782 624.929 425.522C626.839 422.261 631.61 420.899 638.085 421.595C644.509 422.285 652.398 424.99 660.213 429.567C668.029 434.143 674.248 439.7 677.994 444.964C681.769 450.27 682.916 455.099 681.006 458.359Z" stroke="white"/>
<path d="M896.626 605.607C896.304 605.639 895.772 605.601 894.984 605.422C893.375 605.057 891.124 604.207 888.323 602.926C882.749 600.374 875.319 596.264 867.136 591.47C858.962 586.682 850.083 581.24 841.617 576.04C841.135 575.744 840.654 575.448 840.175 575.154C832.247 570.283 824.738 565.671 818.618 562.087C805.724 554.536 795.52 547.219 788.981 541.118C785.703 538.059 783.417 535.37 782.156 533.167C780.853 530.888 780.881 529.571 781.295 528.865C782.652 526.547 785.998 524.064 792.315 524.015C798.66 523.967 807.922 526.394 820.742 533.902C833.523 541.386 853.382 558.304 869.677 574.141C877.812 582.047 885.011 589.636 889.955 595.589C892.433 598.572 894.308 601.101 895.452 603.027C896.028 603.997 896.38 604.75 896.546 605.293C896.586 605.424 896.611 605.527 896.626 605.607ZM896.835 605.569C896.84 605.566 896.843 605.565 896.843 605.565C896.844 605.565 896.841 605.567 896.835 605.569Z" stroke="white" stroke-width="3"/>
<path d="M757.137 511.959C756.862 512.429 756.424 512.702 755.619 512.728C754.755 512.757 753.561 512.485 752.015 511.87C748.938 510.646 744.856 508.224 739.972 505.046C736.911 503.055 733.549 500.775 729.955 498.339C722.157 493.052 713.268 487.025 704.005 481.601C690.478 473.68 678.431 466.615 670.246 460.707C666.146 457.747 663.087 455.127 661.297 452.882C659.465 450.585 659.231 449.048 659.863 447.969C660.532 446.828 662.197 446.115 665.31 446.252C668.35 446.387 672.403 447.325 677.249 448.989C686.924 452.31 699.514 458.433 712.995 466.327C726.419 474.188 738.438 484.217 746.604 493.087C750.69 497.526 753.781 501.642 755.605 505.022C756.518 506.714 757.092 508.181 757.33 509.384C757.571 510.597 757.45 511.424 757.137 511.959Z" stroke="white" stroke-width="2"/>
<path d="M740.968 375.149C740.938 375.19 740.868 375.271 740.723 375.383C740.293 375.716 739.487 376.11 738.168 376.501C735.556 377.276 731.62 377.852 726.569 378.324C720.895 378.854 714.075 379.235 706.495 379.659C700.556 379.991 694.151 380.349 687.466 380.825C680.71 381.306 674.356 381.859 668.535 382.365C661.245 383 654.791 383.561 649.431 383.818C644.62 384.048 640.912 384.017 638.424 383.612C637.169 383.408 636.408 383.135 636 382.883C635.826 382.775 635.763 382.7 635.748 382.68C635.748 382.679 635.748 382.678 635.748 382.678L635.748 382.677C635.748 382.672 635.744 382.626 635.791 382.519C635.843 382.399 635.956 382.21 636.185 381.96C636.656 381.447 637.47 380.83 638.711 380.152C641.181 378.801 644.923 377.425 649.734 376.133C659.323 373.557 672.758 371.416 687.751 370.349C702.743 369.281 716.346 369.496 726.203 370.687C731.149 371.284 735.048 372.115 737.684 373.103C739.009 373.599 739.902 374.094 740.441 374.535C740.703 374.75 740.841 374.921 740.91 375.032C740.944 375.086 740.96 375.125 740.968 375.149Z" fill="black" stroke="white" stroke-width="4"/>
<path d="M716.899 392.678C716.819 392.642 716.737 392.605 716.653 392.567C715.952 392.25 715.158 391.881 714.284 391.475C712.155 390.486 709.557 389.279 706.705 388.08C698.693 384.714 688.296 381.242 679.622 382.626C671.291 383.956 663.687 384.636 658.136 384.668C655.352 384.684 653.13 384.536 651.602 384.242C650.833 384.093 650.301 383.919 649.976 383.747C649.831 383.67 649.76 383.613 649.728 383.582C649.732 383.413 649.854 382.989 650.602 382.31C651.395 381.59 652.704 380.763 654.606 379.904C658.396 378.191 664.344 376.436 672.658 375.109C676.622 374.477 681.486 375.206 686.632 376.769C691.759 378.326 697.076 380.683 701.906 383.213C706.734 385.742 711.053 388.432 714.181 390.641C715.237 391.388 716.151 392.074 716.899 392.678ZM649.705 383.556C649.706 383.556 649.706 383.557 649.708 383.56C649.706 383.558 649.705 383.556 649.705 383.556Z" fill="black" stroke="white" stroke-width="2"/>
<path d="M699.505 370.106C699.506 370.115 699.506 370.12 699.506 370.124C699.501 370.134 699.463 370.208 699.318 370.332C698.998 370.607 698.364 370.951 697.278 371.291C695.124 371.964 691.894 372.414 687.851 372.735C683.842 373.054 679.197 373.237 674.275 373.429L674.146 373.434C669.279 373.624 664.158 373.824 659.215 374.176C649.456 374.871 640.677 374.28 634.355 372.837C631.181 372.112 628.739 371.198 627.117 370.204C625.44 369.175 625.03 368.319 624.995 367.822C624.96 367.335 625.234 366.452 626.744 365.229C628.207 364.045 630.494 362.832 633.539 361.704C639.603 359.458 648.222 357.708 657.992 357.013C667.53 356.333 678.043 358.532 686.234 361.641C690.326 363.194 693.754 364.943 696.146 366.607C697.345 367.442 698.225 368.215 698.795 368.884C699.392 369.585 699.497 369.99 699.505 370.106Z" stroke="white" stroke-width="4"/>
<path d="M672.853 365.854C673.108 366.279 673.154 366.714 673.014 367.195C672.868 367.697 672.514 368.262 671.935 368.891C670.778 370.149 668.846 371.53 666.408 373.025C663.98 374.515 661.093 376.093 658.053 377.753L657.979 377.794C654.966 379.439 651.809 381.163 648.828 382.95C642.875 386.517 636.991 388.791 632.291 389.629C629.939 390.048 627.91 390.103 626.327 389.799C624.743 389.494 623.666 388.845 623.103 387.906C622.542 386.97 622.485 385.731 622.976 384.216C623.467 382.701 624.489 380.968 625.987 379.122C628.979 375.433 633.796 371.377 639.752 367.807C645.646 364.275 653.336 362.737 659.897 362.638C663.174 362.588 666.145 362.898 668.447 363.486C669.598 363.78 670.569 364.14 671.322 364.55C672.081 364.963 672.585 365.408 672.853 365.854Z" stroke="white"/>
<path d="M635.614 362.011C636.46 362.489 637.151 363.392 637.576 364.841C638.003 366.3 638.128 368.215 637.89 370.494C637.415 375.048 635.526 380.762 632.278 386.508C629.03 392.254 625.108 396.819 621.452 399.574C619.621 400.953 617.917 401.834 616.446 402.22C614.985 402.603 613.856 402.477 613.01 401.998C612.164 401.52 611.473 400.618 611.048 399.168C610.621 397.709 610.496 395.795 610.734 393.515C611.209 388.962 613.098 383.248 616.346 377.502C619.594 371.756 623.516 367.191 627.172 364.436C629.003 363.056 630.707 362.175 632.178 361.79C633.639 361.407 634.768 361.533 635.614 362.011Z" stroke="white" stroke-width="3"/>
<path d="M639.689 382.698C641.683 385.498 645.412 386.045 648.699 386.033C650.39 386.027 652.078 385.871 653.543 385.723C653.7 385.708 653.852 385.692 654.002 385.677C655.292 385.546 656.336 385.44 657.086 385.45C657.137 385.45 657.184 385.452 657.229 385.453C656.957 385.795 656.523 386.248 655.879 386.837C653.244 389.248 647.592 393.491 637.324 400.803C620.463 412.812 603.722 427.775 589.417 440.561C586.28 443.365 583.26 446.064 580.382 448.604C572.357 455.686 565.463 461.508 560.171 464.973C557.515 466.713 555.349 467.8 553.7 468.191C552.883 468.385 552.258 468.391 551.791 468.275C551.348 468.164 551 467.933 550.719 467.538C549.323 465.577 549.132 462.16 550.583 457.372C552.017 452.645 554.979 446.839 559.457 440.37C568.406 427.442 583.309 412.01 603.734 397.463C609.276 393.516 613.866 390.208 617.69 387.453C620.956 385.099 623.662 383.149 625.923 381.548C628.371 379.816 630.267 378.515 631.755 377.578C633.257 376.632 634.287 376.093 635.015 375.843C635.739 375.594 635.972 375.695 636.049 375.74C636.189 375.82 636.389 376.044 636.691 376.716C636.814 376.989 636.944 377.316 637.091 377.685C637.605 378.973 638.326 380.783 639.689 382.698Z" stroke="white" stroke-width="2"/>
<path d="M631.933 393.275C632.661 394.297 632.982 395.907 632.41 398.356C631.84 400.8 630.438 403.773 628.19 407.094C623.705 413.721 616.166 421.276 606.597 428.091C597.028 434.906 587.423 439.561 579.695 441.633C575.821 442.671 572.553 443.024 570.057 442.764C567.556 442.504 566.139 441.674 565.411 440.653C564.684 439.631 564.363 438.02 564.934 435.572C565.505 433.128 566.907 430.155 569.155 426.833C573.639 420.207 581.179 412.652 590.748 405.837C600.316 399.022 609.921 394.367 617.65 392.295C621.523 391.256 624.792 390.903 627.288 391.163C629.789 391.424 631.206 392.254 631.933 393.275Z" stroke="white" stroke-width="5"/>
<path d="M631.186 363.044C631.813 363.925 632.344 365.323 632.649 367.246C632.952 369.155 633.023 371.518 632.779 374.273C632.29 379.78 630.55 386.784 626.99 394.715C619.871 410.568 605.495 430.079 579.42 448.65C553.234 467.299 529.023 482.752 510.628 492.484C501.423 497.355 493.719 500.769 487.973 502.446C485.095 503.285 482.773 503.669 481.03 503.614C479.275 503.558 478.303 503.069 477.815 502.384C476.672 500.779 476.745 498.643 478.802 495.435C480.858 492.228 484.723 488.257 490.499 483.314C502.03 473.443 520.859 459.954 547.08 441.279C573.381 422.547 593.319 400.871 607.403 384.973C608.724 383.482 609.992 382.044 611.207 380.665C616.491 374.67 620.787 369.797 624.171 366.575C626.265 364.581 627.909 363.319 629.149 362.786C629.759 362.524 630.177 362.479 630.457 362.528C630.7 362.57 630.94 362.699 631.186 363.044Z" stroke="white" stroke-width="2"/>
<path d="M572.568 456.351C574.529 459.105 574.904 461.778 574.075 464.66C573.199 467.706 570.93 471.127 567.238 475.012C559.847 482.789 547.656 491.525 533.05 501.927C518.463 512.316 504.781 522.011 493.569 527.466C487.952 530.199 483.21 531.735 479.442 531.889C475.827 532.038 473.259 530.929 471.44 528.375C467.536 522.893 468.412 513.827 474.677 502.81C480.829 491.99 491.753 480.146 506.05 469.963C520.348 459.781 535.113 453.329 547.349 451.052C559.809 448.734 568.663 450.869 572.568 456.351Z" stroke="white" stroke-width="5"/>
<path d="M604.835 426.961C606.194 428.869 606.475 431.698 605.379 435.496C604.29 439.275 601.9 443.762 598.334 448.675C591.211 458.488 579.599 469.722 565.169 479.999C550.739 490.275 536.326 497.577 524.724 501.1C518.915 502.864 513.893 503.656 509.966 503.45C506.018 503.243 503.437 502.053 502.078 500.145C500.718 498.236 500.438 495.408 501.533 491.609C502.623 487.831 505.012 483.344 508.579 478.431C515.702 468.618 527.314 457.384 541.743 447.107C556.173 436.83 570.586 429.529 582.188 426.005C587.997 424.241 593.019 423.45 596.947 423.655C600.894 423.862 603.475 425.052 604.835 426.961Z" stroke="white" stroke-width="3"/>
<path d="M548.057 465.223C550.893 469.205 550.291 475.417 546.424 482.525C542.593 489.569 535.704 497.178 526.639 503.634C517.575 510.09 508.131 514.113 500.222 515.431C492.24 516.761 486.173 515.3 483.337 511.318C480.501 507.336 481.103 501.124 484.97 494.016C488.801 486.972 495.69 479.363 504.755 472.907C513.82 466.451 523.263 462.428 531.172 461.11C539.154 459.78 545.221 461.241 548.057 465.223Z" stroke="white" stroke-width="2"/>
</svg>
