<svg width="981" height="981" viewBox="0 0 981 981" fill="none" xmlns="http://www.w3.org/2000/svg">
<rect width="981" height="981" rx="490.5" fill="white"/>
<path d="M362.504 680V607.273H392.547C397.992 607.273 402.691 608.338 406.645 610.469C410.622 612.576 413.688 615.523 415.842 619.311C417.997 623.075 419.074 627.455 419.074 632.45C419.074 637.469 417.973 641.861 415.771 645.625C413.593 649.366 410.48 652.266 406.432 654.325C402.384 656.385 397.578 657.415 392.014 657.415H373.477V643.565H388.747C391.399 643.565 393.612 643.104 395.388 642.18C397.187 641.257 398.548 639.967 399.472 638.31C400.395 636.629 400.857 634.676 400.857 632.45C400.857 630.201 400.395 628.26 399.472 626.626C398.548 624.969 397.187 623.691 395.388 622.791C393.589 621.892 391.375 621.442 388.747 621.442H380.082V680H362.504ZM452.162 681.03C446.456 681.03 441.532 679.905 437.389 677.656C433.27 675.384 430.097 672.152 427.872 667.962C425.67 663.748 424.569 658.741 424.569 652.94C424.569 647.306 425.682 642.382 427.907 638.168C430.133 633.93 433.27 630.639 437.318 628.295C441.366 625.928 446.136 624.744 451.629 624.744C455.511 624.744 459.063 625.348 462.282 626.555C465.502 627.763 468.284 629.55 470.627 631.918C472.971 634.285 474.794 637.209 476.096 640.689C477.398 644.145 478.049 648.111 478.049 652.585V656.918H430.642V646.832H461.892C461.868 644.986 461.43 643.34 460.578 641.896C459.725 640.452 458.554 639.328 457.062 638.523C455.594 637.694 453.902 637.28 451.984 637.28C450.043 637.28 448.303 637.718 446.764 638.594C445.225 639.446 444.006 640.618 443.106 642.109C442.207 643.577 441.733 645.246 441.686 647.116V657.379C441.686 659.605 442.124 661.558 443 663.239C443.876 664.896 445.118 666.186 446.728 667.109C448.338 668.033 450.256 668.494 452.481 668.494C454.02 668.494 455.417 668.281 456.672 667.855C457.926 667.429 459.003 666.802 459.903 665.973C460.803 665.144 461.477 664.126 461.927 662.919L477.872 663.381C477.209 666.955 475.753 670.069 473.504 672.72C471.279 675.348 468.355 677.396 464.733 678.864C461.11 680.308 456.92 681.03 452.162 681.03ZM504.283 607.273V680H486.918V607.273H504.283ZM530.713 680.923C527.233 680.923 524.143 680.343 521.444 679.183C518.769 678 516.65 676.224 515.088 673.857C513.549 671.465 512.779 668.471 512.779 664.872C512.779 661.842 513.312 659.285 514.377 657.202C515.443 655.118 516.911 653.426 518.781 652.124C520.651 650.821 522.806 649.839 525.244 649.176C527.682 648.49 530.287 648.028 533.056 647.791C536.158 647.507 538.655 647.211 540.549 646.903C542.443 646.572 543.816 646.11 544.669 645.518C545.545 644.903 545.983 644.039 545.983 642.926V642.749C545.983 640.926 545.355 639.517 544.1 638.523C542.846 637.528 541.153 637.031 539.022 637.031C536.726 637.031 534.879 637.528 533.483 638.523C532.086 639.517 531.198 640.89 530.819 642.642L514.804 642.074C515.277 638.759 516.496 635.8 518.461 633.196C520.45 630.568 523.172 628.509 526.629 627.017C530.109 625.502 534.288 624.744 539.164 624.744C542.645 624.744 545.852 625.159 548.788 625.987C551.724 626.792 554.28 627.976 556.458 629.538C558.636 631.077 560.317 632.971 561.501 635.22C562.708 637.469 563.312 640.038 563.312 642.926V680H546.977V672.401H546.551C545.58 674.247 544.337 675.81 542.822 677.088C541.331 678.366 539.567 679.325 537.531 679.964C535.519 680.604 533.246 680.923 530.713 680.923ZM536.075 669.56C537.945 669.56 539.626 669.181 541.118 668.423C542.633 667.666 543.84 666.624 544.74 665.298C545.639 663.949 546.089 662.386 546.089 660.611V655.426C545.592 655.687 544.988 655.923 544.278 656.136C543.592 656.349 542.834 656.551 542.005 656.74C541.177 656.929 540.324 657.095 539.449 657.237C538.573 657.379 537.732 657.509 536.927 657.628C535.294 657.888 533.897 658.291 532.737 658.835C531.6 659.38 530.725 660.09 530.109 660.966C529.517 661.818 529.221 662.836 529.221 664.02C529.221 665.819 529.86 667.192 531.139 668.139C532.441 669.086 534.086 669.56 536.075 669.56ZM599.356 701.591C594.172 701.591 589.733 700.869 586.039 699.425C582.346 697.981 579.446 696.004 577.339 693.494C575.232 690.985 573.966 688.144 573.539 684.972L589.981 684.048C590.289 685.161 590.857 686.132 591.686 686.96C592.538 687.789 593.639 688.428 594.988 688.878C596.361 689.328 597.971 689.553 599.818 689.553C602.73 689.553 605.133 688.842 607.027 687.422C608.944 686.025 609.903 683.575 609.903 680.071V670.483H609.299C608.613 672.164 607.571 673.667 606.174 674.993C604.778 676.319 603.038 677.36 600.954 678.118C598.895 678.875 596.527 679.254 593.852 679.254C589.875 679.254 586.229 678.331 582.914 676.484C579.624 674.614 576.984 671.726 574.995 667.82C573.03 663.89 572.048 658.835 572.048 652.656C572.048 646.288 573.066 641.044 575.102 636.925C577.138 632.782 579.801 629.716 583.092 627.727C586.406 625.739 589.969 624.744 593.781 624.744C596.645 624.744 599.096 625.241 601.132 626.236C603.191 627.206 604.884 628.461 606.21 630C607.536 631.539 608.542 633.137 609.228 634.794H609.725V625.455H627.02V680.213C627.02 684.83 625.859 688.724 623.539 691.896C621.219 695.069 617.976 697.472 613.809 699.105C609.643 700.762 604.825 701.591 599.356 701.591ZM599.889 666.612C601.996 666.612 603.795 666.056 605.287 664.943C606.778 663.83 607.926 662.232 608.731 660.149C609.536 658.066 609.939 655.568 609.939 652.656C609.939 649.697 609.536 647.152 608.731 645.021C607.95 642.867 606.802 641.21 605.287 640.05C603.795 638.89 601.996 638.31 599.889 638.31C597.734 638.31 595.912 638.902 594.42 640.085C592.929 641.269 591.792 642.938 591.011 645.092C590.253 647.223 589.875 649.744 589.875 652.656C589.875 655.568 590.265 658.066 591.047 660.149C591.828 662.232 592.952 663.83 594.42 664.943C595.912 666.056 597.734 666.612 599.889 666.612ZM663.552 681.03C657.823 681.03 652.898 679.858 648.779 677.514C644.683 675.147 641.523 671.856 639.298 667.642C637.096 663.404 635.995 658.492 635.995 652.905C635.995 647.294 637.096 642.382 639.298 638.168C641.523 633.93 644.683 630.639 648.779 628.295C652.898 625.928 657.823 624.744 663.552 624.744C669.281 624.744 674.193 625.928 678.289 628.295C682.408 630.639 685.569 633.93 687.771 638.168C689.996 642.382 691.109 647.294 691.109 652.905C691.109 658.492 689.996 663.404 687.771 667.642C685.569 671.856 682.408 675.147 678.289 677.514C674.193 679.858 669.281 681.03 663.552 681.03ZM663.658 667.926C665.742 667.926 667.505 667.287 668.95 666.009C670.394 664.73 671.495 662.955 672.252 660.682C673.033 658.409 673.424 655.781 673.424 652.798C673.424 649.768 673.033 647.116 672.252 644.844C671.495 642.571 670.394 640.795 668.95 639.517C667.505 638.239 665.742 637.599 663.658 637.599C661.504 637.599 659.681 638.239 658.19 639.517C656.722 640.795 655.597 642.571 654.816 644.844C654.058 647.116 653.68 649.768 653.68 652.798C653.68 655.781 654.058 658.409 654.816 660.682C655.597 662.955 656.722 664.73 658.19 666.009C659.681 667.287 661.504 667.926 663.658 667.926ZM700.004 680V625.455H716.872V635.398H717.44C718.435 631.799 720.056 629.124 722.305 627.372C724.554 625.597 727.17 624.709 730.153 624.709C730.958 624.709 731.787 624.768 732.639 624.886C733.491 624.981 734.285 625.135 735.018 625.348V640.44C734.19 640.156 733.101 639.931 731.751 639.766C730.426 639.6 729.242 639.517 728.2 639.517C726.141 639.517 724.282 639.979 722.625 640.902C720.991 641.802 719.701 643.068 718.754 644.702C717.831 646.312 717.369 648.205 717.369 650.384V680H700.004ZM759.459 648.892V680H742.094V625.455H758.607V635.469H759.211C760.418 632.131 762.478 629.515 765.39 627.621C768.301 625.703 771.77 624.744 775.794 624.744C779.63 624.744 782.956 625.608 785.773 627.337C788.614 629.041 790.816 631.432 792.378 634.51C793.964 637.564 794.746 641.139 794.722 645.234V680H777.357V648.643C777.381 645.613 776.611 643.246 775.049 641.541C773.51 639.837 771.367 638.984 768.621 638.984C766.798 638.984 765.188 639.387 763.792 640.192C762.418 640.973 761.353 642.098 760.596 643.565C759.862 645.033 759.483 646.809 759.459 648.892ZM805.473 680V625.455H822.838V680H805.473ZM814.173 619.098C811.735 619.098 809.64 618.293 807.888 616.683C806.136 615.05 805.26 613.085 805.26 610.788C805.26 608.516 806.136 606.574 807.888 604.964C809.64 603.331 811.735 602.514 814.173 602.514C816.635 602.514 818.731 603.331 820.459 604.964C822.211 606.574 823.087 608.516 823.087 610.788C823.087 613.085 822.211 615.05 820.459 616.683C818.731 618.293 816.635 619.098 814.173 619.098ZM881.512 642.109L865.567 642.536C865.401 641.399 864.952 640.393 864.218 639.517C863.484 638.617 862.525 637.919 861.341 637.422C860.181 636.901 858.832 636.641 857.293 636.641C855.281 636.641 853.564 637.043 852.144 637.848C850.747 638.653 850.06 639.742 850.084 641.115C850.06 642.18 850.487 643.104 851.363 643.885C852.262 644.666 853.86 645.294 856.157 645.767L866.668 647.756C872.113 648.797 876.161 650.526 878.813 652.94C881.488 655.355 882.837 658.551 882.861 662.528C882.837 666.269 881.725 669.524 879.523 672.294C877.345 675.064 874.362 677.218 870.574 678.757C866.786 680.272 862.454 681.03 857.577 681.03C849.788 681.03 843.645 679.432 839.147 676.236C834.672 673.016 832.115 668.707 831.476 663.31L848.628 662.884C849.007 664.872 849.989 666.387 851.576 667.429C853.162 668.471 855.186 668.991 857.648 668.991C859.873 668.991 861.685 668.577 863.081 667.749C864.478 666.92 865.188 665.819 865.212 664.446C865.188 663.215 864.644 662.232 863.578 661.499C862.513 660.741 860.844 660.149 858.571 659.723L849.054 657.912C843.586 656.918 839.514 655.083 836.838 652.408C834.163 649.709 832.837 646.276 832.861 642.109C832.837 638.464 833.808 635.35 835.773 632.77C837.738 630.166 840.532 628.177 844.154 626.804C847.776 625.431 852.049 624.744 856.973 624.744C864.36 624.744 870.184 626.295 874.445 629.396C878.706 632.474 881.062 636.712 881.512 642.109Z" fill="black"/>
<path d="M192.447 570.583C179.972 580.079 167.638 587.185 157.819 591.022C152.897 592.945 148.717 594.002 145.524 594.184C142.246 594.37 140.546 593.619 139.793 592.63C139.041 591.642 138.769 589.803 139.821 586.693C140.846 583.664 142.978 579.916 146.143 575.683C152.454 567.24 162.587 557.242 175.061 547.746C187.535 538.249 199.87 531.143 209.688 527.307C214.611 525.384 218.791 524.326 221.984 524.145C225.262 523.959 226.962 524.71 227.714 525.698C228.467 526.687 228.739 528.526 227.687 531.635C226.662 534.665 224.529 538.413 221.365 542.646C215.054 551.089 204.921 561.087 192.447 570.583Z" stroke="black" stroke-width="4"/>
<path d="M293.313 506.738C262.432 530.247 232.715 549.129 209.655 560.663C198.11 566.437 188.326 570.322 180.946 572.052C177.249 572.918 174.272 573.215 172.034 573.001C169.792 572.786 168.553 572.092 167.906 571.242C167.259 570.391 166.919 569.013 167.31 566.795C167.699 564.58 168.777 561.79 170.597 558.457C174.229 551.803 180.578 543.406 189.217 533.815C206.472 514.658 232.584 491.039 263.465 467.531C294.345 444.022 324.063 425.14 347.122 413.606C358.667 407.832 368.451 403.947 375.831 402.218C379.528 401.351 382.505 401.054 384.744 401.268C386.986 401.483 388.224 402.177 388.871 403.027C389.519 403.878 389.858 405.256 389.468 407.474C389.078 409.689 388 412.479 386.181 415.812C382.549 422.466 376.199 430.863 367.56 440.454C350.305 459.611 324.193 483.23 293.313 506.738Z" stroke="black" stroke-width="4"/>
<path d="M858.663 519.922C858.663 519.923 858.662 519.924 858.661 519.926C858.648 519.956 858.59 520.088 858.084 520.128C857.459 520.177 856.462 520.039 855.007 519.573C852.123 518.651 848.152 516.687 843.188 513.907C838.375 511.212 832.757 507.825 826.47 504.035L825.992 503.747C819.523 499.847 812.378 495.545 804.758 491.189C789.634 482.542 771.258 470.508 757.1 459.911C750.013 454.607 744.04 449.705 740.068 445.796C738.071 443.83 736.66 442.192 735.859 440.936C735.584 440.505 735.41 440.164 735.306 439.906C735.513 439.909 735.786 439.93 736.137 439.984C737.492 440.197 739.444 440.822 741.959 441.865C746.952 443.938 753.677 447.45 761.325 451.736C769.825 456.499 779.272 462.104 788.615 467.647C796.165 472.127 803.646 476.565 810.504 480.486C825.622 489.13 838.579 498.122 847.305 505.646C851.681 509.419 854.914 512.755 856.831 515.438C857.793 516.785 858.353 517.871 858.6 518.692C858.845 519.512 858.715 519.832 858.663 519.922ZM735.178 439.455C735.178 439.455 735.178 439.457 735.178 439.46C735.178 439.456 735.178 439.454 735.178 439.455Z" stroke="black" stroke-width="4"/>
<path d="M552.924 335.608C553.544 337.717 553.381 339.475 552.459 341.188C551.342 343.265 548.987 345.51 544.793 348.095C536.407 353.263 521.72 359.183 498.626 367.851C489.454 371.294 479.317 375.28 468.912 379.37C453.049 385.606 436.562 392.088 421.913 397.27C409.799 401.555 399.091 404.896 391.175 406.444C387.198 407.222 384.076 407.515 381.888 407.316C379.583 407.105 379.072 406.444 378.952 406.124C378.771 405.643 378.821 404.508 380.281 402.377C381.662 400.361 383.981 397.938 387.159 395.194C393.494 389.723 402.888 383.271 413.931 376.602C436.002 363.271 464.362 349.246 487.265 340.648C510.188 332.044 523.788 329.894 533.08 330.32C540.201 330.647 544.798 332.452 549.471 334.287C550.605 334.732 551.744 335.179 552.924 335.608Z" stroke="black" stroke-width="4"/>
<path d="M542.202 339.085C542.177 339.122 542.149 339.163 542.116 339.209C541.745 339.718 541.027 340.411 539.866 341.27C537.568 342.971 533.986 345.002 529.379 347.266C520.196 351.777 507.302 357.039 493.405 362.256C479.559 367.453 466.721 371.217 457.175 373.112C452.386 374.063 448.518 374.524 445.8 374.491C444.43 374.475 443.476 374.333 442.881 374.137C442.742 374.091 442.64 374.048 442.566 374.013C442.598 373.938 442.647 373.838 442.722 373.712C443.041 373.173 443.665 372.438 444.686 371.525C446.712 369.711 449.928 367.513 454.159 365.078C462.594 360.223 474.738 354.61 488.584 349.412C502.379 344.234 515.905 340.84 526.154 339.309C531.29 338.542 535.524 338.255 538.524 338.418C540.035 338.5 541.124 338.691 541.826 338.933C541.987 338.989 542.109 339.04 542.202 339.085ZM442.396 373.908C442.397 373.908 442.4 373.911 442.404 373.916C442.399 373.911 442.396 373.908 442.396 373.908ZM442.508 374.192C442.508 374.199 442.507 374.203 442.507 374.203C442.507 374.203 442.507 374.2 442.508 374.192ZM542.34 338.83C542.342 338.816 542.344 338.809 542.345 338.808C542.346 338.808 542.345 338.815 542.34 338.83Z" stroke="black" stroke-width="4"/>
<path d="M455.082 367.437C455.524 368.115 455.74 369.212 455.304 371.008C454.867 372.803 453.83 375.049 452.131 377.722C448.74 383.056 442.975 389.687 435.209 397.184C419.701 412.155 396.515 430.291 369.327 448.014C342.1 465.763 324.502 473.995 312.983 476.564C307.25 477.842 303.182 477.679 300.239 476.725C297.346 475.788 295.357 474.03 293.855 471.727C293.284 470.85 293.19 470.112 293.398 469.333C293.634 468.445 294.319 467.316 295.721 465.899C298.536 463.054 303.556 459.714 310.737 455.457C314.713 453.1 319.307 450.487 324.46 447.557C337.728 440.012 354.702 430.359 374.366 417.54C393.364 405.156 408.499 394.068 420.356 385.382C425.526 381.595 430.072 378.265 434.044 375.482C440.667 370.842 445.568 367.816 449.162 366.545C450.945 365.915 452.192 365.798 453.062 365.967C453.837 366.118 454.488 366.527 455.082 367.437Z" stroke="black" stroke-width="4"/>
<path d="M493.22 348.274C493.726 349.05 493.971 350.169 493.711 351.808C493.449 353.462 492.69 355.502 491.37 357.91C488.731 362.722 484.063 368.623 477.648 375.233C464.841 388.429 445.384 404.133 422.309 419.175C399.234 434.217 377.014 445.682 359.771 452.074C351.134 455.276 343.851 457.165 338.384 457.637C335.648 457.874 333.475 457.745 331.855 457.317C330.251 456.893 329.327 456.217 328.821 455.442C328.315 454.666 328.07 453.548 328.33 451.909C328.592 450.254 329.351 448.214 330.671 445.806C333.31 440.994 337.978 435.093 344.393 428.483C357.2 415.287 376.657 399.583 399.732 384.541C422.807 369.499 445.027 358.034 462.27 351.642C470.907 348.44 478.19 346.551 483.657 346.079C486.393 345.843 488.566 345.971 490.185 346.399C491.79 346.823 492.714 347.499 493.22 348.274Z" stroke="black" stroke-width="4"/>
<path d="M328.97 456.997C330.11 458.747 330.159 461.651 328.261 465.998C326.401 470.256 322.879 475.386 317.881 481.062C307.903 492.39 292.354 505.541 273.588 517.774C254.822 530.007 236.515 538.927 222.123 543.484C214.913 545.766 208.798 546.918 204.152 546.901C199.408 546.884 196.771 545.668 195.63 543.918C194.489 542.168 194.44 539.264 196.339 534.917C198.199 530.658 201.721 525.528 206.719 519.853C216.696 508.524 232.245 495.374 251.011 483.141C269.777 470.907 288.085 461.988 302.477 457.431C309.686 455.148 315.801 453.997 320.448 454.013C325.192 454.03 327.829 455.247 328.97 456.997Z" stroke="black" stroke-width="4"/>
<path d="M430.626 383.15C431.067 383.827 431.284 384.924 430.847 386.72C430.411 388.515 429.373 390.762 427.675 393.434C424.284 398.769 418.519 405.4 410.752 412.897C395.244 427.867 372.058 446.004 344.871 463.727C317.683 481.45 291.732 495.344 271.776 503.492C261.783 507.572 253.389 510.171 247.14 511.12C244.009 511.596 241.535 511.639 239.716 511.313C237.897 510.988 236.98 510.347 236.539 509.67C236.098 508.993 235.881 507.895 236.317 506.1C236.754 504.305 237.791 502.058 239.49 499.385C242.881 494.051 248.646 487.42 256.412 479.923C271.92 464.953 295.106 446.816 322.294 429.093C349.481 411.37 375.433 397.476 395.389 389.328C405.382 385.248 413.776 382.649 420.025 381.699C423.156 381.224 425.63 381.181 427.448 381.506C429.268 381.831 430.184 382.473 430.626 383.15Z" stroke="black" stroke-width="4"/>
<path d="M301.099 481.951C301.318 482.287 301.521 483.063 300.958 484.719C300.41 486.333 299.251 488.404 297.424 490.91C293.783 495.902 287.784 502.216 279.825 509.439C263.931 523.863 240.5 541.662 213.3 559.392C186.1 577.123 160.358 591.379 140.747 600.1C130.927 604.467 122.728 607.408 116.692 608.724C113.662 609.385 111.299 609.609 109.601 609.459C107.859 609.306 107.231 608.808 107.012 608.471C106.793 608.135 106.59 607.359 107.153 605.704C107.701 604.09 108.86 602.018 110.687 599.513C114.328 594.521 120.327 588.207 128.286 580.984C144.179 566.56 167.611 548.761 194.811 531.03C222.011 513.299 247.752 499.043 267.364 490.322C277.184 485.955 285.382 483.015 291.419 481.698C294.449 481.037 296.812 480.814 298.51 480.963C300.251 481.116 300.88 481.615 301.099 481.951Z" stroke="black" stroke-width="4"/>
<path d="M673.676 375.619C672.732 377.8 670.608 379.589 667.122 380.79C663.635 381.991 658.99 382.521 653.445 382.301C642.369 381.86 628.137 378.44 613.426 372.075C605.979 368.853 600.174 366.302 595.71 364.103C591.221 361.891 588.242 360.106 586.357 358.453C584.531 356.852 583.873 355.502 583.755 354.107C583.625 352.574 584.108 350.649 585.326 347.834C587.386 343.072 593.017 340.012 600.741 339.19C608.335 338.381 617.393 339.829 625.384 343.457C631.03 346.924 637.24 350.109 643.257 353.097C644.663 353.795 646.057 354.481 647.43 355.157C652.003 357.41 656.355 359.554 660.213 361.659C665.258 364.412 669.229 366.982 671.632 369.466C672.822 370.696 673.524 371.802 673.835 372.788C674.13 373.72 674.104 374.629 673.676 375.619Z" stroke="black" stroke-width="4"/>
<path d="M734.017 438.162C733.434 439.159 732.732 439.732 731.906 440.05C731.039 440.383 729.875 440.494 728.309 440.265C725.12 439.798 720.845 438.016 715.365 435.077C709.932 432.163 703.53 428.234 696.125 423.648C695.441 423.224 694.749 422.795 694.048 422.361C687.183 418.105 679.525 413.358 671.11 408.431C652.654 397.624 637.991 387.499 628.753 378.797C624.123 374.435 620.976 370.541 619.354 367.202C617.746 363.892 617.756 361.42 618.879 359.501C619.877 357.797 622.448 356.591 627.404 356.648C632.216 356.703 638.584 357.958 646.044 360.265C660.909 364.862 679.639 373.487 698.017 384.241C713.87 395.844 724.365 407.087 730.114 416.642C735.948 426.337 736.605 433.744 734.017 438.162Z" stroke="black" stroke-width="4"/>
<path d="M778.485 460.044C777.682 461.414 776.181 462.488 773.824 463.104C771.456 463.721 768.375 463.828 764.737 463.353C757.47 462.404 748.386 459.185 739.275 453.85C730.163 448.514 722.912 442.167 718.528 436.294C716.334 433.354 714.919 430.614 714.299 428.247C713.682 425.891 713.885 424.055 714.687 422.686C715.489 421.316 716.991 420.241 719.348 419.626C721.715 419.008 724.797 418.901 728.435 419.377C735.702 420.326 744.785 423.544 753.897 428.88C763.008 434.215 770.26 440.562 774.643 446.435C776.838 449.375 778.253 452.115 778.872 454.482C779.489 456.839 779.287 458.674 778.485 460.044Z" stroke="black" stroke-width="4"/>
<path d="M800.942 475.281C800.621 475.829 799.842 476.413 797.934 476.594C796.047 476.774 793.455 476.507 790.204 475.774C783.728 474.313 775.186 471.132 765.577 466.888C746.393 458.415 723.35 445.883 704.883 435.069C686.32 424.199 676.257 417.322 671.554 411.936C669.257 409.305 668.415 407.221 668.332 405.358C668.247 403.457 668.934 401.428 670.437 398.861C673.398 393.804 677.534 389.657 685.129 389.066C692.969 388.456 704.826 391.596 723.223 402.369C741.575 413.115 762.646 429.232 778.324 443.994C786.169 451.381 792.594 458.364 796.649 464.112C798.683 466.995 800.054 469.475 800.739 471.475C801.443 473.531 801.293 474.682 800.942 475.281Z" stroke="black" stroke-width="4"/>
<path d="M651.19 377.416C649.865 379.677 646.208 381.058 640.152 380.407C634.301 379.778 627.001 377.293 619.707 373.022C612.414 368.752 606.675 363.601 603.263 358.806C599.732 353.842 599.147 349.978 600.471 347.716C601.795 345.455 605.452 344.075 611.508 344.726C617.36 345.355 624.66 347.839 631.953 352.11C639.246 356.381 644.985 361.531 648.397 366.327C651.928 371.29 652.514 375.155 651.19 377.416Z" stroke="black" stroke-width="4"/>
<path d="M856.834 517.659C856.654 517.632 856.444 517.593 856.202 517.538C854.73 517.204 852.632 516.416 849.977 515.201C844.701 512.786 837.654 508.888 829.871 504.329C822.101 499.777 813.658 494.602 805.604 489.655C805.144 489.373 804.686 489.091 804.23 488.811C796.689 484.179 789.541 479.787 783.713 476.374C771.465 469.203 761.797 462.265 755.619 456.501C752.518 453.607 750.39 451.095 749.232 449.071C748.017 446.947 748.18 445.945 748.41 445.553C749.576 443.56 752.547 441.267 758.403 441.222C764.298 441.177 773.006 443.435 785.155 450.549C797.251 457.632 816.102 473.686 831.6 488.748C839.331 496.261 846.164 503.466 850.849 509.108C853.2 511.938 854.962 514.316 856.028 516.111C856.399 516.737 856.662 517.251 856.834 517.659ZM857.088 518.465C857.089 518.478 857.089 518.484 857.088 518.483C857.088 518.483 857.087 518.477 857.088 518.465Z" stroke="black" stroke-width="4"/>
<path d="M724.028 428.649C724.025 428.653 724.023 428.657 724.021 428.661C723.98 428.734 723.916 428.848 723.454 428.863C722.847 428.883 721.872 428.687 720.448 428.12C717.628 426.999 713.824 424.749 709.174 421.724C706.292 419.849 703.111 417.692 699.702 415.381C692.27 410.342 683.757 404.57 674.915 399.393C662.028 391.846 650.618 385.154 642.882 379.569C638.997 376.765 636.184 374.341 634.574 372.322C632.88 370.198 633.049 369.25 633.295 368.831C633.613 368.287 634.635 367.588 637.526 367.716C640.271 367.837 644.016 368.694 648.59 370.264C657.702 373.392 669.613 379.179 682.407 386.671C695.089 394.097 706.441 403.573 714.14 411.936C717.996 416.124 720.874 419.968 722.552 423.078C723.394 424.637 723.889 425.929 724.088 426.933C724.291 427.957 724.145 428.449 724.028 428.649Z" stroke="black" stroke-width="4"/>
<path d="M709.438 299.009C709.405 299.046 709.348 299.099 709.258 299.169C708.863 299.475 708.11 299.845 706.858 300.216C704.384 300.951 700.647 301.498 695.843 301.947C690.445 302.451 683.96 302.814 676.752 303.216C671.102 303.532 665.007 303.872 658.644 304.326C652.212 304.784 646.166 305.31 640.629 305.792C633.695 306.395 627.559 306.929 622.461 307.173C617.885 307.392 614.365 307.362 612.009 306.978C610.82 306.785 610.111 306.528 609.739 306.298C609.655 306.246 609.601 306.204 609.568 306.174C609.561 306.167 609.555 306.161 609.55 306.156C609.566 306.085 609.637 305.894 609.936 305.569C610.373 305.091 611.138 304.511 612.314 303.868C614.654 302.588 618.205 301.282 622.779 300.053C631.894 297.605 644.669 295.569 658.928 294.553C673.187 293.538 686.122 293.743 695.492 294.875C700.194 295.443 703.894 296.232 706.392 297.167C707.647 297.637 708.486 298.104 708.987 298.514C709.284 298.758 709.397 298.925 709.438 299.009ZM709.483 298.946C709.485 298.946 709.482 298.954 709.47 298.97C709.476 298.954 709.482 298.946 709.483 298.946ZM609.545 306.182C609.545 306.186 609.545 306.188 609.545 306.188C609.545 306.188 609.545 306.186 609.545 306.182ZM709.461 299.072C709.461 299.072 709.461 299.07 709.46 299.066C709.461 299.07 709.462 299.072 709.461 299.072Z" stroke="black" stroke-width="4"/>
<path d="M675.511 309.599C668.15 306.647 658.922 303.841 651.023 305.101C643.133 306.36 635.954 307.001 630.741 307.031C628.118 307.045 626.083 306.905 624.729 306.644C624.588 306.616 624.458 306.589 624.341 306.561C624.992 305.987 626.113 305.274 627.82 304.502C631.312 302.924 636.872 301.274 644.727 300.021C648.27 299.455 652.72 300.1 657.552 301.568C662.348 303.024 667.344 305.236 671.901 307.624C673.145 308.275 674.353 308.938 675.511 309.599ZM623.408 306.237C623.409 306.237 623.416 306.241 623.428 306.25C623.414 306.241 623.408 306.237 623.408 306.237ZM623.781 307.194C623.78 307.197 623.78 307.198 623.78 307.198C623.779 307.198 623.78 307.197 623.781 307.194Z" stroke="black" stroke-width="4"/>
<path d="M669.354 293.126C669.889 293.753 669.992 294.115 670.005 294.218C669.988 294.243 669.947 294.294 669.862 294.367C669.572 294.616 668.984 294.938 667.956 295.26C665.918 295.897 662.854 296.324 659.008 296.63C655.197 296.933 650.781 297.107 646.097 297.29L645.973 297.295C641.344 297.475 636.471 297.665 631.766 298C622.489 298.661 614.147 298.099 608.144 296.729C605.129 296.041 602.818 295.174 601.288 294.235C599.701 293.263 599.345 292.471 599.315 292.045C599.285 291.63 599.515 290.818 600.943 289.661C602.323 288.544 604.488 287.395 607.38 286.324C613.138 284.191 621.328 282.527 630.617 281.866C639.673 281.221 649.66 283.309 657.444 286.263C661.331 287.739 664.586 289.399 666.852 290.977C667.989 291.768 668.819 292.498 669.354 293.126Z" stroke="black" stroke-width="4"/>
<path d="M643.44 290.964C643.443 290.969 643.446 290.97 643.448 290.971C643.453 290.973 643.454 290.974 643.437 291.03C643.391 291.191 643.224 291.525 642.753 292.037C641.806 293.067 640.126 294.289 637.82 295.703C635.549 297.097 632.839 298.578 629.938 300.163L629.854 300.208C626.996 301.769 623.97 303.421 621.107 305.137C615.562 308.46 610.139 310.541 605.891 311.298C603.76 311.678 602.031 311.705 600.773 311.463C599.509 311.221 598.957 310.763 598.725 310.376C598.498 309.997 598.359 309.317 598.747 308.119C599.135 306.92 599.987 305.438 601.345 303.763C604.051 300.427 608.483 296.677 614.041 293.346C619.349 290.165 626.379 288.736 632.445 288.645C635.465 288.599 638.152 288.887 640.179 289.404C641.194 289.663 641.99 289.966 642.563 290.278C643.157 290.602 643.379 290.861 643.44 290.964Z" stroke="black" stroke-width="4"/>
<path d="M609.038 287.023C609.677 287.384 610.261 288.097 610.637 289.378C611.016 290.672 611.137 292.413 610.916 294.535C610.474 298.772 608.708 304.133 605.648 309.547C602.587 314.962 598.904 319.239 595.502 321.802C593.798 323.086 592.244 323.881 590.939 324.223C589.648 324.562 588.736 324.429 588.097 324.068C587.459 323.707 586.875 322.994 586.499 321.713C586.12 320.419 585.999 318.677 586.22 316.556C586.662 312.319 588.427 306.958 591.488 301.543C594.549 296.129 598.232 291.852 601.634 289.288C603.338 288.005 604.892 287.21 606.196 286.868C607.488 286.529 608.4 286.662 609.038 287.023Z" stroke="black" stroke-width="4"/>
<path d="M612.343 306.813C614.572 309.942 618.632 310.438 621.773 310.427C623.437 310.421 625.087 310.267 626.483 310.127C626.626 310.112 626.766 310.098 626.902 310.084C626.971 310.077 627.039 310.07 627.107 310.064C624.381 312.404 619.185 316.275 610.339 322.575C594.245 334.037 578.264 348.322 564.655 360.486C561.675 363.15 558.809 365.711 556.081 368.119C548.439 374.864 541.934 380.352 536.973 383.601C534.47 385.24 532.534 386.191 531.148 386.519C530.471 386.68 530.057 386.659 529.828 386.602C529.65 386.557 529.531 386.483 529.408 386.31C528.376 384.86 528.071 382.03 529.429 377.551C530.75 373.194 533.506 367.77 537.729 361.669C546.164 349.485 560.25 334.887 579.599 321.106C584.887 317.34 589.25 314.196 592.882 311.578C595.983 309.343 598.551 307.493 600.707 305.967C603.033 304.321 604.817 303.097 606.208 302.221C607.626 301.329 608.52 300.871 609.091 300.675C609.145 300.656 609.193 300.641 609.235 300.629C609.276 300.706 609.328 300.809 609.389 300.944C609.486 301.16 609.595 301.436 609.724 301.758C610.208 302.977 610.961 304.873 612.343 306.813ZM629.21 307.963C629.211 307.963 629.208 307.968 629.202 307.979C629.207 307.969 629.21 307.963 629.21 307.963ZM609.479 300.578C609.478 300.578 609.474 300.579 609.466 300.578C609.475 300.578 609.479 300.578 609.479 300.578Z" stroke="black" stroke-width="4"/>
<path d="M606.127 316.048C606.905 317.14 607.199 318.797 606.641 321.187C606.084 323.573 604.724 326.445 602.571 329.627C598.273 335.977 591.064 343.196 581.934 349.698C572.804 356.201 563.625 360.653 556.219 362.639C552.508 363.634 549.349 363.98 546.912 363.726C544.471 363.472 543.002 362.653 542.224 361.56C541.446 360.468 541.152 358.811 541.709 356.421C542.266 354.035 543.626 351.163 545.78 347.981C550.077 341.631 557.286 334.413 566.416 327.91C575.547 321.408 584.725 316.955 592.131 314.97C595.842 313.975 599.001 313.628 601.438 313.882C603.879 314.136 605.349 314.956 606.127 316.048Z" stroke="black" stroke-width="4"/>
<path d="M604.253 288.116C604.721 288.773 605.188 289.928 605.464 291.669C605.736 293.383 605.805 295.543 605.578 298.097C605.126 303.203 603.506 309.753 600.159 317.208C593.471 332.102 579.923 350.524 555.251 368.095C530.358 385.824 507.366 400.496 489.923 409.725C481.186 414.348 473.931 417.557 468.567 419.122C465.874 419.908 463.786 420.24 462.288 420.192C460.767 420.144 460.24 419.729 460.05 419.462C459.336 418.459 459.148 416.941 461.018 414.025C462.886 411.111 466.463 407.417 471.945 402.724C482.871 393.371 500.737 380.57 525.701 362.791C550.824 344.898 569.856 324.202 583.266 309.065C584.532 307.637 585.744 306.262 586.903 304.946C591.928 299.246 595.974 294.656 599.157 291.626C601.141 289.736 602.59 288.653 603.584 288.225C603.937 288.073 604.128 288.051 604.201 288.049C604.213 288.063 604.23 288.084 604.253 288.116ZM604.183 288.03C604.179 288.028 604.177 288.026 604.177 288.026C604.177 288.025 604.179 288.027 604.183 288.03Z" stroke="black" stroke-width="4"/>
<path d="M549.648 376.056C551.581 378.771 551.959 381.432 551.138 384.285C550.28 387.269 548.073 390.577 544.544 394.29C537.481 401.721 525.848 410.056 511.964 419.944C498.096 429.821 485.051 439.066 474.349 444.272C468.99 446.88 464.422 448.368 460.76 448.518C457.219 448.663 454.642 447.57 452.823 445.016C448.972 439.609 449.906 430.797 455.882 420.288C461.767 409.937 472.202 398.63 485.839 388.918C499.475 379.206 513.573 373.041 525.279 370.863C537.165 368.651 545.798 370.65 549.648 376.056Z" stroke="black" stroke-width="4"/>
<path d="M579.571 348.647C580.72 350.26 581.025 352.744 580.006 356.276C578.995 359.783 576.762 363.991 573.39 368.636C566.659 377.91 555.661 388.556 541.969 398.307C528.278 408.058 514.622 414.971 503.657 418.3C498.165 419.968 493.459 420.703 489.814 420.512C486.142 420.32 483.895 419.22 482.746 417.607C481.597 415.994 481.293 413.511 482.311 409.978C483.323 406.471 485.555 402.264 488.927 397.618C495.659 388.345 506.657 377.699 520.348 367.948C534.039 358.197 547.696 351.284 558.66 347.954C564.153 346.286 568.859 345.552 572.504 345.743C576.175 345.935 578.423 347.034 579.571 348.647Z" stroke="black" stroke-width="4"/>
<path d="M525.168 385.325C527.503 388.604 527.172 394.012 523.547 400.676C519.994 407.209 513.56 414.335 505.037 420.405C496.514 426.475 487.676 430.225 480.341 431.448C472.858 432.695 467.639 431.24 465.303 427.961C462.968 424.681 463.299 419.273 466.924 412.61C470.478 406.077 476.911 398.95 485.434 392.88C493.957 386.81 502.795 383.06 510.13 381.838C517.613 380.591 522.832 382.046 525.168 385.325Z" stroke="black" stroke-width="4"/>
</svg>
