<svg width="981" height="981" viewBox="0 0 981 981" fill="none" xmlns="http://www.w3.org/2000/svg">
<rect width="981" height="981" rx="490.5" fill="white"/>
<path d="M199.447 610.583C186.972 620.079 174.638 627.185 164.819 631.022C159.897 632.945 155.717 634.002 152.523 634.184C149.246 634.37 147.546 633.619 146.793 632.63C146.041 631.642 145.769 629.803 146.821 626.693C147.846 623.664 149.978 619.916 153.142 615.683C159.454 607.24 169.587 597.242 182.061 587.746C194.535 578.249 206.87 571.143 216.688 567.307C221.611 565.384 225.791 564.326 228.984 564.145C232.262 563.959 233.962 564.71 234.714 565.698C235.467 566.687 235.738 568.526 234.687 571.635C233.662 574.665 231.529 578.413 228.365 582.646C222.054 591.089 211.921 601.087 199.447 610.583Z" stroke="black" stroke-width="4"/>
<path d="M300.313 546.738C269.432 570.247 239.715 589.129 216.655 600.663C205.11 606.437 195.326 610.322 187.946 612.052C184.249 612.918 181.272 613.215 179.034 613.001C176.792 612.786 175.553 612.092 174.906 611.242C174.258 610.391 173.919 609.013 174.309 606.795C174.699 604.58 175.777 601.79 177.597 598.457C181.229 591.803 187.578 583.406 196.217 573.815C213.472 554.658 239.584 531.039 270.465 507.531C301.345 484.022 331.063 465.14 354.122 453.606C365.667 447.832 375.451 443.947 382.831 442.218C386.528 441.351 389.505 441.054 391.744 441.268C393.986 441.483 395.224 442.177 395.871 443.027C396.519 443.878 396.858 445.256 396.468 447.474C396.078 449.689 395 452.479 393.181 455.812C389.549 462.466 383.199 470.863 374.56 480.454C357.305 499.611 331.193 523.23 300.313 546.738Z" stroke="black" stroke-width="4"/>
<path d="M865.664 559.922C865.663 559.923 865.662 559.924 865.661 559.926C865.648 559.956 865.59 560.088 865.084 560.128C864.459 560.177 863.462 560.039 862.007 559.573C859.123 558.651 855.152 556.687 850.188 553.907C845.375 551.212 839.757 547.825 833.47 544.035L832.992 543.747C826.523 539.847 819.378 535.545 811.758 531.189C796.634 522.542 778.258 510.508 764.1 499.911C757.013 494.607 751.04 489.705 747.068 485.796C745.071 483.83 743.66 482.192 742.859 480.936C742.584 480.505 742.41 480.164 742.306 479.906C742.513 479.909 742.786 479.93 743.137 479.984C744.492 480.197 746.444 480.822 748.959 481.865C753.952 483.938 760.677 487.45 768.325 491.736C776.825 496.499 786.272 502.104 795.615 507.647C803.165 512.127 810.646 516.565 817.504 520.486C832.622 529.13 845.579 538.122 854.305 545.646C858.681 549.419 861.914 552.755 863.831 555.438C864.793 556.785 865.353 557.871 865.6 558.692C865.845 559.512 865.715 559.832 865.664 559.922ZM742.178 479.455C742.178 479.455 742.178 479.457 742.178 479.46C742.178 479.456 742.178 479.454 742.178 479.455Z" stroke="black" stroke-width="4"/>
<path d="M559.924 375.608C560.544 377.717 560.381 379.475 559.459 381.188C558.342 383.265 555.987 385.51 551.793 388.095C543.407 393.263 528.72 399.183 505.626 407.851C496.454 411.294 486.317 415.28 475.912 419.37C460.049 425.606 443.562 432.088 428.913 437.27C416.799 441.555 406.091 444.896 398.175 446.444C394.198 447.222 391.076 447.515 388.888 447.316C386.583 447.105 386.072 446.444 385.952 446.124C385.771 445.643 385.821 444.508 387.281 442.377C388.662 440.361 390.981 437.938 394.159 435.194C400.494 429.723 409.888 423.271 420.931 416.602C443.002 403.271 471.362 389.246 494.265 380.648C517.188 372.044 530.788 369.894 540.08 370.32C547.201 370.647 551.798 372.452 556.471 374.287C557.605 374.732 558.744 375.179 559.924 375.608Z" stroke="black" stroke-width="4"/>
<path d="M549.202 379.085C549.177 379.122 549.149 379.163 549.116 379.209C548.745 379.718 548.027 380.411 546.866 381.27C544.568 382.971 540.986 385.002 536.379 387.266C527.196 391.777 514.302 397.039 500.405 402.256C486.56 407.453 473.721 411.217 464.175 413.112C459.386 414.063 455.518 414.524 452.8 414.491C451.43 414.475 450.476 414.333 449.881 414.137C449.742 414.091 449.64 414.048 449.566 414.013C449.598 413.938 449.647 413.838 449.722 413.712C450.041 413.173 450.665 412.438 451.686 411.525C453.712 409.711 456.928 407.513 461.159 405.078C469.595 400.223 481.739 394.61 495.584 389.412C509.379 384.234 522.905 380.84 533.154 379.309C538.29 378.542 542.524 378.255 545.524 378.418C547.035 378.5 548.124 378.691 548.826 378.933C548.987 378.989 549.109 379.04 549.202 379.085ZM449.396 413.908C449.397 413.908 449.4 413.911 449.405 413.916C449.399 413.911 449.396 413.908 449.396 413.908ZM449.508 414.192C449.508 414.199 449.507 414.203 449.507 414.203C449.507 414.203 449.507 414.2 449.508 414.192ZM549.34 378.83C549.342 378.816 549.344 378.809 549.345 378.808C549.346 378.808 549.345 378.815 549.34 378.83Z" stroke="black" stroke-width="4"/>
<path d="M462.082 407.437C462.524 408.115 462.74 409.212 462.304 411.008C461.867 412.803 460.83 415.049 459.131 417.722C455.741 423.056 449.975 429.687 442.209 437.184C426.701 452.155 403.515 470.291 376.327 488.014C349.1 505.763 331.502 513.995 319.983 516.564C314.25 517.842 310.182 517.679 307.239 516.725C304.346 515.788 302.357 514.03 300.856 511.727C300.284 510.85 300.19 510.112 300.398 509.333C300.634 508.445 301.319 507.316 302.721 505.899C305.536 503.054 310.556 499.714 317.737 495.457C321.713 493.1 326.307 490.487 331.46 487.557C344.728 480.012 361.702 470.359 381.366 457.54C400.364 445.156 415.499 434.068 427.356 425.382C432.526 421.595 437.072 418.265 441.044 415.482C447.667 410.842 452.568 407.816 456.162 406.545C457.945 405.915 459.192 405.798 460.062 405.967C460.837 406.118 461.488 406.527 462.082 407.437Z" stroke="black" stroke-width="4"/>
<path d="M500.22 388.274C500.726 389.05 500.971 390.169 500.711 391.808C500.449 393.462 499.69 395.502 498.37 397.91C495.731 402.722 491.063 408.623 484.648 415.233C471.841 428.429 452.384 444.133 429.309 459.175C406.234 474.217 384.014 485.682 366.771 492.074C358.134 495.276 350.851 497.165 345.384 497.637C342.648 497.874 340.475 497.745 338.855 497.317C337.251 496.893 336.327 496.217 335.821 495.442C335.315 494.666 335.07 493.548 335.33 491.909C335.592 490.254 336.351 488.214 337.671 485.806C340.31 480.994 344.978 475.093 351.393 468.483C364.2 455.287 383.657 439.583 406.732 424.541C429.807 409.499 452.027 398.034 469.27 391.642C477.907 388.44 485.19 386.551 490.657 386.079C493.393 385.843 495.566 385.971 497.185 386.399C498.79 386.823 499.714 387.499 500.22 388.274Z" stroke="black" stroke-width="4"/>
<path d="M335.97 496.997C337.11 498.747 337.159 501.651 335.261 505.998C333.401 510.256 329.879 515.386 324.881 521.062C314.904 532.39 299.354 545.541 280.588 557.774C261.822 570.007 243.515 578.927 229.123 583.484C221.913 585.766 215.798 586.918 211.152 586.901C206.408 586.884 203.771 585.668 202.63 583.918C201.489 582.168 201.44 579.264 203.339 574.917C205.199 570.658 208.721 565.528 213.719 559.853C223.696 548.524 239.245 535.373 258.011 523.14C276.778 510.907 295.085 501.988 309.477 497.431C316.686 495.148 322.801 493.997 327.448 494.013C332.192 494.03 334.829 495.247 335.97 496.997Z" stroke="black" stroke-width="4"/>
<path d="M437.626 423.15C438.067 423.827 438.284 424.924 437.847 426.72C437.411 428.515 436.373 430.762 434.674 433.434C431.284 438.769 425.518 445.4 417.752 452.897C402.244 467.867 379.058 486.004 351.871 503.727C324.683 521.45 298.732 535.344 278.776 543.492C268.782 547.572 260.389 550.171 254.14 551.12C251.009 551.596 248.535 551.639 246.716 551.313C244.897 550.988 243.98 550.347 243.539 549.67C243.097 548.993 242.881 547.895 243.317 546.1C243.754 544.305 244.791 542.058 246.49 539.385C249.881 534.051 255.646 527.42 263.412 519.923C278.92 504.953 302.106 486.816 329.294 469.093C356.481 451.37 382.433 437.476 402.389 429.328C412.382 425.248 420.776 422.649 427.025 421.699C430.156 421.224 432.63 421.181 434.448 421.506C436.268 421.831 437.184 422.473 437.626 423.15Z" stroke="black" stroke-width="4"/>
<path d="M308.099 521.951C308.318 522.288 308.521 523.064 307.958 524.719C307.41 526.333 306.251 528.405 304.424 530.91C300.783 535.902 294.784 542.216 286.825 549.439C270.931 563.863 247.5 581.662 220.3 599.393C193.1 617.123 167.358 631.379 147.747 640.1C137.927 644.467 129.728 647.408 123.692 648.725C120.662 649.385 118.299 649.609 116.601 649.46C114.859 649.306 114.231 648.808 114.012 648.471C113.793 648.135 113.59 647.359 114.153 645.704C114.701 644.09 115.86 642.018 117.687 639.513C121.328 634.521 127.327 628.207 135.286 620.984C151.179 606.56 174.611 588.761 201.811 571.03C229.011 553.299 254.752 539.043 274.364 530.323C284.184 525.956 292.382 523.015 298.419 521.698C301.449 521.037 303.812 520.814 305.51 520.963C307.251 521.116 307.88 521.615 308.099 521.951Z" stroke="black" stroke-width="4"/>
<path d="M680.676 415.619C679.732 417.8 677.608 419.589 674.122 420.79C670.635 421.991 665.99 422.521 660.445 422.301C649.369 421.86 635.137 418.44 620.426 412.075C612.98 408.853 607.174 406.302 602.71 404.103C598.221 401.891 595.242 400.106 593.357 398.453C591.531 396.852 590.873 395.502 590.755 394.107C590.625 392.574 591.108 390.649 592.326 387.834C594.386 383.072 600.017 380.012 607.741 379.19C615.335 378.381 624.393 379.829 632.384 383.457C638.03 386.924 644.24 390.109 650.257 393.097C651.663 393.795 653.057 394.481 654.43 395.157C659.003 397.41 663.356 399.554 667.213 401.659C672.258 404.412 676.229 406.982 678.632 409.466C679.822 410.696 680.524 411.802 680.836 412.788C681.13 413.72 681.104 414.629 680.676 415.619Z" stroke="black" stroke-width="4"/>
<path d="M741.017 478.162C740.434 479.159 739.732 479.732 738.906 480.05C738.039 480.383 736.875 480.494 735.309 480.265C732.12 479.798 727.845 478.015 722.365 475.077C716.932 472.163 710.53 468.234 703.125 463.648C702.441 463.224 701.749 462.795 701.048 462.361C694.183 458.105 686.525 453.358 678.11 448.43C659.654 437.624 644.991 427.499 635.753 418.797C631.123 414.435 627.976 410.541 626.354 407.202C624.745 403.892 624.756 401.419 625.879 399.501C626.877 397.797 629.448 396.591 634.404 396.648C639.216 396.703 645.584 397.958 653.044 400.265C667.909 404.861 686.639 413.487 705.017 424.241C720.87 435.844 731.365 447.087 737.114 456.642C742.948 466.337 743.605 473.744 741.017 478.162Z" stroke="black" stroke-width="4"/>
<path d="M785.485 500.044C784.682 501.414 783.181 502.488 780.824 503.104C778.456 503.721 775.375 503.828 771.737 503.353C764.47 502.404 755.386 499.185 746.275 493.85C737.163 488.514 729.912 482.167 725.528 476.294C723.334 473.354 721.919 470.614 721.299 468.247C720.682 465.891 720.885 464.055 721.687 462.686C722.489 461.316 723.991 460.241 726.348 459.626C728.715 459.008 731.797 458.901 735.435 459.377C742.702 460.326 751.785 463.544 760.897 468.88C770.008 474.215 777.26 480.562 781.643 486.435C783.838 489.375 785.253 492.115 785.872 494.482C786.489 496.839 786.287 498.674 785.485 500.044Z" stroke="black" stroke-width="4"/>
<path d="M807.942 515.281C807.621 515.829 806.842 516.413 804.934 516.594C803.047 516.774 800.455 516.507 797.204 515.774C790.728 514.313 782.186 511.132 772.577 506.888C753.393 498.415 730.35 485.883 711.883 475.069C693.32 464.199 683.257 457.322 678.554 451.936C676.257 449.305 675.415 447.221 675.332 445.358C675.247 443.457 675.934 441.428 677.437 438.861C680.398 433.804 684.534 429.657 692.129 429.066C699.969 428.456 711.826 431.596 730.223 442.369C748.575 453.115 769.646 469.232 785.324 483.994C793.169 491.381 799.594 498.364 803.649 504.112C805.683 506.995 807.054 509.475 807.739 511.475C808.443 513.531 808.293 514.682 807.942 515.281Z" stroke="black" stroke-width="4"/>
<path d="M658.19 417.416C656.865 419.677 653.208 421.058 647.152 420.407C641.301 419.778 634.001 417.293 626.707 413.022C619.414 408.752 613.675 403.601 610.263 398.806C606.732 393.842 606.147 389.978 607.471 387.716C608.795 385.455 612.452 384.075 618.508 384.726C624.36 385.355 631.66 387.839 638.953 392.11C646.246 396.381 651.985 401.531 655.397 406.327C658.928 411.29 659.514 415.155 658.19 417.416Z" stroke="black" stroke-width="4"/>
<path d="M863.834 557.659C863.654 557.632 863.444 557.593 863.202 557.538C861.73 557.204 859.632 556.416 856.977 555.201C851.701 552.786 844.654 548.888 836.871 544.329C829.101 539.777 820.658 534.602 812.604 529.655C812.144 529.373 811.686 529.091 811.23 528.811C803.689 524.179 796.541 519.787 790.713 516.374C778.465 509.203 768.797 502.265 762.619 496.501C759.518 493.607 757.39 491.095 756.232 489.071C755.017 486.947 755.18 485.945 755.41 485.553C756.577 483.56 759.547 481.267 765.404 481.222C771.298 481.177 780.006 483.435 792.155 490.549C804.251 497.632 823.102 513.686 838.6 528.748C846.331 536.261 853.164 543.466 857.85 549.108C860.2 551.938 861.962 554.316 863.028 556.111C863.399 556.737 863.662 557.251 863.834 557.659ZM864.088 558.465C864.089 558.478 864.089 558.484 864.088 558.483C864.088 558.483 864.087 558.477 864.088 558.465Z" stroke="black" stroke-width="4"/>
<path d="M731.028 468.649C731.025 468.653 731.023 468.657 731.021 468.661C730.98 468.734 730.916 468.848 730.454 468.863C729.847 468.883 728.872 468.687 727.448 468.12C724.628 466.999 720.824 464.749 716.174 461.724C713.292 459.849 710.111 457.692 706.702 455.381C699.27 450.342 690.757 444.57 681.915 439.393C669.028 431.846 657.618 425.154 649.882 419.569C645.997 416.765 643.184 414.341 641.574 412.322C639.88 410.198 640.049 409.25 640.295 408.831C640.613 408.287 641.635 407.588 644.526 407.716C647.271 407.837 651.016 408.694 655.59 410.264C664.702 413.392 676.613 419.179 689.407 426.671C702.089 434.097 713.441 443.573 721.14 451.936C724.996 456.124 727.874 459.968 729.552 463.078C730.394 464.637 730.889 465.929 731.088 466.933C731.291 467.957 731.145 468.449 731.028 468.649Z" stroke="black" stroke-width="4"/>
<path d="M716.438 339.009C716.405 339.046 716.348 339.099 716.258 339.169C715.863 339.475 715.11 339.845 713.858 340.216C711.384 340.951 707.647 341.498 702.843 341.947C697.445 342.451 690.96 342.814 683.752 343.216C678.102 343.532 672.007 343.872 665.644 344.326C659.212 344.784 653.166 345.31 647.629 345.792C640.695 346.395 634.559 346.929 629.461 347.173C624.885 347.392 621.365 347.362 619.009 346.978C617.82 346.785 617.111 346.528 616.739 346.298C616.655 346.246 616.601 346.204 616.568 346.174C616.561 346.167 616.555 346.161 616.55 346.156C616.566 346.085 616.637 345.894 616.936 345.569C617.373 345.091 618.138 344.511 619.314 343.868C621.654 342.588 625.205 341.282 629.779 340.053C638.894 337.605 651.669 335.569 665.928 334.553C680.187 333.538 693.122 333.743 702.492 334.875C707.194 335.443 710.894 336.232 713.392 337.167C714.647 337.637 715.486 338.104 715.987 338.514C716.284 338.758 716.397 338.925 716.438 339.009ZM716.483 338.946C716.485 338.946 716.482 338.954 716.47 338.97C716.476 338.954 716.482 338.946 716.483 338.946ZM616.545 346.182C616.545 346.186 616.545 346.188 616.545 346.188C616.545 346.188 616.545 346.186 616.545 346.182ZM716.461 339.072C716.461 339.072 716.461 339.07 716.46 339.066C716.461 339.07 716.462 339.072 716.461 339.072Z" stroke="black" stroke-width="4"/>
<path d="M682.511 349.599C675.15 346.647 665.922 343.841 658.023 345.101C650.133 346.36 642.954 347.001 637.741 347.031C635.118 347.045 633.083 346.905 631.729 346.644C631.588 346.616 631.458 346.589 631.341 346.561C631.992 345.987 633.113 345.274 634.82 344.502C638.312 342.924 643.872 341.274 651.727 340.021C655.27 339.455 659.72 340.1 664.552 341.568C669.348 343.024 674.344 345.236 678.901 347.624C680.145 348.275 681.353 348.938 682.511 349.599ZM630.408 346.237C630.409 346.237 630.416 346.241 630.428 346.25C630.414 346.241 630.408 346.237 630.408 346.237ZM630.781 347.194C630.78 347.197 630.78 347.198 630.78 347.198C630.779 347.198 630.78 347.197 630.781 347.194Z" stroke="black" stroke-width="4"/>
<path d="M676.354 333.126C676.889 333.753 676.992 334.115 677.005 334.218C676.988 334.243 676.947 334.294 676.862 334.367C676.572 334.616 675.984 334.938 674.956 335.26C672.918 335.897 669.854 336.324 666.008 336.63C662.197 336.933 657.781 337.107 653.097 337.29L652.973 337.295C648.344 337.475 643.471 337.665 638.766 338C629.489 338.661 621.147 338.099 615.144 336.729C612.129 336.041 609.818 335.174 608.288 334.235C606.701 333.263 606.345 332.471 606.315 332.045C606.285 331.63 606.515 330.818 607.943 329.661C609.323 328.544 611.488 327.395 614.38 326.324C620.138 324.191 628.328 322.527 637.617 321.866C646.673 321.221 656.66 323.309 664.444 326.263C668.331 327.739 671.586 329.399 673.852 330.977C674.989 331.768 675.819 332.498 676.354 333.126Z" stroke="black" stroke-width="4"/>
<path d="M650.44 330.964C650.443 330.969 650.446 330.97 650.448 330.971C650.453 330.973 650.454 330.974 650.437 331.03C650.391 331.191 650.224 331.525 649.753 332.037C648.806 333.067 647.126 334.289 644.82 335.703C642.549 337.097 639.839 338.578 636.938 340.162L636.854 340.208C633.996 341.769 630.97 343.421 628.107 345.137C622.562 348.46 617.139 350.541 612.891 351.298C610.76 351.678 609.031 351.705 607.773 351.463C606.509 351.22 605.957 350.763 605.725 350.376C605.498 349.997 605.359 349.317 605.747 348.119C606.135 346.92 606.987 345.438 608.345 343.763C611.051 340.427 615.483 336.677 621.041 333.346C626.349 330.165 633.379 328.736 639.445 328.645C642.465 328.599 645.152 328.887 647.179 329.404C648.194 329.663 648.99 329.966 649.563 330.278C650.157 330.601 650.379 330.861 650.44 330.964Z" stroke="black" stroke-width="4"/>
<path d="M616.038 327.023C616.677 327.384 617.261 328.097 617.637 329.378C618.016 330.672 618.137 332.413 617.916 334.535C617.474 338.772 615.708 344.133 612.648 349.547C609.587 354.962 605.904 359.239 602.502 361.802C600.798 363.086 599.244 363.881 597.939 364.223C596.648 364.562 595.736 364.429 595.097 364.068C594.459 363.707 593.875 362.994 593.499 361.713C593.12 360.419 592.999 358.677 593.22 356.556C593.662 352.319 595.427 346.958 598.488 341.543C601.549 336.129 605.232 331.852 608.634 329.288C610.338 328.005 611.892 327.21 613.196 326.868C614.488 326.529 615.4 326.662 616.038 327.023Z" stroke="black" stroke-width="4"/>
<path d="M619.343 346.813C621.572 349.942 625.632 350.438 628.773 350.427C630.436 350.421 632.087 350.267 633.483 350.127C633.626 350.112 633.766 350.098 633.902 350.084C633.971 350.077 634.039 350.07 634.106 350.064C631.381 352.404 626.185 356.275 617.339 362.575C601.245 374.037 585.264 388.322 571.655 400.486C568.675 403.15 565.809 405.711 563.081 408.119C555.439 414.864 548.934 420.352 543.972 423.601C541.47 425.24 539.534 426.191 538.148 426.519C537.471 426.68 537.057 426.659 536.828 426.602C536.65 426.557 536.531 426.483 536.408 426.31C535.376 424.86 535.07 422.03 536.429 417.551C537.75 413.194 540.506 407.77 544.729 401.669C553.163 389.485 567.25 374.887 586.599 361.106C591.887 357.34 596.25 354.196 599.882 351.578C602.983 349.343 605.551 347.493 607.707 345.967C610.032 344.321 611.817 343.097 613.208 342.221C614.625 341.329 615.52 340.871 616.091 340.675C616.145 340.656 616.193 340.641 616.235 340.629C616.276 340.706 616.328 340.809 616.389 340.944C616.486 341.16 616.595 341.436 616.724 341.758C617.208 342.977 617.961 344.873 619.343 346.813ZM636.21 347.963C636.211 347.963 636.208 347.968 636.202 347.979C636.207 347.969 636.21 347.963 636.21 347.963ZM616.478 340.578C616.478 340.578 616.474 340.579 616.466 340.578C616.475 340.578 616.479 340.578 616.478 340.578Z" stroke="black" stroke-width="4"/>
<path d="M613.127 356.048C613.905 357.14 614.199 358.797 613.641 361.187C613.084 363.573 611.724 366.445 609.571 369.627C605.273 375.977 598.064 383.196 588.934 389.698C579.804 396.201 570.625 400.653 563.219 402.639C559.508 403.634 556.349 403.98 553.912 403.726C551.471 403.472 550.002 402.653 549.224 401.56C548.446 400.468 548.152 398.811 548.71 396.421C549.266 394.035 550.626 391.163 552.78 387.981C557.078 381.631 564.286 374.413 573.416 367.91C582.547 361.408 591.725 356.955 599.132 354.97C602.842 353.975 606.001 353.628 608.438 353.882C610.879 354.136 612.349 354.956 613.127 356.048Z" stroke="black" stroke-width="4"/>
<path d="M611.253 328.116C611.721 328.773 612.188 329.928 612.464 331.669C612.736 333.382 612.805 335.543 612.578 338.097C612.126 343.203 610.506 349.753 607.159 357.208C600.471 372.102 586.923 390.524 562.251 408.095C537.358 425.824 514.366 440.496 496.923 449.725C488.186 454.348 480.931 457.557 475.567 459.122C472.874 459.908 470.786 460.24 469.288 460.192C467.767 460.144 467.24 459.729 467.05 459.462C466.336 458.459 466.148 456.941 468.018 454.025C469.886 451.111 473.463 447.417 478.945 442.724C489.871 433.371 507.737 420.57 532.701 402.791C557.824 384.898 576.856 364.201 590.266 349.065C591.532 347.636 592.744 346.262 593.903 344.946C598.928 339.246 602.974 334.656 606.157 331.626C608.141 329.736 609.59 328.653 610.584 328.225C610.937 328.073 611.128 328.051 611.201 328.049C611.213 328.062 611.23 328.084 611.253 328.116ZM611.183 328.03C611.179 328.028 611.177 328.026 611.177 328.025C611.177 328.025 611.179 328.026 611.183 328.03Z" stroke="black" stroke-width="4"/>
<path d="M556.648 416.057C558.581 418.771 558.958 421.432 558.138 424.285C557.28 427.27 555.073 430.577 551.544 434.29C544.481 441.721 532.848 450.056 518.964 459.944C505.096 469.821 492.051 479.066 481.349 484.272C475.989 486.88 471.422 488.368 467.76 488.518C464.219 488.664 461.642 487.57 459.823 485.016C455.972 479.61 456.906 470.797 462.882 460.288C468.767 449.937 479.202 438.63 492.839 428.918C506.475 419.206 520.572 413.041 532.279 410.863C544.164 408.651 552.798 410.65 556.648 416.057Z" stroke="black" stroke-width="4"/>
<path d="M586.571 388.647C587.72 390.26 588.025 392.744 587.006 396.276C585.995 399.783 583.762 403.991 580.39 408.636C573.659 417.91 562.661 428.556 548.969 438.307C535.278 448.058 521.622 454.971 510.657 458.3C505.165 459.968 500.459 460.703 496.814 460.512C493.142 460.32 490.895 459.22 489.746 457.607C488.597 455.994 488.293 453.511 489.311 449.978C490.323 446.471 492.555 442.264 495.927 437.618C502.659 428.345 513.657 417.699 527.348 407.948C541.039 398.197 554.696 391.284 565.66 387.954C571.153 386.286 575.859 385.552 579.504 385.743C583.175 385.935 585.423 387.034 586.571 388.647Z" stroke="black" stroke-width="4"/>
<path d="M532.168 425.325C534.503 428.604 534.172 434.012 530.547 440.676C526.994 447.209 520.56 454.335 512.037 460.405C503.514 466.475 494.676 470.225 487.341 471.448C479.858 472.695 474.639 471.24 472.303 467.961C469.968 464.682 470.299 459.274 473.924 452.61C477.477 446.077 483.911 438.951 492.434 432.881C500.957 426.81 509.795 423.06 517.13 421.838C524.613 420.591 529.832 422.046 532.168 425.325Z" stroke="black" stroke-width="4"/>
</svg>
