<svg width="2179" height="966" viewBox="0 0 2179 966" fill="none" xmlns="http://www.w3.org/2000/svg">
<rect width="2179" height="966" fill="white"/>
<path d="M476.285 565.327C467.681 571.877 459.163 576.787 452.365 579.443C448.96 580.773 446.042 581.516 443.788 581.644C441.493 581.774 440.158 581.259 439.525 580.427C438.891 579.595 438.75 578.171 439.487 575.993C440.21 573.855 441.703 571.24 443.892 568.312C448.261 562.467 455.262 555.563 463.865 549.013C472.469 542.463 480.988 537.553 487.785 534.897C491.19 533.567 494.109 532.824 496.362 532.696C498.657 532.565 499.992 533.08 500.626 533.913C501.259 534.745 501.4 536.169 500.664 538.346C499.941 540.484 498.448 543.1 496.259 546.028C491.889 551.873 484.889 558.777 476.285 565.327Z" stroke="black" stroke-width="2"/>
<path d="M545.695 521.392C524.432 537.579 503.962 550.587 488.067 558.537C480.112 562.516 473.349 565.204 468.229 566.404C465.665 567.005 463.572 567.218 461.974 567.066C460.375 566.913 459.403 566.409 458.87 565.709C458.337 565.008 458.11 563.938 458.389 562.355C458.667 560.774 459.429 558.814 460.691 556.502C463.211 551.886 467.602 546.083 473.555 539.474C485.449 526.269 503.437 510 524.7 493.813C545.963 477.626 566.433 464.618 582.328 456.668C590.283 452.69 597.046 450.001 602.166 448.801C604.73 448.2 606.823 447.987 608.421 448.14C610.021 448.293 610.992 448.796 611.525 449.497C612.058 450.197 612.285 451.267 612.007 452.85C611.729 454.431 610.966 456.392 609.704 458.703C607.185 463.319 602.793 469.123 596.84 475.731C584.946 488.937 566.958 505.206 545.695 521.392Z" stroke="black" stroke-width="2"/>
<path d="M934.837 530.352C934.753 530.499 934.601 530.646 934.142 530.682C933.64 530.722 932.899 530.61 931.88 530.284C929.856 529.637 927.094 528.268 923.677 526.355C920.36 524.497 916.489 522.164 912.166 519.557L911.834 519.357C907.382 516.673 902.468 513.715 897.229 510.719C886.809 504.761 874.15 496.472 864.395 489.171C859.514 485.517 855.387 482.132 852.636 479.424C851.255 478.064 850.26 476.914 849.686 476.014C849.398 475.563 849.247 475.222 849.188 474.986C849.162 474.883 849.158 474.819 849.159 474.784C849.179 474.776 849.209 474.766 849.254 474.757C849.441 474.717 849.761 474.708 850.253 474.785C851.231 474.938 852.607 475.382 854.345 476.104C857.803 477.539 862.447 479.965 867.712 482.915C873.558 486.191 880.072 490.056 886.509 493.875C891.706 496.958 896.853 500.012 901.557 502.701C911.974 508.658 920.912 514.859 926.94 520.056C929.961 522.66 932.211 524.979 933.556 526.861C934.23 527.805 934.641 528.591 934.827 529.211C935.013 529.831 934.942 530.168 934.837 530.352ZM849.163 474.749C849.163 474.749 849.163 474.75 849.162 474.753C849.163 474.75 849.163 474.749 849.163 474.749ZM849.134 474.795C849.13 474.799 849.127 474.801 849.127 474.801C849.126 474.8 849.128 474.798 849.134 474.795Z" stroke="black" stroke-width="2"/>
<path d="M724.422 403.04C724.937 404.651 724.846 406.018 724.13 407.349C723.314 408.866 721.625 410.453 718.72 412.244C712.912 415.824 702.766 419.91 686.886 425.871C680.586 428.236 673.615 430.976 666.456 433.79C655.534 438.084 644.173 442.551 634.089 446.118C625.751 449.067 618.359 451.374 612.884 452.445C610.136 452.982 607.946 453.193 606.386 453.051C604.769 452.903 604.211 452.424 604.048 451.988C603.854 451.472 603.987 450.548 605.004 449.065C605.981 447.638 607.605 445.946 609.802 444.049C614.184 440.264 620.67 435.812 628.276 431.218C643.481 422.034 663.018 412.372 678.803 406.447C694.598 400.518 704.012 399.019 710.48 399.316C715.448 399.544 718.68 400.814 721.906 402.081C722.736 402.407 723.565 402.732 724.422 403.04Z" stroke="black" stroke-width="2"/>
<path d="M717.208 405.593C717.204 405.64 717.171 405.773 716.984 406.03C716.696 406.426 716.167 406.929 715.356 407.53C713.747 408.721 711.257 410.13 708.081 411.691C701.745 414.804 692.859 418.429 683.292 422.02C673.752 425.602 664.897 428.199 658.302 429.508C654.997 430.164 652.305 430.487 650.396 430.464C649.436 430.453 648.737 430.354 648.275 430.202C648.047 430.127 647.911 430.05 647.836 429.991C647.8 429.963 647.781 429.942 647.772 429.931C647.764 429.92 647.762 429.915 647.762 429.914L647.762 429.914C647.761 429.913 647.759 429.908 647.759 429.895C647.758 429.88 647.758 429.852 647.767 429.807C647.785 429.714 647.837 429.566 647.959 429.36C648.207 428.942 648.668 428.407 649.384 427.766C650.806 426.493 653.045 424.965 655.966 423.284C661.793 419.93 670.17 416.059 679.71 412.478C689.226 408.906 698.56 406.563 705.64 405.506C709.187 404.976 712.129 404.775 714.229 404.889C715.285 404.946 716.073 405.081 716.603 405.263C717.049 405.417 717.179 405.556 717.208 405.593ZM717.209 405.581C717.208 405.577 717.208 405.574 717.208 405.574C717.208 405.574 717.209 405.576 717.209 405.581Z" stroke="black" stroke-width="2"/>
<path d="M657.104 425.028C657.485 425.614 657.621 426.488 657.307 427.78C656.993 429.071 656.255 430.657 655.075 432.513C652.719 436.22 648.727 440.807 643.374 445.975C632.681 456.298 616.705 468.793 597.982 480.998C579.24 493.216 567.082 498.913 559.086 500.696C555.1 501.584 552.229 501.481 550.118 500.798C548.033 500.122 546.598 498.85 545.526 497.205C545.079 496.52 544.99 495.903 545.163 495.256C545.35 494.554 545.872 493.721 546.857 492.725C548.834 490.728 552.329 488.407 557.266 485.48C560.01 483.854 563.177 482.053 566.727 480.034C575.855 474.843 587.517 468.211 601.039 459.397C614.104 450.88 624.501 443.263 632.657 437.288C636.218 434.679 639.353 432.383 642.096 430.461C646.649 427.271 650.061 425.159 652.589 424.265C653.846 423.821 654.778 423.718 655.47 423.853C656.115 423.978 656.646 424.326 657.104 425.028Z" stroke="black" stroke-width="2"/>
<path d="M683.348 411.842C683.762 412.476 683.931 413.348 683.742 414.537C683.553 415.734 683.009 417.181 682.089 418.859C680.25 422.213 677.012 426.302 672.587 430.861C663.75 439.967 650.337 450.79 634.441 461.152C618.546 471.514 603.23 479.418 591.332 483.829C585.375 486.038 580.327 487.35 576.516 487.68C574.609 487.844 573.066 487.758 571.895 487.448C570.731 487.141 570.001 486.634 569.587 485.999C569.174 485.365 569.004 484.493 569.193 483.304C569.383 482.107 569.926 480.66 570.846 478.982C572.685 475.628 575.924 471.539 580.348 466.98C589.186 457.874 602.599 447.05 618.494 436.689C634.389 426.327 649.705 418.423 661.604 414.012C667.561 411.803 672.609 410.491 676.42 410.161C678.326 409.997 679.869 410.083 681.041 410.393C682.205 410.7 682.934 411.207 683.348 411.842Z" stroke="black" stroke-width="2"/>
<path d="M570.32 486.658C571.212 488.027 571.183 490.183 569.862 493.209C568.56 496.189 566.108 499.753 562.656 503.673C555.762 511.5 545.034 520.571 532.1 529.003C519.166 537.434 506.537 543.589 496.592 546.738C491.613 548.314 487.363 549.119 484.111 549.107C480.809 549.095 478.825 548.252 477.933 546.883C477.041 545.515 477.07 543.358 478.391 540.333C479.693 537.352 482.144 533.789 485.596 529.869C492.49 522.041 503.219 512.97 516.153 504.539C529.087 496.108 541.716 489.952 551.66 486.804C556.639 485.227 560.889 484.423 564.142 484.434C567.443 484.446 569.428 485.29 570.32 486.658Z" stroke="black" stroke-width="2"/>
<path d="M640.274 435.841C640.656 436.426 640.791 437.3 640.477 438.592C640.163 439.883 639.426 441.469 638.246 443.325C635.889 447.033 631.897 451.62 626.544 456.787C615.851 467.11 599.875 479.605 581.153 491.81C562.43 504.015 544.55 513.589 530.79 519.207C523.902 522.019 518.094 523.82 513.751 524.48C511.576 524.811 509.828 524.846 508.519 524.612C507.211 524.378 506.465 523.901 506.084 523.316C505.702 522.731 505.567 521.856 505.881 520.565C506.195 519.273 506.932 517.688 508.112 515.831C510.469 512.124 514.461 507.537 519.813 502.369C530.507 492.047 546.483 479.551 565.205 467.347C583.928 455.142 601.808 445.568 615.568 439.949C622.456 437.137 628.264 435.336 632.607 434.676C634.782 434.346 636.53 434.311 637.839 434.545C639.147 434.779 639.893 435.255 640.274 435.841Z" stroke="black" stroke-width="2"/>
<path d="M551.141 503.831C551.385 504.205 551.487 504.878 551.085 506.061C550.69 507.224 549.868 508.685 548.601 510.422C546.073 513.888 541.923 518.253 536.439 523.23C525.483 533.173 509.342 545.433 490.613 557.642C471.884 569.851 454.152 579.672 440.633 585.683C433.867 588.692 428.198 590.728 424.007 591.642C421.906 592.1 420.238 592.263 419.014 592.155C417.77 592.045 417.195 591.68 416.951 591.306C416.707 590.932 416.604 590.258 417.006 589.075C417.402 587.912 418.224 586.451 419.491 584.714C422.018 581.248 426.168 576.883 431.652 571.906C442.609 561.963 458.75 549.703 477.479 537.494C496.208 525.285 513.939 515.464 527.458 509.453C534.225 506.444 539.894 504.408 544.085 503.494C546.186 503.036 547.854 502.874 549.077 502.981C550.322 503.091 550.897 503.456 551.141 503.831Z" stroke="black" stroke-width="2"/>
<path d="M807.558 431.014C806.852 432.645 805.284 433.932 802.825 434.778C800.366 435.625 797.119 435.991 793.276 435.838C785.597 435.533 775.757 433.164 765.603 428.771C760.48 426.554 756.476 424.795 753.395 423.277C750.3 421.752 748.213 420.507 746.876 419.335C745.569 418.188 745.051 417.176 744.959 416.093C744.861 414.94 745.227 413.543 746.07 411.595C747.568 408.133 751.615 405.993 756.983 405.421C762.286 404.857 768.596 405.869 774.158 408.399C778.033 410.78 782.301 412.97 786.448 415.028C787.412 415.507 788.369 415.979 789.313 416.444C792.462 417.994 795.466 419.474 798.128 420.927C801.603 422.824 804.38 424.615 806.076 426.368C806.919 427.239 807.443 428.049 807.681 428.803C807.911 429.53 807.889 430.249 807.558 431.014Z" stroke="black" stroke-width="2"/>
<path d="M849.061 474.093C848.62 474.845 848.073 475.301 847.418 475.553C846.742 475.813 845.871 475.886 844.753 475.722C842.489 475.39 839.497 474.135 835.723 472.111C831.972 470.1 827.556 467.39 822.462 464.235C821.992 463.943 821.515 463.648 821.033 463.349C816.309 460.42 811.043 457.156 805.256 453.768C792.549 446.327 782.429 439.342 776.041 433.325C772.841 430.311 770.638 427.594 769.492 425.236C768.354 422.893 768.32 421.05 769.179 419.583C769.976 418.222 771.939 417.394 775.375 417.433C778.739 417.472 783.161 418.347 788.309 419.939C798.578 423.114 811.5 429.068 824.169 436.482C835.112 444.489 842.38 452.265 846.372 458.9C850.407 465.604 850.949 470.867 849.061 474.093Z" stroke="black" stroke-width="2"/>
<path d="M879.661 489.151C879.043 490.205 877.909 490.99 876.224 491.43C874.532 491.871 872.36 491.942 869.827 491.611C864.765 490.95 858.466 488.713 852.164 485.023C845.861 481.332 840.829 476.933 837.776 472.842C836.248 470.795 835.246 468.866 834.803 467.175C834.362 465.49 834.492 464.117 835.109 463.062C835.726 462.008 836.86 461.223 838.546 460.783C840.237 460.342 842.41 460.272 844.943 460.602C850.005 461.263 856.303 463.5 862.606 467.19C868.909 470.881 873.941 475.28 876.994 479.371C878.522 481.418 879.524 483.347 879.967 485.038C880.408 486.723 880.278 488.097 879.661 489.151Z" stroke="black" stroke-width="2"/>
<path d="M895.115 499.636C894.806 500.164 894.123 500.594 892.756 500.724C891.399 500.853 889.571 500.66 887.318 500.152C882.825 499.139 876.92 496.938 870.302 494.015C857.082 488.176 841.211 479.543 828.498 472.099C815.736 464.626 808.753 459.864 805.469 456.103C803.854 454.253 803.222 452.741 803.16 451.346C803.097 449.931 803.61 448.459 804.659 446.668C806.735 443.123 809.675 440.162 815.065 439.742C820.578 439.313 828.82 441.523 841.499 448.947C854.154 456.358 868.677 467.466 879.484 477.642C884.891 482.733 889.332 487.558 892.144 491.543C893.553 493.54 894.519 495.28 895.007 496.705C895.504 498.158 895.439 499.082 895.115 499.636Z" stroke="black" stroke-width="2"/>
<path d="M792.063 432.291C791.031 434.054 788.296 434.983 784.103 434.533C780.012 434.093 774.938 432.361 769.884 429.402C764.83 426.442 760.837 422.864 758.452 419.512C756.007 416.076 755.479 413.236 756.512 411.473C757.545 409.709 760.279 408.78 764.473 409.231C768.563 409.67 773.638 411.402 778.691 414.362C783.745 417.321 787.738 420.899 790.124 424.251C792.569 427.688 793.096 430.527 792.063 432.291Z" stroke="black" stroke-width="2"/>
<path d="M933.783 529.014C933.573 529.031 933.233 529.005 932.734 528.892C931.682 528.653 930.21 528.097 928.377 527.259C924.728 525.589 919.865 522.898 914.507 519.759C909.157 516.625 903.343 513.062 897.801 509.658C897.486 509.464 897.171 509.271 896.857 509.078C891.667 505.889 886.751 502.869 882.744 500.523C874.303 495.58 867.624 490.79 863.345 486.798C861.199 484.795 859.704 483.036 858.88 481.597C858.027 480.106 858.05 479.252 858.316 478.798C859.2 477.287 861.384 475.664 865.515 475.632C869.664 475.6 875.725 477.188 884.116 482.102C892.482 487 905.481 498.075 916.149 508.443C921.475 513.618 926.187 518.587 929.423 522.483C931.045 524.436 932.272 526.09 933.021 527.351C933.397 527.985 933.627 528.477 933.735 528.83C933.758 528.905 933.773 528.966 933.783 529.014ZM933.934 528.989C933.937 528.987 933.939 528.986 933.939 528.986C933.94 528.987 933.938 528.987 933.934 528.989Z" stroke="black" stroke-width="2"/>
<path d="M842.187 467.546C842.079 467.73 841.916 467.866 841.48 467.88C840.985 467.896 840.256 467.739 839.259 467.342C837.28 466.555 834.634 464.987 831.435 462.906C829.442 461.609 827.246 460.12 824.897 458.527C819.787 455.063 813.949 451.105 807.875 447.548C799.013 442.359 791.144 437.744 785.802 433.888C783.123 431.954 781.152 430.261 780.011 428.83C778.827 427.346 778.803 426.509 779.1 426.003C779.433 425.434 780.338 424.961 782.353 425.05C784.295 425.135 786.911 425.738 790.072 426.823C796.376 428.987 804.596 432.983 813.411 438.145C822.17 443.274 830.012 449.818 835.335 455.6C838 458.495 840.002 461.166 841.178 463.344C841.767 464.435 842.126 465.361 842.273 466.102C842.422 466.854 842.332 467.298 842.187 467.546Z" stroke="black" stroke-width="2"/>
<path d="M832.213 378.155L832.213 378.157C832.216 378.2 832.225 378.323 831.928 378.553C831.602 378.806 831.031 379.077 830.154 379.337C828.413 379.854 825.81 380.233 822.501 380.542C818.784 380.889 814.307 381.139 809.338 381.417C805.449 381.634 801.259 381.869 796.895 382.179C792.485 382.493 788.328 382.855 784.517 383.187C779.736 383.603 775.499 383.971 771.987 384.139C768.836 384.29 766.38 384.272 764.717 384.001C763.879 383.865 763.335 383.678 763.017 383.482C762.735 383.307 762.712 383.184 762.706 383.106C762.699 383.003 762.733 382.776 763.073 382.405C763.413 382.034 763.979 381.611 764.806 381.159C766.454 380.257 768.931 379.349 772.09 378.501C778.392 376.808 787.209 375.404 797.037 374.704C806.866 374.004 815.792 374.144 822.27 374.927C825.518 375.319 828.098 375.867 829.858 376.526C830.741 376.856 831.361 377.195 831.75 377.514C832.14 377.833 832.205 378.052 832.213 378.155Z" stroke="black" stroke-width="2"/>
<path d="M813.098 387.846C812.036 387.359 810.855 386.829 809.602 386.303C804.358 384.099 797.469 381.786 791.683 382.709C786.241 383.578 781.281 384.021 777.669 384.042C775.855 384.052 774.426 383.955 773.459 383.769C773.053 383.69 772.77 383.604 772.589 383.525C772.651 383.429 772.764 383.287 772.971 383.099C773.453 382.661 774.274 382.137 775.502 381.583C777.946 380.478 781.808 379.336 787.233 378.47C789.753 378.068 792.879 378.529 796.226 379.546C799.556 380.557 803.016 382.09 806.166 383.74C808.796 385.118 811.194 386.568 813.098 387.846ZM772.399 383.421C772.4 383.421 772.403 383.424 772.408 383.429C772.402 383.424 772.399 383.421 772.399 383.421Z" stroke="black" stroke-width="2"/>
<path d="M805.063 374.831C805.07 374.926 805.057 375.045 804.834 375.236C804.577 375.456 804.117 375.697 803.389 375.924C801.943 376.377 799.798 376.673 797.149 376.883C794.518 377.093 791.47 377.213 788.249 377.338L788.167 377.341C784.979 377.466 781.631 377.597 778.399 377.827C771.989 378.283 766.21 377.896 762.033 376.943C759.939 376.465 758.304 375.857 757.203 375.181C756.073 374.489 755.7 373.854 755.666 373.38C755.633 372.911 755.907 372.245 756.925 371.42C757.92 370.615 759.452 369.807 761.461 369.063C765.466 367.58 771.139 366.43 777.555 365.973C783.855 365.524 790.783 366.976 796.176 369.023C798.87 370.045 801.14 371.201 802.732 372.309C803.53 372.864 804.129 373.388 804.525 373.853C804.935 374.334 805.051 374.661 805.063 374.831Z" stroke="black" stroke-width="2"/>
<path d="M786.729 372.416C786.793 372.523 786.808 372.613 786.765 372.76C786.71 372.949 786.554 373.229 786.21 373.603C785.52 374.352 784.325 375.216 782.735 376.191C781.163 377.156 779.289 378.18 777.295 379.269L777.24 379.299C775.271 380.374 773.195 381.508 771.231 382.685C767.386 384.989 763.611 386.442 760.633 386.972C759.14 387.238 757.901 387.263 756.974 387.085C756.044 386.907 755.547 386.552 755.313 386.161C755.081 385.774 755.006 385.183 755.293 384.298C755.579 383.414 756.195 382.353 757.146 381.18C759.043 378.841 762.13 376.234 765.981 373.926C769.708 371.692 774.616 370.701 778.834 370.637C780.936 370.605 782.82 370.805 784.255 371.171C784.973 371.355 785.552 371.573 785.982 371.807C786.422 372.046 786.639 372.266 786.729 372.416Z" stroke="black" stroke-width="2"/>
<path d="M762.918 369.57C763.466 369.88 763.916 370.466 764.194 371.412C764.473 372.364 764.554 373.615 764.399 375.106C764.088 378.084 762.853 381.822 760.727 385.582C758.602 389.343 756.036 392.329 753.644 394.131C752.447 395.033 751.333 395.608 750.374 395.86C749.42 396.11 748.686 396.027 748.137 395.717C747.589 395.407 747.139 394.821 746.861 393.875C746.582 392.923 746.501 391.672 746.656 390.181C746.967 387.203 748.203 383.464 750.328 379.704C752.454 375.944 755.02 372.958 757.411 371.156C758.608 370.254 759.722 369.678 760.682 369.427C761.635 369.176 762.369 369.26 762.918 369.57Z" stroke="black" stroke-width="2"/>
<path d="M765.313 383.297C766.728 385.284 769.338 385.634 771.494 385.626C772.619 385.622 773.739 385.518 774.699 385.421C774.8 385.411 774.898 385.401 774.994 385.392C775.476 385.343 775.898 385.3 776.258 385.273C776.168 385.36 776.069 385.453 775.961 385.552C774.254 387.113 770.573 389.878 763.846 394.669C752.79 402.543 741.812 412.355 732.447 420.726C730.395 422.56 728.42 424.325 726.539 425.985C721.283 430.624 716.787 434.419 713.347 436.672C711.616 437.806 710.239 438.489 709.22 438.731C708.718 438.85 708.368 438.846 708.133 438.787C707.923 438.735 707.766 438.631 707.629 438.439C706.813 437.293 706.647 435.194 707.59 432.085C708.514 429.036 710.433 425.268 713.352 421.05C719.185 412.624 728.911 402.549 742.256 393.045C745.889 390.457 748.893 388.292 751.394 386.49C753.53 384.95 755.3 383.675 756.782 382.626C758.383 381.493 759.618 380.646 760.584 380.037C761.564 379.421 762.21 379.086 762.646 378.936C762.884 378.854 763.002 378.847 763.047 378.849C763.075 378.878 763.165 378.985 763.317 379.323C763.391 379.487 763.471 379.689 763.564 379.921C763.899 380.764 764.393 382.005 765.313 383.297ZM763.07 378.853C763.07 378.853 763.066 378.853 763.058 378.85C763.067 378.851 763.071 378.853 763.07 378.853Z" stroke="black" stroke-width="2"/>
<path d="M761.036 389.652C761.656 390.524 761.847 391.788 761.449 393.493C761.052 395.195 760.09 397.215 758.594 399.426C755.605 403.842 750.609 408.839 744.299 413.333C737.99 417.827 731.633 420.915 726.483 422.295C723.904 422.987 721.681 423.236 719.942 423.054C718.201 422.873 717.069 422.279 716.448 421.408C715.828 420.537 715.637 419.272 716.034 417.568C716.432 415.865 717.394 413.846 718.89 411.635C721.879 407.219 726.875 402.221 733.185 397.727C739.494 393.233 745.851 390.146 751.001 388.765C753.58 388.074 755.803 387.825 757.542 388.006C759.283 388.187 760.415 388.781 761.036 389.652Z" stroke="black" stroke-width="2"/>
<path d="M759.746 370.431C760.114 370.948 760.449 371.806 760.645 373.035C760.838 374.251 760.884 375.769 760.726 377.551C760.411 381.113 759.283 385.661 756.965 390.823C752.333 401.14 742.964 413.867 725.938 425.993C708.801 438.198 692.964 448.305 680.94 454.666C674.92 457.852 669.901 460.074 666.173 461.161C664.304 461.707 662.824 461.947 661.735 461.913C660.635 461.878 660.13 461.574 659.901 461.252C659.275 460.374 659.238 459.145 660.556 457.09C661.873 455.035 664.371 452.463 668.148 449.23C675.682 442.78 687.994 433.96 705.166 421.73C722.418 409.443 735.492 395.228 744.716 384.816C745.584 383.836 746.416 382.892 747.213 381.988C750.671 378.065 753.47 374.89 755.673 372.792C757.041 371.489 758.08 370.702 758.831 370.379C759.196 370.222 759.399 370.217 759.491 370.233C759.548 370.242 759.63 370.268 759.746 370.431Z" stroke="black" stroke-width="2"/>
<path d="M722.17 430.947C723.567 432.908 723.847 434.858 723.251 436.932C722.636 439.071 721.068 441.4 718.624 443.972C713.733 449.118 705.692 454.877 696.15 461.672C686.616 468.462 677.611 474.846 670.212 478.446C666.508 480.248 663.309 481.299 660.711 481.405C658.174 481.509 656.267 480.719 654.927 478.838C652.142 474.926 652.884 468.676 657.012 461.417C661.095 454.236 668.317 446.417 677.735 439.709C687.154 433.001 696.905 428.732 705.025 427.221C713.236 425.693 719.385 427.036 722.17 430.947Z" stroke="black" stroke-width="2"/>
<path d="M742.762 412.085C743.647 413.328 743.832 415.174 743.116 417.658C742.403 420.129 740.84 423.064 738.506 426.28C733.844 432.702 726.243 440.056 716.798 446.783C707.352 453.51 697.918 458.289 690.325 460.595C686.523 461.749 683.237 462.267 680.669 462.133C678.087 461.997 676.404 461.219 675.519 459.976C674.633 458.733 674.448 456.888 675.165 454.404C675.877 451.933 677.44 448.997 679.774 445.782C684.436 439.359 692.037 432.006 701.482 425.279C710.928 418.552 720.362 413.773 727.956 411.467C731.758 410.312 735.043 409.795 737.611 409.929C740.193 410.064 741.876 410.842 742.762 412.085Z" stroke="black" stroke-width="2"/>
<path d="M705.324 437.325C707.061 439.764 706.747 443.665 704.233 448.287C701.755 452.842 697.284 457.787 691.383 461.99C685.482 466.193 679.347 468.801 674.232 469.654C669.043 470.518 665.253 469.54 663.516 467.101C661.778 464.662 662.093 460.76 664.607 456.139C667.085 451.583 671.555 446.639 677.457 442.436C683.358 438.233 689.492 435.625 694.608 434.772C699.797 433.907 703.587 434.885 705.324 437.325Z" stroke="black" stroke-width="2"/>
<path d="M1003.05 437.273H1020.38V487.557C1020.36 492.268 1019.23 496.387 1017.01 499.915C1014.78 503.419 1011.7 506.141 1007.77 508.082C1003.87 510.024 999.345 510.994 994.207 510.994C989.662 510.994 985.531 510.201 981.814 508.615C978.121 507.029 975.173 504.567 972.972 501.229C970.794 497.891 969.716 493.617 969.74 488.409H987.247C987.318 490.279 987.673 491.877 988.312 493.203C988.975 494.505 989.887 495.488 991.047 496.151C992.207 496.813 993.592 497.145 995.202 497.145C996.883 497.145 998.303 496.79 999.463 496.08C1000.62 495.346 1001.5 494.268 1002.09 492.848C1002.71 491.428 1003.03 489.664 1003.05 487.557V437.273ZM1031.41 510V455.455H1048.78V510H1031.41ZM1040.11 449.098C1037.68 449.098 1035.58 448.293 1033.83 446.683C1032.08 445.05 1031.2 443.085 1031.2 440.788C1031.2 438.516 1032.08 436.574 1033.83 434.964C1035.58 433.331 1037.68 432.514 1040.11 432.514C1042.58 432.514 1044.67 433.331 1046.4 434.964C1048.15 436.574 1049.03 438.516 1049.03 440.788C1049.03 443.085 1048.15 445.05 1046.4 446.683C1044.67 448.293 1042.58 449.098 1040.11 449.098ZM1059.83 510V437.273H1077.41V466.463H1106.07V437.273H1123.61V510H1106.07V480.774H1077.41V510H1059.83ZM1160.1 511.03C1154.37 511.03 1149.45 509.858 1145.33 507.514C1141.23 505.147 1138.07 501.856 1135.84 497.642C1133.64 493.404 1132.54 488.492 1132.54 482.905C1132.54 477.294 1133.64 472.382 1135.84 468.168C1138.07 463.93 1141.23 460.639 1145.33 458.295C1149.45 455.928 1154.37 454.744 1160.1 454.744C1165.83 454.744 1170.74 455.928 1174.84 458.295C1178.96 460.639 1182.12 463.93 1184.32 468.168C1186.54 472.382 1187.66 477.294 1187.66 482.905C1187.66 488.492 1186.54 493.404 1184.32 497.642C1182.12 501.856 1178.96 505.147 1174.84 507.514C1170.74 509.858 1165.83 511.03 1160.1 511.03ZM1160.21 497.926C1162.29 497.926 1164.05 497.287 1165.5 496.009C1166.94 494.73 1168.04 492.955 1168.8 490.682C1169.58 488.409 1169.97 485.781 1169.97 482.798C1169.97 479.768 1169.58 477.116 1168.8 474.844C1168.04 472.571 1166.94 470.795 1165.5 469.517C1164.05 468.239 1162.29 467.599 1160.21 467.599C1158.05 467.599 1156.23 468.239 1154.74 469.517C1153.27 470.795 1152.14 472.571 1151.36 474.844C1150.61 477.116 1150.23 479.768 1150.23 482.798C1150.23 485.781 1150.61 488.409 1151.36 490.682C1152.14 492.955 1153.27 494.73 1154.74 496.009C1156.23 497.287 1158.05 497.926 1160.21 497.926ZM1222.01 511.03C1216.28 511.03 1211.36 509.858 1207.24 507.514C1203.14 505.147 1199.98 501.856 1197.76 497.642C1195.56 493.404 1194.46 488.492 1194.46 482.905C1194.46 477.294 1195.56 472.382 1197.76 468.168C1199.98 463.93 1203.14 460.639 1207.24 458.295C1211.36 455.928 1216.28 454.744 1222.01 454.744C1227.74 454.744 1232.65 455.928 1236.75 458.295C1240.87 460.639 1244.03 463.93 1246.23 468.168C1248.46 472.382 1249.57 477.294 1249.57 482.905C1249.57 488.492 1248.46 493.404 1246.23 497.642C1244.03 501.856 1240.87 505.147 1236.75 507.514C1232.65 509.858 1227.74 511.03 1222.01 511.03ZM1222.12 497.926C1224.2 497.926 1225.97 497.287 1227.41 496.009C1228.85 494.73 1229.96 492.955 1230.71 490.682C1231.49 488.409 1231.88 485.781 1231.88 482.798C1231.88 479.768 1231.49 477.116 1230.71 474.844C1229.96 472.571 1228.85 470.795 1227.41 469.517C1225.97 468.239 1224.2 467.599 1222.12 467.599C1219.96 467.599 1218.14 468.239 1216.65 469.517C1215.18 470.795 1214.06 472.571 1213.28 474.844C1212.52 477.116 1212.14 479.768 1212.14 482.798C1212.14 485.781 1212.52 488.409 1213.28 490.682C1214.06 492.955 1215.18 494.73 1216.65 496.009C1218.14 497.287 1219.96 497.926 1222.12 497.926ZM1275.83 478.892V510H1258.47V455.455H1274.98V465.469H1275.58C1276.79 462.131 1278.85 459.515 1281.76 457.621C1284.67 455.703 1288.14 454.744 1292.17 454.744C1296 454.744 1299.33 455.608 1302.14 457.337C1304.99 459.041 1307.19 461.432 1308.75 464.51C1310.34 467.564 1311.12 471.139 1311.09 475.234V510H1293.73V478.643C1293.75 475.613 1292.98 473.246 1291.42 471.541C1289.88 469.837 1287.74 468.984 1284.99 468.984C1283.17 468.984 1281.56 469.387 1280.16 470.192C1278.79 470.973 1277.72 472.098 1276.97 473.565C1276.23 475.033 1275.85 476.809 1275.83 478.892ZM1337.58 510H1318.68L1343.22 437.273H1366.62L1391.16 510H1372.27L1355.19 455.597H1354.62L1337.58 510ZM1335.05 481.378H1374.54V494.73H1335.05V481.378ZM1398.99 510V437.273H1416.57V466.463H1445.23V437.273H1462.77V510H1445.23V480.774H1416.57V510H1398.99ZM1535.69 437.273V510H1520.78L1491.84 468.026H1491.38V510H1473.8V437.273H1488.93L1517.55 479.176H1518.15V437.273H1535.69ZM1572.39 510V437.273H1596.92C1601.66 437.273 1605.6 438.101 1608.75 439.759C1611.92 441.416 1614.3 443.677 1615.89 446.541C1617.47 449.406 1618.27 452.661 1618.27 456.307C1618.27 459.337 1617.76 461.929 1616.74 464.084C1615.72 466.238 1614.34 467.978 1612.58 469.304C1610.83 470.63 1608.88 471.589 1606.73 472.18V472.749C1609.07 472.914 1611.34 473.743 1613.54 475.234C1615.75 476.702 1617.56 478.762 1618.98 481.413C1620.4 484.065 1621.11 487.237 1621.11 490.93C1621.11 494.6 1620.29 497.879 1618.66 500.767C1617.02 503.632 1614.51 505.893 1611.13 507.55C1607.77 509.183 1603.48 510 1598.27 510H1572.39ZM1579.03 504.034H1598.27C1603.88 504.034 1608.03 502.791 1610.7 500.305C1613.4 497.82 1614.75 494.695 1614.75 490.93C1614.75 488.161 1614.08 485.651 1612.73 483.402C1611.4 481.129 1609.52 479.33 1607.08 478.004C1604.67 476.679 1601.82 476.016 1598.56 476.016H1579.03V504.034ZM1579.03 470.121H1597.53C1600.39 470.121 1602.9 469.529 1605.06 468.345C1607.21 467.161 1608.89 465.528 1610.1 463.445C1611.31 461.361 1611.91 458.982 1611.91 456.307C1611.91 452.448 1610.66 449.311 1608.15 446.896C1605.64 444.458 1601.9 443.239 1596.92 443.239H1579.03V470.121ZM1642.14 437.273V510H1635.82V437.273H1642.14ZM1680.06 511.136C1675.35 511.136 1671.19 509.941 1667.56 507.55C1663.97 505.159 1661.15 501.856 1659.11 497.642C1657.08 493.404 1656.06 488.516 1656.06 482.976C1656.06 477.389 1657.08 472.476 1659.11 468.239C1661.15 463.977 1663.97 460.663 1667.56 458.295C1671.19 455.904 1675.35 454.709 1680.06 454.709C1684.78 454.709 1688.93 455.904 1692.53 458.295C1696.13 460.687 1698.95 464.001 1700.98 468.239C1703.04 472.476 1704.07 477.389 1704.07 482.976C1704.07 488.516 1703.05 493.404 1701.02 497.642C1698.98 501.856 1696.15 505.159 1692.53 507.55C1688.93 509.941 1684.78 511.136 1680.06 511.136ZM1680.06 505.348C1683.85 505.348 1687.06 504.33 1689.69 502.294C1692.32 500.258 1694.31 497.547 1695.65 494.162C1697.03 490.777 1697.71 487.048 1697.71 482.976C1697.71 478.904 1697.03 475.163 1695.65 471.754C1694.31 468.345 1692.32 465.611 1689.69 463.551C1687.06 461.491 1683.85 460.462 1680.06 460.462C1676.3 460.462 1673.09 461.491 1670.44 463.551C1667.81 465.611 1665.81 468.345 1664.44 471.754C1663.09 475.163 1662.42 478.904 1662.42 482.976C1662.42 487.048 1663.09 490.777 1664.44 494.162C1665.81 497.547 1667.81 500.258 1670.44 502.294C1673.07 504.33 1676.28 505.348 1680.06 505.348ZM1738.76 531.591C1735.04 531.591 1731.78 531.106 1728.99 530.135C1726.2 529.188 1723.84 527.886 1721.92 526.229C1720.01 524.571 1718.51 522.713 1717.45 520.653L1722.63 517.244C1723.42 518.617 1724.46 519.967 1725.76 521.293C1727.08 522.618 1728.8 523.719 1730.91 524.595C1733.04 525.471 1735.66 525.909 1738.76 525.909C1743.59 525.909 1747.48 524.702 1750.44 522.287C1753.42 519.872 1754.91 516.12 1754.91 511.03V498.743H1754.35C1753.61 500.4 1752.56 502.057 1751.19 503.714C1749.81 505.348 1748.01 506.709 1745.79 507.798C1743.59 508.887 1740.85 509.432 1737.58 509.432C1733.23 509.432 1729.36 508.355 1725.97 506.2C1722.61 504.046 1719.96 500.968 1718.02 496.967C1716.1 492.943 1715.14 488.149 1715.14 482.585C1715.14 477.069 1716.08 472.216 1717.95 468.026C1719.84 463.835 1722.48 460.568 1725.87 458.224C1729.25 455.881 1733.19 454.709 1737.69 454.709C1741.03 454.709 1743.8 455.301 1746 456.484C1748.2 457.644 1749.97 459.089 1751.29 460.817C1752.64 462.545 1753.69 464.226 1754.45 465.859H1755.09V455.455H1761.27V511.42C1761.27 516.037 1760.29 519.837 1758.32 522.82C1756.36 525.803 1753.68 528.004 1750.3 529.425C1746.91 530.869 1743.07 531.591 1738.76 531.591ZM1738.33 503.643C1741.83 503.643 1744.83 502.803 1747.31 501.122C1749.8 499.418 1751.71 496.979 1753.03 493.807C1754.36 490.634 1755.02 486.858 1755.02 482.479C1755.02 478.217 1754.37 474.441 1753.07 471.151C1751.77 467.836 1749.87 465.232 1747.39 463.338C1744.92 461.42 1741.91 460.462 1738.33 460.462C1734.68 460.462 1731.61 461.444 1729.1 463.409C1726.59 465.374 1724.69 468.026 1723.42 471.364C1722.14 474.678 1721.5 478.383 1721.5 482.479C1721.5 486.645 1722.15 490.327 1723.45 493.523C1724.75 496.695 1726.66 499.181 1729.17 500.98C1731.68 502.756 1734.73 503.643 1738.33 503.643Z" fill="black"/>
</svg>
