<svg width="32768" height="10018" viewBox="0 0 32768 10018" fill="none" xmlns="http://www.w3.org/2000/svg">
<mask id="mask0_17_281" style="mask-type:luminance" maskUnits="userSpaceOnUse" x="5438" y="2155" width="5707" height="5707">
<path d="M11144.4 2155.69H5438.73V7861.36H11144.4V2155.69Z" fill="white"/>
</mask>
<g mask="url(#mask0_17_281)">
<path d="M11097.2 4319.26H7665.46V7717.69V7750.98C7778.68 5923.88 9251.96 4429.84 11081.4 4325.26L11097.2 4319.26Z" fill="black"/>
<mask id="mask1_17_281" style="mask-type:alpha" maskUnits="userSpaceOnUse" x="5668" y="2305" width="5539" height="2016">
<path d="M11206.9 2305.67H5668.38V4320.71H11206.9V2305.67Z" fill="#D9D9D9"/>
</mask>
<g mask="url(#mask1_17_281)">
<path d="M11206.9 5092.1C11206.9 4728.43 11135.3 4368.31 10996.1 4032.36C10856.9 3696.37 10653 3391.09 10395.8 3133.93C10138.6 2876.79 9833.34 2672.81 9497.39 2533.64C9161.4 2394.47 8801.31 2322.84 8437.64 2322.84C8073.97 2322.84 7713.86 2394.47 7377.89 2533.64C7041.9 2672.81 6736.63 2876.79 6479.47 3133.93C6222.34 3391.09 6018.35 3696.37 5879.18 4032.36C5740.01 4368.31 5668.38 4728.43 5668.38 5092.1H8437.64H11206.9Z" fill="#282828"/>
</g>
<mask id="mask2_17_281" style="mask-type:alpha" maskUnits="userSpaceOnUse" x="5651" y="2322" width="2016" height="5540">
<path d="M5651.21 2322.84V7861.33H7666.25V2322.84H5651.21Z" fill="#D9D9D9"/>
</mask>
<g mask="url(#mask2_17_281)">
<path d="M8437.64 2322.84C8073.97 2322.84 7713.86 2394.47 7377.89 2533.64C7041.9 2672.81 6736.62 2876.79 6479.47 3133.93C6222.34 3391.09 6018.35 3696.37 5879.18 4032.36C5740.01 4368.31 5668.38 4728.43 5668.38 5092.1C5668.38 5455.77 5740.01 5815.86 5879.18 6151.85C6018.35 6487.8 6222.34 6793.1 6479.47 7050.26C6736.62 7307.42 7041.9 7511.4 7377.89 7650.56C7713.86 7789.72 8073.97 7861.33 8437.64 7861.33V5092.1V2322.84Z" fill="#424242"/>
</g>
<path d="M8438.24 3590.73C8589.52 3590.73 8712.14 3468.09 8712.14 3316.82C8712.14 3165.54 8589.52 3042.9 8438.24 3042.9C8286.95 3042.9 8164.29 3165.54 8164.29 3316.82C8164.29 3468.09 8286.95 3590.73 8438.24 3590.73Z" fill="white"/>
<path d="M8653.91 3144.17C8697.22 3198.87 8718.31 3267.85 8713.05 3337.4C8707.8 3406.95 8676.55 3471.97 8625.53 3519.52C8574.52 3567.1 8507.5 3593.72 8437.75 3594.1C8367.99 3594.49 8300.65 3568.61 8249.12 3521.6C8197.58 3474.6 8165.63 3409.92 8159.6 3340.43C8153.57 3270.94 8173.93 3201.74 8216.64 3146.57C8259.28 3091.4 8321.18 3054.32 8389.96 3042.71C8458.73 3031.08 8529.36 3045.78 8587.8 3083.85L8436.2 3316.46L8653.91 3144.17Z" fill="black"/>
</g>
<path d="M12377.8 4226.11H12613.2V5336.15C12613.2 5436.56 12593.4 5522.43 12553.6 5593.79C12514.4 5665.14 12459.1 5719.67 12387.7 5757.39C12316.3 5794.59 12232.8 5813.2 12136.9 5813.2C12048.8 5813.2 11969.5 5797.14 11899.2 5765.03C11829.4 5732.92 11774.1 5686.29 11733.3 5625.13C11693 5563.46 11672.9 5488.54 11672.9 5400.37H11907.6C11907.6 5443.69 11917.5 5481.15 11937.4 5512.75C11957.8 5544.35 11985.6 5569.07 12020.7 5586.91C12056.4 5604.23 12097.2 5612.9 12143.1 5612.9C12193 5612.9 12235.3 5602.45 12270 5581.55C12305.1 5560.15 12331.9 5528.8 12350.2 5487.52C12368.6 5446.24 12377.8 5395.78 12377.8 5336.15V4226.11ZM12938.7 5791.79V4617.53H13167.3V5791.79H12938.7ZM13054.1 4436.34C13014.4 4436.34 12980.2 4423.09 12951.7 4396.59C12923.7 4369.58 12909.7 4337.47 12909.7 4300.26C12909.7 4262.55 12923.7 4230.44 12951.7 4203.94C12980.2 4176.92 13014.4 4163.42 13054.1 4163.42C13093.9 4163.42 13127.8 4176.92 13155.8 4203.94C13184.4 4230.44 13198.6 4262.55 13198.6 4300.26C13198.6 4337.47 13184.4 4369.58 13155.8 4396.59C13127.8 4423.09 13093.9 4436.34 13054.1 4436.34ZM13703.4 5094.57V5791.79H13474.8V4226.11H13700.3V4808.65H13714.9C13742.4 4745.45 13784.4 4695.25 13841 4658.05C13897.6 4620.84 13971.5 4602.24 14062.7 4602.24C14143.2 4602.24 14213.6 4618.8 14273.7 4651.93C14334.4 4685.06 14381.2 4734.5 14414.4 4800.24C14448 4865.48 14464.8 4947.02 14464.8 5044.88V5791.79H14236.2V5072.4C14236.2 4986.27 14214.1 4919.5 14169.7 4872.1C14125.4 4824.2 14063.7 4800.24 13984.7 4800.24C13930.7 4800.24 13882.3 4811.71 13839.5 4834.64C13797.2 4857.58 13763.8 4891.22 13739.3 4935.56C13715.4 4979.39 13703.4 5032.39 13703.4 5094.57ZM15264.5 5815.49C15154.4 5815.49 15058.3 5790.26 14976.3 5739.8C14894.2 5689.35 14830.5 5618.76 14785.2 5528.04C14739.8 5437.32 14717.1 5331.31 14717.1 5210.01C14717.1 5088.2 14739.8 4981.68 14785.2 4890.45C14830.5 4799.22 14894.2 4728.38 14976.3 4677.92C15058.3 4627.47 15154.4 4602.24 15264.5 4602.24C15374.6 4602.24 15470.7 4627.47 15552.7 4677.92C15634.8 4728.38 15698.5 4799.22 15743.8 4890.45C15789.2 4981.68 15811.9 5088.2 15811.9 5210.01C15811.9 5331.31 15789.2 5437.32 15743.8 5528.04C15698.5 5618.76 15634.8 5689.35 15552.7 5739.8C15470.7 5790.26 15374.6 5815.49 15264.5 5815.49ZM15265.3 5623.6C15336.6 5623.6 15395.7 5604.74 15442.6 5567.03C15489.5 5529.31 15524.2 5479.11 15546.6 5416.42C15569.5 5353.74 15581 5284.68 15581 5209.25C15581 5134.33 15569.5 5065.52 15546.6 5002.83C15524.2 4939.63 15489.5 4888.92 15442.6 4850.7C15395.7 4812.47 15336.6 4793.36 15265.3 4793.36C15193.4 4793.36 15133.8 4812.47 15086.4 4850.7C15039.5 4888.92 15004.6 4939.63 14981.6 5002.83C14959.2 5065.52 14948 5134.33 14948 5209.25C14948 5284.68 14959.2 5353.74 14981.6 5416.42C15004.6 5479.11 15039.5 5529.31 15086.4 5567.03C15133.8 5604.74 15193.4 5623.6 15265.3 5623.6ZM16561.6 5815.49C16451.6 5815.49 16355.5 5790.26 16273.4 5739.8C16191.4 5689.35 16127.7 5618.76 16082.3 5528.04C16037 5437.32 16014.3 5331.31 16014.3 5210.01C16014.3 5088.2 16037 4981.68 16082.3 4890.45C16127.7 4799.22 16191.4 4728.38 16273.4 4677.92C16355.5 4627.47 16451.6 4602.24 16561.6 4602.24C16671.7 4602.24 16767.8 4627.47 16849.9 4677.92C16931.9 4728.38 16995.6 4799.22 17041 4890.45C17086.3 4981.68 17109 5088.2 17109 5210.01C17109 5331.31 17086.3 5437.32 17041 5528.04C16995.6 5618.76 16931.9 5689.35 16849.9 5739.8C16767.8 5790.26 16671.7 5815.49 16561.6 5815.49ZM16562.4 5623.6C16633.8 5623.6 16692.9 5604.74 16739.8 5567.03C16786.7 5529.31 16821.3 5479.11 16843.7 5416.42C16866.7 5353.74 16878.1 5284.68 16878.1 5209.25C16878.1 5134.33 16866.7 5065.52 16843.7 5002.83C16821.3 4939.63 16786.7 4888.92 16739.8 4850.7C16692.9 4812.47 16633.8 4793.36 16562.4 4793.36C16490.6 4793.36 16430.9 4812.47 16383.5 4850.7C16336.6 4888.92 16301.7 4939.63 16278.8 5002.83C16256.4 5065.52 16245.1 5134.33 16245.1 5209.25C16245.1 5284.68 16256.4 5353.74 16278.8 5416.42C16301.7 5479.11 16336.6 5529.31 16383.5 5567.03C16430.9 5604.74 16490.6 5623.6 16562.4 5623.6ZM17592.8 5094.57V5791.79H17364.2V4617.53H17583.6V4808.65H17598.1C17625.1 4746.47 17667.4 4696.53 17725 4658.81C17783.1 4621.1 17856.3 4602.24 17944.4 4602.24C18024.4 4602.24 18094.5 4619.06 18154.7 4652.69C18214.8 4685.82 18261.4 4735.26 18294.6 4801.01C18327.7 4866.75 18344.3 4948.04 18344.3 5044.88V5791.79H18115.7V5072.4C18115.7 4987.29 18093.5 4920.78 18049.2 4872.87C18004.8 4824.45 17943.9 4800.24 17866.4 4800.24C17813.4 4800.24 17766.3 4811.71 17725 4834.64C17684.2 4857.58 17651.9 4891.22 17627.9 4935.56C17604.5 4979.39 17592.8 5032.39 17592.8 5094.57ZM18992.5 5817.78C18918.1 5817.78 18850.9 5804.02 18790.7 5776.5C18730.6 5748.47 18682.9 5707.95 18647.8 5654.95C18613.1 5601.94 18595.8 5536.96 18595.8 5460C18595.8 5393.74 18608.5 5339.21 18634 5296.4C18659.5 5253.59 18693.9 5219.69 18737.2 5194.72C18780.5 5169.75 18828.9 5150.89 18882.5 5138.15C18936 5125.41 18990.5 5115.72 19046.1 5109.1C19116.4 5100.94 19173.5 5094.32 19217.3 5089.22C19261.1 5083.61 19293 5074.7 19312.9 5062.46C19332.7 5050.23 19342.7 5030.35 19342.7 5002.83V4997.48C19342.7 4930.72 19323.8 4878.98 19286.1 4842.29C19248.9 4805.59 19193.4 4787.25 19119.5 4787.25C19042.5 4787.25 18981.8 4804.32 18937.5 4838.47C18893.7 4872.1 18863.3 4909.56 18846.5 4950.85L18631.7 4901.92C18657.2 4830.57 18694.4 4772.97 18743.3 4729.14C18792.8 4684.8 18849.6 4652.69 18913.8 4632.82C18978 4612.43 19045.6 4602.24 19116.4 4602.24C19163.3 4602.24 19213 4607.84 19265.5 4619.06C19318.5 4629.76 19367.9 4649.64 19413.8 4678.69C19460.2 4707.74 19498.1 4749.28 19527.7 4803.3C19557.3 4856.81 19572 4926.38 19572 5012.01V5791.79H19348.8V5631.25H19339.6C19324.8 5660.81 19302.7 5689.86 19273.1 5718.4C19243.6 5746.94 19205.6 5770.64 19159.2 5789.5C19112.8 5808.35 19057.3 5817.78 18992.5 5817.78ZM19042.2 5634.3C19105.4 5634.3 19159.5 5621.82 19204.3 5596.84C19249.7 5571.87 19284.1 5539.25 19307.5 5498.99C19331.5 5458.22 19343.5 5414.64 19343.5 5368.26V5216.89C19335.3 5225.05 19319.5 5232.69 19296.1 5239.83C19273.1 5246.45 19246.9 5252.31 19217.3 5257.41C19187.7 5262 19159 5266.33 19130.9 5270.41C19102.9 5273.97 19079.4 5277.03 19060.6 5279.58C19016.2 5285.19 18975.7 5294.61 18939 5307.87C18902.8 5321.12 18873.8 5340.23 18851.9 5365.2C18830.5 5389.67 18819.8 5422.29 18819.8 5463.06C18819.8 5519.63 18840.7 5562.44 18882.5 5591.49C18924.3 5620.03 18977.5 5634.3 19042.2 5634.3ZM20105.1 5094.57V5791.79H19876.5V4226.11H20102V4808.65H20116.5C20144.1 4745.45 20186.1 4695.25 20242.7 4658.05C20299.3 4620.84 20373.2 4602.24 20464.4 4602.24C20544.9 4602.24 20615.3 4618.8 20675.4 4651.93C20736 4685.06 20782.9 4734.5 20816.1 4800.24C20849.7 4865.48 20866.5 4947.02 20866.5 5044.88V5791.79H20637.9V5072.4C20637.9 4986.27 20615.8 4919.5 20571.4 4872.1C20527.1 4824.2 20465.4 4800.24 20386.4 4800.24C20332.4 4800.24 20284 4811.71 20241.2 4834.64C20198.9 4857.58 20165.5 4891.22 20141 4935.56C20117.1 4979.39 20105.1 5032.39 20105.1 5094.57ZM21400.1 5094.57V5791.79H21171.5V4617.53H21391V4808.65H21405.5C21432.5 4746.47 21474.8 4696.53 21532.4 4658.81C21590.5 4621.1 21663.6 4602.24 21751.8 4602.24C21831.8 4602.24 21901.9 4619.06 21962 4652.69C22022.2 4685.82 22068.8 4735.26 22101.9 4801.01C22135.1 4866.75 22151.6 4948.04 22151.6 5044.88V5791.79H21923V5072.4C21923 4987.29 21900.9 4920.78 21856.5 4872.87C21812.2 4824.45 21751.3 4800.24 21673.8 4800.24C21620.8 4800.24 21573.7 4811.71 21532.4 4834.64C21491.6 4857.58 21459.3 4891.22 21435.3 4935.56C21411.9 4979.39 21400.1 5032.39 21400.1 5094.57ZM23082.2 5791.79V4226.11H23610.5C23712.4 4226.11 23797.3 4243.94 23865.1 4279.62C23933.3 4315.3 23984.6 4363.97 24018.7 4425.64C24052.9 4487.31 24069.9 4557.39 24069.9 4635.88C24069.9 4701.11 24059 4756.92 24037.1 4803.3C24015.1 4849.68 23985.3 4887.14 23947.6 4915.68C23909.9 4944.22 23867.9 4964.86 23821.5 4977.6V4989.84C23871.9 4993.4 23920.9 5011.24 23968.3 5043.35C24015.7 5074.95 24054.6 5119.29 24085.2 5176.37C24115.8 5233.45 24131.1 5301.75 24131.1 5381.26C24131.1 5460.25 24113.5 5530.84 24078.3 5593.02C24043.2 5654.69 23989.2 5703.36 23916.3 5739.04C23843.9 5774.21 23751.7 5791.79 23639.5 5791.79H23082.2ZM23225.2 5663.36H23639.5C23760.3 5663.36 23849.5 5636.6 23907.1 5583.08C23965.2 5529.57 23994.3 5462.29 23994.3 5381.26C23994.3 5321.63 23979.7 5267.6 23950.7 5219.18C23922.1 5170.26 23881.6 5131.52 23829.1 5102.98C23777.1 5074.44 23716 5060.17 23645.6 5060.17H23225.2V5663.36ZM23225.2 4933.26H23623.5C23685.1 4933.26 23739.2 4920.52 23785.5 4895.04C23831.9 4869.56 23868.1 4834.39 23894.1 4789.54C23920.1 4744.69 23933.1 4693.47 23933.1 4635.88C23933.1 4552.8 23906.1 4485.27 23852.1 4433.28C23798 4380.79 23717.5 4354.54 23610.5 4354.54H23225.2V4933.26ZM24583.9 4226.11V5791.79H24447.8V4226.11H24583.9ZM25400.3 5816.25C25298.9 5816.25 25209.2 5790.52 25131.2 5739.04C25053.8 5687.56 24993.1 5616.47 24949.3 5525.75C24905.5 5434.52 24883.5 5329.27 24883.5 5210.01C24883.5 5089.73 24905.5 4983.98 24949.3 4892.75C24993.1 4801.01 25053.8 4729.65 25131.2 4678.69C25209.2 4627.21 25298.9 4601.47 25400.3 4601.47C25501.8 4601.47 25591.2 4627.21 25668.7 4678.69C25746.2 4730.16 25806.8 4801.52 25850.6 4892.75C25895 4983.98 25917.1 5089.73 25917.1 5210.01C25917.1 5329.27 25895.2 5434.52 25851.4 5525.75C25807.6 5616.47 25746.7 5687.56 25668.7 5739.04C25591.2 5790.52 25501.8 5816.25 25400.3 5816.25ZM25400.3 5691.64C25481.9 5691.64 25551 5669.73 25607.5 5625.9C25664.1 5582.06 25706.9 5523.71 25736 5450.83C25765.5 5377.94 25780.3 5297.67 25780.3 5210.01C25780.3 5122.35 25765.5 5041.82 25736 4968.43C25706.9 4895.04 25664.1 4836.17 25607.5 4791.83C25551 4747.49 25481.9 4725.32 25400.3 4725.32C25319.3 4725.32 25250.3 4747.49 25193.2 4791.83C25136.6 4836.17 25093.5 4895.04 25064 4968.43C25034.9 5041.82 25020.4 5122.35 25020.4 5210.01C25020.4 5297.67 25034.9 5377.94 25064 5450.83C25093.5 5523.71 25136.6 5582.06 25193.2 5625.9C25249.7 5669.73 25318.8 5691.64 25400.3 5691.64ZM26663.9 6256.6C26583.8 6256.6 26513.8 6246.15 26453.6 6225.26C26393.5 6204.87 26342.8 6176.84 26301.5 6141.16C26260.2 6105.49 26228.1 6065.48 26205.2 6021.14L26316.8 5947.75C26333.6 5977.31 26356 6006.36 26384.1 6034.9C26412.6 6063.44 26449.6 6087.14 26494.9 6106C26540.8 6124.86 26597.1 6134.28 26663.9 6134.28C26767.8 6134.28 26851.7 6108.29 26915.4 6056.31C26979.6 6004.32 27011.7 5923.54 27011.7 5813.96V5549.45H26999.5C26983.7 5585.12 26961 5620.8 26931.4 5656.48C26901.9 5691.64 26863.1 5720.95 26815.2 5744.39C26767.8 5767.84 26709 5779.56 26638.6 5779.56C26544.9 5779.56 26461.5 5756.37 26388.6 5709.99C26316.3 5663.61 26259.2 5597.35 26217.4 5511.22C26176.1 5424.58 26155.5 5321.37 26155.5 5201.6C26155.5 5082.85 26175.6 4978.37 26215.9 4888.16C26256.6 4797.95 26313.5 4727.61 26386.4 4677.16C26459.2 4626.7 26544.1 4601.47 26640.9 4601.47C26712.8 4601.47 26772.4 4614.21 26819.8 4639.7C26867.2 4664.67 26905.2 4695.76 26933.7 4732.97C26962.8 4770.17 26985.5 4806.36 27001.8 4841.52H27015.5V4617.53H27148.6V5822.37C27148.6 5921.75 27127.4 6003.56 27085.1 6067.77C27042.8 6131.99 26985.2 6179.39 26912.3 6209.97C26839.4 6241.06 26756.6 6256.6 26663.9 6256.6ZM26654.7 5654.95C26730.1 5654.95 26794.6 5636.85 26848.1 5600.67C26901.6 5563.97 26942.6 5511.48 26971.2 5443.18C26999.7 5374.89 27014 5293.6 27014 5199.31C27014 5107.57 27000 5026.28 26972 4955.43C26943.9 4884.08 26903.2 4828.02 26849.6 4787.25C26796.6 4745.96 26731.6 4725.32 26654.7 4725.32C26576.2 4725.32 26509.9 4746.47 26455.9 4788.77C26401.9 4831.08 26361.1 4888.16 26333.6 4960.02C26306.1 5031.37 26292.3 5111.14 26292.3 5199.31C26292.3 5289.01 26306.3 5368.26 26334.4 5437.07C26362.4 5505.36 26403.4 5558.87 26457.5 5597.61C26511.5 5635.83 26577.2 5654.95 26654.7 5654.95Z" fill="#282828"/>
</svg>
