<svg width="2179" height="966" viewBox="0 0 2179 966" fill="none" xmlns="http://www.w3.org/2000/svg">
<rect width="2179" height="966" fill="white"/>
<path d="M476.285 565.327C467.681 571.877 459.163 576.787 452.365 579.443C448.96 580.773 446.042 581.516 443.788 581.644C441.493 581.774 440.158 581.259 439.525 580.427C438.891 579.595 438.75 578.171 439.487 575.993C440.21 573.855 441.703 571.24 443.892 568.312C448.261 562.467 455.262 555.563 463.865 549.013C472.469 542.463 480.988 537.553 487.785 534.897C491.19 533.567 494.109 532.824 496.362 532.696C498.657 532.565 499.992 533.08 500.626 533.913C501.259 534.745 501.4 536.169 500.664 538.346C499.941 540.484 498.448 543.1 496.259 546.028C491.889 551.873 484.889 558.777 476.285 565.327Z" stroke="black" stroke-width="2"/>
<path d="M545.695 521.392C524.432 537.579 503.962 550.587 488.067 558.537C480.112 562.516 473.349 565.204 468.229 566.404C465.665 567.005 463.572 567.218 461.974 567.066C460.375 566.913 459.403 566.409 458.87 565.709C458.337 565.008 458.11 563.938 458.389 562.355C458.667 560.774 459.429 558.814 460.691 556.502C463.211 551.886 467.602 546.083 473.555 539.474C485.449 526.269 503.437 510 524.7 493.813C545.963 477.626 566.433 464.618 582.328 456.668C590.283 452.69 597.046 450.001 602.166 448.801C604.73 448.2 606.823 447.987 608.421 448.14C610.021 448.293 610.992 448.796 611.525 449.497C612.058 450.197 612.285 451.267 612.007 452.85C611.729 454.431 610.966 456.392 609.704 458.703C607.185 463.319 602.793 469.123 596.84 475.731C584.946 488.937 566.958 505.206 545.695 521.392Z" stroke="black" stroke-width="2"/>
<path d="M934.837 530.352C934.753 530.499 934.601 530.646 934.142 530.682C933.64 530.722 932.899 530.61 931.88 530.284C929.856 529.637 927.094 528.268 923.677 526.355C920.36 524.497 916.489 522.164 912.166 519.557L911.834 519.357C907.382 516.673 902.468 513.715 897.229 510.719C886.809 504.761 874.15 496.472 864.395 489.171C859.514 485.517 855.387 482.132 852.636 479.424C851.255 478.064 850.26 476.914 849.686 476.014C849.398 475.563 849.247 475.222 849.188 474.986C849.162 474.883 849.158 474.819 849.159 474.784C849.179 474.776 849.209 474.766 849.254 474.757C849.441 474.717 849.761 474.708 850.253 474.785C851.231 474.938 852.607 475.382 854.345 476.104C857.803 477.539 862.447 479.965 867.712 482.915C873.558 486.191 880.072 490.056 886.509 493.875C891.706 496.958 896.853 500.012 901.557 502.701C911.974 508.658 920.912 514.859 926.94 520.056C929.961 522.66 932.211 524.979 933.556 526.861C934.23 527.805 934.641 528.591 934.827 529.211C935.013 529.831 934.942 530.168 934.837 530.352ZM849.163 474.749C849.163 474.749 849.163 474.75 849.162 474.753C849.163 474.75 849.163 474.749 849.163 474.749ZM849.134 474.795C849.13 474.799 849.127 474.801 849.127 474.801C849.126 474.8 849.128 474.798 849.134 474.795Z" stroke="black" stroke-width="2"/>
<path d="M724.422 403.04C724.937 404.651 724.846 406.018 724.13 407.349C723.314 408.866 721.625 410.453 718.72 412.244C712.912 415.824 702.766 419.91 686.886 425.871C680.586 428.236 673.615 430.976 666.456 433.79C655.534 438.084 644.173 442.551 634.089 446.118C625.751 449.067 618.359 451.374 612.884 452.445C610.136 452.982 607.946 453.193 606.386 453.051C604.769 452.903 604.211 452.424 604.048 451.988C603.854 451.472 603.987 450.548 605.004 449.065C605.981 447.638 607.605 445.946 609.802 444.049C614.184 440.264 620.67 435.812 628.276 431.218C643.481 422.034 663.018 412.372 678.803 406.447C694.598 400.518 704.012 399.019 710.48 399.316C715.448 399.544 718.68 400.814 721.906 402.081C722.736 402.407 723.565 402.732 724.422 403.04Z" stroke="black" stroke-width="2"/>
<path d="M717.208 405.593C717.204 405.64 717.171 405.773 716.984 406.03C716.696 406.426 716.167 406.929 715.356 407.53C713.747 408.721 711.257 410.13 708.081 411.691C701.745 414.804 692.859 418.429 683.292 422.02C673.752 425.602 664.897 428.199 658.302 429.508C654.997 430.164 652.305 430.487 650.396 430.464C649.436 430.453 648.737 430.354 648.275 430.202C648.047 430.127 647.911 430.05 647.836 429.991C647.8 429.963 647.781 429.942 647.772 429.931C647.764 429.92 647.762 429.915 647.762 429.914L647.762 429.914C647.761 429.913 647.759 429.908 647.759 429.895C647.758 429.88 647.758 429.852 647.767 429.807C647.785 429.714 647.837 429.566 647.959 429.36C648.207 428.942 648.668 428.407 649.384 427.766C650.806 426.493 653.045 424.965 655.966 423.284C661.793 419.93 670.17 416.059 679.71 412.478C689.226 408.906 698.56 406.563 705.64 405.506C709.187 404.976 712.129 404.775 714.229 404.889C715.285 404.946 716.073 405.081 716.603 405.263C717.049 405.417 717.179 405.556 717.208 405.593ZM717.209 405.581C717.208 405.577 717.208 405.574 717.208 405.574C717.208 405.574 717.209 405.576 717.209 405.581Z" stroke="black" stroke-width="2"/>
<path d="M657.104 425.028C657.485 425.614 657.621 426.488 657.307 427.78C656.993 429.071 656.255 430.657 655.075 432.513C652.719 436.22 648.727 440.807 643.374 445.975C632.681 456.298 616.705 468.793 597.982 480.998C579.24 493.216 567.082 498.913 559.086 500.696C555.1 501.584 552.229 501.481 550.118 500.798C548.033 500.122 546.598 498.85 545.526 497.205C545.079 496.52 544.99 495.903 545.163 495.256C545.35 494.554 545.872 493.721 546.857 492.725C548.834 490.728 552.329 488.407 557.266 485.48C560.01 483.854 563.177 482.053 566.727 480.034C575.855 474.843 587.517 468.211 601.039 459.397C614.104 450.88 624.501 443.263 632.657 437.288C636.218 434.679 639.353 432.383 642.096 430.461C646.649 427.271 650.061 425.159 652.589 424.265C653.846 423.821 654.778 423.718 655.47 423.853C656.115 423.978 656.646 424.326 657.104 425.028Z" stroke="black" stroke-width="2"/>
<path d="M683.348 411.842C683.762 412.476 683.931 413.348 683.742 414.537C683.553 415.734 683.009 417.181 682.089 418.859C680.25 422.213 677.012 426.302 672.587 430.861C663.75 439.967 650.337 450.79 634.441 461.152C618.546 471.514 603.23 479.418 591.332 483.829C585.375 486.038 580.327 487.35 576.516 487.68C574.609 487.844 573.066 487.758 571.895 487.448C570.731 487.141 570.001 486.634 569.587 485.999C569.174 485.365 569.004 484.493 569.193 483.304C569.383 482.107 569.926 480.66 570.846 478.982C572.685 475.628 575.924 471.539 580.348 466.98C589.186 457.874 602.599 447.05 618.494 436.689C634.389 426.327 649.705 418.423 661.604 414.012C667.561 411.803 672.609 410.491 676.42 410.161C678.326 409.997 679.869 410.083 681.041 410.393C682.205 410.7 682.934 411.207 683.348 411.842Z" stroke="black" stroke-width="2"/>
<path d="M570.32 486.658C571.212 488.027 571.183 490.183 569.862 493.209C568.56 496.189 566.108 499.753 562.656 503.673C555.762 511.5 545.034 520.571 532.1 529.003C519.166 537.434 506.537 543.589 496.592 546.738C491.613 548.314 487.363 549.119 484.111 549.107C480.809 549.095 478.825 548.252 477.933 546.883C477.041 545.515 477.07 543.358 478.391 540.333C479.693 537.352 482.144 533.789 485.596 529.869C492.49 522.041 503.219 512.97 516.153 504.539C529.087 496.108 541.716 489.952 551.66 486.804C556.639 485.227 560.889 484.423 564.142 484.434C567.443 484.446 569.428 485.29 570.32 486.658Z" stroke="black" stroke-width="2"/>
<path d="M640.274 435.841C640.656 436.426 640.791 437.3 640.477 438.592C640.163 439.883 639.426 441.469 638.246 443.325C635.889 447.033 631.897 451.62 626.544 456.787C615.851 467.11 599.875 479.605 581.153 491.81C562.43 504.015 544.55 513.589 530.79 519.207C523.902 522.019 518.094 523.82 513.751 524.48C511.576 524.811 509.828 524.846 508.519 524.612C507.211 524.378 506.465 523.901 506.084 523.316C505.702 522.731 505.567 521.856 505.881 520.565C506.195 519.273 506.932 517.688 508.112 515.831C510.469 512.124 514.461 507.537 519.813 502.369C530.507 492.047 546.483 479.551 565.205 467.347C583.928 455.142 601.808 445.568 615.568 439.949C622.456 437.137 628.264 435.336 632.607 434.676C634.782 434.346 636.53 434.311 637.839 434.545C639.147 434.779 639.893 435.255 640.274 435.841Z" stroke="black" stroke-width="2"/>
<path d="M551.141 503.831C551.385 504.205 551.487 504.878 551.085 506.061C550.69 507.224 549.868 508.685 548.601 510.422C546.073 513.888 541.923 518.253 536.439 523.23C525.483 533.173 509.342 545.433 490.613 557.642C471.884 569.851 454.152 579.672 440.633 585.683C433.867 588.692 428.198 590.728 424.007 591.642C421.906 592.1 420.238 592.263 419.014 592.155C417.77 592.045 417.195 591.68 416.951 591.306C416.707 590.932 416.604 590.258 417.006 589.075C417.402 587.912 418.224 586.451 419.491 584.714C422.018 581.248 426.168 576.883 431.652 571.906C442.609 561.963 458.75 549.703 477.479 537.494C496.208 525.285 513.939 515.464 527.458 509.453C534.225 506.444 539.894 504.408 544.085 503.494C546.186 503.036 547.854 502.874 549.077 502.981C550.322 503.091 550.897 503.456 551.141 503.831Z" stroke="black" stroke-width="2"/>
<path d="M807.558 431.014C806.852 432.645 805.284 433.932 802.825 434.778C800.366 435.625 797.119 435.991 793.276 435.838C785.597 435.533 775.757 433.164 765.603 428.771C760.48 426.554 756.476 424.795 753.395 423.277C750.3 421.752 748.213 420.507 746.876 419.335C745.569 418.188 745.051 417.176 744.959 416.093C744.861 414.94 745.227 413.543 746.07 411.595C747.568 408.133 751.615 405.993 756.983 405.421C762.286 404.857 768.596 405.869 774.158 408.399C778.033 410.78 782.301 412.97 786.448 415.028C787.412 415.507 788.369 415.979 789.313 416.444C792.461 417.994 795.466 419.474 798.128 420.927C801.603 422.824 804.38 424.615 806.076 426.368C806.919 427.239 807.443 428.049 807.681 428.803C807.911 429.53 807.889 430.249 807.558 431.014Z" stroke="black" stroke-width="2"/>
<path d="M849.061 474.093C848.62 474.845 848.073 475.301 847.418 475.553C846.742 475.813 845.871 475.886 844.753 475.722C842.489 475.39 839.497 474.135 835.723 472.111C831.972 470.1 827.556 467.39 822.462 464.235C821.992 463.943 821.515 463.648 821.033 463.349C816.309 460.421 811.043 457.156 805.256 453.768C792.549 446.327 782.429 439.342 776.041 433.325C772.841 430.311 770.638 427.594 769.492 425.236C768.354 422.893 768.32 421.05 769.179 419.583C769.976 418.222 771.939 417.394 775.375 417.433C778.739 417.472 783.161 418.347 788.309 419.939C798.578 423.114 811.5 429.068 824.169 436.482C835.112 444.489 842.38 452.265 846.372 458.9C850.407 465.604 850.949 470.867 849.061 474.093Z" stroke="black" stroke-width="2"/>
<path d="M879.661 489.151C879.043 490.205 877.909 490.99 876.224 491.43C874.532 491.871 872.36 491.942 869.827 491.611C864.765 490.95 858.466 488.713 852.164 485.023C845.861 481.332 840.829 476.933 837.776 472.842C836.248 470.795 835.246 468.866 834.803 467.175C834.362 465.49 834.492 464.117 835.109 463.062C835.726 462.008 836.86 461.223 838.546 460.783C840.237 460.342 842.41 460.272 844.943 460.602C850.005 461.263 856.303 463.5 862.606 467.19C868.909 470.881 873.941 475.28 876.994 479.371C878.522 481.418 879.524 483.347 879.967 485.038C880.408 486.723 880.278 488.097 879.661 489.151Z" stroke="black" stroke-width="2"/>
<path d="M895.115 499.636C894.806 500.164 894.123 500.594 892.756 500.724C891.399 500.853 889.571 500.66 887.318 500.152C882.825 499.139 876.92 496.938 870.302 494.015C857.082 488.176 841.211 479.543 828.498 472.099C815.736 464.626 808.753 459.864 805.469 456.103C803.854 454.253 803.222 452.741 803.16 451.346C803.097 449.931 803.61 448.459 804.659 446.668C806.735 443.123 809.675 440.162 815.065 439.742C820.578 439.313 828.82 441.523 841.499 448.947C854.154 456.358 868.677 467.466 879.484 477.642C884.891 482.733 889.332 487.558 892.144 491.543C893.553 493.54 894.519 495.28 895.007 496.705C895.504 498.158 895.439 499.082 895.115 499.636Z" stroke="black" stroke-width="2"/>
<path d="M792.063 432.291C791.031 434.054 788.296 434.983 784.103 434.533C780.012 434.093 774.938 432.361 769.884 429.402C764.83 426.442 760.837 422.864 758.452 419.512C756.007 416.076 755.479 413.236 756.512 411.473C757.545 409.709 760.279 408.78 764.473 409.231C768.563 409.67 773.638 411.402 778.691 414.362C783.745 417.321 787.738 420.899 790.124 424.251C792.569 427.688 793.096 430.527 792.063 432.291Z" stroke="black" stroke-width="2"/>
<path d="M933.783 529.014C933.573 529.031 933.233 529.005 932.734 528.892C931.682 528.653 930.21 528.097 928.377 527.259C924.728 525.589 919.865 522.898 914.507 519.759C909.157 516.625 903.343 513.062 897.801 509.658C897.486 509.464 897.171 509.271 896.857 509.078C891.667 505.889 886.751 502.869 882.744 500.523C874.303 495.58 867.624 490.79 863.345 486.798C861.199 484.795 859.704 483.036 858.88 481.597C858.027 480.106 858.05 479.252 858.316 478.798C859.2 477.287 861.384 475.664 865.515 475.632C869.664 475.6 875.725 477.188 884.116 482.102C892.482 487 905.481 498.075 916.149 508.443C921.475 513.618 926.187 518.587 929.423 522.483C931.045 524.436 932.272 526.09 933.021 527.351C933.397 527.985 933.627 528.477 933.735 528.83C933.758 528.905 933.773 528.966 933.783 529.014ZM933.934 528.989C933.937 528.987 933.939 528.986 933.939 528.986C933.94 528.987 933.938 528.987 933.934 528.989Z" stroke="black" stroke-width="2"/>
<path d="M842.187 467.546C842.079 467.73 841.916 467.866 841.48 467.88C840.985 467.896 840.256 467.739 839.259 467.342C837.28 466.555 834.634 464.987 831.435 462.906C829.442 461.609 827.246 460.12 824.897 458.527C819.787 455.063 813.949 451.105 807.875 447.548C799.013 442.359 791.144 437.744 785.802 433.888C783.123 431.954 781.152 430.261 780.011 428.83C778.827 427.346 778.803 426.509 779.1 426.003C779.433 425.434 780.338 424.961 782.353 425.05C784.295 425.135 786.911 425.738 790.072 426.823C796.376 428.987 804.596 432.983 813.411 438.145C822.17 443.274 830.012 449.818 835.335 455.6C838 458.495 840.002 461.166 841.178 463.344C841.767 464.435 842.126 465.361 842.273 466.102C842.422 466.854 842.332 467.298 842.187 467.546Z" stroke="black" stroke-width="2"/>
<path d="M832.213 378.155L832.213 378.157C832.216 378.2 832.225 378.323 831.928 378.553C831.602 378.806 831.031 379.077 830.154 379.337C828.413 379.854 825.81 380.233 822.501 380.542C818.784 380.889 814.307 381.139 809.338 381.417C805.449 381.634 801.259 381.869 796.895 382.179C792.485 382.493 788.328 382.855 784.517 383.187C779.736 383.603 775.499 383.971 771.987 384.139C768.836 384.29 766.38 384.272 764.717 384.001C763.879 383.865 763.335 383.678 763.017 383.482C762.735 383.307 762.712 383.184 762.706 383.106C762.699 383.003 762.733 382.776 763.073 382.405C763.413 382.034 763.979 381.611 764.806 381.159C766.454 380.257 768.931 379.349 772.09 378.501C778.392 376.808 787.209 375.404 797.037 374.704C806.866 374.004 815.792 374.144 822.27 374.927C825.518 375.319 828.098 375.867 829.858 376.526C830.741 376.856 831.361 377.195 831.75 377.514C832.14 377.833 832.205 378.052 832.213 378.155Z" stroke="black" stroke-width="2"/>
<path d="M813.098 387.846C812.036 387.359 810.855 386.829 809.602 386.303C804.358 384.099 797.469 381.786 791.683 382.709C786.241 383.578 781.281 384.021 777.669 384.042C775.855 384.052 774.426 383.955 773.459 383.769C773.053 383.69 772.77 383.604 772.589 383.525C772.651 383.429 772.764 383.287 772.971 383.099C773.453 382.661 774.274 382.137 775.502 381.583C777.946 380.478 781.808 379.336 787.233 378.47C789.753 378.068 792.879 378.529 796.226 379.546C799.556 380.557 803.016 382.09 806.166 383.74C808.796 385.118 811.194 386.568 813.098 387.846ZM772.399 383.421C772.4 383.421 772.403 383.424 772.408 383.429C772.402 383.424 772.399 383.421 772.399 383.421Z" stroke="black" stroke-width="2"/>
<path d="M805.063 374.831C805.07 374.926 805.057 375.045 804.834 375.236C804.577 375.456 804.117 375.697 803.389 375.924C801.943 376.377 799.798 376.673 797.149 376.883C794.518 377.093 791.47 377.213 788.249 377.338L788.167 377.341C784.979 377.466 781.631 377.597 778.399 377.827C771.989 378.283 766.21 377.896 762.033 376.943C759.939 376.465 758.304 375.857 757.203 375.181C756.073 374.489 755.7 373.854 755.666 373.38C755.633 372.911 755.907 372.245 756.925 371.42C757.92 370.615 759.452 369.807 761.461 369.063C765.466 367.58 771.139 366.43 777.555 365.973C783.855 365.524 790.783 366.976 796.176 369.023C798.87 370.045 801.14 371.201 802.732 372.309C803.53 372.864 804.129 373.388 804.525 373.853C804.935 374.334 805.051 374.661 805.063 374.831Z" stroke="black" stroke-width="2"/>
<path d="M786.729 372.416C786.793 372.523 786.808 372.613 786.765 372.76C786.71 372.949 786.554 373.229 786.21 373.603C785.52 374.352 784.325 375.216 782.735 376.191C781.163 377.156 779.289 378.18 777.295 379.269L777.24 379.299C775.271 380.374 773.195 381.508 771.231 382.685C767.386 384.989 763.611 386.442 760.633 386.972C759.14 387.238 757.901 387.263 756.974 387.085C756.044 386.907 755.547 386.552 755.313 386.161C755.081 385.774 755.006 385.183 755.293 384.298C755.579 383.414 756.195 382.353 757.146 381.18C759.043 378.841 762.13 376.234 765.981 373.926C769.708 371.692 774.616 370.701 778.834 370.637C780.936 370.605 782.82 370.805 784.255 371.171C784.973 371.355 785.552 371.573 785.982 371.807C786.422 372.046 786.639 372.266 786.729 372.416Z" stroke="black" stroke-width="2"/>
<path d="M762.918 369.57C763.466 369.88 763.916 370.466 764.194 371.412C764.473 372.364 764.554 373.615 764.399 375.106C764.088 378.084 762.853 381.822 760.727 385.582C758.602 389.343 756.036 392.329 753.644 394.131C752.447 395.033 751.333 395.608 750.374 395.86C749.42 396.11 748.686 396.027 748.137 395.717C747.589 395.407 747.139 394.821 746.861 393.875C746.582 392.923 746.501 391.672 746.656 390.181C746.967 387.203 748.203 383.464 750.328 379.704C752.454 375.944 755.02 372.958 757.411 371.156C758.608 370.254 759.722 369.678 760.682 369.427C761.635 369.176 762.369 369.26 762.918 369.57Z" stroke="black" stroke-width="2"/>
<path d="M765.313 383.297C766.728 385.284 769.338 385.634 771.494 385.626C772.619 385.622 773.739 385.518 774.699 385.421C774.8 385.411 774.898 385.401 774.994 385.392C775.476 385.343 775.898 385.3 776.258 385.273C776.168 385.36 776.069 385.453 775.961 385.552C774.254 387.113 770.573 389.878 763.846 394.669C752.79 402.543 741.812 412.355 732.447 420.726C730.395 422.56 728.42 424.325 726.539 425.985C721.283 430.624 716.787 434.419 713.347 436.672C711.616 437.806 710.239 438.489 709.22 438.731C708.718 438.85 708.368 438.846 708.133 438.787C707.923 438.735 707.766 438.631 707.629 438.439C706.813 437.293 706.647 435.194 707.59 432.085C708.514 429.036 710.433 425.268 713.352 421.05C719.185 412.624 728.911 402.549 742.256 393.045C745.889 390.457 748.893 388.292 751.394 386.49C753.53 384.95 755.3 383.675 756.782 382.626C758.383 381.493 759.618 380.646 760.584 380.037C761.564 379.421 762.21 379.086 762.646 378.936C762.884 378.854 763.002 378.847 763.047 378.849C763.075 378.878 763.165 378.985 763.317 379.323C763.391 379.487 763.471 379.689 763.564 379.921C763.899 380.764 764.393 382.005 765.313 383.297ZM763.07 378.853C763.07 378.853 763.066 378.853 763.058 378.85C763.067 378.851 763.071 378.853 763.07 378.853Z" stroke="black" stroke-width="2"/>
<path d="M761.036 389.652C761.656 390.524 761.847 391.788 761.449 393.493C761.052 395.195 760.09 397.215 758.594 399.426C755.605 403.842 750.609 408.839 744.299 413.333C737.99 417.827 731.633 420.915 726.483 422.295C723.904 422.987 721.681 423.236 719.942 423.054C718.201 422.873 717.069 422.279 716.448 421.408C715.828 420.537 715.637 419.272 716.034 417.568C716.432 415.865 717.394 413.846 718.89 411.635C721.879 407.219 726.875 402.221 733.185 397.727C739.494 393.233 745.851 390.146 751.001 388.765C753.58 388.074 755.803 387.825 757.542 388.006C759.283 388.187 760.415 388.781 761.036 389.652Z" stroke="black" stroke-width="2"/>
<path d="M759.746 370.431C760.114 370.948 760.449 371.806 760.645 373.035C760.838 374.251 760.884 375.769 760.726 377.551C760.411 381.113 759.283 385.661 756.965 390.823C752.333 401.14 742.964 413.867 725.938 425.993C708.801 438.198 692.964 448.305 680.94 454.666C674.92 457.852 669.901 460.074 666.173 461.161C664.304 461.707 662.824 461.947 661.735 461.913C660.635 461.878 660.13 461.574 659.901 461.252C659.275 460.374 659.238 459.145 660.556 457.09C661.873 455.035 664.371 452.463 668.148 449.23C675.682 442.78 687.994 433.96 705.166 421.73C722.418 409.443 735.492 395.228 744.716 384.816C745.584 383.836 746.416 382.892 747.213 381.988C750.671 378.065 753.47 374.89 755.673 372.792C757.041 371.489 758.08 370.702 758.831 370.379C759.196 370.222 759.399 370.217 759.491 370.233C759.548 370.242 759.63 370.268 759.746 370.431Z" stroke="black" stroke-width="2"/>
<path d="M722.17 430.947C723.567 432.908 723.847 434.858 723.251 436.932C722.636 439.071 721.068 441.4 718.624 443.972C713.733 449.118 705.692 454.877 696.15 461.672C686.616 468.462 677.61 474.846 670.212 478.446C666.508 480.248 663.309 481.299 660.711 481.405C658.174 481.509 656.267 480.719 654.927 478.838C652.142 474.926 652.884 468.676 657.012 461.417C661.095 454.236 668.317 446.417 677.735 439.709C687.154 433.001 696.905 428.732 705.025 427.221C713.236 425.693 719.385 427.036 722.17 430.947Z" stroke="black" stroke-width="2"/>
<path d="M742.762 412.085C743.647 413.328 743.832 415.174 743.116 417.658C742.403 420.129 740.84 423.064 738.506 426.28C733.844 432.702 726.243 440.056 716.798 446.783C707.352 453.51 697.918 458.289 690.325 460.595C686.523 461.749 683.237 462.267 680.669 462.133C678.087 461.997 676.404 461.219 675.519 459.976C674.633 458.733 674.448 456.888 675.165 454.404C675.877 451.933 677.44 448.997 679.774 445.782C684.436 439.359 692.037 432.006 701.482 425.279C710.928 418.552 720.362 413.773 727.956 411.467C731.758 410.312 735.043 409.795 737.611 409.929C740.193 410.064 741.876 410.842 742.762 412.085Z" stroke="black" stroke-width="2"/>
<path d="M705.324 437.325C707.061 439.764 706.747 443.665 704.233 448.287C701.755 452.842 697.284 457.787 691.383 461.99C685.482 466.193 679.347 468.801 674.232 469.654C669.043 470.518 665.253 469.54 663.516 467.101C661.778 464.662 662.093 460.76 664.607 456.139C667.085 451.583 671.555 446.639 677.457 442.436C683.358 438.233 689.492 435.625 694.608 434.772C699.797 433.907 703.587 434.885 705.324 437.325Z" stroke="black" stroke-width="2"/>
<path d="M1003.05 437.273H1020.38V487.557C1020.36 492.268 1019.23 496.387 1017.01 499.915C1014.78 503.419 1011.7 506.141 1007.77 508.082C1003.87 510.024 999.345 510.994 994.207 510.994C989.662 510.994 985.531 510.201 981.814 508.615C978.121 507.029 975.173 504.567 972.972 501.229C970.794 497.891 969.716 493.617 969.74 488.409H987.247C987.318 490.279 987.673 491.877 988.312 493.203C988.975 494.505 989.887 495.488 991.047 496.151C992.207 496.813 993.592 497.145 995.202 497.145C996.883 497.145 998.303 496.79 999.463 496.08C1000.62 495.346 1001.5 494.268 1002.09 492.848C1002.71 491.428 1003.03 489.664 1003.05 487.557V437.273ZM1031.41 510V455.455H1048.78V510H1031.41ZM1040.11 449.098C1037.68 449.098 1035.58 448.293 1033.83 446.683C1032.08 445.05 1031.2 443.085 1031.2 440.788C1031.2 438.516 1032.08 436.574 1033.83 434.964C1035.58 433.331 1037.68 432.514 1040.11 432.514C1042.58 432.514 1044.67 433.331 1046.4 434.964C1048.15 436.574 1049.03 438.516 1049.03 440.788C1049.03 443.085 1048.15 445.05 1046.4 446.683C1044.67 448.293 1042.58 449.098 1040.11 449.098ZM1077.2 478.892V510H1059.83V437.273H1076.63V465.469H1077.23C1078.46 462.107 1080.48 459.479 1083.27 457.585C1086.09 455.691 1089.53 454.744 1093.6 454.744C1097.44 454.744 1100.78 455.597 1103.62 457.301C1106.46 458.982 1108.66 461.361 1110.22 464.439C1111.81 467.517 1112.59 471.115 1112.57 475.234V510H1095.2V478.643C1095.23 475.613 1094.47 473.246 1092.93 471.541C1091.39 469.837 1089.22 468.984 1086.43 468.984C1084.61 468.984 1083 469.387 1081.6 470.192C1080.23 470.973 1079.15 472.098 1078.37 473.565C1077.61 475.033 1077.22 476.809 1077.2 478.892ZM1148.87 511.03C1143.14 511.03 1138.21 509.858 1134.1 507.514C1130 505.147 1126.84 501.856 1124.61 497.642C1122.41 493.404 1121.31 488.492 1121.31 482.905C1121.31 477.294 1122.41 472.382 1124.61 468.168C1126.84 463.93 1130 460.639 1134.1 458.295C1138.21 455.928 1143.14 454.744 1148.87 454.744C1154.6 454.744 1159.51 455.928 1163.61 458.295C1167.72 460.639 1170.89 463.93 1173.09 468.168C1175.31 472.382 1176.43 477.294 1176.43 482.905C1176.43 488.492 1175.31 493.404 1173.09 497.642C1170.89 501.856 1167.72 505.147 1163.61 507.514C1159.51 509.858 1154.6 511.03 1148.87 511.03ZM1148.97 497.926C1151.06 497.926 1152.82 497.287 1154.27 496.009C1155.71 494.73 1156.81 492.955 1157.57 490.682C1158.35 488.409 1158.74 485.781 1158.74 482.798C1158.74 479.768 1158.35 477.116 1157.57 474.844C1156.81 472.571 1155.71 470.795 1154.27 469.517C1152.82 468.239 1151.06 467.599 1148.97 467.599C1146.82 467.599 1145 468.239 1143.51 469.517C1142.04 470.795 1140.91 472.571 1140.13 474.844C1139.37 477.116 1139 479.768 1139 482.798C1139 485.781 1139.37 488.409 1140.13 490.682C1140.91 492.955 1142.04 494.73 1143.51 496.009C1145 497.287 1146.82 497.926 1148.97 497.926ZM1210.78 511.03C1205.05 511.03 1200.13 509.858 1196.01 507.514C1191.91 505.147 1188.75 501.856 1186.53 497.642C1184.33 493.404 1183.23 488.492 1183.23 482.905C1183.23 477.294 1184.33 472.382 1186.53 468.168C1188.75 463.93 1191.91 460.639 1196.01 458.295C1200.13 455.928 1205.05 454.744 1210.78 454.744C1216.51 454.744 1221.42 455.928 1225.52 458.295C1229.64 460.639 1232.8 463.93 1235 468.168C1237.23 472.382 1238.34 477.294 1238.34 482.905C1238.34 488.492 1237.23 493.404 1235 497.642C1232.8 501.856 1229.64 505.147 1225.52 507.514C1221.42 509.858 1216.51 511.03 1210.78 511.03ZM1210.89 497.926C1212.97 497.926 1214.74 497.287 1216.18 496.009C1217.62 494.73 1218.73 492.955 1219.48 490.682C1220.26 488.409 1220.65 485.781 1220.65 482.798C1220.65 479.768 1220.26 477.116 1219.48 474.844C1218.73 472.571 1217.62 470.795 1216.18 469.517C1214.74 468.239 1212.97 467.599 1210.89 467.599C1208.73 467.599 1206.91 468.239 1205.42 469.517C1203.95 470.795 1202.83 472.571 1202.05 474.844C1201.29 477.116 1200.91 479.768 1200.91 482.798C1200.91 485.781 1201.29 488.409 1202.05 490.682C1202.83 492.955 1203.95 494.73 1205.42 496.009C1206.91 497.287 1208.73 497.926 1210.89 497.926ZM1264.6 478.892V510H1247.23V455.455H1263.75V465.469H1264.35C1265.56 462.131 1267.62 459.515 1270.53 457.621C1273.44 455.703 1276.91 454.744 1280.94 454.744C1284.77 454.744 1288.1 455.608 1290.91 457.337C1293.75 459.041 1295.96 461.432 1297.52 464.51C1299.1 467.564 1299.89 471.139 1299.86 475.234V510H1282.5V478.643C1282.52 475.613 1281.75 473.246 1280.19 471.541C1278.65 469.837 1276.51 468.984 1273.76 468.984C1271.94 468.984 1270.33 469.387 1268.93 470.192C1267.56 470.973 1266.49 472.098 1265.74 473.565C1265 475.033 1264.62 476.809 1264.6 478.892ZM1325.99 510.923C1322.51 510.923 1319.42 510.343 1316.72 509.183C1314.05 508 1311.93 506.224 1310.37 503.857C1308.83 501.465 1308.06 498.471 1308.06 494.872C1308.06 491.842 1308.59 489.285 1309.65 487.202C1310.72 485.118 1312.19 483.426 1314.06 482.124C1315.93 480.821 1318.08 479.839 1320.52 479.176C1322.96 478.49 1325.56 478.028 1328.33 477.791C1331.44 477.507 1333.93 477.211 1335.83 476.903C1337.72 476.572 1339.09 476.11 1339.95 475.518C1340.82 474.903 1341.26 474.039 1341.26 472.926V472.749C1341.26 470.926 1340.63 469.517 1339.38 468.523C1338.12 467.528 1336.43 467.031 1334.3 467.031C1332 467.031 1330.16 467.528 1328.76 468.523C1327.36 469.517 1326.48 470.89 1326.1 472.642L1310.08 472.074C1310.55 468.759 1311.77 465.8 1313.74 463.196C1315.73 460.568 1318.45 458.509 1321.91 457.017C1325.39 455.502 1329.56 454.744 1334.44 454.744C1337.92 454.744 1341.13 455.159 1344.07 455.987C1347 456.792 1349.56 457.976 1351.74 459.538C1353.91 461.077 1355.59 462.971 1356.78 465.22C1357.99 467.469 1358.59 470.038 1358.59 472.926V510H1342.25V502.401H1341.83C1340.86 504.247 1339.61 505.81 1338.1 507.088C1336.61 508.366 1334.84 509.325 1332.81 509.964C1330.8 510.604 1328.52 510.923 1325.99 510.923ZM1331.35 499.56C1333.22 499.56 1334.9 499.181 1336.39 498.423C1337.91 497.666 1339.12 496.624 1340.02 495.298C1340.92 493.949 1341.37 492.386 1341.37 490.611V485.426C1340.87 485.687 1340.27 485.923 1339.56 486.136C1338.87 486.349 1338.11 486.551 1337.28 486.74C1336.45 486.929 1335.6 487.095 1334.73 487.237C1333.85 487.379 1333.01 487.509 1332.2 487.628C1330.57 487.888 1329.17 488.291 1328.01 488.835C1326.88 489.38 1326 490.09 1325.39 490.966C1324.79 491.818 1324.5 492.836 1324.5 494.02C1324.5 495.819 1325.14 497.192 1326.42 498.139C1327.72 499.086 1329.36 499.56 1331.35 499.56ZM1386.57 478.892V510H1369.21V437.273H1386V465.469H1386.61C1387.84 462.107 1389.85 459.479 1392.64 457.585C1395.46 455.691 1398.91 454.744 1402.98 454.744C1406.81 454.744 1410.15 455.597 1412.99 457.301C1415.83 458.982 1418.04 461.361 1419.6 464.439C1421.18 467.517 1421.97 471.115 1421.94 475.234V510H1404.58V478.643C1404.6 475.613 1403.84 473.246 1402.3 471.541C1400.77 469.837 1398.6 468.984 1395.81 468.984C1393.98 468.984 1392.37 469.387 1390.98 470.192C1389.6 470.973 1388.53 472.098 1387.74 473.565C1386.99 475.033 1386.6 476.809 1386.57 478.892ZM1450.15 478.892V510H1432.78V455.455H1449.29V465.469H1449.9C1451.11 462.131 1453.17 459.515 1456.08 457.621C1458.99 455.703 1462.46 454.744 1466.48 454.744C1470.32 454.744 1473.64 455.608 1476.46 457.337C1479.3 459.041 1481.5 461.432 1483.07 464.51C1484.65 467.564 1485.43 471.139 1485.41 475.234V510H1468.04V478.643C1468.07 475.613 1467.3 473.246 1465.74 471.541C1464.2 469.837 1462.05 468.984 1459.31 468.984C1457.49 468.984 1455.88 469.387 1454.48 470.192C1453.11 470.973 1452.04 472.098 1451.28 473.565C1450.55 475.033 1450.17 476.809 1450.15 478.892ZM1521.8 510V437.273H1546.34C1551.07 437.273 1555.01 438.101 1558.16 439.759C1561.34 441.416 1563.71 443.677 1565.3 446.541C1566.89 449.406 1567.68 452.661 1567.68 456.307C1567.68 459.337 1567.17 461.929 1566.15 464.084C1565.14 466.238 1563.75 467.978 1562 469.304C1560.25 470.63 1558.29 471.589 1556.14 472.18V472.749C1558.48 472.914 1560.76 473.743 1562.96 475.234C1565.16 476.702 1566.97 478.762 1568.39 481.413C1569.81 484.065 1570.52 487.237 1570.52 490.93C1570.52 494.6 1569.7 497.879 1568.07 500.767C1566.44 503.632 1563.93 505.893 1560.54 507.55C1557.18 509.183 1552.9 510 1547.69 510H1521.8ZM1528.44 504.034H1547.69C1553.3 504.034 1557.44 502.791 1560.12 500.305C1562.82 497.82 1564.16 494.695 1564.16 490.93C1564.16 488.161 1563.49 485.651 1562.14 483.402C1560.81 481.129 1558.93 479.33 1556.49 478.004C1554.08 476.679 1551.24 476.016 1547.97 476.016H1528.44V504.034ZM1528.44 470.121H1546.94C1549.81 470.121 1552.32 469.529 1554.47 468.345C1556.62 467.161 1558.31 465.528 1559.51 463.445C1560.72 461.361 1561.32 458.982 1561.32 456.307C1561.32 452.448 1560.07 449.311 1557.56 446.896C1555.05 444.458 1551.31 443.239 1546.34 443.239H1528.44V470.121ZM1591.55 437.273V510H1585.23V437.273H1591.55ZM1629.48 511.136C1624.77 511.136 1620.6 509.941 1616.98 507.55C1613.38 505.159 1610.56 501.856 1608.53 497.642C1606.49 493.404 1605.47 488.516 1605.47 482.976C1605.47 477.389 1606.49 472.476 1608.53 468.239C1610.56 463.977 1613.38 460.663 1616.98 458.295C1620.6 455.904 1624.77 454.709 1629.48 454.709C1634.19 454.709 1638.35 455.904 1641.94 458.295C1645.54 460.687 1648.36 464.001 1650.4 468.239C1652.45 472.476 1653.48 477.389 1653.48 482.976C1653.48 488.516 1652.47 493.404 1650.43 497.642C1648.39 501.856 1645.57 505.159 1641.94 507.55C1638.35 509.941 1634.19 511.136 1629.48 511.136ZM1629.48 505.348C1633.27 505.348 1636.47 504.33 1639.1 502.294C1641.73 500.258 1643.72 497.547 1645.07 494.162C1646.44 490.777 1647.13 487.048 1647.13 482.976C1647.13 478.904 1646.44 475.163 1645.07 471.754C1643.72 468.345 1641.73 465.611 1639.1 463.551C1636.47 461.491 1633.27 460.462 1629.48 460.462C1625.71 460.462 1622.51 461.491 1619.86 463.551C1617.23 465.611 1615.23 468.345 1613.85 471.754C1612.5 475.163 1611.83 478.904 1611.83 482.976C1611.83 487.048 1612.5 490.777 1613.85 494.162C1615.23 497.547 1617.23 500.258 1619.86 502.294C1622.48 504.33 1625.69 505.348 1629.48 505.348ZM1688.17 531.591C1684.45 531.591 1681.2 531.106 1678.4 530.135C1675.61 529.188 1673.26 527.886 1671.34 526.229C1669.42 524.571 1667.93 522.713 1666.86 520.653L1672.05 517.244C1672.83 518.617 1673.87 519.967 1675.17 521.293C1676.5 522.618 1678.22 523.719 1680.32 524.595C1682.45 525.471 1685.07 525.909 1688.17 525.909C1693 525.909 1696.89 524.702 1699.85 522.287C1702.84 519.872 1704.33 516.12 1704.33 511.03V498.743H1703.76C1703.03 500.4 1701.97 502.057 1700.6 503.714C1699.23 505.348 1697.43 506.709 1695.2 507.798C1693 508.887 1690.27 509.432 1687 509.432C1682.64 509.432 1678.77 508.355 1675.39 506.2C1672.02 504.046 1669.37 500.968 1667.43 496.967C1665.51 492.943 1664.56 488.149 1664.56 482.585C1664.56 477.069 1665.49 472.216 1667.36 468.026C1669.25 463.835 1671.89 460.568 1675.28 458.224C1678.67 455.881 1682.61 454.709 1687.11 454.709C1690.44 454.709 1693.21 455.301 1695.41 456.484C1697.62 457.644 1699.38 459.089 1700.71 460.817C1702.06 462.545 1703.11 464.226 1703.87 465.859H1704.51V455.455H1710.68V511.42C1710.68 516.037 1709.7 519.837 1707.74 522.82C1705.77 525.803 1703.1 528.004 1699.71 529.425C1696.33 530.869 1692.48 531.591 1688.17 531.591ZM1687.74 503.643C1691.25 503.643 1694.24 502.803 1696.73 501.122C1699.21 499.418 1701.12 496.979 1702.45 493.807C1703.77 490.634 1704.43 486.858 1704.43 482.479C1704.43 478.217 1703.78 474.441 1702.48 471.151C1701.18 467.836 1699.29 465.232 1696.8 463.338C1694.34 461.42 1691.32 460.462 1687.74 460.462C1684.1 460.462 1681.02 461.444 1678.51 463.409C1676 465.374 1674.11 468.026 1672.83 471.364C1671.55 474.678 1670.91 478.383 1670.91 482.479C1670.91 486.645 1671.56 490.327 1672.87 493.523C1674.17 496.695 1676.07 499.181 1678.58 500.98C1681.09 502.756 1684.15 503.643 1687.74 503.643Z" fill="black"/>
</svg>
