<svg width="1950" height="1000" viewBox="0 0 1950 1000" fill="none" xmlns="http://www.w3.org/2000/svg">
<rect width="1950" height="1000" fill="#F5F5F6"/>
<path d="M824.764 455.288H832.751V518.575C832.723 524.288 831.698 529.059 829.676 532.887C827.654 536.686 824.863 539.528 821.304 541.414C817.744 543.299 813.658 544.241 809.045 544.241C804.517 544.241 800.474 543.399 796.914 541.713C793.355 540.028 790.55 537.657 788.5 534.601C786.478 531.544 785.467 527.959 785.467 523.846H793.327C793.327 526.445 794.01 528.745 795.377 530.744C796.744 532.715 798.609 534.258 800.972 535.372C803.364 536.486 806.055 537.043 809.045 537.043C812.149 537.043 814.868 536.386 817.203 535.072C819.567 533.758 821.418 531.744 822.756 529.03C824.095 526.288 824.764 522.803 824.764 518.575V455.288ZM848.478 543.042V477.226H856.124V543.042H848.478ZM852.365 465.914C850.799 465.914 849.461 465.386 848.35 464.329C847.24 463.244 846.684 461.944 846.684 460.43C846.684 458.916 847.24 457.631 848.35 456.574C849.461 455.488 850.799 454.945 852.365 454.945C853.931 454.945 855.27 455.488 856.38 456.574C857.491 457.631 858.046 458.916 858.046 460.43C858.046 461.944 857.491 463.244 856.38 464.329C855.27 465.386 853.931 465.914 852.365 465.914ZM877.82 501.907V543.042H870.217V455.288H877.82V487.553H878.504C880.041 484.154 882.419 481.44 885.637 479.412C888.883 477.384 892.984 476.37 897.938 476.37C902.38 476.37 906.282 477.284 909.641 479.112C913.002 480.94 915.622 483.64 917.501 487.21C919.381 490.781 920.32 495.18 920.32 500.408V543.042H912.675V500.879C912.675 495.451 911.165 491.181 908.146 488.067C905.157 484.925 901.113 483.354 896.016 483.354C892.514 483.354 889.396 484.097 886.662 485.582C883.928 487.067 881.764 489.21 880.169 492.009C878.603 494.78 877.82 498.079 877.82 501.907ZM959.827 544.413C954.161 544.413 949.15 542.97 944.792 540.085C940.465 537.2 937.076 533.215 934.627 528.13C932.178 523.017 930.954 517.118 930.954 510.434C930.954 503.693 932.178 497.765 934.627 492.652C937.076 487.51 940.465 483.511 944.792 480.654C949.15 477.769 954.161 476.327 959.827 476.327C965.495 476.327 970.492 477.769 974.82 480.654C979.148 483.54 982.538 487.539 984.987 492.652C987.463 497.765 988.702 503.693 988.702 510.434C988.702 517.118 987.478 523.017 985.029 528.13C982.58 533.215 979.177 537.2 974.82 540.085C970.492 542.97 965.495 544.413 959.827 544.413ZM959.827 537.429C964.384 537.429 968.242 536.2 971.403 533.744C974.564 531.287 976.955 528.016 978.579 523.931C980.231 519.846 981.057 515.347 981.057 510.434C981.057 505.521 980.231 501.007 978.579 496.894C976.955 492.781 974.564 489.481 971.403 486.996C968.242 484.511 964.384 483.268 959.827 483.268C955.3 483.268 951.441 484.511 948.253 486.996C945.092 489.481 942.685 492.781 941.034 496.894C939.411 501.007 938.599 505.521 938.599 510.434C938.599 515.347 939.411 519.846 941.034 523.931C942.685 528.016 945.092 531.287 948.253 533.744C951.414 536.2 955.272 537.429 959.827 537.429ZM1024.88 544.413C1019.21 544.413 1014.2 542.97 1009.84 540.085C1005.52 537.2 1002.13 533.215 999.678 528.13C997.229 523.017 996.004 517.118 996.004 510.434C996.004 503.693 997.229 497.765 999.678 492.652C1002.13 487.51 1005.52 483.511 1009.84 480.654C1014.2 477.769 1019.21 476.327 1024.88 476.327C1030.55 476.327 1035.54 477.769 1039.87 480.654C1044.2 483.54 1047.59 487.539 1050.04 492.652C1052.51 497.765 1053.75 503.693 1053.75 510.434C1053.75 517.118 1052.53 523.017 1050.08 528.13C1047.63 533.215 1044.23 537.2 1039.87 540.085C1035.54 542.97 1030.55 544.413 1024.88 544.413ZM1024.88 537.429C1029.43 537.429 1033.29 536.2 1036.45 533.744C1039.61 531.287 1042.01 528.016 1043.63 523.931C1045.28 519.846 1046.11 515.347 1046.11 510.434C1046.11 505.521 1045.28 501.007 1043.63 496.894C1042.01 492.781 1039.61 489.481 1036.45 486.996C1033.29 484.511 1029.43 483.268 1024.88 483.268C1020.35 483.268 1016.49 484.511 1013.3 486.996C1010.14 489.481 1007.74 492.781 1006.08 496.894C1004.46 501.007 1003.65 505.521 1003.65 510.434C1003.65 515.347 1004.46 519.846 1006.08 523.931C1007.74 528.016 1010.14 531.287 1013.3 533.744C1016.46 536.2 1020.32 537.429 1024.88 537.429ZM1072.03 501.907V543.042H1064.43V477.226H1071.82V487.553H1072.5C1074.04 484.182 1076.43 481.483 1079.68 479.455C1082.95 477.398 1087 476.37 1091.81 476.37C1096.22 476.37 1100.09 477.298 1103.43 479.155C1106.79 480.983 1109.39 483.682 1111.24 487.253C1113.12 490.824 1114.06 495.209 1114.06 500.408V543.042H1106.46V500.879C1106.46 495.48 1104.95 491.209 1101.93 488.067C1098.94 484.925 1094.93 483.354 1089.89 483.354C1086.44 483.354 1083.38 484.097 1080.7 485.582C1078.03 487.067 1075.9 489.21 1074.34 492.009C1072.8 494.78 1072.03 498.079 1072.03 501.907ZM1159.36 543.042V477.226H1176.7V488.838H1177.47C1178.84 484.982 1181.11 481.94 1184.3 479.712C1187.49 477.484 1191.31 476.37 1195.75 476.37C1200.25 476.37 1204.08 477.498 1207.24 479.755C1210.4 481.983 1212.51 485.011 1213.56 488.838H1214.24C1215.58 485.068 1218 482.054 1221.51 479.797C1225.04 477.512 1229.21 476.37 1234.02 476.37C1240.14 476.37 1245.11 478.326 1248.93 482.24C1252.77 486.125 1254.69 491.638 1254.69 498.779V543.042H1236.54V502.379C1236.54 498.722 1235.57 495.98 1233.64 494.152C1231.7 492.323 1229.28 491.409 1226.38 491.409C1223.07 491.409 1220.49 492.466 1218.64 494.58C1216.79 496.665 1215.87 499.422 1215.87 502.85V543.042H1198.23V501.993C1198.23 498.765 1197.3 496.194 1195.45 494.28C1193.63 492.366 1191.22 491.409 1188.23 491.409C1186.21 491.409 1184.39 491.923 1182.76 492.952C1181.17 493.952 1179.9 495.366 1178.96 497.194C1178.02 498.994 1177.55 501.107 1177.55 503.535V543.042H1159.36ZM1298.97 544.327C1292.22 544.327 1286.41 542.956 1281.54 540.214C1276.7 537.443 1272.97 533.529 1270.35 528.473C1267.73 523.389 1266.42 517.376 1266.42 510.434C1266.42 503.664 1267.73 497.722 1270.35 492.609C1272.97 487.496 1276.66 483.511 1281.41 480.654C1286.19 477.798 1291.8 476.37 1298.24 476.37C1302.57 476.37 1306.6 477.069 1310.33 478.469C1314.09 479.84 1317.36 481.911 1320.15 484.682C1322.97 487.453 1325.16 490.938 1326.73 495.137C1328.3 499.308 1329.08 504.192 1329.08 509.791V514.805H1273.68V503.493H1311.95C1311.95 500.865 1311.38 498.536 1310.24 496.508C1309.1 494.48 1307.52 492.895 1305.5 491.752C1303.51 490.581 1301.19 489.995 1298.54 489.995C1295.78 489.995 1293.33 490.638 1291.19 491.923C1289.09 493.18 1287.43 494.88 1286.24 497.023C1285.04 499.136 1284.43 501.493 1284.4 504.093V514.847C1284.4 518.104 1285 520.918 1286.19 523.289C1287.42 525.66 1289.14 527.488 1291.36 528.773C1293.58 530.059 1296.22 530.701 1299.27 530.701C1301.29 530.701 1303.14 530.416 1304.82 529.844C1306.5 529.273 1307.94 528.416 1309.13 527.273C1310.33 526.131 1311.24 524.731 1311.87 523.074L1328.69 524.188C1327.84 528.245 1326.09 531.787 1323.44 534.815C1320.82 537.814 1317.43 540.157 1313.28 541.842C1309.15 543.499 1304.38 544.327 1298.97 544.327Z" fill="black"/>
<path d="M1135.03 543.855C1132.7 543.855 1130.69 543.027 1129.01 541.37C1127.33 539.685 1126.49 537.657 1126.49 535.286C1126.49 532.943 1127.33 530.944 1129.01 529.287C1130.69 527.601 1132.7 526.759 1135.03 526.759C1137.37 526.759 1139.37 527.601 1141.06 529.287C1142.74 530.944 1143.58 532.943 1143.58 535.286C1143.58 536.857 1143.18 538.299 1142.38 539.613C1141.61 540.899 1140.58 541.927 1139.3 542.698C1138.02 543.47 1136.6 543.855 1135.03 543.855Z" fill="#8E9AFF"/>
<circle cx="656.5" cy="500.5" r="79.5" stroke="black" stroke-width="10"/>
<mask id="mask0_578_29" style="mask-type:alpha" maskUnits="userSpaceOnUse" x="582" y="426" width="149" height="149">
<circle cx="656.5" cy="500.5" r="69.5" fill="#D9D9D9" stroke="black" stroke-width="10"/>
</mask>
<g mask="url(#mask0_578_29)">
<rect x="529" y="552.501" width="274.318" height="25.0806" fill="#708FFF"/>
<rect x="529" y="527.421" width="274.318" height="25.0806" fill="#5364FF"/>
<rect x="529" y="503" width="274.318" height="24.4206" fill="#74C5FF"/>
</g>
</svg>
