<svg width="256" height="256" viewBox="0 0 256 256" fill="none" xmlns="http://www.w3.org/2000/svg">
<path d="M127.5 208C171.407 208 207 172.407 207 128.5C207 84.5934 171.407 49 127.5 49C83.5934 49 48 84.5934 48 128.5C48 172.407 83.5934 208 127.5 208Z" fill="white"/>
<path d="M127.5 208C171.407 208 207 172.407 207 128.5C207 84.5934 171.407 49 127.5 49C83.5934 49 48 84.5934 48 128.5C48 172.407 83.5934 208 127.5 208Z" stroke="black" stroke-width="10"/>
<mask id="mask0_803_13" style="mask-type:alpha" maskUnits="userSpaceOnUse" x="53" y="54" width="149" height="149">
<path d="M127.5 198C165.884 198 197 166.884 197 128.5C197 90.1162 165.884 59 127.5 59C89.1162 59 58 90.1162 58 128.5C58 166.884 89.1162 198 127.5 198Z" fill="#D9D9D9" stroke="black" stroke-width="10"/>
</mask>
<g mask="url(#mask0_803_13)">
<path d="M274.318 180.501H0V205.582H274.318V180.501Z" fill="#708FFF"/>
<path d="M274.318 155.421H0V180.502H274.318V155.421Z" fill="#5364FF"/>
<path d="M274.318 131H0V155.421H274.318V131Z" fill="#74C5FF"/>
</g>
</svg>
