<svg width="2649" height="857" viewBox="0 0 2649 857" fill="none" xmlns="http://www.w3.org/2000/svg">
<rect width="2649" height="857" fill="#F5F5F5"/>
<path d="M877.869 402.182C877.23 396.784 874.638 392.594 870.092 389.611C865.547 386.628 859.972 385.136 853.366 385.136C848.537 385.136 844.311 385.918 840.689 387.48C837.102 389.043 834.297 391.191 832.273 393.925C830.284 396.66 829.29 399.767 829.29 403.247C829.29 406.159 829.982 408.663 831.367 410.758C832.788 412.817 834.599 414.54 836.8 415.925C839.002 417.274 841.31 418.393 843.725 419.281C846.14 420.133 848.359 420.825 850.384 421.358L861.463 424.341C864.304 425.087 867.464 426.116 870.945 427.43C874.46 428.744 877.816 430.538 881.012 432.81C884.244 435.048 886.907 437.924 889.002 441.44C891.097 444.955 892.145 449.27 892.145 454.384C892.145 460.278 890.6 465.605 887.511 470.364C884.457 475.122 879.982 478.904 874.087 481.71C868.228 484.515 861.108 485.918 852.727 485.918C844.915 485.918 838.15 484.657 832.433 482.136C826.751 479.614 822.276 476.099 819.009 471.589C815.778 467.079 813.949 461.841 813.523 455.875H827.159C827.514 459.994 828.899 463.403 831.314 466.102C833.764 468.766 836.854 470.754 840.582 472.068C844.347 473.347 848.395 473.986 852.727 473.986C857.77 473.986 862.298 473.169 866.31 471.536C870.323 469.866 873.501 467.558 875.845 464.611C878.189 461.628 879.361 458.148 879.361 454.17C879.361 450.548 878.349 447.601 876.325 445.328C874.3 443.055 871.637 441.209 868.335 439.788C865.032 438.368 861.463 437.125 857.628 436.06L844.205 432.224C835.682 429.774 828.935 426.276 823.963 421.731C818.991 417.185 816.506 411.237 816.506 403.886C816.506 397.778 818.157 392.452 821.46 387.906C824.798 383.325 829.272 379.774 834.883 377.253C840.529 374.696 846.832 373.418 853.793 373.418C860.824 373.418 867.074 374.678 872.543 377.2C878.011 379.685 882.344 383.094 885.54 387.427C888.771 391.759 890.476 396.678 890.653 402.182H877.869ZM930.697 484L905.768 402.182H918.978L936.663 464.824H937.515L954.987 402.182H968.41L985.669 464.611H986.521L1004.21 402.182H1017.42L992.487 484H980.129L962.231 421.145H960.953L943.055 484H930.697ZM1034.03 484V402.182H1046.61V484H1034.03ZM1040.43 388.545C1037.98 388.545 1035.86 387.711 1034.09 386.042C1032.35 384.373 1031.48 382.366 1031.48 380.023C1031.48 377.679 1032.35 375.673 1034.09 374.004C1035.86 372.335 1037.98 371.5 1040.43 371.5C1042.88 371.5 1044.97 372.335 1046.71 374.004C1048.49 375.673 1049.38 377.679 1049.38 380.023C1049.38 382.366 1048.49 384.373 1046.71 386.042C1044.97 387.711 1042.88 388.545 1040.43 388.545ZM1106.07 402.182V412.835H1061.96V402.182H1106.07ZM1075.17 484V390.889C1075.17 386.202 1076.27 382.295 1078.47 379.17C1080.67 376.045 1083.53 373.702 1087.05 372.139C1090.56 370.577 1094.28 369.795 1098.18 369.795C1101.27 369.795 1103.79 370.044 1105.75 370.541C1107.7 371.038 1109.15 371.5 1110.11 371.926L1106.49 382.793C1105.85 382.58 1104.96 382.313 1103.83 381.994C1102.73 381.674 1101.27 381.514 1099.46 381.514C1095.31 381.514 1092.3 382.562 1090.46 384.657C1088.65 386.752 1087.74 389.824 1087.74 393.872V484H1075.17ZM1159.27 402.182V412.835H1116.87V402.182H1159.27ZM1129.22 382.58H1141.79V460.562C1141.79 464.114 1142.31 466.777 1143.34 468.553C1144.4 470.293 1145.75 471.464 1147.39 472.068C1149.06 472.636 1150.81 472.92 1152.66 472.92C1154.05 472.92 1155.18 472.849 1156.07 472.707C1156.96 472.53 1157.67 472.388 1158.2 472.281L1160.76 483.574C1159.91 483.893 1158.72 484.213 1157.19 484.533C1155.66 484.888 1153.73 485.065 1151.38 485.065C1147.83 485.065 1144.35 484.302 1140.94 482.775C1137.57 481.248 1134.76 478.922 1132.53 475.797C1130.32 472.672 1129.22 468.73 1129.22 463.972V382.58ZM1309.85 409H1296.64C1295.86 405.2 1294.49 401.862 1292.54 398.986C1290.62 396.109 1288.28 393.695 1285.51 391.741C1282.77 389.753 1279.74 388.261 1276.4 387.267C1273.06 386.273 1269.58 385.776 1265.96 385.776C1259.35 385.776 1253.37 387.445 1248.01 390.783C1242.68 394.121 1238.44 399.039 1235.28 405.538C1232.15 412.036 1230.59 420.009 1230.59 429.455C1230.59 438.901 1232.15 446.873 1235.28 453.371C1238.44 459.87 1242.68 464.788 1248.01 468.126C1253.37 471.464 1259.35 473.134 1265.96 473.134C1269.58 473.134 1273.06 472.636 1276.4 471.642C1279.74 470.648 1282.77 469.174 1285.51 467.221C1288.28 465.232 1290.62 462.8 1292.54 459.923C1294.49 457.011 1295.86 453.673 1296.64 449.909H1309.85C1308.86 455.484 1307.05 460.474 1304.42 464.877C1301.79 469.281 1298.52 473.027 1294.62 476.116C1290.71 479.17 1286.33 481.496 1281.46 483.094C1276.63 484.692 1271.46 485.491 1265.96 485.491C1256.66 485.491 1248.38 483.219 1241.14 478.673C1233.89 474.128 1228.19 467.665 1224.04 459.284C1219.88 450.903 1217.81 440.96 1217.81 429.455C1217.81 417.949 1219.88 408.006 1224.04 399.625C1228.19 391.244 1233.89 384.781 1241.14 380.236C1248.38 375.69 1256.66 373.418 1265.96 373.418C1271.46 373.418 1276.63 374.217 1281.46 375.815C1286.33 377.413 1290.71 379.756 1294.62 382.846C1298.52 385.9 1301.79 389.629 1304.42 394.032C1307.05 398.4 1308.86 403.389 1309.85 409ZM1362.73 485.705C1355.35 485.705 1348.87 483.947 1343.29 480.431C1337.75 476.915 1333.42 471.997 1330.29 465.676C1327.2 459.355 1325.66 451.969 1325.66 443.517C1325.66 434.994 1327.2 427.555 1330.29 421.198C1333.42 414.842 1337.75 409.906 1343.29 406.39C1348.87 402.874 1355.35 401.116 1362.73 401.116C1370.12 401.116 1376.58 402.874 1382.12 406.39C1387.7 409.906 1392.03 414.842 1395.12 421.198C1398.24 427.555 1399.81 434.994 1399.81 443.517C1399.81 451.969 1398.24 459.355 1395.12 465.676C1392.03 471.997 1387.7 476.915 1382.12 480.431C1376.58 483.947 1370.12 485.705 1362.73 485.705ZM1362.73 474.412C1368.34 474.412 1372.96 472.974 1376.58 470.097C1380.2 467.221 1382.89 463.439 1384.63 458.751C1386.37 454.064 1387.24 448.986 1387.24 443.517C1387.24 438.048 1386.37 432.952 1384.63 428.229C1382.89 423.506 1380.2 419.689 1376.58 416.777C1372.96 413.865 1368.34 412.409 1362.73 412.409C1357.12 412.409 1352.51 413.865 1348.88 416.777C1345.26 419.689 1342.58 423.506 1340.84 428.229C1339.1 432.952 1338.23 438.048 1338.23 443.517C1338.23 448.986 1339.1 454.064 1340.84 458.751C1342.58 463.439 1345.26 467.221 1348.88 470.097C1352.51 472.974 1357.12 474.412 1362.73 474.412ZM1419 484V402.182H1431.14V414.966H1432.21C1433.91 410.598 1436.66 407.207 1440.46 404.792C1444.26 402.342 1448.83 401.116 1454.15 401.116C1459.55 401.116 1464.04 402.342 1467.63 404.792C1471.25 407.207 1474.07 410.598 1476.1 414.966H1476.95C1479.05 410.74 1482.19 407.384 1486.38 404.898C1490.57 402.377 1495.59 401.116 1501.45 401.116C1508.77 401.116 1514.75 403.407 1519.4 407.988C1524.06 412.533 1526.38 419.618 1526.38 429.241V484H1513.81V429.241C1513.81 423.205 1512.16 418.89 1508.86 416.298C1505.55 413.705 1501.67 412.409 1497.19 412.409C1491.44 412.409 1486.98 414.149 1483.82 417.629C1480.66 421.074 1479.08 425.442 1479.08 430.733V484H1466.3V427.963C1466.3 423.311 1464.79 419.565 1461.77 416.724C1458.75 413.847 1454.86 412.409 1450.1 412.409C1446.84 412.409 1443.78 413.279 1440.94 415.019C1438.14 416.759 1435.86 419.174 1434.12 422.263C1432.42 425.317 1431.57 428.851 1431.57 432.864V484H1419ZM1549.37 514.682V402.182H1561.51V415.179H1563C1563.93 413.759 1565.21 411.947 1566.84 409.746C1568.51 407.509 1570.89 405.52 1573.98 403.78C1577.1 402.004 1581.33 401.116 1586.65 401.116C1593.54 401.116 1599.62 402.839 1604.87 406.283C1610.13 409.728 1614.23 414.611 1617.18 420.932C1620.12 427.253 1621.6 434.71 1621.6 443.304C1621.6 451.969 1620.12 459.479 1617.18 465.836C1614.23 472.157 1610.14 477.058 1604.92 480.538C1599.7 483.982 1593.69 485.705 1586.87 485.705C1581.61 485.705 1577.4 484.835 1574.24 483.094C1571.08 481.319 1568.65 479.312 1566.95 477.075C1565.24 474.803 1563.93 472.92 1563 471.429H1561.94V514.682H1549.37ZM1561.72 443.091C1561.72 449.27 1562.63 454.721 1564.44 459.444C1566.25 464.131 1568.9 467.807 1572.38 470.47C1575.86 473.098 1580.12 474.412 1585.16 474.412C1590.42 474.412 1594.8 473.027 1598.32 470.257C1601.87 467.452 1604.53 463.687 1606.31 458.964C1608.12 454.206 1609.03 448.915 1609.03 443.091C1609.03 437.338 1608.14 432.153 1606.36 427.537C1604.62 422.885 1601.98 419.21 1598.43 416.511C1594.91 413.776 1590.49 412.409 1585.16 412.409C1580.05 412.409 1575.75 413.705 1572.27 416.298C1568.79 418.854 1566.16 422.441 1564.39 427.058C1562.61 431.638 1561.72 436.983 1561.72 443.091ZM1640.77 484V402.182H1653.34V484H1640.77ZM1647.17 388.545C1644.72 388.545 1642.6 387.711 1640.83 386.042C1639.09 384.373 1638.22 382.366 1638.22 380.023C1638.22 377.679 1639.09 375.673 1640.83 374.004C1642.6 372.335 1644.72 371.5 1647.17 371.5C1649.62 371.5 1651.71 372.335 1653.45 374.004C1655.23 375.673 1656.11 377.679 1656.11 380.023C1656.11 382.366 1655.23 384.373 1653.45 386.042C1651.71 387.711 1649.62 388.545 1647.17 388.545ZM1688.94 374.909V484H1676.37V374.909H1688.94ZM1746.27 485.705C1738.39 485.705 1731.58 483.964 1725.87 480.484C1720.19 476.969 1715.8 472.068 1712.71 465.783C1709.66 459.462 1708.13 452.111 1708.13 443.73C1708.13 435.349 1709.66 427.963 1712.71 421.571C1715.8 415.143 1720.1 410.136 1725.6 406.55C1731.14 402.928 1737.6 401.116 1744.99 401.116C1749.25 401.116 1753.46 401.827 1757.61 403.247C1761.77 404.668 1765.55 406.976 1768.96 410.172C1772.37 413.332 1775.09 417.523 1777.11 422.743C1779.13 427.963 1780.15 434.391 1780.15 442.026V447.352H1717.08V436.486H1767.36C1767.36 431.869 1766.44 427.75 1764.59 424.128C1762.78 420.506 1760.19 417.647 1756.82 415.552C1753.48 413.457 1749.54 412.409 1744.99 412.409C1739.98 412.409 1735.65 413.652 1731.99 416.138C1728.37 418.588 1725.58 421.784 1723.63 425.726C1721.68 429.668 1720.7 433.893 1720.7 438.403V445.648C1720.7 451.827 1721.77 457.065 1723.9 461.362C1726.06 465.623 1729.06 468.872 1732.9 471.109C1736.73 473.311 1741.19 474.412 1746.27 474.412C1749.57 474.412 1752.55 473.95 1755.22 473.027C1757.92 472.068 1760.24 470.648 1762.2 468.766C1764.15 466.848 1765.66 464.469 1766.72 461.628L1778.87 465.037C1777.59 469.156 1775.44 472.778 1772.42 475.903C1769.4 478.993 1765.68 481.408 1761.24 483.148C1756.8 484.852 1751.81 485.705 1746.27 485.705ZM1799.27 484V402.182H1811.41V414.54H1812.27C1813.76 410.491 1816.46 407.207 1820.36 404.685C1824.27 402.164 1828.67 400.903 1833.57 400.903C1834.5 400.903 1835.65 400.921 1837.04 400.957C1838.42 400.992 1839.47 401.045 1840.18 401.116V413.901C1839.75 413.794 1838.78 413.634 1837.25 413.421C1835.76 413.173 1834.18 413.048 1832.51 413.048C1828.53 413.048 1824.98 413.883 1821.85 415.552C1818.77 417.185 1816.31 419.458 1814.5 422.37C1812.73 425.246 1811.84 428.531 1811.84 432.224V484H1799.27Z" fill="black"/>
</svg>
