<svg width="2649" height="857" viewBox="0 0 2649 857" fill="none" xmlns="http://www.w3.org/2000/svg">
<rect width="2649" height="857" fill="black"/>
<path d="M1041.98 538V319.818H1112.4C1127.88 319.818 1140.81 322.624 1151.17 328.234C1161.62 333.774 1169.46 341.48 1174.72 351.352C1180.05 361.153 1182.71 372.411 1182.71 385.124C1182.71 397.837 1180.05 409.058 1174.72 418.788C1169.46 428.518 1161.65 436.118 1151.28 441.587C1140.91 447.055 1128.06 449.79 1112.72 449.79H1052.74V431.572H1112.18C1123.55 431.572 1132.99 429.69 1140.52 425.926C1148.12 422.162 1153.77 416.8 1157.46 409.839C1161.22 402.879 1163.11 394.641 1163.11 385.124C1163.11 375.607 1161.22 367.297 1157.46 360.195C1153.7 353.021 1148.01 347.482 1140.41 343.575C1132.89 339.669 1123.37 337.716 1111.86 337.716H1061.9V538H1041.98ZM1138.18 439.562L1191.87 538H1168.86L1115.7 439.562H1138.18ZM1251.16 319.818V538H1231.24V319.818H1251.16ZM1309.16 538V319.818H1382.78C1396.98 319.818 1408.81 322.304 1418.26 327.276C1427.77 332.247 1434.91 339.03 1439.67 347.624C1444.43 356.217 1446.81 365.983 1446.81 376.92C1446.81 386.011 1445.28 393.788 1442.23 400.251C1439.17 406.714 1435.02 411.935 1429.76 415.912C1424.51 419.889 1418.65 422.766 1412.18 424.541V426.246C1419.21 426.743 1426.03 429.229 1432.64 433.703C1439.24 438.107 1444.68 444.286 1448.94 452.24C1453.2 460.195 1455.33 469.712 1455.33 480.791C1455.33 491.8 1452.88 501.636 1447.98 510.301C1443.08 518.895 1435.55 525.678 1425.39 530.649C1415.31 535.55 1402.45 538 1386.83 538H1309.16ZM1329.09 520.102H1386.83C1403.66 520.102 1416.09 516.374 1424.12 508.916C1432.21 501.459 1436.26 492.084 1436.26 480.791C1436.26 472.482 1434.24 464.953 1430.19 458.206C1426.21 451.388 1420.56 445.99 1413.25 442.013C1406 438.036 1397.48 436.047 1387.68 436.047H1329.09V520.102ZM1329.09 418.362H1384.59C1393.18 418.362 1400.71 416.587 1407.18 413.036C1413.64 409.484 1418.68 404.584 1422.3 398.334C1425.93 392.084 1427.74 384.946 1427.74 376.92C1427.74 365.344 1423.97 355.933 1416.44 348.689C1408.92 341.374 1397.69 337.716 1382.78 337.716H1329.09V418.362ZM1609.4 410.266L1592.04 415.166C1590.33 410.266 1587.92 405.827 1584.8 401.849C1581.67 397.872 1577.59 394.712 1572.54 392.368C1567.57 390.024 1561.39 388.852 1554.01 388.852C1542.93 388.852 1533.84 391.48 1526.73 396.736C1519.63 401.991 1516.08 408.774 1516.08 417.084C1516.08 424.115 1518.5 429.832 1523.32 434.236C1528.23 438.568 1535.75 442.013 1545.91 444.57L1570.63 450.642C1584.33 453.98 1594.6 459.271 1601.41 466.516C1608.3 473.76 1611.75 482.851 1611.75 493.788C1611.75 503.021 1609.19 511.224 1604.08 518.398C1598.96 525.571 1591.83 531.217 1582.66 535.337C1573.57 539.385 1563.03 541.409 1551.02 541.409C1535.04 541.409 1521.87 537.822 1511.5 530.649C1501.13 523.405 1494.49 512.964 1491.58 499.328L1509.8 494.854C1512.14 504.584 1516.72 511.935 1523.54 516.906C1530.43 521.878 1539.48 524.364 1550.7 524.364C1563.28 524.364 1573.32 521.558 1580.85 515.947C1588.38 510.266 1592.15 503.163 1592.15 494.641C1592.15 488.036 1589.94 482.496 1585.54 478.021C1581.14 473.476 1574.46 470.138 1565.51 468.007L1538.77 461.615C1524.57 458.206 1514.06 452.808 1507.24 445.422C1500.42 438.036 1497.01 428.874 1497.01 417.936C1497.01 408.916 1499.46 400.997 1504.36 394.179C1509.26 387.29 1516.01 381.892 1524.6 377.986C1533.2 374.08 1543 372.126 1554.01 372.126C1568.99 372.126 1580.96 375.536 1589.91 382.354C1598.93 389.101 1605.43 398.405 1609.4 410.266Z" fill="white"/>
</svg>
