<svg width="2649" height="857" viewBox="0 0 2649 857" fill="none" xmlns="http://www.w3.org/2000/svg">
<rect width="2649" height="857" fill="url(#paint0_linear_124_4)"/>
<path d="M1193.27 502H1169.97L1222.32 356.545H1247.67L1300.01 502H1276.72L1235.6 382.966H1234.46L1193.27 502ZM1197.17 445.04H1272.74V463.506H1197.17V445.04ZM1321.02 502V356.545H1374.29C1384.61 356.545 1393.15 358.25 1399.93 361.659C1406.7 365.021 1411.76 369.59 1415.12 375.366C1418.49 381.096 1420.17 387.559 1420.17 394.756C1420.17 400.816 1419.05 405.93 1416.83 410.097C1414.6 414.216 1411.62 417.53 1407.88 420.04C1404.19 422.502 1400.11 424.301 1395.66 425.438V426.858C1400.49 427.095 1405.2 428.657 1409.8 431.545C1414.44 434.386 1418.27 438.435 1421.3 443.69C1424.33 448.946 1425.85 455.338 1425.85 462.866C1425.85 470.3 1424.1 476.976 1420.59 482.895C1417.14 488.766 1411.79 493.43 1404.54 496.886C1397.3 500.295 1388.04 502 1376.77 502H1321.02ZM1342.97 483.179H1374.64C1385.15 483.179 1392.68 481.143 1397.23 477.071C1401.77 472.999 1404.04 467.909 1404.04 461.801C1404.04 457.208 1402.88 452.994 1400.56 449.159C1398.24 445.324 1394.93 442.27 1390.62 439.997C1386.36 437.724 1381.29 436.588 1375.42 436.588H1342.97V483.179ZM1342.97 419.472H1372.37C1377.29 419.472 1381.72 418.525 1385.65 416.631C1389.63 414.737 1392.78 412.085 1395.1 408.676C1397.46 405.22 1398.65 401.148 1398.65 396.46C1398.65 390.447 1396.54 385.404 1392.33 381.332C1388.11 377.26 1381.65 375.224 1372.94 375.224H1342.97V419.472ZM1473.82 356.545V502H1451.88V356.545H1473.82Z" fill="white"/>
<defs>
<linearGradient id="paint0_linear_124_4" x1="0" y1="781" x2="2649" y2="781" gradientUnits="userSpaceOnUse">
<stop stop-color="#637EC4"/>
<stop offset="1" stop-color="#5F1AA5"/>
</linearGradient>
</defs>
</svg>
