<svg width="2649" height="857" viewBox="0 0 2649 857" fill="none" xmlns="http://www.w3.org/2000/svg">
<rect width="2649" height="857" fill="#3862CF"/>
<path d="M921.915 403.847H899.756C898.903 399.112 897.317 394.945 894.997 391.347C892.677 387.748 889.836 384.694 886.474 382.185C883.113 379.675 879.348 377.781 875.182 376.503C871.063 375.224 866.683 374.585 862.043 374.585C853.662 374.585 846.157 376.692 839.528 380.906C832.947 385.12 827.739 391.299 823.903 399.443C820.116 407.587 818.222 417.53 818.222 429.273C818.222 441.11 820.116 451.1 823.903 459.244C827.739 467.388 832.971 473.544 839.599 477.71C846.228 481.877 853.686 483.96 861.972 483.96C866.564 483.96 870.92 483.345 875.04 482.114C879.206 480.835 882.971 478.965 886.332 476.503C889.694 474.041 892.535 471.034 894.855 467.483C897.223 463.884 898.856 459.765 899.756 455.125L921.915 455.196C920.731 462.346 918.435 468.927 915.026 474.94C911.664 480.906 907.331 486.067 902.028 490.423C896.773 494.732 890.759 498.07 883.989 500.438C877.218 502.805 869.831 503.989 861.83 503.989C849.235 503.989 838.013 501.006 828.165 495.04C818.316 489.027 810.551 480.433 804.869 469.259C799.235 458.084 796.418 444.756 796.418 429.273C796.418 413.742 799.259 400.414 804.94 389.287C810.622 378.113 818.387 369.543 828.236 363.577C838.084 357.563 849.282 354.557 861.83 354.557C869.547 354.557 876.744 355.67 883.42 357.895C890.144 360.073 896.181 363.293 901.531 367.554C906.882 371.768 911.309 376.929 914.812 383.037C918.316 389.098 920.684 396.034 921.915 403.847ZM971.343 503.431C964.695 503.431 958.894 501.908 953.939 498.861C948.984 495.814 945.137 491.551 942.398 486.073C939.659 480.595 938.289 474.193 938.289 466.869C938.289 459.513 939.659 453.081 942.398 447.572C945.137 442.063 948.984 437.785 953.939 434.738C958.894 431.691 964.695 430.168 971.343 430.168C977.991 430.168 983.792 431.691 988.747 434.738C993.702 437.785 997.549 442.063 1000.29 447.572C1003.03 453.081 1004.4 459.513 1004.4 466.869C1004.4 474.193 1003.03 480.595 1000.29 486.073C997.549 491.551 993.702 495.814 988.747 498.861C983.792 501.908 977.991 503.431 971.343 503.431ZM971.389 491.844C975.698 491.844 979.268 490.705 982.099 488.428C984.931 486.15 987.024 483.119 988.378 479.333C989.763 475.548 990.455 471.377 990.455 466.822C990.455 462.298 989.763 458.143 988.378 454.358C987.024 450.542 984.931 447.479 982.099 445.171C979.268 442.863 975.698 441.709 971.389 441.709C967.05 441.709 963.449 442.863 960.587 445.171C957.755 447.479 955.647 450.542 954.262 454.358C952.908 458.143 952.231 462.298 952.231 466.822C952.231 471.377 952.908 475.548 954.262 479.333C955.647 483.119 957.755 486.15 960.587 488.428C963.449 490.705 967.05 491.844 971.389 491.844ZM1019.8 528.591V431.091H1033.28V442.586H1034.44C1035.24 441.109 1036.39 439.401 1037.9 437.462C1039.41 435.523 1041.5 433.83 1044.18 432.384C1046.86 430.906 1050.4 430.168 1054.8 430.168C1060.52 430.168 1065.63 431.614 1070.12 434.507C1074.62 437.4 1078.14 441.57 1080.7 447.018C1083.28 452.465 1084.57 459.021 1084.57 466.684C1084.57 474.347 1083.3 480.918 1080.74 486.396C1078.19 491.844 1074.68 496.045 1070.22 498.999C1065.75 501.923 1060.66 503.385 1054.94 503.385C1050.63 503.385 1047.1 502.662 1044.36 501.215C1041.66 499.769 1039.53 498.076 1037.99 496.137C1036.45 494.198 1035.27 492.475 1034.44 490.967H1033.61V528.591H1019.8ZM1033.33 466.545C1033.33 471.531 1034.05 475.902 1035.5 479.656C1036.95 483.411 1039.04 486.35 1041.78 488.474C1044.52 490.567 1047.87 491.613 1051.84 491.613C1055.97 491.613 1059.41 490.52 1062.18 488.335C1064.95 486.119 1067.05 483.119 1068.46 479.333C1069.91 475.548 1070.63 471.285 1070.63 466.545C1070.63 461.867 1069.92 457.666 1068.51 453.942C1067.12 450.219 1065.03 447.279 1062.23 445.125C1059.46 442.971 1056 441.893 1051.84 441.893C1047.84 441.893 1044.46 442.924 1041.69 444.987C1038.95 447.049 1036.87 449.926 1035.45 453.619C1034.04 457.312 1033.33 461.621 1033.33 466.545ZM1106.35 528.591C1104.29 528.591 1102.41 528.422 1100.72 528.083C1099.03 527.775 1097.77 527.437 1096.93 527.067L1100.26 515.757C1102.78 516.434 1105.03 516.727 1107 516.634C1108.97 516.542 1110.71 515.803 1112.21 514.418C1113.75 513.033 1115.11 510.771 1116.28 507.632L1117.99 502.923L1092.04 431.091H1106.81L1124.77 486.119H1125.51L1143.47 431.091H1158.29L1129.06 511.464C1127.71 515.157 1125.99 518.281 1123.89 520.835C1121.8 523.42 1119.31 525.359 1116.42 526.652C1113.52 527.945 1110.17 528.591 1106.35 528.591ZM1338.71 429.273C1338.71 444.803 1335.87 458.155 1330.19 469.33C1324.51 480.456 1316.72 489.027 1306.83 495.04C1296.98 501.006 1285.78 503.989 1273.23 503.989C1260.64 503.989 1249.39 501.006 1239.5 495.04C1229.65 489.027 1221.88 480.433 1216.2 469.259C1210.52 458.084 1207.68 444.756 1207.68 429.273C1207.68 413.742 1210.52 400.414 1216.2 389.287C1221.88 378.113 1229.65 369.543 1239.5 363.577C1249.39 357.563 1260.64 354.557 1273.23 354.557C1285.78 354.557 1296.98 357.563 1306.83 363.577C1316.72 369.543 1324.51 378.113 1330.19 389.287C1335.87 400.414 1338.71 413.742 1338.71 429.273ZM1316.98 429.273C1316.98 417.436 1315.06 407.469 1311.23 399.372C1307.44 391.228 1302.23 385.073 1295.6 380.906C1289.02 376.692 1281.56 374.585 1273.23 374.585C1264.85 374.585 1257.37 376.692 1250.79 380.906C1244.21 385.073 1239 391.228 1235.16 399.372C1231.38 407.469 1229.48 417.436 1229.48 429.273C1229.48 441.11 1231.38 451.1 1235.16 459.244C1239 467.341 1244.21 473.496 1250.79 477.71C1257.37 481.877 1264.85 483.96 1273.23 483.96C1281.56 483.96 1289.02 481.877 1295.6 477.71C1302.23 473.496 1307.44 467.341 1311.23 459.244C1315.06 451.1 1316.98 441.11 1316.98 429.273ZM1373.18 459.898V502H1359.37V431.091H1372.62V442.632H1373.5C1375.13 438.877 1377.69 435.861 1381.16 433.584C1384.67 431.306 1389.09 430.168 1394.41 430.168C1399.25 430.168 1403.48 431.183 1407.11 433.214C1410.74 435.215 1413.56 438.2 1415.56 442.17C1417.56 446.141 1418.56 451.049 1418.56 456.897V502H1404.75V458.559C1404.75 453.419 1403.42 449.403 1400.74 446.51C1398.06 443.586 1394.38 442.124 1389.71 442.124C1386.5 442.124 1383.66 442.817 1381.16 444.202C1378.7 445.587 1376.75 447.618 1375.3 450.295C1373.89 452.942 1373.18 456.143 1373.18 459.898ZM1506.66 502L1466.31 356.545H1489.4L1517.74 469.188H1519.08L1548.56 356.545H1571.43L1600.9 469.259H1602.25L1630.52 356.545H1653.67L1613.26 502H1591.17L1560.56 393.051H1559.43L1528.81 502H1506.66ZM1666.98 502V431.091H1680.32V442.355H1681.06C1682.36 438.539 1684.63 435.538 1687.89 433.353C1691.19 431.137 1694.91 430.029 1699.07 430.029C1699.93 430.029 1700.94 430.06 1702.11 430.121C1703.31 430.183 1704.25 430.26 1704.93 430.352V443.555C1704.38 443.402 1703.39 443.232 1701.98 443.048C1700.56 442.832 1699.14 442.724 1697.73 442.724C1694.47 442.724 1691.56 443.417 1689 444.802C1686.48 446.156 1684.48 448.049 1683 450.48C1681.52 452.881 1680.79 455.62 1680.79 458.697V502H1666.98ZM1716.87 502V431.091H1730.68V502H1716.87ZM1723.85 420.15C1721.45 420.15 1719.38 419.35 1717.66 417.749C1715.97 416.118 1715.12 414.179 1715.12 411.933C1715.12 409.655 1715.97 407.716 1717.66 406.116C1719.38 404.485 1721.45 403.669 1723.85 403.669C1726.25 403.669 1728.29 404.485 1729.99 406.116C1731.71 407.716 1732.57 409.655 1732.57 411.933C1732.57 414.179 1731.71 416.118 1729.99 417.749C1728.29 419.35 1726.25 420.15 1723.85 420.15ZM1782.35 431.091V442.17H1743.62V431.091H1782.35ZM1754 414.102H1767.81V481.18C1767.81 483.857 1768.21 485.873 1769.01 487.227C1769.81 488.551 1770.84 489.459 1772.1 489.951C1773.39 490.413 1774.79 490.643 1776.3 490.643C1777.41 490.643 1778.38 490.567 1779.21 490.413C1780.04 490.259 1780.69 490.136 1781.15 490.043L1783.64 501.446C1782.84 501.754 1781.7 502.062 1780.22 502.369C1778.75 502.708 1776.9 502.893 1774.68 502.923C1771.05 502.985 1767.67 502.339 1764.53 500.984C1761.39 499.63 1758.85 497.537 1756.91 494.706C1754.97 491.875 1754 488.32 1754 484.042V414.102ZM1827.42 503.431C1820.43 503.431 1814.41 501.938 1809.37 498.953C1804.35 495.937 1800.47 491.705 1797.73 486.258C1795.02 480.78 1793.67 474.363 1793.67 467.007C1793.67 459.744 1795.02 453.342 1797.73 447.803C1800.47 442.263 1804.29 437.939 1809.18 434.83C1814.11 431.722 1819.86 430.168 1826.45 430.168C1830.45 430.168 1834.33 430.829 1838.08 432.153C1841.84 433.476 1845.21 435.554 1848.19 438.385C1851.18 441.216 1853.53 444.894 1855.25 449.418C1856.98 453.912 1857.84 459.375 1857.84 465.807V470.7H1801.47V460.359H1844.31C1844.31 456.728 1843.57 453.512 1842.1 450.711C1840.62 447.879 1838.54 445.648 1835.86 444.017C1833.22 442.386 1830.11 441.57 1826.54 441.57C1822.66 441.57 1819.28 442.524 1816.38 444.433C1813.52 446.31 1811.3 448.772 1809.74 451.819C1808.2 454.835 1807.43 458.113 1807.43 461.652V469.731C1807.43 474.47 1808.26 478.502 1809.92 481.826C1811.61 485.15 1813.97 487.689 1816.98 489.443C1820 491.167 1823.52 492.028 1827.55 492.028C1830.17 492.028 1832.56 491.659 1834.71 490.92C1836.86 490.151 1838.73 489.012 1840.3 487.504C1841.87 485.996 1843.07 484.134 1843.9 481.918L1856.96 484.273C1855.92 488.12 1854.04 491.49 1851.33 494.383C1848.65 497.245 1845.28 499.476 1841.22 501.077C1837.19 502.646 1832.59 503.431 1827.42 503.431Z" fill="#F1F1F1"/>
</svg>
