<svg width="2649" height="857" viewBox="0 0 2649 857" fill="none" xmlns="http://www.w3.org/2000/svg">
<g clip-path="url(#clip0_516_5)">
<path d="M2649 0H0V857H2649V0Z" fill="url(#paint0_linear_516_5)"/>
<g filter="url(#filter0_d_516_5)">
<path d="M1030.98 519.458V337.64H1058.41V495.843H1140.79V519.458H1030.98ZM1172.09 519.458V337.64H1199.52V495.843H1281.91V519.458H1172.09ZM1372.06 519.458H1313.2V337.64H1373.93C1391.74 337.64 1407.04 341.28 1419.82 348.56C1432.61 355.78 1442.4 366.167 1449.21 379.721C1456.08 393.215 1459.51 409.402 1459.51 428.283C1459.51 447.222 1456.05 463.498 1449.12 477.111C1442.26 490.724 1432.31 501.199 1419.29 508.538C1406.27 515.818 1390.53 519.458 1372.06 519.458ZM1340.63 495.488H1370.55C1384.4 495.488 1395.91 492.884 1405.09 487.675C1414.26 482.408 1421.13 474.803 1425.68 464.859C1430.24 454.857 1432.52 442.665 1432.52 428.283C1432.52 414.019 1430.24 401.916 1425.68 391.972C1421.19 382.029 1414.47 374.483 1405.53 369.334C1396.59 364.185 1385.5 361.61 1372.24 361.61H1340.63V495.488ZM1493.62 519.458V337.64H1560.21C1573.11 337.64 1583.79 339.771 1592.25 344.032C1600.72 348.234 1607.05 353.946 1611.25 361.166C1615.46 368.328 1617.56 376.407 1617.56 385.403C1617.56 392.978 1616.17 399.371 1613.38 404.579C1610.6 409.728 1606.87 413.871 1602.2 417.008C1597.58 420.085 1592.49 422.335 1586.93 423.755V425.531C1592.96 425.826 1598.85 427.78 1604.59 431.39C1610.39 434.941 1615.19 440.001 1618.98 446.571C1622.76 453.141 1624.66 461.131 1624.66 470.541C1624.66 479.833 1622.47 488.179 1618.09 495.577C1613.77 502.916 1607.08 508.746 1598.03 513.066C1588.97 517.327 1577.4 519.458 1563.31 519.458H1493.62ZM1521.05 495.932H1560.65C1573.79 495.932 1583.2 493.387 1588.88 488.297C1594.56 483.207 1597.4 476.844 1597.4 469.21C1597.4 463.469 1595.95 458.201 1593.05 453.407C1590.15 448.613 1586.01 444.795 1580.62 441.955C1575.3 439.114 1568.96 437.693 1561.63 437.693H1521.05V495.932ZM1521.05 416.298H1557.81C1563.96 416.298 1569.5 415.114 1574.41 412.746C1579.38 410.379 1583.32 407.065 1586.22 402.803C1589.18 398.483 1590.66 393.393 1590.66 387.533C1590.66 380.017 1588.02 373.714 1582.76 368.624C1577.49 363.534 1569.41 360.989 1558.52 360.989H1521.05V416.298Z" fill="white"/>
</g>
</g>
<defs>
<filter id="filter0_d_516_5" x="930.975" y="247.64" width="793.683" height="381.818" filterUnits="userSpaceOnUse" color-interpolation-filters="sRGB">
<feFlood flood-opacity="0" result="BackgroundImageFix"/>
<feColorMatrix in="SourceAlpha" type="matrix" values="0 0 0 0 0 0 0 0 0 0 0 0 0 0 0 0 0 0 127 0" result="hardAlpha"/>
<feOffset dy="10"/>
<feGaussianBlur stdDeviation="50"/>
<feComposite in2="hardAlpha" operator="out"/>
<feColorMatrix type="matrix" values="0 0 0 0 0 0 0 0 0 0 0 0 0 0 0 0 0 0 0.4 0"/>
<feBlend mode="normal" in2="BackgroundImageFix" result="effect1_dropShadow_516_5"/>
<feBlend mode="normal" in="SourceGraphic" in2="effect1_dropShadow_516_5" result="shape"/>
</filter>
<linearGradient id="paint0_linear_516_5" x1="1324.5" y1="0" x2="1324.5" y2="857" gradientUnits="userSpaceOnUse">
<stop stop-color="#ED1FFF"/>
<stop offset="1" stop-color="#4E3AC9"/>
</linearGradient>
<clipPath id="clip0_516_5">
<rect width="2649" height="857" fill="white"/>
</clipPath>
</defs>
</svg>
