<svg width="2649" height="857" viewBox="0 0 2649 857" fill="none" xmlns="http://www.w3.org/2000/svg">
<rect width="2649" height="857" fill="#75ACFF"/>
<path d="M1048.62 381.455H1065.93L1096.03 454.949H1097.13L1127.23 381.455H1144.55V476H1130.97V407.584H1130.1L1102.21 475.862H1090.95L1063.07 407.538H1062.19V476H1048.62V381.455ZM1184.81 477.57C1180.32 477.57 1176.26 476.739 1172.63 475.077C1168.99 473.384 1166.12 470.937 1163.99 467.737C1161.9 464.536 1160.85 460.612 1160.85 455.964C1160.85 451.964 1161.62 448.67 1163.16 446.085C1164.7 443.5 1166.78 441.453 1169.39 439.945C1172.01 438.437 1174.93 437.299 1178.17 436.529C1181.4 435.76 1184.69 435.175 1188.04 434.775C1192.29 434.282 1195.74 433.882 1198.39 433.575C1201.03 433.236 1202.96 432.697 1204.16 431.959C1205.36 431.22 1205.96 430.02 1205.96 428.358V428.035C1205.96 424.003 1204.82 420.879 1202.54 418.663C1200.29 416.447 1196.94 415.339 1192.48 415.339C1187.83 415.339 1184.17 416.37 1181.49 418.433C1178.84 420.464 1177.01 422.726 1176 425.219L1163.02 422.264C1164.56 417.955 1166.81 414.478 1169.76 411.831C1172.75 409.153 1176.18 407.214 1180.06 406.014C1183.94 404.783 1188.01 404.168 1192.29 404.168C1195.12 404.168 1198.12 404.506 1201.29 405.183C1204.49 405.83 1207.48 407.03 1210.25 408.784C1213.05 410.538 1215.34 413.047 1217.13 416.309C1218.91 419.54 1219.81 423.741 1219.81 428.912V476H1206.33V466.305H1205.77C1204.88 468.09 1203.54 469.845 1201.76 471.568C1199.97 473.292 1197.68 474.723 1194.88 475.862C1192.08 477 1188.72 477.57 1184.81 477.57ZM1187.81 466.49C1191.63 466.49 1194.89 465.736 1197.6 464.228C1200.34 462.72 1202.42 460.75 1203.83 458.319C1205.28 455.857 1206 453.225 1206 450.425V441.284C1205.51 441.777 1204.56 442.238 1203.14 442.669C1201.76 443.069 1200.17 443.423 1198.39 443.731C1196.6 444.008 1194.86 444.269 1193.17 444.516C1191.48 444.731 1190.06 444.916 1188.92 445.07C1186.24 445.408 1183.8 445.978 1181.58 446.778C1179.4 447.578 1177.64 448.732 1176.32 450.24C1175.03 451.717 1174.38 453.687 1174.38 456.149C1174.38 459.565 1175.64 462.151 1178.17 463.905C1180.69 465.628 1183.91 466.49 1187.81 466.49ZM1268.06 477.431C1261.2 477.431 1255.29 475.877 1250.33 472.768C1245.41 469.629 1241.62 465.305 1238.98 459.796C1236.33 454.287 1235.01 447.978 1235.01 440.869C1235.01 433.667 1236.36 427.312 1239.07 421.803C1241.78 416.263 1245.59 411.939 1250.52 408.83C1255.44 405.722 1261.24 404.168 1267.92 404.168C1273.31 404.168 1278.11 405.168 1282.32 407.168C1286.54 409.138 1289.94 411.908 1292.53 415.478C1295.14 419.048 1296.7 423.218 1297.19 427.989H1283.76C1283.02 424.665 1281.32 421.803 1278.68 419.402C1276.06 417.001 1272.55 415.801 1268.15 415.801C1264.31 415.801 1260.94 416.817 1258.04 418.848C1255.18 420.848 1252.95 423.711 1251.35 427.435C1249.75 431.128 1248.95 435.498 1248.95 440.545C1248.95 445.716 1249.73 450.179 1251.3 453.933C1252.87 457.688 1255.09 460.596 1257.95 462.658C1260.84 464.72 1264.24 465.751 1268.15 465.751C1270.77 465.751 1273.14 465.274 1275.26 464.32C1277.42 463.335 1279.22 461.935 1280.66 460.119C1282.14 458.304 1283.17 456.118 1283.76 453.564H1297.19C1296.7 458.15 1295.2 462.243 1292.71 465.844C1290.22 469.445 1286.88 472.276 1282.69 474.338C1278.54 476.4 1273.66 477.431 1268.06 477.431ZM1325.75 433.898V476H1311.95V381.455H1325.57V416.632H1326.45C1328.11 412.816 1330.65 409.784 1334.06 407.538C1337.48 405.291 1341.94 404.168 1347.45 404.168C1352.31 404.168 1356.56 405.168 1360.19 407.168C1363.86 409.169 1366.69 412.154 1368.69 416.124C1370.72 420.064 1371.73 424.988 1371.73 430.897V476H1357.93V432.559C1357.93 427.358 1356.59 423.326 1353.91 420.464C1351.24 417.571 1347.51 416.124 1342.74 416.124C1339.48 416.124 1336.56 416.817 1333.97 418.202C1331.42 419.587 1329.4 421.618 1327.92 424.295C1326.48 426.942 1325.75 430.143 1325.75 433.898ZM1466.34 422.726V434.729H1424.42V422.726H1466.34ZM1602.37 428.727C1602.37 438.822 1600.53 447.501 1596.83 454.764C1593.14 461.997 1588.08 467.567 1581.65 471.476C1575.24 475.354 1567.97 477.293 1559.81 477.293C1551.62 477.293 1544.31 475.354 1537.88 471.476C1531.48 467.567 1526.43 461.981 1522.74 454.718C1519.05 447.455 1517.2 438.791 1517.2 428.727C1517.2 418.633 1519.05 409.969 1522.74 402.737C1526.43 395.473 1531.48 389.903 1537.88 386.025C1544.31 382.116 1551.62 380.162 1559.81 380.162C1567.97 380.162 1575.24 382.116 1581.65 386.025C1588.08 389.903 1593.14 395.473 1596.83 402.737C1600.53 409.969 1602.37 418.633 1602.37 428.727ZM1588.25 428.727C1588.25 421.033 1587 414.555 1584.51 409.292C1582.05 403.998 1578.66 399.997 1574.35 397.289C1570.07 394.55 1565.23 393.18 1559.81 393.18C1554.36 393.18 1549.5 394.55 1545.22 397.289C1540.94 399.997 1537.56 403.998 1535.07 409.292C1532.6 414.555 1531.37 421.033 1531.37 428.727C1531.37 436.421 1532.6 442.915 1535.07 448.209C1537.56 453.472 1540.94 457.473 1545.22 460.212C1549.5 462.92 1554.36 464.274 1559.81 464.274C1565.23 464.274 1570.07 462.92 1574.35 460.212C1578.66 457.473 1582.05 453.472 1584.51 448.209C1587 442.915 1588.25 436.421 1588.25 428.727Z" fill="#F1F1F1"/>
</svg>
