<svg width="2649" height="857" viewBox="0 0 2649 857" fill="none" xmlns="http://www.w3.org/2000/svg">
<rect width="2649" height="857" fill="url(#paint0_linear_434_2)"/>
<path d="M837.16 502V356.545H889.006C900.275 356.545 909.627 358.487 917.06 362.369C924.541 366.252 930.129 371.626 933.822 378.491C937.515 385.31 939.362 393.193 939.362 402.142C939.362 411.044 937.491 418.88 933.751 425.651C930.058 432.374 924.47 437.606 916.989 441.347C909.556 445.087 900.204 446.957 888.935 446.957H849.66V428.065H886.947C894.049 428.065 899.826 427.047 904.276 425.011C908.774 422.975 912.065 420.016 914.148 416.134C916.232 412.251 917.273 407.587 917.273 402.142C917.273 396.65 916.208 391.891 914.077 387.866C911.994 383.842 908.703 380.764 904.205 378.634C899.754 376.455 893.907 375.366 886.663 375.366H859.106V502H837.16ZM908.964 436.375L944.901 502H919.901L884.674 436.375H908.964ZM1010.01 504.202C999.263 504.202 990.007 501.905 982.241 497.312C974.524 492.672 968.558 486.162 964.344 477.781C960.177 469.353 958.094 459.481 958.094 448.165C958.094 436.991 960.177 427.142 964.344 418.619C968.558 410.097 974.429 403.444 981.957 398.662C989.533 393.88 998.387 391.489 1008.52 391.489C1014.68 391.489 1020.64 392.507 1026.42 394.543C1032.19 396.579 1037.38 399.775 1041.97 404.131C1046.56 408.487 1050.19 414.145 1052.84 421.105C1055.49 428.018 1056.82 436.422 1056.82 446.318V453.847H970.097V437.938H1036.01C1036.01 432.35 1034.87 427.402 1032.6 423.094C1030.32 418.738 1027.13 415.305 1023.01 412.795C1018.94 410.286 1014.15 409.031 1008.66 409.031C1002.7 409.031 997.488 410.499 993.037 413.435C988.634 416.323 985.224 420.111 982.81 424.798C980.442 429.438 979.259 434.481 979.259 439.926V452.355C979.259 459.647 980.537 465.849 983.094 470.963C985.698 476.077 989.32 479.983 993.96 482.682C998.6 485.333 1004.02 486.659 1010.22 486.659C1014.25 486.659 1017.92 486.091 1021.23 484.955C1024.55 483.771 1027.41 482.019 1029.83 479.699C1032.24 477.379 1034.09 474.514 1035.37 471.105L1055.47 474.727C1053.86 480.646 1050.97 485.83 1046.8 490.281C1042.68 494.685 1037.5 498.117 1031.25 500.58C1025.04 502.994 1017.97 504.202 1010.01 504.202ZM1112.12 504.415C1105.21 504.415 1098.96 503.136 1093.37 500.58C1087.79 497.975 1083.36 494.211 1080.09 489.287C1076.87 484.363 1075.26 478.326 1075.26 471.176C1075.26 465.021 1076.45 459.955 1078.81 455.977C1081.18 452 1084.38 448.851 1088.4 446.531C1092.43 444.211 1096.93 442.459 1101.9 441.276C1106.87 440.092 1111.93 439.192 1117.1 438.577C1123.63 437.819 1128.93 437.204 1133 436.73C1137.08 436.209 1140.04 435.381 1141.88 434.244C1143.73 433.108 1144.65 431.261 1144.65 428.705V428.207C1144.65 422.005 1142.9 417.199 1139.4 413.79C1135.94 410.381 1130.78 408.676 1123.91 408.676C1116.76 408.676 1111.13 410.262 1107.01 413.435C1102.94 416.56 1100.12 420.04 1098.56 423.875L1078.6 419.33C1080.97 412.701 1084.43 407.35 1088.97 403.278C1093.56 399.159 1098.84 396.176 1104.81 394.33C1110.77 392.436 1117.05 391.489 1123.63 391.489C1127.99 391.489 1132.6 392.009 1137.48 393.051C1142.4 394.045 1147 395.892 1151.26 398.591C1155.57 401.29 1159.09 405.149 1161.84 410.168C1164.59 415.139 1165.96 421.602 1165.96 429.557V502H1145.22V487.085H1144.37C1143 489.831 1140.94 492.53 1138.19 495.182C1135.44 497.833 1131.92 500.035 1127.61 501.787C1123.3 503.539 1118.14 504.415 1112.12 504.415ZM1116.74 487.369C1122.61 487.369 1127.63 486.209 1131.8 483.889C1136.01 481.569 1139.21 478.539 1141.39 474.798C1143.61 471.01 1144.72 466.962 1144.72 462.653V448.591C1143.97 449.348 1142.5 450.059 1140.32 450.722C1138.19 451.337 1135.75 451.882 1133 452.355C1130.26 452.781 1127.58 453.184 1124.98 453.562C1122.38 453.894 1120.2 454.178 1118.45 454.415C1114.33 454.936 1110.56 455.812 1107.15 457.043C1103.79 458.274 1101.09 460.049 1099.06 462.369C1097.07 464.642 1096.07 467.672 1096.07 471.46C1096.07 476.716 1098.01 480.693 1101.9 483.392C1105.78 486.044 1110.73 487.369 1116.74 487.369ZM1240.2 504.202C1229.64 504.202 1220.55 501.811 1212.92 497.028C1205.35 492.199 1199.52 485.546 1195.45 477.071C1191.38 468.596 1189.34 458.889 1189.34 447.952C1189.34 436.872 1191.43 427.095 1195.59 418.619C1199.76 410.097 1205.63 403.444 1213.21 398.662C1220.78 393.88 1229.71 391.489 1239.98 391.489C1248.27 391.489 1255.66 393.027 1262.14 396.105C1268.63 399.135 1273.86 403.397 1277.84 408.889C1281.86 414.382 1284.25 420.797 1285.01 428.136H1264.34C1263.21 423.023 1260.6 418.619 1256.53 414.926C1252.51 411.233 1247.11 409.386 1240.34 409.386C1234.42 409.386 1229.23 410.949 1224.78 414.074C1220.38 417.152 1216.95 421.555 1214.49 427.284C1212.02 432.966 1210.79 439.689 1210.79 447.455C1210.79 455.409 1212 462.275 1214.41 468.051C1216.83 473.828 1220.24 478.302 1224.64 481.474C1229.09 484.647 1234.32 486.233 1240.34 486.233C1244.36 486.233 1248.01 485.499 1251.28 484.031C1254.59 482.516 1257.36 480.362 1259.59 477.568C1261.86 474.775 1263.44 471.413 1264.34 467.483H1285.01C1284.25 474.538 1281.96 480.835 1278.12 486.375C1274.29 491.915 1269.15 496.271 1262.71 499.443C1256.32 502.616 1248.81 504.202 1240.2 504.202ZM1358.64 392.909V409.955H1299.06V392.909H1358.64ZM1315.04 366.773H1336.27V469.969C1336.27 474.088 1336.89 477.189 1338.12 479.273C1339.35 481.309 1340.94 482.705 1342.88 483.463C1344.87 484.173 1347.02 484.528 1349.34 484.528C1351.04 484.528 1352.54 484.41 1353.81 484.173C1355.09 483.937 1356.09 483.747 1356.8 483.605L1360.63 501.148C1359.4 501.621 1357.65 502.095 1355.38 502.568C1353.1 503.089 1350.26 503.373 1346.85 503.42C1341.27 503.515 1336.06 502.521 1331.23 500.438C1326.4 498.354 1322.49 495.134 1319.51 490.778C1316.53 486.422 1315.04 480.954 1315.04 474.372V366.773ZM1426.91 504.202C1416.69 504.202 1407.76 501.858 1400.14 497.17C1392.52 492.483 1386.6 485.925 1382.38 477.497C1378.17 469.069 1376.06 459.221 1376.06 447.952C1376.06 436.635 1378.17 426.74 1382.38 418.264C1386.6 409.789 1392.52 403.207 1400.14 398.52C1407.76 393.832 1416.69 391.489 1426.91 391.489C1437.14 391.489 1446.07 393.832 1453.69 398.52C1461.31 403.207 1467.23 409.789 1471.45 418.264C1475.66 426.74 1477.77 436.635 1477.77 447.952C1477.77 459.221 1475.66 469.069 1471.45 477.497C1467.23 485.925 1461.31 492.483 1453.69 497.17C1446.07 501.858 1437.14 504.202 1426.91 504.202ZM1426.99 486.375C1433.61 486.375 1439.11 484.623 1443.46 481.119C1447.82 477.616 1451.04 472.952 1453.12 467.128C1455.25 461.304 1456.32 454.888 1456.32 447.881C1456.32 440.92 1455.25 434.528 1453.12 428.705C1451.04 422.833 1447.82 418.122 1443.46 414.571C1439.11 411.02 1433.61 409.244 1426.99 409.244C1420.31 409.244 1414.77 411.02 1410.37 414.571C1406.01 418.122 1402.77 422.833 1400.64 428.705C1398.55 434.528 1397.51 440.92 1397.51 447.881C1397.51 454.888 1398.55 461.304 1400.64 467.128C1402.77 472.952 1406.01 477.616 1410.37 481.119C1414.77 484.623 1420.31 486.375 1426.99 486.375ZM1501.47 502V392.909H1522V410.239H1523.13C1525.12 404.367 1528.63 399.751 1533.64 396.389C1538.71 392.98 1544.44 391.276 1550.83 391.276C1552.16 391.276 1553.72 391.323 1555.52 391.418C1557.37 391.512 1558.81 391.631 1559.85 391.773V412.085C1559 411.848 1557.48 411.588 1555.31 411.304C1553.13 410.973 1550.95 410.807 1548.77 410.807C1543.75 410.807 1539.28 411.872 1535.35 414.003C1531.47 416.086 1528.39 418.998 1526.12 422.739C1523.84 426.432 1522.71 430.646 1522.71 435.381V502H1501.47ZM1579.93 502V356.545H1601.88V426.006H1603.65L1664.66 356.545H1692.29L1633.63 422.028L1692.5 502H1666.08L1619.07 437.014L1601.88 456.759V502H1579.93ZM1717.88 502V392.909H1739.11V502H1717.88ZM1728.6 376.077C1724.91 376.077 1721.74 374.846 1719.08 372.384C1716.48 369.874 1715.18 366.891 1715.18 363.435C1715.18 359.931 1716.48 356.948 1719.08 354.486C1721.74 351.976 1724.91 350.722 1728.6 350.722C1732.29 350.722 1735.44 351.976 1738.05 354.486C1740.7 356.948 1742.02 359.931 1742.02 363.435C1742.02 366.891 1740.7 369.874 1738.05 372.384C1735.44 374.846 1732.29 376.077 1728.6 376.077ZM1818.61 392.909V409.955H1759.02V392.909H1818.61ZM1775 366.773H1796.23V469.969C1796.23 474.088 1796.85 477.189 1798.08 479.273C1799.31 481.309 1800.9 482.705 1802.84 483.463C1804.83 484.173 1806.98 484.528 1809.3 484.528C1811.01 484.528 1812.5 484.41 1813.78 484.173C1815.05 483.937 1816.05 483.747 1816.76 483.605L1820.59 501.148C1819.36 501.621 1817.61 502.095 1815.34 502.568C1813.07 503.089 1810.22 503.373 1806.82 503.42C1801.23 503.515 1796.02 502.521 1791.19 500.438C1786.36 498.354 1782.45 495.134 1779.47 490.778C1776.49 486.422 1775 480.954 1775 474.372V366.773Z" fill="url(#paint1_linear_434_2)"/>
<path d="M837.16 502V356.545H889.006C900.275 356.545 909.627 358.487 917.06 362.369C924.541 366.252 930.129 371.626 933.822 378.491C937.515 385.31 939.362 393.193 939.362 402.142C939.362 411.044 937.491 418.88 933.751 425.651C930.058 432.374 924.47 437.606 916.989 441.347C909.556 445.087 900.204 446.957 888.935 446.957H849.66V428.065H886.947C894.049 428.065 899.826 427.047 904.276 425.011C908.774 422.975 912.065 420.016 914.148 416.134C916.232 412.251 917.273 407.587 917.273 402.142C917.273 396.65 916.208 391.891 914.077 387.866C911.994 383.842 908.703 380.764 904.205 378.634C899.754 376.455 893.907 375.366 886.663 375.366H859.106V502H837.16ZM908.964 436.375L944.901 502H919.901L884.674 436.375H908.964ZM1010.01 504.202C999.263 504.202 990.007 501.905 982.241 497.312C974.524 492.672 968.558 486.162 964.344 477.781C960.177 469.353 958.094 459.481 958.094 448.165C958.094 436.991 960.177 427.142 964.344 418.619C968.558 410.097 974.429 403.444 981.957 398.662C989.533 393.88 998.387 391.489 1008.52 391.489C1014.68 391.489 1020.64 392.507 1026.42 394.543C1032.19 396.579 1037.38 399.775 1041.97 404.131C1046.56 408.487 1050.19 414.145 1052.84 421.105C1055.49 428.018 1056.82 436.422 1056.82 446.318V453.847H970.097V437.938H1036.01C1036.01 432.35 1034.87 427.402 1032.6 423.094C1030.32 418.738 1027.13 415.305 1023.01 412.795C1018.94 410.286 1014.15 409.031 1008.66 409.031C1002.7 409.031 997.488 410.499 993.037 413.435C988.634 416.323 985.224 420.111 982.81 424.798C980.442 429.438 979.259 434.481 979.259 439.926V452.355C979.259 459.647 980.537 465.849 983.094 470.963C985.698 476.077 989.32 479.983 993.96 482.682C998.6 485.333 1004.02 486.659 1010.22 486.659C1014.25 486.659 1017.92 486.091 1021.23 484.955C1024.55 483.771 1027.41 482.019 1029.83 479.699C1032.24 477.379 1034.09 474.514 1035.37 471.105L1055.47 474.727C1053.86 480.646 1050.97 485.83 1046.8 490.281C1042.68 494.685 1037.5 498.117 1031.25 500.58C1025.04 502.994 1017.97 504.202 1010.01 504.202ZM1112.12 504.415C1105.21 504.415 1098.96 503.136 1093.37 500.58C1087.79 497.975 1083.36 494.211 1080.09 489.287C1076.87 484.363 1075.26 478.326 1075.26 471.176C1075.26 465.021 1076.45 459.955 1078.81 455.977C1081.18 452 1084.38 448.851 1088.4 446.531C1092.43 444.211 1096.93 442.459 1101.9 441.276C1106.87 440.092 1111.93 439.192 1117.1 438.577C1123.63 437.819 1128.93 437.204 1133 436.73C1137.08 436.209 1140.04 435.381 1141.88 434.244C1143.73 433.108 1144.65 431.261 1144.65 428.705V428.207C1144.65 422.005 1142.9 417.199 1139.4 413.79C1135.94 410.381 1130.78 408.676 1123.91 408.676C1116.76 408.676 1111.13 410.262 1107.01 413.435C1102.94 416.56 1100.12 420.04 1098.56 423.875L1078.6 419.33C1080.97 412.701 1084.43 407.35 1088.97 403.278C1093.56 399.159 1098.84 396.176 1104.81 394.33C1110.77 392.436 1117.05 391.489 1123.63 391.489C1127.99 391.489 1132.6 392.009 1137.48 393.051C1142.4 394.045 1147 395.892 1151.26 398.591C1155.57 401.29 1159.09 405.149 1161.84 410.168C1164.59 415.139 1165.96 421.602 1165.96 429.557V502H1145.22V487.085H1144.37C1143 489.831 1140.94 492.53 1138.19 495.182C1135.44 497.833 1131.92 500.035 1127.61 501.787C1123.3 503.539 1118.14 504.415 1112.12 504.415ZM1116.74 487.369C1122.61 487.369 1127.63 486.209 1131.8 483.889C1136.01 481.569 1139.21 478.539 1141.39 474.798C1143.61 471.01 1144.72 466.962 1144.72 462.653V448.591C1143.97 449.348 1142.5 450.059 1140.32 450.722C1138.19 451.337 1135.75 451.882 1133 452.355C1130.26 452.781 1127.58 453.184 1124.98 453.562C1122.38 453.894 1120.2 454.178 1118.45 454.415C1114.33 454.936 1110.56 455.812 1107.15 457.043C1103.79 458.274 1101.09 460.049 1099.06 462.369C1097.07 464.642 1096.07 467.672 1096.07 471.46C1096.07 476.716 1098.01 480.693 1101.9 483.392C1105.78 486.044 1110.73 487.369 1116.74 487.369ZM1240.2 504.202C1229.64 504.202 1220.55 501.811 1212.92 497.028C1205.35 492.199 1199.52 485.546 1195.45 477.071C1191.38 468.596 1189.34 458.889 1189.34 447.952C1189.34 436.872 1191.43 427.095 1195.59 418.619C1199.76 410.097 1205.63 403.444 1213.21 398.662C1220.78 393.88 1229.71 391.489 1239.98 391.489C1248.27 391.489 1255.66 393.027 1262.14 396.105C1268.63 399.135 1273.86 403.397 1277.84 408.889C1281.86 414.382 1284.25 420.797 1285.01 428.136H1264.34C1263.21 423.023 1260.6 418.619 1256.53 414.926C1252.51 411.233 1247.11 409.386 1240.34 409.386C1234.42 409.386 1229.23 410.949 1224.78 414.074C1220.38 417.152 1216.95 421.555 1214.49 427.284C1212.02 432.966 1210.79 439.689 1210.79 447.455C1210.79 455.409 1212 462.275 1214.41 468.051C1216.83 473.828 1220.24 478.302 1224.64 481.474C1229.09 484.647 1234.32 486.233 1240.34 486.233C1244.36 486.233 1248.01 485.499 1251.28 484.031C1254.59 482.516 1257.36 480.362 1259.59 477.568C1261.86 474.775 1263.44 471.413 1264.34 467.483H1285.01C1284.25 474.538 1281.96 480.835 1278.12 486.375C1274.29 491.915 1269.15 496.271 1262.71 499.443C1256.32 502.616 1248.81 504.202 1240.2 504.202ZM1358.64 392.909V409.955H1299.06V392.909H1358.64ZM1315.04 366.773H1336.27V469.969C1336.27 474.088 1336.89 477.189 1338.12 479.273C1339.35 481.309 1340.94 482.705 1342.88 483.463C1344.87 484.173 1347.02 484.528 1349.34 484.528C1351.04 484.528 1352.54 484.41 1353.81 484.173C1355.09 483.937 1356.09 483.747 1356.8 483.605L1360.63 501.148C1359.4 501.621 1357.65 502.095 1355.38 502.568C1353.1 503.089 1350.26 503.373 1346.85 503.42C1341.27 503.515 1336.06 502.521 1331.23 500.438C1326.4 498.354 1322.49 495.134 1319.51 490.778C1316.53 486.422 1315.04 480.954 1315.04 474.372V366.773ZM1426.91 504.202C1416.69 504.202 1407.76 501.858 1400.14 497.17C1392.52 492.483 1386.6 485.925 1382.38 477.497C1378.17 469.069 1376.06 459.221 1376.06 447.952C1376.06 436.635 1378.17 426.74 1382.38 418.264C1386.6 409.789 1392.52 403.207 1400.14 398.52C1407.76 393.832 1416.69 391.489 1426.91 391.489C1437.14 391.489 1446.07 393.832 1453.69 398.52C1461.31 403.207 1467.23 409.789 1471.45 418.264C1475.66 426.74 1477.77 436.635 1477.77 447.952C1477.77 459.221 1475.66 469.069 1471.45 477.497C1467.23 485.925 1461.31 492.483 1453.69 497.17C1446.07 501.858 1437.14 504.202 1426.91 504.202ZM1426.99 486.375C1433.61 486.375 1439.11 484.623 1443.46 481.119C1447.82 477.616 1451.04 472.952 1453.12 467.128C1455.25 461.304 1456.32 454.888 1456.32 447.881C1456.32 440.92 1455.25 434.528 1453.12 428.705C1451.04 422.833 1447.82 418.122 1443.46 414.571C1439.11 411.02 1433.61 409.244 1426.99 409.244C1420.31 409.244 1414.77 411.02 1410.37 414.571C1406.01 418.122 1402.77 422.833 1400.64 428.705C1398.55 434.528 1397.51 440.92 1397.51 447.881C1397.51 454.888 1398.55 461.304 1400.64 467.128C1402.77 472.952 1406.01 477.616 1410.37 481.119C1414.77 484.623 1420.31 486.375 1426.99 486.375ZM1501.47 502V392.909H1522V410.239H1523.13C1525.12 404.367 1528.63 399.751 1533.64 396.389C1538.71 392.98 1544.44 391.276 1550.83 391.276C1552.16 391.276 1553.72 391.323 1555.52 391.418C1557.37 391.512 1558.81 391.631 1559.85 391.773V412.085C1559 411.848 1557.48 411.588 1555.31 411.304C1553.13 410.973 1550.95 410.807 1548.77 410.807C1543.75 410.807 1539.28 411.872 1535.35 414.003C1531.47 416.086 1528.39 418.998 1526.12 422.739C1523.84 426.432 1522.71 430.646 1522.71 435.381V502H1501.47ZM1579.93 502V356.545H1601.88V426.006H1603.65L1664.66 356.545H1692.29L1633.63 422.028L1692.5 502H1666.08L1619.07 437.014L1601.88 456.759V502H1579.93ZM1717.88 502V392.909H1739.11V502H1717.88ZM1728.6 376.077C1724.91 376.077 1721.74 374.846 1719.08 372.384C1716.48 369.874 1715.18 366.891 1715.18 363.435C1715.18 359.931 1716.48 356.948 1719.08 354.486C1721.74 351.976 1724.91 350.722 1728.6 350.722C1732.29 350.722 1735.44 351.976 1738.05 354.486C1740.7 356.948 1742.02 359.931 1742.02 363.435C1742.02 366.891 1740.7 369.874 1738.05 372.384C1735.44 374.846 1732.29 376.077 1728.6 376.077ZM1818.61 392.909V409.955H1759.02V392.909H1818.61ZM1775 366.773H1796.23V469.969C1796.23 474.088 1796.85 477.189 1798.08 479.273C1799.31 481.309 1800.9 482.705 1802.84 483.463C1804.83 484.173 1806.98 484.528 1809.3 484.528C1811.01 484.528 1812.5 484.41 1813.78 484.173C1815.05 483.937 1816.05 483.747 1816.76 483.605L1820.59 501.148C1819.36 501.621 1817.61 502.095 1815.34 502.568C1813.07 503.089 1810.22 503.373 1806.82 503.42C1801.23 503.515 1796.02 502.521 1791.19 500.438C1786.36 498.354 1782.45 495.134 1779.47 490.778C1776.49 486.422 1775 480.954 1775 474.372V366.773Z" fill="url(#paint2_linear_434_2)" fill-opacity="0.5"/>
<defs>
<linearGradient id="paint0_linear_434_2" x1="1324.5" y1="0" x2="1324.5" y2="857" gradientUnits="userSpaceOnUse">
<stop stop-color="#004BBB"/>
<stop offset="1" stop-color="#ACCDFF"/>
</linearGradient>
<linearGradient id="paint1_linear_434_2" x1="1324.5" y1="308" x2="1324.5" y2="550" gradientUnits="userSpaceOnUse">
<stop stop-color="#004BBB"/>
<stop offset="1" stop-color="#ACCDFF"/>
</linearGradient>
<linearGradient id="paint2_linear_434_2" x1="1324.5" y1="308" x2="1324.5" y2="550" gradientUnits="userSpaceOnUse">
<stop stop-color="white"/>
<stop offset="1" stop-color="white"/>
</linearGradient>
</defs>
</svg>
