<svg width="2649" height="857" viewBox="0 0 2649 857" fill="none" xmlns="http://www.w3.org/2000/svg">
<g clip-path="url(#clip0_2_26)">
<g filter="url(#filter0_d_2_26)">
<g clip-path="url(#clip1_2_26)">
<path d="M2649 0H0V857H2649V0Z" fill="#8B1414"/>
<rect width="1324.5" height="857" fill="url(#paint0_linear_2_26)"/>
<path d="M1416.03 382.162C1416.03 382.162 1437.58 382.091 1447.28 382.285C1458.76 382.479 1469.6 385.217 1479.17 391.848C1490.2 399.561 1495.96 410.339 1497.23 423.661C1498.12 432.907 1497.04 441.887 1492.92 450.305C1487.16 462.034 1477.46 468.981 1465.35 472.935C1459.26 474.917 1453.05 475.805 1446.71 475.867C1437.21 475.938 1416.1 475.938 1416.1 475.938L1416.03 382.162ZM1441.26 401.543C1441.26 420.024 1441.26 438.199 1441.26 456.997C1445.7 456.425 1450.01 456.17 1454.2 455.281C1462.31 453.493 1467.25 448.201 1469.21 440.171C1471.05 432.58 1471.05 424.938 1469.09 417.409C1467.57 411.483 1464.21 406.825 1458.51 404.281C1452.99 401.798 1447.22 401.41 1441.26 401.543Z" fill="white"/>
<path d="M1569.3 438.894V455.986L1604.8 455.914V475.744C1604.8 475.744 1565.25 475.744 1544.01 475.744C1544.01 444.697 1544.01 413.588 1544.01 382.285C1544.65 382.224 1604.8 382.162 1604.8 382.162V402.043H1569.3V419.074H1604.8V438.955H1569.3V438.894Z" fill="white"/>
<path d="M1371.09 476H1343.39L1337.37 461.339H1309.41L1302.95 476H1277.28C1277.53 475.295 1315.76 382.285 1315.76 382.285H1333.06L1371.09 476ZM1323.42 416.837C1323.3 416.837 1323.17 416.837 1322.99 416.837C1319.81 426.083 1316.64 435.328 1313.41 444.758C1320.13 444.758 1326.6 444.758 1333.32 444.758C1329.95 435.328 1326.66 426.083 1323.42 416.837Z" fill="white"/>
<path d="M1055.17 468.542C1058.28 462.105 1061.26 455.73 1064.36 449.355C1067.47 450.816 1070.39 452.287 1073.37 453.554C1078.11 455.598 1082.99 457.324 1088.13 457.58C1090.61 457.702 1093.2 457.447 1095.49 456.681C1099.86 455.22 1100.81 450.111 1097.45 446.995C1096 445.657 1094.28 444.503 1092.51 443.675C1087.3 441.131 1082.05 438.833 1076.85 436.35C1072.29 434.174 1067.92 431.569 1064.3 427.799C1061.2 424.611 1059.22 420.79 1058.34 416.459C1054.48 397.456 1065.25 382.602 1084.4 380.375C1095.04 379.159 1105.31 381.008 1115.38 384.39C1117.42 385.095 1119.51 385.861 1121.67 386.617C1119.2 393.38 1116.85 399.949 1114.44 406.702C1113.74 406.385 1113.11 406.13 1112.54 405.875C1106.33 403.004 1099.8 400.899 1092.95 400.327C1091.11 400.133 1089.21 400.327 1087.38 400.644C1084.65 401.155 1082.68 402.748 1082.17 405.681C1081.73 408.49 1083.19 410.4 1085.4 411.739C1087.75 413.138 1090.28 414.354 1092.76 415.56C1098.33 418.308 1104.23 420.668 1109.56 423.855C1123.12 432.008 1127.88 448.078 1121.1 461.973C1117.04 470.33 1110 474.855 1101.31 476.705C1087.81 479.565 1074.82 477.338 1062.27 472.046C1060.12 471.157 1058.09 470.074 1055.99 469.114C1055.74 468.981 1055.55 468.858 1055.17 468.542Z" fill="white"/>
<path d="M1234.11 406.385C1229.74 403.637 1225.37 401.798 1220.61 401.155C1207.3 399.244 1197.03 406.191 1193.92 419.391C1192.15 426.849 1192.15 434.368 1194.31 441.765C1197.35 452.093 1205.65 457.763 1216.3 456.997C1222.33 456.558 1227.78 454.576 1232.97 451.705C1233.54 451.388 1234.05 451.133 1234.81 450.694C1237.4 456.936 1239.88 463.056 1242.55 469.492C1239.24 471.024 1236.14 472.679 1232.91 473.895C1222.26 477.971 1211.3 479.187 1200.07 476.888C1185.49 473.895 1175.29 465.16 1169.71 451.388C1163.62 436.411 1163.82 421.24 1170.54 406.447C1178.52 388.854 1195.19 379.23 1214.9 380.181C1223.78 380.63 1232.21 382.541 1240.2 386.494C1240.64 386.688 1241.08 386.944 1241.71 387.322C1239.24 393.635 1236.71 399.878 1234.11 406.385Z" fill="white"/>
<path d="M1695.51 402.493L1675.03 402.554V382.735C1675.03 382.735 1699.57 382.735 1720.79 382.735C1720.79 413.782 1720.79 444.891 1720.79 476.194C1720.16 476.255 1675.03 476.316 1675.03 476.316V456.425H1695.51V402.493Z" fill="white"/>
<path d="M965.284 456.558L985.76 456.486V476.316C985.76 476.316 961.228 476.316 940 476.316C940 445.269 940 414.16 940 382.857C940.63 382.796 985.76 382.735 985.76 382.735V402.626H965.284V456.558Z" fill="white"/>
</g>
</g>
</g>
<defs>
<filter id="filter0_d_2_26" x="-4" y="0" width="2657" height="865" filterUnits="userSpaceOnUse" color-interpolation-filters="sRGB">
<feFlood flood-opacity="0" result="BackgroundImageFix"/>
<feColorMatrix in="SourceAlpha" type="matrix" values="0 0 0 0 0 0 0 0 0 0 0 0 0 0 0 0 0 0 127 0" result="hardAlpha"/>
<feOffset dy="4"/>
<feGaussianBlur stdDeviation="2"/>
<feComposite in2="hardAlpha" operator="out"/>
<feColorMatrix type="matrix" values="0 0 0 0 0 0 0 0 0 0 0 0 0 0 0 0 0 0 0.25 0"/>
<feBlend mode="normal" in2="BackgroundImageFix" result="effect1_dropShadow_2_26"/>
<feBlend mode="normal" in="SourceGraphic" in2="effect1_dropShadow_2_26" result="shape"/>
</filter>
<linearGradient id="paint0_linear_2_26" x1="1325" y1="2.95158e-05" x2="-4.14158e-05" y2="857" gradientUnits="userSpaceOnUse">
<stop stop-color="#D70000"/>
<stop offset="1" stop-color="#920000"/>
</linearGradient>
<clipPath id="clip0_2_26">
<rect width="2649" height="857" fill="white"/>
</clipPath>
<clipPath id="clip1_2_26">
<rect width="2649" height="857" fill="white"/>
</clipPath>
</defs>
</svg>
