<svg width="2649" height="857" viewBox="0 0 2649 857" fill="none" xmlns="http://www.w3.org/2000/svg">
<rect width="2649" height="857" fill="url(#paint0_linear_124_13)"/>
<path d="M763.448 383.091H777.209V442.883C777.209 449.246 775.714 454.883 772.725 459.795C769.737 464.678 765.534 468.525 760.119 471.337C754.703 474.118 748.356 475.509 741.076 475.509C733.826 475.509 727.493 474.118 722.077 471.337C716.662 468.525 712.46 464.678 709.471 459.795C706.482 454.883 704.988 449.246 704.988 442.883V383.091H718.704V441.773C718.704 445.887 719.606 449.542 721.412 452.738C723.246 455.934 725.836 458.449 729.18 460.284C732.524 462.089 736.489 462.991 741.076 462.991C745.692 462.991 749.673 462.089 753.017 460.284C756.39 458.449 758.965 455.934 760.74 452.738C762.546 449.542 763.448 445.887 763.448 441.773V383.091ZM809.358 433.517V474H796.085V405.818H808.825V416.915H809.668C811.237 413.305 813.693 410.405 817.037 408.215C820.411 406.025 824.657 404.93 829.777 404.93C834.423 404.93 838.492 405.907 841.984 407.86C845.476 409.784 848.183 412.654 850.107 416.472C852.031 420.289 852.992 425.009 852.992 430.632V474H839.72V432.23C839.72 427.288 838.433 423.426 835.858 420.644C833.283 417.833 829.747 416.427 825.249 416.427C822.171 416.427 819.434 417.093 817.037 418.425C814.67 419.756 812.79 421.71 811.4 424.284C810.038 426.829 809.358 429.907 809.358 433.517ZM870.792 474V405.818H884.065V474H870.792ZM877.495 395.298C875.187 395.298 873.204 394.529 871.547 392.99C869.919 391.421 869.106 389.557 869.106 387.397C869.106 385.207 869.919 383.342 871.547 381.804C873.204 380.235 875.187 379.451 877.495 379.451C879.803 379.451 881.771 380.235 883.399 381.804C885.056 383.342 885.885 385.207 885.885 387.397C885.885 389.557 885.056 391.421 883.399 392.99C881.771 394.529 879.803 395.298 877.495 395.298ZM960.248 405.818L935.523 474H921.318L896.549 405.818H910.798L928.066 458.286H928.776L945.999 405.818H960.248ZM999.787 475.376C993.07 475.376 987.284 473.941 982.431 471.07C977.608 468.17 973.879 464.101 971.245 458.863C968.641 453.596 967.339 447.426 967.339 440.353C967.339 433.369 968.641 427.214 971.245 421.887C973.879 416.56 977.548 412.403 982.254 409.414C986.988 406.425 992.522 404.93 998.855 404.93C1002.7 404.93 1006.43 405.567 1010.04 406.839C1013.65 408.112 1016.89 410.109 1019.76 412.832C1022.63 415.554 1024.9 419.091 1026.55 423.441C1028.21 427.761 1029.04 433.014 1029.04 439.199V443.904H974.841V433.961H1016.03C1016.03 430.469 1015.32 427.377 1013.9 424.684C1012.48 421.961 1010.49 419.816 1007.91 418.247C1005.37 416.679 1002.38 415.895 998.944 415.895C995.215 415.895 991.96 416.812 989.178 418.647C986.426 420.452 984.296 422.819 982.786 425.749C981.307 428.649 980.567 431.801 980.567 435.204V442.972C980.567 447.529 981.366 451.406 982.964 454.602C984.591 457.798 986.855 460.239 989.755 461.926C992.656 463.583 996.044 464.412 999.921 464.412C1002.44 464.412 1004.73 464.057 1006.8 463.347C1008.87 462.607 1010.66 461.512 1012.17 460.062C1013.68 458.612 1014.84 456.821 1015.63 454.691L1028.2 456.955C1027.19 460.654 1025.39 463.894 1022.78 466.676C1020.21 469.428 1016.97 471.573 1013.06 473.112C1009.18 474.621 1004.76 475.376 999.787 475.376ZM1043.77 474V405.818H1056.59V416.649H1057.3C1058.55 412.98 1060.74 410.094 1063.87 407.993C1067.04 405.863 1070.62 404.797 1074.62 404.797C1075.45 404.797 1076.42 404.827 1077.55 404.886C1078.7 404.945 1079.6 405.019 1080.25 405.108V417.803C1079.72 417.655 1078.77 417.493 1077.41 417.315C1076.05 417.108 1074.69 417.004 1073.33 417.004C1070.19 417.004 1067.4 417.67 1064.94 419.002C1062.51 420.304 1060.59 422.124 1059.17 424.462C1057.75 426.77 1057.04 429.404 1057.04 432.363V474H1043.77ZM1142.83 422.464L1130.8 424.595C1130.3 423.056 1129.5 421.591 1128.41 420.2C1127.34 418.809 1125.89 417.67 1124.05 416.782C1122.22 415.895 1119.93 415.451 1117.17 415.451C1113.42 415.451 1110.28 416.294 1107.76 417.981C1105.25 419.638 1103.99 421.783 1103.99 424.417C1103.99 426.696 1104.83 428.531 1106.52 429.922C1108.21 431.312 1110.93 432.452 1114.69 433.339L1125.52 435.825C1131.79 437.275 1136.47 439.51 1139.55 442.528C1142.62 445.547 1144.16 449.468 1144.16 454.291C1144.16 458.375 1142.98 462.015 1140.61 465.211C1138.27 468.377 1135 470.863 1130.8 472.668C1126.63 474.473 1121.79 475.376 1116.29 475.376C1108.65 475.376 1102.42 473.748 1097.6 470.493C1092.78 467.208 1089.82 462.548 1088.72 456.511L1101.55 454.558C1102.35 457.902 1103.99 460.432 1106.48 462.148C1108.96 463.835 1112.2 464.678 1116.2 464.678C1120.55 464.678 1124.03 463.776 1126.63 461.971C1129.23 460.136 1130.54 457.902 1130.54 455.268C1130.54 453.137 1129.74 451.347 1128.14 449.897C1126.57 448.447 1124.16 447.352 1120.9 446.612L1109.36 444.082C1103 442.632 1098.29 440.323 1095.25 437.157C1092.23 433.991 1090.72 429.981 1090.72 425.127C1090.72 421.103 1091.84 417.581 1094.09 414.563C1096.34 411.544 1099.45 409.192 1103.41 407.505C1107.38 405.789 1111.92 404.93 1117.04 404.93C1124.41 404.93 1130.21 406.528 1134.44 409.724C1138.67 412.891 1141.47 417.137 1142.83 422.464ZM1178.6 475.509C1174.28 475.509 1170.37 474.71 1166.88 473.112C1163.39 471.485 1160.62 469.132 1158.58 466.054C1156.57 462.977 1155.56 459.204 1155.56 454.735C1155.56 450.888 1156.3 447.722 1157.78 445.236C1159.26 442.75 1161.26 440.782 1163.77 439.332C1166.29 437.882 1169.1 436.787 1172.21 436.047C1175.31 435.307 1178.48 434.745 1181.71 434.36C1185.79 433.887 1189.1 433.502 1191.65 433.206C1194.19 432.881 1196.04 432.363 1197.2 431.653C1198.35 430.942 1198.93 429.788 1198.93 428.19V427.88C1198.93 424.003 1197.83 420.999 1195.64 418.869C1193.48 416.738 1190.26 415.673 1185.97 415.673C1181.5 415.673 1177.98 416.664 1175.4 418.647C1172.86 420.6 1171.1 422.775 1170.12 425.172L1157.65 422.331C1159.13 418.188 1161.29 414.844 1164.13 412.299C1167 409.724 1170.3 407.86 1174.03 406.706C1177.75 405.522 1181.68 404.93 1185.79 404.93C1188.51 404.93 1191.4 405.256 1194.45 405.907C1197.52 406.528 1200.39 407.683 1203.06 409.369C1205.75 411.056 1207.95 413.468 1209.67 416.605C1211.39 419.712 1212.25 423.751 1212.25 428.723V474H1199.28V464.678H1198.75C1197.89 466.395 1196.61 468.081 1194.89 469.739C1193.17 471.396 1190.97 472.772 1188.28 473.867C1185.58 474.962 1182.36 475.509 1178.6 475.509ZM1181.48 464.856C1185.15 464.856 1188.29 464.131 1190.89 462.681C1193.53 461.231 1195.53 459.337 1196.89 456.999C1198.28 454.632 1198.97 452.101 1198.97 449.408V440.619C1198.5 441.093 1197.58 441.537 1196.22 441.951C1194.89 442.336 1193.36 442.676 1191.65 442.972C1189.93 443.238 1188.26 443.49 1186.63 443.727C1185.01 443.934 1183.64 444.111 1182.55 444.259C1179.97 444.585 1177.62 445.132 1175.49 445.902C1173.39 446.671 1171.7 447.781 1170.43 449.231C1169.19 450.651 1168.57 452.545 1168.57 454.913C1168.57 458.197 1169.78 460.683 1172.21 462.37C1174.63 464.027 1177.73 464.856 1181.48 464.856ZM1243.2 383.091V474H1229.92V383.091H1243.2ZM1295.2 474V383.091H1351.57V394.898H1308.91V422.597H1347.53V434.36H1308.91V474H1295.2ZM1366.52 474V405.818H1379.35V416.649H1380.06C1381.3 412.98 1383.49 410.094 1386.63 407.993C1389.79 405.863 1393.38 404.797 1397.37 404.797C1398.2 404.797 1399.18 404.827 1400.3 404.886C1401.45 404.945 1402.36 405.019 1403.01 405.108V417.803C1402.48 417.655 1401.53 417.493 1400.17 417.315C1398.81 417.108 1397.44 417.004 1396.08 417.004C1392.95 417.004 1390.15 417.67 1387.69 419.002C1385.27 420.304 1383.34 422.124 1381.92 424.462C1380.5 426.77 1379.79 429.404 1379.79 432.363V474H1366.52ZM1433.73 475.509C1429.4 475.509 1425.5 474.71 1422.01 473.112C1418.51 471.485 1415.75 469.132 1413.71 466.054C1411.69 462.977 1410.69 459.204 1410.69 454.735C1410.69 450.888 1411.43 447.722 1412.91 445.236C1414.39 442.75 1416.38 440.782 1418.9 439.332C1421.41 437.882 1424.23 436.787 1427.33 436.047C1430.44 435.307 1433.61 434.745 1436.83 434.36C1440.92 433.887 1444.23 433.502 1446.78 433.206C1449.32 432.881 1451.17 432.363 1452.32 431.653C1453.48 430.942 1454.06 429.788 1454.06 428.19V427.88C1454.06 424.003 1452.96 420.999 1450.77 418.869C1448.61 416.738 1445.38 415.673 1441.09 415.673C1436.63 415.673 1433.1 416.664 1430.53 418.647C1427.98 420.6 1426.22 422.775 1425.25 425.172L1412.77 422.331C1414.25 418.188 1416.41 414.844 1419.25 412.299C1422.12 409.724 1425.42 407.86 1429.15 406.706C1432.88 405.522 1436.8 404.93 1440.92 404.93C1443.64 404.93 1446.52 405.256 1449.57 405.907C1452.65 406.528 1455.52 407.683 1458.18 409.369C1460.88 411.056 1463.08 413.468 1464.8 416.605C1466.51 419.712 1467.37 423.751 1467.37 428.723V474H1454.41V464.678H1453.88C1453.02 466.395 1451.73 468.081 1450.02 469.739C1448.3 471.396 1446.09 472.772 1443.4 473.867C1440.71 474.962 1437.48 475.509 1433.73 475.509ZM1436.61 464.856C1440.28 464.856 1443.42 464.131 1446.02 462.681C1448.65 461.231 1450.65 459.337 1452.01 456.999C1453.4 454.632 1454.1 452.101 1454.1 449.408V440.619C1453.63 441.093 1452.71 441.537 1451.35 441.951C1450.02 442.336 1448.49 442.676 1446.78 442.972C1445.06 443.238 1443.39 443.49 1441.76 443.727C1440.13 443.934 1438.77 444.111 1437.68 444.259C1435.1 444.585 1432.75 445.132 1430.62 445.902C1428.52 446.671 1426.83 447.781 1425.56 449.231C1424.31 450.651 1423.69 452.545 1423.69 454.913C1423.69 458.197 1424.91 460.683 1427.33 462.37C1429.76 464.027 1432.85 464.856 1436.61 464.856ZM1485.05 474V405.818H1497.79V416.915H1498.63C1500.05 413.157 1502.38 410.228 1505.6 408.126C1508.83 405.996 1512.69 404.93 1517.19 404.93C1521.75 404.93 1525.56 405.996 1528.64 408.126C1531.75 410.257 1534.04 413.187 1535.52 416.915H1536.23C1537.86 413.276 1540.45 410.375 1544 408.215C1547.55 406.025 1551.78 404.93 1556.69 404.93C1562.88 404.93 1567.92 406.869 1571.83 410.745C1575.77 414.622 1577.73 420.467 1577.73 428.279V474H1564.46V429.522C1564.46 424.906 1563.2 421.562 1560.69 419.49C1558.17 417.419 1555.17 416.383 1551.68 416.383C1547.36 416.383 1544 417.714 1541.6 420.378C1539.2 423.012 1538.01 426.4 1538.01 430.543V474H1524.78V428.679C1524.78 424.98 1523.62 422.005 1521.32 419.756C1519.01 417.507 1516 416.383 1512.31 416.383C1509.79 416.383 1507.47 417.049 1505.34 418.38C1503.23 419.682 1501.53 421.502 1500.23 423.84C1498.96 426.178 1498.32 428.886 1498.32 431.963V474H1485.05ZM1624.91 475.376C1618.19 475.376 1612.41 473.941 1607.55 471.07C1602.73 468.17 1599 464.101 1596.37 458.863C1593.76 453.596 1592.46 447.426 1592.46 440.353C1592.46 433.369 1593.76 427.214 1596.37 421.887C1599 416.56 1602.67 412.403 1607.38 409.414C1612.11 406.425 1617.64 404.93 1623.98 404.93C1627.82 404.93 1631.55 405.567 1635.16 406.839C1638.77 408.112 1642.01 410.109 1644.88 412.832C1647.76 415.554 1650.02 419.091 1651.68 423.441C1653.33 427.761 1654.16 433.014 1654.16 439.199V443.904H1599.96V433.961H1641.16C1641.16 430.469 1640.45 427.377 1639.03 424.684C1637.6 421.961 1635.61 419.816 1633.03 418.247C1630.49 416.679 1627.5 415.895 1624.07 415.895C1620.34 415.895 1617.08 416.812 1614.3 418.647C1611.55 420.452 1609.42 422.819 1607.91 425.749C1606.43 428.649 1605.69 431.801 1605.69 435.204V442.972C1605.69 447.529 1606.49 451.406 1608.09 454.602C1609.71 457.798 1611.98 460.239 1614.88 461.926C1617.78 463.583 1621.17 464.412 1625.04 464.412C1627.56 464.412 1629.85 464.057 1631.92 463.347C1633.99 462.607 1635.78 461.512 1637.29 460.062C1638.8 458.612 1639.96 456.821 1640.76 454.691L1653.32 456.955C1652.31 460.654 1650.51 463.894 1647.9 466.676C1645.33 469.428 1642.09 471.573 1638.18 473.112C1634.31 474.621 1629.88 475.376 1624.91 475.376ZM1683.55 474L1663.48 405.818H1677.2L1690.56 455.889H1691.23L1704.63 405.818H1718.35L1731.67 455.667H1732.33L1745.6 405.818H1759.32L1739.3 474H1725.76L1711.91 424.772H1710.89L1697.04 474H1683.55ZM1798.56 475.376C1792.17 475.376 1786.59 473.911 1781.83 470.982C1777.06 468.052 1773.36 463.953 1770.73 458.686C1768.09 453.418 1766.78 447.263 1766.78 440.22C1766.78 433.147 1768.09 426.962 1770.73 421.665C1773.36 416.368 1777.06 412.255 1781.83 409.325C1786.59 406.395 1792.17 404.93 1798.56 404.93C1804.95 404.93 1810.53 406.395 1815.29 409.325C1820.06 412.255 1823.76 416.368 1826.39 421.665C1829.03 426.962 1830.34 433.147 1830.34 440.22C1830.34 447.263 1829.03 453.418 1826.39 458.686C1823.76 463.953 1820.06 468.052 1815.29 470.982C1810.53 473.911 1804.95 475.376 1798.56 475.376ZM1798.6 464.234C1802.75 464.234 1806.18 463.139 1808.9 460.95C1811.63 458.76 1813.64 455.845 1814.94 452.205C1816.27 448.565 1816.94 444.555 1816.94 440.175C1816.94 435.825 1816.27 431.83 1814.94 428.19C1813.64 424.521 1811.63 421.576 1808.9 419.357C1806.18 417.137 1802.75 416.028 1798.6 416.028C1794.43 416.028 1790.97 417.137 1788.22 419.357C1785.49 421.576 1783.47 424.521 1782.14 428.19C1780.83 431.83 1780.18 435.825 1780.18 440.175C1780.18 444.555 1780.83 448.565 1782.14 452.205C1783.47 455.845 1785.49 458.76 1788.22 460.95C1790.97 463.139 1794.43 464.234 1798.6 464.234ZM1845.16 474V405.818H1857.99V416.649H1858.7C1859.94 412.98 1862.13 410.094 1865.27 407.993C1868.43 405.863 1872.01 404.797 1876.01 404.797C1876.84 404.797 1877.81 404.827 1878.94 404.886C1880.09 404.945 1880.99 405.019 1881.65 405.108V417.803C1881.11 417.655 1880.17 417.493 1878.8 417.315C1877.44 417.108 1876.08 417.004 1874.72 417.004C1871.58 417.004 1868.79 417.67 1866.33 419.002C1863.9 420.304 1861.98 422.124 1860.56 424.462C1859.14 426.77 1858.43 429.404 1858.43 432.363V474H1845.16ZM1905.34 450.873L1905.25 434.671H1907.56L1934.72 405.818H1950.62L1919.63 438.666H1917.55L1905.34 450.873ZM1893.13 474V383.091H1906.4V474H1893.13ZM1936.19 474L1911.77 441.596L1920.92 432.319L1952.48 474H1936.19Z" fill="white"/>
<defs>
<linearGradient id="paint0_linear_124_13" x1="-1.97366e-05" y1="857" x2="2649" y2="-0.000230221" gradientUnits="userSpaceOnUse">
<stop stop-color="#0C0F15"/>
<stop offset="0.411585" stop-color="#3E4E70"/>
<stop offset="1" stop-color="#242D40"/>
</linearGradient>
</defs>
</svg>
