<svg width="2649" height="857" viewBox="0 0 2649 857" fill="none" xmlns="http://www.w3.org/2000/svg">
<rect width="2649" height="857" fill="black"/>
<path d="M728.148 519V337.182H786.83C799.733 337.182 810.505 339.52 819.146 344.195C827.846 348.812 834.386 355.233 838.766 363.46C843.205 371.628 845.424 381.009 845.424 391.603C845.424 402.197 843.205 411.549 838.766 419.657C834.386 427.765 827.875 434.098 819.234 438.656C810.593 443.213 799.881 445.491 787.097 445.491H737.114V430.31H786.653C796.122 430.31 803.994 428.742 810.268 425.605C816.601 422.468 821.306 418 824.384 412.2C827.52 406.399 829.089 399.534 829.089 391.603C829.089 383.672 827.52 376.747 824.384 370.829C821.247 364.851 816.512 360.235 810.179 356.979C803.905 353.724 795.974 352.097 786.386 352.097H744.749V519H728.148ZM808.315 436.969L853.059 519H833.883L789.582 436.969H808.315ZM902.464 337.182V519H885.863V337.182H902.464ZM950.804 519V337.182H1012.15C1023.99 337.182 1033.84 339.253 1041.71 343.396C1049.64 347.539 1055.59 353.192 1059.56 360.353C1063.52 367.514 1065.51 375.652 1065.51 384.767C1065.51 392.343 1064.23 398.824 1061.69 404.21C1059.14 409.595 1055.68 413.946 1051.3 417.26C1046.92 420.574 1042.04 422.971 1036.65 424.451V425.871C1042.51 426.286 1048.19 428.357 1053.7 432.086C1059.2 435.755 1063.73 440.905 1067.28 447.533C1070.83 454.162 1072.61 462.093 1072.61 471.326C1072.61 480.5 1070.57 488.697 1066.48 495.918C1062.4 503.079 1056.12 508.731 1047.66 512.874C1039.26 516.958 1028.54 519 1015.52 519H950.804ZM967.406 504.085H1015.52C1029.55 504.085 1039.91 500.978 1046.6 494.763C1053.34 488.549 1056.72 480.737 1056.72 471.326C1056.72 464.401 1055.03 458.128 1051.66 452.505C1048.34 446.823 1043.64 442.325 1037.54 439.011C1031.5 435.696 1024.4 434.039 1016.23 434.039H967.406V504.085ZM967.406 419.302H1013.66C1020.82 419.302 1027.09 417.822 1032.48 414.863C1037.87 411.904 1042.07 407.82 1045.09 402.612C1048.11 397.403 1049.61 391.455 1049.61 384.767C1049.61 375.12 1046.48 367.278 1040.2 361.241C1033.93 355.145 1024.58 352.097 1012.15 352.097H967.406V419.302ZM1201 412.555L1186.53 416.638C1185.11 412.555 1183.1 408.856 1180.5 405.541C1177.89 402.227 1174.49 399.593 1170.29 397.64C1166.14 395.687 1160.99 394.71 1154.84 394.71C1145.61 394.71 1138.03 396.9 1132.11 401.28C1126.19 405.66 1123.23 411.312 1123.23 418.237C1123.23 424.096 1125.25 428.86 1129.27 432.53C1133.35 436.14 1139.63 439.011 1148.09 441.141L1168.69 446.202C1180.11 448.983 1188.66 453.393 1194.35 459.43C1200.09 465.467 1202.96 473.042 1202.96 482.157C1202.96 489.851 1200.83 496.687 1196.56 502.665C1192.3 508.643 1186.36 513.348 1178.72 516.781C1171.14 520.154 1162.36 521.841 1152.35 521.841C1139.04 521.841 1128.06 518.852 1119.42 512.874C1110.78 506.837 1105.24 498.137 1102.81 486.773L1118 483.045C1119.95 491.153 1123.77 497.279 1129.45 501.422C1135.19 505.565 1142.74 507.636 1152.09 507.636C1162.56 507.636 1170.94 505.299 1177.21 500.623C1183.48 495.888 1186.62 489.969 1186.62 482.867C1186.62 477.363 1184.79 472.746 1181.12 469.018C1177.45 465.23 1171.88 462.448 1164.43 460.673L1142.14 455.346C1130.31 452.505 1121.55 448.007 1115.87 441.852C1110.18 435.696 1107.34 428.061 1107.34 418.947C1107.34 411.43 1109.38 404.831 1113.47 399.149C1117.55 393.408 1123.17 388.91 1130.34 385.655C1137.5 382.4 1145.67 380.772 1154.84 380.772C1167.33 380.772 1177.3 383.613 1184.76 389.295C1192.27 394.917 1197.69 402.671 1201 412.555ZM1432.34 337.182H1448.94V457.565C1448.94 469.935 1446.04 481.003 1440.24 490.768C1434.44 500.475 1426.36 508.139 1416 513.762C1405.7 519.326 1393.72 522.107 1380.05 522.107C1366.43 522.107 1354.45 519.296 1344.09 513.673C1333.73 508.051 1325.66 500.386 1319.86 490.68C1314.06 480.973 1311.16 469.935 1311.16 457.565V337.182H1327.76V456.411C1327.76 466.058 1329.92 474.67 1334.24 482.246C1338.56 489.762 1344.62 495.681 1352.44 500.001C1360.31 504.322 1369.51 506.482 1380.05 506.482C1390.58 506.482 1399.79 504.322 1407.66 500.001C1415.53 495.681 1421.6 489.762 1425.86 482.246C1430.18 474.67 1432.34 466.058 1432.34 456.411V337.182ZM1585.53 412.555L1571.05 416.638C1569.63 412.555 1567.62 408.856 1565.02 405.541C1562.41 402.227 1559.01 399.593 1554.81 397.64C1550.66 395.687 1545.52 394.71 1539.36 394.71C1530.13 394.71 1522.55 396.9 1516.63 401.28C1510.71 405.66 1507.76 411.312 1507.76 418.237C1507.76 424.096 1509.77 428.86 1513.79 432.53C1517.88 436.14 1524.15 439.011 1532.61 441.141L1553.21 446.202C1564.63 448.983 1573.19 453.393 1578.87 459.43C1584.61 465.467 1587.48 473.042 1587.48 482.157C1587.48 489.851 1585.35 496.687 1581.09 502.665C1576.82 508.643 1570.88 513.348 1563.24 516.781C1555.67 520.154 1546.88 521.841 1536.87 521.841C1523.56 521.841 1512.58 518.852 1503.94 512.874C1495.3 506.837 1489.76 498.137 1487.34 486.773L1502.52 483.045C1504.47 491.153 1508.29 497.279 1513.97 501.422C1519.71 505.565 1527.26 507.636 1536.61 507.636C1547.08 507.636 1555.46 505.299 1561.73 500.623C1568.01 495.888 1571.14 489.969 1571.14 482.867C1571.14 477.363 1569.31 472.746 1565.64 469.018C1561.97 465.23 1556.41 462.448 1548.95 460.673L1526.67 455.346C1514.83 452.505 1506.07 448.007 1500.39 441.852C1494.7 435.696 1491.86 428.061 1491.86 418.947C1491.86 411.43 1493.91 404.831 1497.99 399.149C1502.07 393.408 1507.7 388.91 1514.86 385.655C1522.02 382.4 1530.19 380.772 1539.36 380.772C1551.85 380.772 1561.82 383.613 1569.28 389.295C1576.8 394.917 1582.21 402.671 1585.53 412.555ZM1677.21 521.841C1664.49 521.841 1653.48 518.882 1644.19 512.963C1634.89 506.985 1627.7 498.729 1622.61 488.194C1617.58 477.6 1615.07 465.407 1615.07 451.617C1615.07 437.886 1617.58 425.694 1622.61 415.04C1627.7 404.328 1634.72 395.953 1643.65 389.916C1652.65 383.82 1663.04 380.772 1674.81 380.772C1682.21 380.772 1689.34 382.133 1696.21 384.856C1703.08 387.519 1709.23 391.633 1714.68 397.196C1720.18 402.7 1724.53 409.655 1727.73 418.059C1730.92 426.404 1732.52 436.288 1732.52 447.711V455.523H1625.99V441.585H1716.36C1716.36 432.826 1714.59 424.954 1711.04 417.97C1707.54 410.927 1702.66 405.364 1696.39 401.28C1690.17 397.196 1682.98 395.154 1674.81 395.154C1666.17 395.154 1658.57 397.462 1652 402.079C1645.43 406.695 1640.28 412.791 1636.55 420.367C1632.88 427.943 1631.02 436.229 1630.96 445.225V453.57C1630.96 464.401 1632.82 473.871 1636.55 481.979C1640.34 490.029 1645.69 496.273 1652.62 500.712C1659.54 505.151 1667.74 507.37 1677.21 507.37C1683.66 507.37 1689.31 506.364 1694.17 504.352C1699.08 502.339 1703.19 499.646 1706.51 496.273C1709.88 492.84 1712.43 489.082 1714.14 484.998L1729.15 489.881C1727.07 495.622 1723.67 500.919 1718.94 505.772C1714.26 510.625 1708.4 514.531 1701.36 517.491C1694.37 520.391 1686.33 521.841 1677.21 521.841Z" fill="#F1F1F1"/>
<path d="M1817.17 547.227V509.727H1820.24V514.93H1820.62C1821 514.113 1821.52 513.278 1822.18 512.426C1822.84 511.562 1823.72 510.834 1824.81 510.242C1825.91 509.65 1827.29 509.354 1828.96 509.354C1831.21 509.354 1833.18 509.946 1834.86 511.13C1836.55 512.302 1837.86 513.947 1838.8 516.066C1839.75 518.173 1840.22 520.629 1840.22 523.435C1840.22 526.252 1839.75 528.72 1838.8 530.839C1837.86 532.958 1836.55 534.609 1834.86 535.793C1833.18 536.976 1831.22 537.568 1829 537.568C1827.35 537.568 1825.97 537.272 1824.86 536.68C1823.76 536.089 1822.87 535.361 1822.18 534.496C1821.5 533.621 1820.98 532.768 1820.62 531.94H1820.33V547.227H1817.17ZM1820.3 523.381C1820.3 525.583 1820.62 527.536 1821.27 529.241C1821.94 530.933 1822.88 532.265 1824.12 533.236C1825.36 534.195 1826.86 534.674 1828.62 534.674C1830.44 534.674 1831.96 534.177 1833.21 533.183C1834.46 532.176 1835.41 530.821 1836.06 529.116C1836.73 527.412 1837.06 525.5 1837.06 523.381C1837.06 521.286 1836.73 519.398 1836.08 517.717C1835.44 516.036 1834.5 514.705 1833.24 513.722C1831.99 512.728 1830.45 512.231 1828.62 512.231C1826.85 512.231 1825.34 512.71 1824.1 513.669C1822.85 514.616 1821.91 515.93 1821.26 517.611C1820.62 519.28 1820.3 521.203 1820.3 523.381ZM1854.77 537.621C1853.12 537.621 1851.62 537.302 1850.26 536.663C1848.9 536.012 1847.82 535.076 1847.01 533.857C1846.21 532.626 1845.8 531.135 1845.8 529.383C1845.8 528.033 1846.06 526.897 1846.57 525.974C1847.08 525.05 1847.8 524.293 1848.73 523.701C1849.67 523.109 1850.78 522.642 1852.05 522.298C1853.33 521.955 1854.74 521.689 1856.28 521.499C1857.81 521.31 1859.1 521.144 1860.15 521.002C1861.22 520.86 1862.03 520.635 1862.58 520.327C1863.14 520.02 1863.42 519.522 1863.42 518.836V518.197C1863.42 516.338 1862.86 514.876 1861.75 513.811C1860.65 512.734 1859.06 512.195 1856.99 512.195C1855.02 512.195 1853.42 512.627 1852.18 513.491C1850.95 514.356 1850.08 515.374 1849.59 516.545L1846.58 515.462C1847.2 513.971 1848.05 512.781 1849.14 511.893C1850.23 510.994 1851.45 510.349 1852.8 509.958C1854.15 509.556 1855.52 509.354 1856.9 509.354C1857.94 509.354 1859.03 509.491 1860.15 509.763C1861.29 510.035 1862.34 510.509 1863.31 511.183C1864.28 511.846 1865.07 512.775 1865.67 513.971C1866.28 515.155 1866.58 516.658 1866.58 518.481V537H1863.42V532.685H1863.22C1862.84 533.49 1862.28 534.272 1861.54 535.029C1860.79 535.787 1859.85 536.408 1858.73 536.893C1857.61 537.379 1856.29 537.621 1854.77 537.621ZM1855.2 534.727C1856.88 534.727 1858.33 534.354 1859.56 533.609C1860.8 532.863 1861.74 531.875 1862.41 530.643C1863.08 529.401 1863.42 528.033 1863.42 526.542V522.6C1863.18 522.825 1862.78 523.026 1862.23 523.204C1861.68 523.381 1861.05 523.541 1860.33 523.683C1859.62 523.813 1858.91 523.926 1858.2 524.021C1857.49 524.115 1856.85 524.198 1856.28 524.269C1854.74 524.459 1853.43 524.754 1852.34 525.157C1851.25 525.559 1850.41 526.116 1849.83 526.826C1849.25 527.524 1848.96 528.424 1848.96 529.525C1848.96 531.182 1849.56 532.466 1850.74 533.378C1851.92 534.277 1853.41 534.727 1855.2 534.727ZM1874.99 537V509.727H1878.06V513.918H1878.29C1878.83 512.545 1879.78 511.438 1881.13 510.597C1882.49 509.745 1884.03 509.319 1885.75 509.319C1886.01 509.319 1886.3 509.325 1886.62 509.337C1886.93 509.348 1887.2 509.36 1887.41 509.372V512.586C1887.27 512.562 1887.02 512.527 1886.67 512.479C1886.31 512.432 1885.93 512.408 1885.51 512.408C1884.09 512.408 1882.83 512.71 1881.71 513.314C1880.61 513.906 1879.74 514.728 1879.1 515.782C1878.47 516.835 1878.15 518.037 1878.15 519.386V537H1874.99ZM1905.26 509.727V512.479H1892.24V509.727H1905.26ZM1896.31 503.193H1899.49V529.88C1899.49 531.016 1899.68 531.91 1900.07 532.561C1900.46 533.2 1900.97 533.656 1901.6 533.928C1902.23 534.189 1902.9 534.319 1903.61 534.319C1904.02 534.319 1904.38 534.295 1904.67 534.248C1904.97 534.189 1905.23 534.129 1905.45 534.07L1906.13 536.929C1905.82 537.047 1905.44 537.154 1904.99 537.249C1904.54 537.355 1903.99 537.408 1903.32 537.408C1902.16 537.408 1901.04 537.154 1899.97 536.645C1898.9 536.136 1898.03 535.378 1897.34 534.372C1896.65 533.366 1896.31 532.117 1896.31 530.626V503.193ZM1926.37 537V534.567L1938.25 521.215C1939.8 519.463 1941.05 517.966 1942 516.723C1942.95 515.48 1943.63 514.332 1944.06 513.278C1944.5 512.225 1944.72 511.13 1944.72 509.994C1944.72 508.609 1944.39 507.401 1943.74 506.371C1943.1 505.33 1942.22 504.519 1941.09 503.939C1939.97 503.359 1938.7 503.069 1937.29 503.069C1935.8 503.069 1934.49 503.388 1933.37 504.028C1932.26 504.667 1931.39 505.543 1930.78 506.656C1930.16 507.768 1929.85 509.047 1929.85 510.491H1926.68C1926.68 508.478 1927.14 506.697 1928.06 505.146C1929 503.584 1930.27 502.359 1931.88 501.471C1933.5 500.583 1935.34 500.139 1937.38 500.139C1939.41 500.139 1941.21 500.577 1942.78 501.453C1944.36 502.317 1945.59 503.495 1946.49 504.987C1947.39 506.478 1947.84 508.147 1947.84 509.994C1947.84 511.331 1947.6 512.627 1947.13 513.882C1946.67 515.137 1945.87 516.534 1944.73 518.072C1943.6 519.611 1942.02 521.493 1940.01 523.719L1930.99 533.786V534.017H1948.98V537H1926.37Z" fill="white"/>
</svg>
