<svg width="448" height="512" viewBox="0 0 448 512" fill="none" xmlns="http://www.w3.org/2000/svg">
<path d="M0 64C0 46.3 14.3 32 32 32C261.8 32 448 218.2 448 448C448 465.7 433.7 480 416 480C398.3 480 384 465.7 384 448C384 253.6 226.4 96 32 96C14.3 96 0 81.7 0 64ZM0 416C0 399.026 6.74284 382.748 18.7452 370.745C30.7475 358.743 47.0261 352 64 352C80.9739 352 97.2525 358.743 109.255 370.745C121.257 382.748 128 399.026 128 416C128 432.974 121.257 449.252 109.255 461.255C97.2525 473.257 80.9739 480 64 480C47.0261 480 30.7475 473.257 18.7452 461.255C6.74284 449.252 0 432.974 0 416ZM32 160C191.1 160 320 288.9 320 448C320 465.7 305.7 480 288 480C270.3 480 256 465.7 256 448C256 324.3 155.7 224 32 224C14.3 224 0 209.7 0 192C0 174.3 14.3 160 32 160Z" fill="white"/>
</svg>
