<svg width="2649" height="857" viewBox="0 0 2649 857" fill="none" xmlns="http://www.w3.org/2000/svg">
<rect width="2649" height="857" fill="url(#paint0_linear_434_2)"/>
<path d="M965.993 289.455C965.591 285.406 963.804 282.187 960.631 279.795C957.459 277.404 953.47 276.209 948.664 276.209C945.278 276.209 942.296 276.789 939.715 277.949C937.158 279.109 935.146 280.719 933.678 282.778C932.234 284.814 931.512 287.134 931.512 289.739C931.512 291.656 931.926 293.337 932.755 294.781C933.583 296.225 934.696 297.468 936.093 298.51C937.513 299.528 939.076 300.404 940.78 301.138C942.509 301.872 944.249 302.487 946.001 302.984L953.671 305.186C955.991 305.825 958.311 306.642 960.631 307.636C962.951 308.631 965.07 309.885 966.988 311.401C968.929 312.892 970.48 314.727 971.64 316.905C972.823 319.059 973.415 321.652 973.415 324.682C973.415 328.564 972.409 332.056 970.397 335.158C968.385 338.259 965.496 340.721 961.732 342.544C957.968 344.343 953.458 345.243 948.202 345.243C943.254 345.243 938.957 344.426 935.312 342.793C931.666 341.135 928.801 338.851 926.718 335.939C924.635 333.027 923.463 329.653 923.202 325.818H930.02C930.257 328.683 931.204 331.109 932.861 333.098C934.519 335.087 936.673 336.602 939.324 337.643C941.976 338.661 944.935 339.17 948.202 339.17C951.824 339.17 955.044 338.567 957.861 337.359C960.702 336.128 962.928 334.424 964.537 332.246C966.171 330.044 966.988 327.487 966.988 324.575C966.988 322.113 966.349 320.054 965.07 318.396C963.792 316.715 962.004 315.307 959.708 314.17C957.435 313.034 954.796 312.028 951.789 311.152L943.089 308.595C937.383 306.891 932.956 304.535 929.807 301.528C926.659 298.522 925.084 294.687 925.084 290.023C925.084 286.116 926.126 282.684 928.209 279.724C930.316 276.741 933.157 274.421 936.732 272.764C940.331 271.083 944.367 270.243 948.841 270.243C953.363 270.243 957.364 271.071 960.844 272.729C964.324 274.386 967.082 276.67 969.118 279.582C971.178 282.471 972.279 285.761 972.421 289.455H965.993ZM1009.57 289.455V294.959H983.536V289.455H1009.57ZM991.668 276.386H998.025V329.76C998.025 332.033 998.415 333.82 999.197 335.122C999.978 336.401 1001 337.312 1002.25 337.857C1003.51 338.377 1004.84 338.638 1006.26 338.638C1007.09 338.638 1007.8 338.59 1008.39 338.496C1008.99 338.377 1009.51 338.259 1009.96 338.141L1011.31 343.858C1010.69 344.095 1009.93 344.308 1009.03 344.497C1008.13 344.71 1007.02 344.817 1005.7 344.817C1003.38 344.817 1001.14 344.308 998.983 343.29C996.853 342.272 995.101 340.757 993.728 338.744C992.355 336.732 991.668 334.234 991.668 331.251V276.386ZM1039.16 345.243C1035.86 345.243 1032.86 344.604 1030.14 343.325C1027.41 342.023 1025.25 340.153 1023.64 337.714C1022.03 335.252 1021.22 332.269 1021.22 328.766C1021.22 326.067 1021.73 323.794 1022.75 321.947C1023.77 320.101 1025.21 318.586 1027.08 317.402C1028.95 316.218 1031.17 315.283 1033.72 314.597C1036.28 313.91 1039.1 313.377 1042.17 312.999C1045.23 312.62 1047.81 312.288 1049.92 312.004C1052.05 311.72 1053.67 311.27 1054.78 310.655C1055.89 310.039 1056.45 309.045 1056.45 307.672V306.393C1056.45 302.677 1055.34 299.753 1053.11 297.622C1050.91 295.468 1047.74 294.391 1043.59 294.391C1039.66 294.391 1036.46 295.255 1033.97 296.983C1031.51 298.711 1029.78 300.747 1028.79 303.091L1022.78 300.925C1024.02 297.942 1025.72 295.562 1027.9 293.787C1030.08 291.988 1032.52 290.697 1035.21 289.916C1037.91 289.111 1040.65 288.709 1043.42 288.709C1045.5 288.709 1047.67 288.981 1049.92 289.526C1052.19 290.07 1054.3 291.017 1056.24 292.366C1058.18 293.692 1059.75 295.551 1060.96 297.942C1062.17 300.309 1062.77 303.316 1062.77 306.962V344H1056.45V335.371H1056.06C1055.3 336.981 1054.18 338.543 1052.69 340.058C1051.19 341.573 1049.32 342.816 1047.07 343.787C1044.83 344.758 1042.19 345.243 1039.16 345.243ZM1040.01 339.455C1043.37 339.455 1046.28 338.709 1048.74 337.217C1051.21 335.726 1053.1 333.749 1054.43 331.287C1055.78 328.801 1056.45 326.067 1056.45 323.084V315.2C1055.98 315.65 1055.18 316.053 1054.07 316.408C1052.98 316.763 1051.71 317.082 1050.27 317.366C1048.85 317.627 1047.43 317.852 1046.01 318.041C1044.59 318.231 1043.31 318.396 1042.17 318.538C1039.1 318.917 1036.47 319.509 1034.29 320.314C1032.11 321.119 1030.44 322.232 1029.28 323.652C1028.12 325.049 1027.54 326.848 1027.54 329.05C1027.54 332.364 1028.73 334.933 1031.09 336.756C1033.46 338.555 1036.43 339.455 1040.01 339.455ZM1101.07 289.455V294.959H1075.04V289.455H1101.07ZM1083.17 276.386H1089.53V329.76C1089.53 332.033 1089.92 333.82 1090.7 335.122C1091.48 336.401 1092.5 337.312 1093.75 337.857C1095.01 338.377 1096.35 338.638 1097.77 338.638C1098.6 338.638 1099.31 338.59 1099.9 338.496C1100.49 338.377 1101.01 338.259 1101.46 338.141L1102.81 343.858C1102.19 344.095 1101.44 344.308 1100.54 344.497C1099.64 344.71 1098.52 344.817 1097.2 344.817C1094.88 344.817 1092.64 344.308 1090.49 343.29C1088.36 342.272 1086.6 340.757 1085.23 338.744C1083.86 336.732 1083.17 334.234 1083.17 331.251V276.386ZM1115.5 344V289.455H1121.85V344H1115.5ZM1118.73 280.08C1117.43 280.08 1116.31 279.642 1115.39 278.766C1114.47 277.866 1114 276.789 1114 275.534C1114 274.279 1114.47 273.214 1115.39 272.338C1116.31 271.438 1117.43 270.989 1118.73 270.989C1120.03 270.989 1121.14 271.438 1122.07 272.338C1122.99 273.214 1123.45 274.279 1123.45 275.534C1123.45 276.789 1122.99 277.866 1122.07 278.766C1121.14 279.642 1120.03 280.08 1118.73 280.08ZM1159.88 345.136C1155 345.136 1150.75 343.917 1147.13 341.479C1143.53 339.04 1140.74 335.702 1138.75 331.464C1136.76 327.227 1135.76 322.397 1135.76 316.976C1135.76 311.507 1136.77 306.642 1138.78 302.381C1140.82 298.119 1143.64 294.781 1147.23 292.366C1150.83 289.928 1155.01 288.709 1159.77 288.709C1163.42 288.709 1166.72 289.419 1169.68 290.839C1172.64 292.236 1175.08 294.213 1176.99 296.77C1178.93 299.303 1180.15 302.262 1180.65 305.648H1174.26C1173.6 302.57 1172 299.942 1169.46 297.764C1166.96 295.562 1163.76 294.462 1159.88 294.462C1156.4 294.462 1153.32 295.409 1150.64 297.303C1147.97 299.173 1145.87 301.789 1144.36 305.151C1142.87 308.489 1142.12 312.359 1142.12 316.763C1142.12 321.19 1142.85 325.108 1144.32 328.517C1145.79 331.902 1147.85 334.554 1150.5 336.472C1153.18 338.389 1156.3 339.348 1159.88 339.348C1162.29 339.348 1164.49 338.898 1166.48 337.999C1168.49 337.075 1170.17 335.773 1171.52 334.092C1172.9 332.411 1173.82 330.411 1174.29 328.091H1180.69C1180.21 331.382 1179.04 334.317 1177.17 336.898C1175.32 339.455 1172.92 341.467 1169.96 342.935C1167.03 344.402 1163.66 345.136 1159.88 345.136ZM1223.67 344V271.273H1265.75V277.239H1230.31V304.618H1262.45V310.584H1230.31V344H1223.67ZM1280.37 344V289.455H1286.51V297.835H1286.97C1288.06 295.089 1289.95 292.875 1292.65 291.195C1295.38 289.49 1298.45 288.638 1301.89 288.638C1302.41 288.638 1302.99 288.65 1303.63 288.673C1304.27 288.697 1304.8 288.721 1305.22 288.744V295.172C1304.94 295.125 1304.44 295.054 1303.73 294.959C1303.02 294.864 1302.25 294.817 1301.42 294.817C1298.58 294.817 1296.05 295.42 1293.83 296.628C1291.62 297.812 1289.88 299.457 1288.61 301.564C1287.33 303.671 1286.69 306.074 1286.69 308.773V344H1280.37ZM1331.25 345.243C1327.95 345.243 1324.95 344.604 1322.23 343.325C1319.5 342.023 1317.34 340.153 1315.73 337.714C1314.12 335.252 1313.31 332.269 1313.31 328.766C1313.31 326.067 1313.82 323.794 1314.84 321.947C1315.86 320.101 1317.3 318.586 1319.17 317.402C1321.04 316.218 1323.26 315.283 1325.81 314.597C1328.37 313.91 1331.19 313.377 1334.26 312.999C1337.32 312.62 1339.9 312.288 1342.01 312.004C1344.14 311.72 1345.76 311.27 1346.87 310.655C1347.98 310.039 1348.54 309.045 1348.54 307.672V306.393C1348.54 302.677 1347.43 299.753 1345.2 297.622C1343 295.468 1339.83 294.391 1335.68 294.391C1331.75 294.391 1328.55 295.255 1326.06 296.983C1323.6 298.711 1321.87 300.747 1320.88 303.091L1314.87 300.925C1316.11 297.942 1317.81 295.562 1319.99 293.787C1322.17 291.988 1324.6 290.697 1327.3 289.916C1330 289.111 1332.74 288.709 1335.51 288.709C1337.59 288.709 1339.76 288.981 1342.01 289.526C1344.28 290.07 1346.39 291.017 1348.33 292.366C1350.27 293.692 1351.84 295.551 1353.05 297.942C1354.26 300.309 1354.86 303.316 1354.86 306.962V344H1348.54V335.371H1348.15C1347.39 336.981 1346.27 338.543 1344.78 340.058C1343.28 341.573 1341.41 342.816 1339.16 343.787C1336.92 344.758 1334.28 345.243 1331.25 345.243ZM1332.1 339.455C1335.46 339.455 1338.37 338.709 1340.83 337.217C1343.3 335.726 1345.19 333.749 1346.52 331.287C1347.86 328.801 1348.54 326.067 1348.54 323.084V315.2C1348.07 315.65 1347.27 316.053 1346.16 316.408C1345.07 316.763 1343.8 317.082 1342.36 317.366C1340.94 317.627 1339.52 317.852 1338.1 318.041C1336.68 318.231 1335.4 318.396 1334.26 318.538C1331.19 318.917 1328.56 319.509 1326.38 320.314C1324.2 321.119 1322.53 322.232 1321.37 323.652C1320.21 325.049 1319.63 326.848 1319.63 329.05C1319.63 332.364 1320.82 334.933 1323.18 336.756C1325.55 338.555 1328.52 339.455 1332.1 339.455ZM1371.68 344V289.455H1377.82V297.835H1378.39C1379.48 295.018 1381.29 292.804 1383.82 291.195C1386.38 289.561 1389.44 288.744 1393.02 288.744C1396.78 288.744 1399.87 289.632 1402.29 291.408C1404.72 293.16 1406.55 295.574 1407.75 298.652H1408.22C1409.45 295.622 1411.45 293.219 1414.22 291.443C1417.01 289.644 1420.4 288.744 1424.37 288.744C1429.44 288.744 1433.44 290.342 1436.38 293.538C1439.31 296.711 1440.78 301.351 1440.78 307.459V344H1434.46V307.459C1434.46 303.15 1433.36 299.919 1431.16 297.764C1428.96 295.61 1426.05 294.533 1422.46 294.533C1418.29 294.533 1415.08 295.811 1412.83 298.368C1410.58 300.925 1409.46 304.168 1409.46 308.098V344H1403V306.891C1403 303.197 1401.97 300.214 1399.91 297.942C1397.85 295.669 1394.95 294.533 1391.21 294.533C1388.7 294.533 1386.44 295.148 1384.42 296.379C1382.44 297.61 1380.86 299.327 1379.7 301.528C1378.56 303.706 1378 306.216 1378 309.057V344H1371.68ZM1479.57 345.136C1474.48 345.136 1470.07 343.953 1466.36 341.585C1462.64 339.194 1459.76 335.892 1457.73 331.678C1455.72 327.44 1454.71 322.563 1454.71 317.047C1454.71 311.554 1455.72 306.678 1457.73 302.416C1459.76 298.131 1462.57 294.781 1466.14 292.366C1469.74 289.928 1473.9 288.709 1478.61 288.709C1481.57 288.709 1484.42 289.253 1487.17 290.342C1489.91 291.408 1492.38 293.053 1494.55 295.278C1496.76 297.48 1498.5 300.262 1499.77 303.624C1501.05 306.962 1501.69 310.915 1501.69 315.484V318.609H1459.08V313.034H1495.23C1495.23 309.53 1494.52 306.382 1493.1 303.588C1491.7 300.771 1489.75 298.545 1487.24 296.912C1484.75 295.278 1481.88 294.462 1478.61 294.462C1475.15 294.462 1472.11 295.385 1469.48 297.232C1466.85 299.078 1464.79 301.517 1463.3 304.547C1461.84 307.577 1461.09 310.892 1461.07 314.49V317.828C1461.07 322.161 1461.81 325.948 1463.3 329.192C1464.82 332.411 1466.96 334.909 1469.73 336.685C1472.5 338.46 1475.78 339.348 1479.57 339.348C1482.15 339.348 1484.41 338.946 1486.35 338.141C1488.32 337.336 1489.96 336.259 1491.29 334.909C1492.64 333.536 1493.65 332.033 1494.34 330.399L1500.34 332.352C1499.51 334.649 1498.15 336.768 1496.26 338.709C1494.39 340.65 1492.04 342.213 1489.23 343.396C1486.43 344.556 1483.21 345.136 1479.57 345.136ZM1527.73 344L1511.25 289.455H1517.93L1530.85 334.447H1531.32L1544.21 289.455H1550.92L1563.7 334.341H1564.2L1577.13 289.455H1583.8L1567.33 344H1560.79L1547.86 299.291H1547.19L1534.26 344H1527.73ZM1615.43 345.136C1610.72 345.136 1606.56 343.941 1602.93 341.55C1599.34 339.159 1596.52 335.856 1594.48 331.642C1592.45 327.404 1591.43 322.516 1591.43 316.976C1591.43 311.389 1592.45 306.476 1594.48 302.239C1596.52 297.977 1599.34 294.663 1602.93 292.295C1606.56 289.904 1610.72 288.709 1615.43 288.709C1620.15 288.709 1624.3 289.904 1627.9 292.295C1631.5 294.687 1634.31 298.001 1636.35 302.239C1638.41 306.476 1639.44 311.389 1639.44 316.976C1639.44 322.516 1638.42 327.404 1636.39 331.642C1634.35 335.856 1631.52 339.159 1627.9 341.55C1624.3 343.941 1620.15 345.136 1615.43 345.136ZM1615.43 339.348C1619.22 339.348 1622.43 338.33 1625.06 336.294C1627.69 334.258 1629.67 331.547 1631.02 328.162C1632.4 324.777 1633.08 321.048 1633.08 316.976C1633.08 312.904 1632.4 309.163 1631.02 305.754C1629.67 302.345 1627.69 299.611 1625.06 297.551C1622.43 295.491 1619.22 294.462 1615.43 294.462C1611.67 294.462 1608.46 295.491 1605.81 297.551C1603.18 299.611 1601.18 302.345 1599.81 305.754C1598.46 309.163 1597.78 312.904 1597.78 316.976C1597.78 321.048 1598.46 324.777 1599.81 328.162C1601.18 331.547 1603.18 334.258 1605.81 336.294C1608.44 338.33 1611.65 339.348 1615.43 339.348ZM1653.32 344V289.455H1659.46V297.835H1659.92C1661.01 295.089 1662.9 292.875 1665.6 291.195C1668.33 289.49 1671.4 288.638 1674.84 288.638C1675.36 288.638 1675.94 288.65 1676.58 288.673C1677.22 288.697 1677.75 288.721 1678.17 288.744V295.172C1677.89 295.125 1677.39 295.054 1676.68 294.959C1675.97 294.864 1675.2 294.817 1674.37 294.817C1671.53 294.817 1669 295.42 1666.77 296.628C1664.57 297.812 1662.83 299.457 1661.55 301.564C1660.28 303.671 1659.64 306.074 1659.64 308.773V344H1653.32ZM1694.71 323.403L1694.64 315.129H1696.06L1721.63 289.455H1729.62L1704.37 314.739L1703.8 314.845L1694.71 323.403ZM1688.96 344V271.273H1695.28V344H1688.96ZM1722.94 344L1700.79 315.982L1705.33 311.614L1731.04 344H1722.94ZM1321.75 465.994C1317.28 465.994 1313.37 465.13 1310.03 463.402C1306.69 461.65 1304.1 459.271 1302.25 456.264C1300.41 453.258 1299.49 449.86 1299.49 446.072C1299.49 443.326 1300.04 440.852 1301.15 438.651C1302.29 436.425 1303.92 434.318 1306.05 432.33C1308.19 430.317 1310.77 428.234 1313.8 426.08L1324.34 418.232C1326.85 416.432 1328.76 414.669 1330.06 412.94C1331.39 411.188 1332.05 409.046 1332.05 406.513C1332.05 404.074 1331.13 401.896 1329.28 399.979C1327.46 398.037 1325.09 397.067 1322.18 397.067C1320.14 397.067 1318.32 397.576 1316.71 398.594C1315.12 399.612 1313.86 400.937 1312.91 402.571C1311.99 404.181 1311.52 405.874 1311.52 407.649C1311.52 409.306 1311.95 410.975 1312.8 412.656C1313.65 414.313 1314.8 416.065 1316.25 417.912C1317.69 419.735 1319.3 421.747 1321.08 423.949L1354.31 465H1346.64L1317.67 429.453C1315.23 426.47 1313.06 423.807 1311.17 421.463C1309.27 419.096 1307.78 416.823 1306.69 414.645C1305.6 412.443 1305.06 410.088 1305.06 407.578C1305.06 404.477 1305.78 401.719 1307.23 399.304C1308.67 396.866 1310.66 394.948 1313.19 393.551C1315.75 392.154 1318.67 391.456 1321.96 391.456C1325.33 391.456 1328.24 392.143 1330.7 393.516C1333.19 394.889 1335.1 396.712 1336.45 398.984C1337.83 401.257 1338.51 403.767 1338.51 406.513C1338.51 409.804 1337.66 412.715 1335.96 415.249C1334.27 417.782 1331.82 420.268 1328.6 422.706L1315.39 432.578C1311.77 435.301 1309.29 437.822 1307.94 440.142C1306.59 442.462 1305.91 444.439 1305.91 446.072C1305.91 448.629 1306.58 450.985 1307.9 453.139C1309.23 455.294 1311.06 457.022 1313.41 458.324C1315.77 459.626 1318.48 460.289 1321.54 460.312C1324.57 460.289 1327.42 459.685 1330.1 458.501C1332.77 457.294 1335.16 455.578 1337.27 453.352C1339.4 451.127 1341.1 448.464 1342.38 445.362C1343.68 442.261 1344.44 438.804 1344.66 434.993L1350.8 435.064C1350.7 438.97 1350.17 442.285 1349.2 445.007C1348.25 447.706 1347.17 449.931 1345.93 451.683C1344.7 453.435 1343.63 454.844 1342.7 455.909C1342.44 456.264 1342.18 456.619 1341.92 456.974C1341.66 457.33 1341.39 457.685 1341.1 458.04C1338.74 460.644 1335.79 462.621 1332.26 463.97C1328.76 465.32 1325.25 465.994 1321.75 465.994ZM880.038 586H858.731V513.273H881.317C888.253 513.273 894.184 514.717 899.108 517.605C904.056 520.493 907.844 524.636 910.471 530.034C913.099 535.432 914.413 541.907 914.413 549.459C914.413 557.082 913.064 563.628 910.365 569.097C907.69 574.542 903.783 578.72 898.646 581.632C893.532 584.544 887.33 586 880.038 586ZM865.372 580.034H879.648C885.898 580.034 891.13 578.803 895.344 576.341C899.558 573.879 902.718 570.363 904.825 565.794C906.932 561.225 907.986 555.78 907.986 549.459C907.962 543.185 906.92 537.787 904.861 533.266C902.825 528.744 899.794 525.276 895.77 522.861C891.769 520.446 886.821 519.239 880.926 519.239H865.372V580.034ZM933.598 606.455C932.343 606.455 931.172 606.336 930.083 606.099C928.994 605.863 928.129 605.602 927.49 605.318L929.195 599.743C931.349 600.406 933.267 600.643 934.948 600.453C936.628 600.287 938.12 599.53 939.422 598.18C940.724 596.855 941.884 594.819 942.902 592.072L944.891 586.533L924.827 531.455H931.681L947.874 577.655H948.371L964.564 531.455H971.418L948.335 594.629C947.365 597.257 946.169 599.447 944.749 601.199C943.328 602.974 941.683 604.288 939.813 605.141C937.966 606.017 935.895 606.455 933.598 606.455ZM990.106 551.909V586H983.785V531.455H989.928V540.013H990.496C991.775 537.219 993.763 534.982 996.462 533.301C999.185 531.597 1002.55 530.744 1006.55 530.744C1010.22 530.744 1013.44 531.514 1016.21 533.053C1019 534.568 1021.17 536.805 1022.71 539.764C1024.27 542.723 1025.05 546.357 1025.05 550.666V586H1018.73V551.057C1018.73 546.582 1017.47 543.043 1014.96 540.439C1012.48 537.835 1009.14 536.533 1004.95 536.533C1002.08 536.533 999.54 537.148 997.314 538.379C995.089 539.61 993.325 541.386 992.023 543.706C990.745 546.002 990.106 548.737 990.106 551.909ZM1056.93 587.243C1053.64 587.243 1050.63 586.604 1047.91 585.325C1045.19 584.023 1043.02 582.153 1041.41 579.714C1039.8 577.252 1039 574.269 1039 570.766C1039 568.067 1039.5 565.794 1040.52 563.947C1041.54 562.101 1042.99 560.586 1044.86 559.402C1046.73 558.218 1048.94 557.283 1051.5 556.597C1054.05 555.91 1056.87 555.377 1059.95 554.999C1063 554.62 1065.58 554.288 1067.69 554.004C1069.82 553.72 1071.44 553.27 1072.55 552.655C1073.67 552.039 1074.22 551.045 1074.22 549.672V548.393C1074.22 544.677 1073.11 541.753 1070.89 539.622C1068.68 537.468 1065.51 536.391 1061.37 536.391C1057.44 536.391 1054.23 537.255 1051.74 538.983C1049.28 540.711 1047.55 542.747 1046.56 545.091L1040.56 542.925C1041.79 539.942 1043.49 537.562 1045.67 535.787C1047.85 533.988 1050.29 532.697 1052.99 531.916C1055.69 531.111 1058.42 530.709 1061.19 530.709C1063.27 530.709 1065.44 530.981 1067.69 531.526C1069.96 532.07 1072.07 533.017 1074.01 534.366C1075.95 535.692 1077.53 537.551 1078.73 539.942C1079.94 542.309 1080.54 545.316 1080.54 548.962V586H1074.22V577.371H1073.83C1073.07 578.981 1071.95 580.543 1070.46 582.058C1068.97 583.573 1067.1 584.816 1064.85 585.787C1062.6 586.758 1059.96 587.243 1056.93 587.243ZM1057.78 581.455C1061.14 581.455 1064.06 580.709 1066.52 579.217C1068.98 577.726 1070.87 575.749 1072.2 573.287C1073.55 570.801 1074.22 568.067 1074.22 565.084V557.2C1073.75 557.65 1072.96 558.053 1071.84 558.408C1070.75 558.763 1069.49 559.082 1068.04 559.366C1066.62 559.627 1065.2 559.852 1063.78 560.041C1062.36 560.231 1061.08 560.396 1059.95 560.538C1056.87 560.917 1054.24 561.509 1052.06 562.314C1049.89 563.119 1048.22 564.232 1047.06 565.652C1045.9 567.049 1045.32 568.848 1045.32 571.05C1045.32 574.364 1046.5 576.933 1048.87 578.756C1051.24 580.555 1054.21 581.455 1057.78 581.455ZM1097.36 586V531.455H1103.5V539.835H1104.07C1105.16 537.018 1106.97 534.804 1109.5 533.195C1112.06 531.561 1115.13 530.744 1118.7 530.744C1122.47 530.744 1125.55 531.632 1127.97 533.408C1130.41 535.16 1132.23 537.574 1133.44 540.652H1133.9C1135.13 537.622 1137.13 535.219 1139.9 533.443C1142.7 531.644 1146.08 530.744 1150.06 530.744C1155.12 530.744 1159.12 532.342 1162.06 535.538C1165 538.711 1166.46 543.351 1166.46 549.459V586H1160.14V549.459C1160.14 545.15 1159.04 541.919 1156.84 539.764C1154.64 537.61 1151.74 536.533 1148.14 536.533C1143.97 536.533 1140.77 537.811 1138.52 540.368C1136.27 542.925 1135.14 546.168 1135.14 550.098V586H1128.68V548.891C1128.68 545.197 1127.65 542.214 1125.59 539.942C1123.53 537.669 1120.63 536.533 1116.89 536.533C1114.38 536.533 1112.12 537.148 1110.11 538.379C1108.12 539.61 1106.54 541.327 1105.38 543.528C1104.25 545.706 1103.68 548.216 1103.68 551.057V586H1097.36ZM1183.27 586V531.455H1189.63V586H1183.27ZM1186.5 522.08C1185.2 522.08 1184.09 521.642 1183.16 520.766C1182.24 519.866 1181.78 518.789 1181.78 517.534C1181.78 516.279 1182.24 515.214 1183.16 514.338C1184.09 513.438 1185.2 512.989 1186.5 512.989C1187.8 512.989 1188.92 513.438 1189.84 514.338C1190.76 515.214 1191.22 516.279 1191.22 517.534C1191.22 518.789 1190.76 519.866 1189.84 520.766C1188.92 521.642 1187.8 522.08 1186.5 522.08ZM1227.65 587.136C1222.77 587.136 1218.52 585.917 1214.9 583.479C1211.3 581.04 1208.51 577.702 1206.52 573.464C1204.53 569.227 1203.54 564.397 1203.54 558.976C1203.54 553.507 1204.54 548.642 1206.56 544.381C1208.59 540.119 1211.41 536.781 1215.01 534.366C1218.61 531.928 1222.78 530.709 1227.54 530.709C1231.19 530.709 1234.49 531.419 1237.45 532.839C1240.41 534.236 1242.85 536.213 1244.77 538.77C1246.71 541.303 1247.93 544.262 1248.42 547.648H1242.03C1241.37 544.57 1239.77 541.942 1237.24 539.764C1234.73 537.562 1231.53 536.462 1227.65 536.462C1224.17 536.462 1221.09 537.409 1218.42 539.303C1215.74 541.173 1213.65 543.789 1212.13 547.151C1210.64 550.489 1209.89 554.359 1209.89 558.763C1209.89 563.19 1210.63 567.108 1212.1 570.517C1213.56 573.902 1215.62 576.554 1218.28 578.472C1220.95 580.389 1224.08 581.348 1227.65 581.348C1230.06 581.348 1232.27 580.898 1234.26 579.999C1236.27 579.075 1237.95 577.773 1239.3 576.092C1240.67 574.411 1241.59 572.411 1242.07 570.091H1248.46C1247.99 573.382 1246.81 576.317 1244.94 578.898C1243.1 581.455 1240.69 583.467 1237.74 584.935C1234.8 586.402 1231.44 587.136 1227.65 587.136ZM1291.45 586V513.273H1333.53V519.239H1298.09V546.618H1330.22V552.584H1298.09V586H1291.45ZM1348.14 586V531.455H1354.28V539.835H1354.75C1355.83 537.089 1357.73 534.875 1360.43 533.195C1363.15 531.49 1366.23 530.638 1369.66 530.638C1370.18 530.638 1370.76 530.65 1371.4 530.673C1372.04 530.697 1372.57 530.721 1373 530.744V537.172C1372.71 537.125 1372.22 537.054 1371.51 536.959C1370.8 536.864 1370.03 536.817 1369.2 536.817C1366.36 536.817 1363.82 537.42 1361.6 538.628C1359.4 539.812 1357.66 541.457 1356.38 543.564C1355.1 545.671 1354.46 548.074 1354.46 550.773V586H1348.14ZM1399.02 587.243C1395.73 587.243 1392.72 586.604 1390 585.325C1387.28 584.023 1385.11 582.153 1383.5 579.714C1381.89 577.252 1381.09 574.269 1381.09 570.766C1381.09 568.067 1381.59 565.794 1382.61 563.947C1383.63 562.101 1385.07 560.586 1386.95 559.402C1388.82 558.218 1391.03 557.283 1393.59 556.597C1396.14 555.91 1398.96 555.377 1402.04 554.999C1405.09 554.62 1407.67 554.288 1409.78 554.004C1411.91 553.72 1413.53 553.27 1414.64 552.655C1415.76 552.039 1416.31 551.045 1416.31 549.672V548.393C1416.31 544.677 1415.2 541.753 1412.97 539.622C1410.77 537.468 1407.6 536.391 1403.46 536.391C1399.53 536.391 1396.32 537.255 1393.83 538.983C1391.37 540.711 1389.64 542.747 1388.65 545.091L1382.65 542.925C1383.88 539.942 1385.58 537.562 1387.76 535.787C1389.94 533.988 1392.38 532.697 1395.08 531.916C1397.78 531.111 1400.51 530.709 1403.28 530.709C1405.36 530.709 1407.53 530.981 1409.78 531.526C1412.05 532.07 1414.16 533.017 1416.1 534.366C1418.04 535.692 1419.62 537.551 1420.82 539.942C1422.03 542.309 1422.63 545.316 1422.63 548.962V586H1416.31V577.371H1415.92C1415.16 578.981 1414.04 580.543 1412.55 582.058C1411.06 583.573 1409.19 584.816 1406.94 585.787C1404.69 586.758 1402.05 587.243 1399.02 587.243ZM1399.87 581.455C1403.23 581.455 1406.14 580.709 1408.61 579.217C1411.07 577.726 1412.96 575.749 1414.29 573.287C1415.64 570.801 1416.31 568.067 1416.31 565.084V557.2C1415.84 557.65 1415.05 558.053 1413.93 558.408C1412.84 558.763 1411.58 559.082 1410.13 559.366C1408.71 559.627 1407.29 559.852 1405.87 560.041C1404.45 560.231 1403.17 560.396 1402.04 560.538C1398.96 560.917 1396.33 561.509 1394.15 562.314C1391.98 563.119 1390.31 564.232 1389.15 565.652C1387.99 567.049 1387.41 568.848 1387.41 571.05C1387.41 574.364 1388.59 576.933 1390.96 578.756C1393.33 580.555 1396.3 581.455 1399.87 581.455ZM1439.45 586V531.455H1445.59V539.835H1446.16C1447.25 537.018 1449.06 534.804 1451.59 533.195C1454.15 531.561 1457.22 530.744 1460.79 530.744C1464.56 530.744 1467.64 531.632 1470.06 533.408C1472.5 535.16 1474.32 537.574 1475.53 540.652H1475.99C1477.22 537.622 1479.22 535.219 1481.99 533.443C1484.78 531.644 1488.17 530.744 1492.15 530.744C1497.21 530.744 1501.21 532.342 1504.15 535.538C1507.09 538.711 1508.55 543.351 1508.55 549.459V586H1502.23V549.459C1502.23 545.15 1501.13 541.919 1498.93 539.764C1496.73 537.61 1493.83 536.533 1490.23 536.533C1486.06 536.533 1482.86 537.811 1480.61 540.368C1478.36 542.925 1477.23 546.168 1477.23 550.098V586H1470.77V548.891C1470.77 545.197 1469.74 542.214 1467.68 539.942C1465.62 537.669 1462.72 536.533 1458.98 536.533C1456.47 536.533 1454.21 537.148 1452.2 538.379C1450.21 539.61 1448.63 541.327 1447.47 543.528C1446.34 545.706 1445.77 548.216 1445.77 551.057V586H1439.45ZM1547.34 587.136C1542.25 587.136 1537.85 585.953 1534.13 583.585C1530.41 581.194 1527.54 577.892 1525.5 573.678C1523.49 569.44 1522.48 564.563 1522.48 559.047C1522.48 553.554 1523.49 548.678 1525.5 544.416C1527.54 540.131 1530.34 536.781 1533.92 534.366C1537.52 531.928 1541.67 530.709 1546.38 530.709C1549.34 530.709 1552.19 531.253 1554.94 532.342C1557.69 533.408 1560.15 535.053 1562.33 537.278C1564.53 539.48 1566.27 542.262 1567.55 545.624C1568.83 548.962 1569.46 552.915 1569.46 557.484V560.609H1526.85V555.034H1563C1563 551.53 1562.29 548.382 1560.87 545.588C1559.47 542.771 1557.52 540.545 1555.01 538.912C1552.53 537.278 1549.65 536.462 1546.38 536.462C1542.93 536.462 1539.88 537.385 1537.26 539.232C1534.63 541.078 1532.57 543.517 1531.08 546.547C1529.61 549.577 1528.86 552.892 1528.84 556.49V559.828C1528.84 564.161 1529.59 567.948 1531.08 571.192C1532.59 574.411 1534.73 576.909 1537.5 578.685C1540.27 580.46 1543.55 581.348 1547.34 581.348C1549.92 581.348 1552.18 580.946 1554.12 580.141C1556.09 579.336 1557.73 578.259 1559.06 576.909C1560.41 575.536 1561.43 574.033 1562.11 572.399L1568.12 574.352C1567.29 576.649 1565.93 578.768 1564.03 580.709C1562.16 582.65 1559.82 584.213 1557 585.396C1554.21 586.556 1550.99 587.136 1547.34 587.136ZM1595.5 586L1579.03 531.455H1585.7L1598.63 576.447H1599.09L1611.98 531.455H1618.69L1631.48 576.341H1631.97L1644.9 531.455H1651.58L1635.1 586H1628.56L1615.64 541.291H1614.96L1602.04 586H1595.5ZM1683.21 587.136C1678.5 587.136 1674.33 585.941 1670.71 583.55C1667.11 581.159 1664.29 577.856 1662.26 573.642C1660.22 569.404 1659.2 564.516 1659.2 558.976C1659.2 553.389 1660.22 548.476 1662.26 544.239C1664.29 539.977 1667.11 536.663 1670.71 534.295C1674.33 531.904 1678.5 530.709 1683.21 530.709C1687.92 530.709 1692.07 531.904 1695.67 534.295C1699.27 536.687 1702.09 540.001 1704.12 544.239C1706.18 548.476 1707.21 553.389 1707.21 558.976C1707.21 564.516 1706.2 569.404 1704.16 573.642C1702.12 577.856 1699.29 581.159 1695.67 583.55C1692.07 585.941 1687.92 587.136 1683.21 587.136ZM1683.21 581.348C1687 581.348 1690.2 580.33 1692.83 578.294C1695.46 576.258 1697.45 573.547 1698.8 570.162C1700.17 566.777 1700.86 563.048 1700.86 558.976C1700.86 554.904 1700.17 551.163 1698.8 547.754C1697.45 544.345 1695.46 541.611 1692.83 539.551C1690.2 537.491 1687 536.462 1683.21 536.462C1679.44 536.462 1676.24 537.491 1673.58 539.551C1670.96 541.611 1668.96 544.345 1667.58 547.754C1666.23 551.163 1665.56 554.904 1665.56 558.976C1665.56 563.048 1666.23 566.777 1667.58 570.162C1668.96 573.547 1670.96 576.258 1673.58 578.294C1676.21 580.33 1679.42 581.348 1683.21 581.348ZM1721.09 586V531.455H1727.23V539.835H1727.69C1728.78 537.089 1730.68 534.875 1733.38 533.195C1736.1 531.49 1739.18 530.638 1742.61 530.638C1743.13 530.638 1743.71 530.65 1744.35 530.673C1744.99 530.697 1745.52 530.721 1745.95 530.744V537.172C1745.66 537.125 1745.17 537.054 1744.46 536.959C1743.75 536.864 1742.98 536.817 1742.15 536.817C1739.31 536.817 1736.77 537.42 1734.55 538.628C1732.35 539.812 1730.61 541.457 1729.33 543.564C1728.05 545.671 1727.41 548.074 1727.41 550.773V586H1721.09ZM1762.49 565.403L1762.42 557.129H1763.84L1789.4 531.455H1797.39L1772.15 556.739L1771.58 556.845L1762.49 565.403ZM1756.73 586V513.273H1763.05V586H1756.73ZM1790.72 586L1768.56 557.982L1773.1 553.614L1798.81 586H1790.72Z" fill="#F1F1F1"/>
<defs>
<linearGradient id="paint0_linear_434_2" x1="434" y1="857" x2="2193.5" y2="857" gradientUnits="userSpaceOnUse">
<stop stop-color="#FF6969"/>
<stop offset="1" stop-color="#555CFF"/>
</linearGradient>
</defs>
</svg>
