<svg width="742" height="378" viewBox="0 0 742 378" fill="none" xmlns="http://www.w3.org/2000/svg">
<rect width="742" height="378" fill="black"/>
<path fill-rule="evenodd" clip-rule="evenodd" d="M297 189C297 209.987 279.987 227 259 227C238.013 227 221 209.987 221 189C221 168.013 238.013 151 259 151C279.987 151 297 168.013 297 189ZM227.175 189H290.825C290.825 171.424 276.576 157.175 259 157.175C241.424 157.175 227.175 171.424 227.175 189Z" fill="white"/>
<path d="M331.347 174.909H336.574V195.364C336.564 197.239 336.167 198.853 335.381 200.207C334.595 201.552 333.496 202.589 332.085 203.318C330.684 204.038 329.05 204.398 327.185 204.398C325.48 204.398 323.946 204.095 322.582 203.489C321.228 202.873 320.153 201.964 319.358 200.761C318.563 199.559 318.165 198.062 318.165 196.273H323.406C323.416 197.059 323.586 197.736 323.918 198.304C324.259 198.872 324.727 199.308 325.324 199.611C325.92 199.914 326.607 200.065 327.384 200.065C328.226 200.065 328.941 199.89 329.528 199.54C330.116 199.18 330.561 198.65 330.864 197.949C331.176 197.248 331.337 196.386 331.347 195.364V174.909ZM342.064 204V182.182H347.206V204H342.064ZM344.649 179.085C343.835 179.085 343.134 178.815 342.547 178.276C341.96 177.726 341.666 177.068 341.666 176.301C341.666 175.525 341.96 174.866 342.547 174.327C343.134 173.777 343.835 173.503 344.649 173.503C345.473 173.503 346.174 173.777 346.751 174.327C347.339 174.866 347.632 175.525 347.632 176.301C347.632 177.068 347.339 177.726 346.751 178.276C346.174 178.815 345.473 179.085 344.649 179.085ZM357.636 191.216V204H352.494V174.909H357.522V185.889H357.778C358.289 184.658 359.08 183.687 360.15 182.977C361.229 182.258 362.603 181.898 364.269 181.898C365.784 181.898 367.105 182.215 368.232 182.849C369.359 183.484 370.23 184.412 370.846 185.634C371.471 186.855 371.783 188.347 371.783 190.108V204H366.641V190.903C366.641 189.436 366.263 188.295 365.505 187.48C364.757 186.656 363.706 186.244 362.352 186.244C361.442 186.244 360.628 186.443 359.908 186.841C359.198 187.229 358.639 187.793 358.232 188.531C357.835 189.27 357.636 190.165 357.636 191.216ZM386.542 204.426C384.411 204.426 382.565 203.957 381.002 203.02C379.44 202.082 378.228 200.771 377.366 199.085C376.513 197.4 376.087 195.43 376.087 193.176C376.087 190.922 376.513 188.948 377.366 187.253C378.228 185.558 379.44 184.241 381.002 183.304C382.565 182.366 384.411 181.898 386.542 181.898C388.673 181.898 390.519 182.366 392.082 183.304C393.644 184.241 394.852 185.558 395.704 187.253C396.566 188.948 396.996 190.922 396.996 193.176C396.996 195.43 396.566 197.4 395.704 199.085C394.852 200.771 393.644 202.082 392.082 203.02C390.519 203.957 388.673 204.426 386.542 204.426ZM386.57 200.307C387.726 200.307 388.692 199.99 389.468 199.355C390.245 198.711 390.822 197.849 391.201 196.77C391.589 195.69 391.783 194.488 391.783 193.162C391.783 191.827 391.589 190.619 391.201 189.54C390.822 188.451 390.245 187.584 389.468 186.94C388.692 186.296 387.726 185.974 386.57 185.974C385.387 185.974 384.402 186.296 383.616 186.94C382.839 187.584 382.257 188.451 381.869 189.54C381.49 190.619 381.3 191.827 381.3 193.162C381.3 194.488 381.49 195.69 381.869 196.77C382.257 197.849 382.839 198.711 383.616 199.355C384.402 199.99 385.387 200.307 386.57 200.307ZM410.878 204.426C408.747 204.426 406.901 203.957 405.338 203.02C403.776 202.082 402.563 200.771 401.702 199.085C400.849 197.4 400.423 195.43 400.423 193.176C400.423 190.922 400.849 188.948 401.702 187.253C402.563 185.558 403.776 184.241 405.338 183.304C406.901 182.366 408.747 181.898 410.878 181.898C413.009 181.898 414.855 182.366 416.418 183.304C417.98 184.241 419.188 185.558 420.04 187.253C420.902 188.948 421.332 190.922 421.332 193.176C421.332 195.43 420.902 197.4 420.04 199.085C419.188 200.771 417.98 202.082 416.418 203.02C414.855 203.957 413.009 204.426 410.878 204.426ZM410.906 200.307C412.062 200.307 413.027 199.99 413.804 199.355C414.58 198.711 415.158 197.849 415.537 196.77C415.925 195.69 416.119 194.488 416.119 193.162C416.119 191.827 415.925 190.619 415.537 189.54C415.158 188.451 414.58 187.584 413.804 186.94C413.027 186.296 412.062 185.974 410.906 185.974C409.723 185.974 408.738 186.296 407.952 186.94C407.175 187.584 406.593 188.451 406.205 189.54C405.826 190.619 405.636 191.827 405.636 193.162C405.636 194.488 405.826 195.69 406.205 196.77C406.593 197.849 407.175 198.711 407.952 199.355C408.738 199.99 409.723 200.307 410.906 200.307ZM430.839 191.216V204H425.697V182.182H430.612V185.889H430.867C431.369 184.668 432.169 183.697 433.268 182.977C434.376 182.258 435.744 181.898 437.373 181.898C438.879 181.898 440.19 182.22 441.308 182.864C442.434 183.508 443.306 184.44 443.921 185.662C444.546 186.884 444.854 188.366 444.844 190.108V204H439.702V190.903C439.702 189.445 439.324 188.304 438.566 187.48C437.818 186.656 436.781 186.244 435.455 186.244C434.556 186.244 433.755 186.443 433.055 186.841C432.363 187.229 431.819 187.793 431.421 188.531C431.033 189.27 430.839 190.165 430.839 191.216ZM461.759 204V182.182H467.526V186.031H467.781C468.236 184.753 468.993 183.744 470.054 183.006C471.115 182.267 472.384 181.898 473.861 181.898C475.357 181.898 476.631 182.272 477.682 183.02C478.733 183.759 479.434 184.762 479.784 186.031H480.011C480.456 184.781 481.261 183.782 482.426 183.034C483.6 182.277 484.988 181.898 486.588 181.898C488.624 181.898 490.277 182.546 491.545 183.844C492.824 185.132 493.463 186.959 493.463 189.327V204H487.426V190.52C487.426 189.308 487.104 188.399 486.46 187.793C485.816 187.187 485.011 186.884 484.045 186.884C482.947 186.884 482.09 187.234 481.474 187.935C480.859 188.626 480.551 189.54 480.551 190.676V204H474.685V190.392C474.685 189.322 474.377 188.47 473.761 187.835C473.155 187.201 472.355 186.884 471.361 186.884C470.688 186.884 470.082 187.054 469.543 187.395C469.012 187.726 468.591 188.195 468.278 188.801C467.966 189.398 467.81 190.098 467.81 190.903V204H461.759ZM508.186 204.426C505.942 204.426 504.01 203.972 502.391 203.062C500.781 202.144 499.54 200.847 498.669 199.17C497.798 197.485 497.362 195.491 497.362 193.19C497.362 190.946 497.798 188.976 498.669 187.281C499.54 185.586 500.767 184.265 502.348 183.318C503.939 182.371 505.804 181.898 507.945 181.898C509.384 181.898 510.724 182.13 511.964 182.594C513.214 183.048 514.304 183.735 515.232 184.653C516.169 185.572 516.898 186.727 517.419 188.119C517.94 189.502 518.2 191.121 518.2 192.977V194.639H499.777V190.889H512.504C512.504 190.018 512.315 189.246 511.936 188.574C511.557 187.902 511.032 187.376 510.359 186.997C509.696 186.609 508.925 186.415 508.044 186.415C507.125 186.415 506.311 186.628 505.601 187.054C504.9 187.471 504.351 188.034 503.953 188.744C503.555 189.445 503.352 190.226 503.342 191.088V194.653C503.342 195.733 503.541 196.666 503.939 197.452C504.346 198.238 504.919 198.844 505.658 199.27C506.396 199.696 507.272 199.909 508.286 199.909C508.958 199.909 509.573 199.814 510.132 199.625C510.691 199.436 511.169 199.152 511.567 198.773C511.964 198.394 512.268 197.93 512.476 197.381L518.072 197.75C517.788 199.095 517.206 200.269 516.325 201.273C515.454 202.267 514.327 203.044 512.945 203.602C511.571 204.152 509.985 204.426 508.186 204.426Z" fill="white"/>
<path d="M453.381 204.369C452.444 204.369 451.639 204.038 450.967 203.375C450.304 202.703 449.972 201.898 449.972 200.96C449.972 200.032 450.304 199.237 450.967 198.574C451.639 197.911 452.444 197.58 453.381 197.58C454.29 197.58 455.086 197.911 455.768 198.574C456.45 199.237 456.79 200.032 456.79 200.96C456.79 201.585 456.629 202.158 456.308 202.679C455.995 203.19 455.583 203.602 455.072 203.915C454.56 204.218 453.997 204.369 453.381 204.369Z" fill="#7678FF"/>
</svg>
